M48
;Layer_Color=9474304
;FILE_FORMAT=4:4
METRIC,LZ
;TYPE=PLATED
T01F00S00C0.3000
T02F00S00C0.3000
T03F00S00C2.2000
T04F00S00C2.5000
;TYPE=NON_PLATED
T05F00S00C0.3000
%
T01
X005Y0017
Y0018
X00517Y00228
X00551Y00158
X00611Y0015
X00656Y0017
Y0018
X00666
Y0017
X00717Y00158
X00777Y0015
X00822Y0017
Y0018
X00832
Y0017
X00883Y00158
X00849Y00228
X00832Y00336
Y00346
X00822
Y00336
X00777Y00316
X00717Y00324
X00666Y00336
Y00346
X00656
Y00336
X00611Y00316
X00551Y00324
X005Y00336
Y00346
X00517Y00394
X00683
Y00228
X00883Y00324
X00849Y00394
X0049Y00346
Y00336
X00445Y00316
X00385Y00324
X00334Y00336
Y00346
X00324
Y00336
X00279Y00316
X00219Y00324
X00168Y00336
Y00346
X00158
Y00336
X00113Y00316
X00185Y00394
Y00228
X00168Y0018
Y0017
X00158
Y0018
X00113Y0015
X00219Y00158
X00279Y0015
X00324Y0017
Y0018
X00334
Y0017
X00385Y00158
X00445Y0015
X0049Y0017
Y0018
X00351Y00228
Y00394
X00334Y00502
Y00512
X00324
Y00502
X00279Y00482
X00219Y0049
X00168Y00502
Y00512
X00158
Y00502
X00113Y00482
X00185Y0056
X00168Y00668
Y00678
X00158
Y00668
X00113Y00648
X00219Y00656
X00279Y00648
X00324Y00668
Y00678
X00334
Y00668
X00385Y00656
X00445Y00648
X0049Y00668
Y00678
Y00834
Y00844
X00445Y00814
X00385Y00822
X00334Y00834
Y00844
X00324
Y00834
X00279Y00814
X00219Y00822
X00168Y00834
Y00844
X00158
Y00834
X00113Y00814
X00185Y00726
X00351
Y0056
X00385Y0049
X00445Y00482
X0049Y00502
Y00512
X005
Y00502
X00551Y0049
X00611Y00482
X00656Y00502
Y00512
X00666
Y00502
X00717Y0049
X00777Y00482
X00822Y00502
Y00512
X00832
Y00502
X00883Y0049
X00849Y0056
X00832Y00668
Y00678
X00822
Y00668
X00777Y00648
X00717Y00656
X00666Y00668
Y00678
X00656
Y00668
X00611Y00648
X00551Y00656
X005Y00668
Y00678
X00517Y00726
X005Y00834
Y00844
X00551Y00822
X00611Y00814
X00656Y00834
Y00844
X00666
Y00834
X00717Y00822
X00777Y00814
X00822Y00834
Y00844
X00832
Y00834
X00883Y00822
X00849Y00726
X00883Y00656
X00683Y00726
Y0056
X00517
Y00892
X00683
X00849
X00351
X00185
T02
X00892Y00158
Y00324
X00863Y00328
X00856146Y00335854
X00851Y00341
X00852Y0035
X00864Y00354
X00861081Y00368799
X00842Y003598
X00825Y00365
X00845Y00381
X00849Y00401
X00847235Y00328765
X00844Y00315
X00846Y00307
X00816717Y0030042
X0081Y00302
X00805Y0031
X00803537Y00335704
X0080349Y00346265
X00797Y00356
X00777Y00325
X00726Y00324
X00697Y00328
X00690146Y00335854
X00685Y00341
X00686Y0035
X00698Y00354
X00695081Y00368799
X00676Y003598
X00659Y00365
X00679Y00381
X00683Y00401
X00681235Y00328765
X00678Y00315
X0068Y00307
X00650716Y0030042
X00644Y00302
X00639Y0031
X00637537Y00335704
X0063749Y00346265
X00631Y00356
X00611Y00325
X0056Y00324
X00531Y00328
X00524146Y00335854
X00519Y00341
X0052Y0035
X00532Y00354
X00529081Y00368799
X0051Y003598
X00513Y00381
X00517Y00401
X00515235Y00328765
X00512Y00315
X00514Y00307
X00517Y00235
X00513Y00215
X0051Y001938
X0052Y00184
X00519Y00175
X00524146Y00169854
X00531Y00162
X00515235Y00162765
X00512Y00149
X00514Y00141
X0056Y00158
X00611Y00159
X00637537Y00169704
X0063749Y00180265
X00631Y0019
X00659Y00199
X00676Y001938
X00686Y00184
X00685Y00175
X00690146Y00169854
X00697Y00162
X00681235Y00162765
X00678Y00149
X0068Y00141
X00650716Y0013442
X00644Y00136
X00639Y00144
X0065Y00116
X00726Y00158
X00777Y00159
X00803537Y00169704
X0080349Y00180265
X00797Y0019
X00825Y00199
X00842Y001938
X00852Y00184
X00851Y00175
X00856146Y00169854
X00863Y00162
X00847235Y00162765
X00844Y00149
X00846Y00141
X00816717Y0013442
X0081Y00136
X00805Y00144
X00816Y00116
X00864Y00188
X00861081Y00202799
X00845Y00215
X00849Y00235
X00816Y00282
X0065
X00683Y00235
X00679Y00215
X00695081Y00202799
X00698Y00188
X00532
X00529081Y00202799
X0065Y00448
X00650716Y0046642
X00644Y00468
X0081
X00816717Y0046642
X00816Y00448
X00484
X00484716Y0046642
X00478Y00468
X00493Y00365
X00465Y00356
X0047149Y00346265
X00471537Y00335704
X00473Y0031
X00478Y00302
X00484716Y0030042
X00484Y00282
X00445Y00325
X00394Y00324
X00365Y00328
X00358146Y00335854
X00353Y00341
X00354Y0035
X00366Y00354
X00363081Y00368799
X00344Y003598
X00327Y00365
X00347Y00381
X00351Y00401
X00349235Y00328765
X00346Y00315
X00348Y00307
X00318717Y0030042
X00312Y00302
X00307Y0031
X00305537Y00335704
X0030549Y00346265
X00299Y00356
X00279Y00325
X00228Y00324
X00199Y00328
X00192146Y00335854
X00187Y00341
X00188Y0035
X002Y00354
X00197081Y00368799
X00178Y003598
X00161Y00365
X00181Y00381
X00185Y00401
X00183235Y00328765
X0018Y00315
X00182Y00307
X00152717Y0030042
X00146Y00302
X00141Y0031
X00139537Y00335704
X0013949Y00346265
X00133Y00356
X00113Y00325
X00152Y00282
X00185Y00235
X00181Y00215
X00178Y001938
X00188Y00184
X00187Y00175
X00192146Y00169854
X00199Y00162
X00183235Y00162765
X0018Y00149
X00182Y00141
X00152717Y0013442
X00146Y00136
X00141Y00144
X00139537Y00169704
X0013949Y00180265
X00133Y0019
X00161Y00199
X00197081Y00202799
X002Y00188
X00228Y00158
X00279Y00159
X00305537Y00169704
X0030549Y00180265
X00299Y0019
X00327Y00199
X00344Y001938
X00354Y00184
X00353Y00175
X00358146Y00169854
X00365Y00162
X00349235Y00162765
X00346Y00149
X00348Y00141
X00318717Y0013442
X00312Y00136
X00307Y00144
X00318Y00116
X00394Y00158
X00445Y00159
X00471537Y00169704
X0047149Y00180265
X00465Y0019
X00493Y00199
X00484716Y0013442
X00478Y00136
X00473Y00144
X00484Y00116
X00366Y00188
X00363081Y00202799
X00347Y00215
X00351Y00235
X00318Y00282
Y00448
X00318717Y0046642
X00312Y00468
X00152717Y0046642
X00146Y00468
X00152Y00448
X00113Y00159
X00152Y00116
X00141Y00476
X00139537Y00501703
X0013949Y00512265
X00133Y00522
X00161Y00531
X00178Y005258
X00188Y00516
X00187Y00507
X00192146Y00501854
X00199Y00494
X00183235Y00494765
X0018Y00481
X00182Y00473
X00228Y0049
X00279Y00491
X00305537Y00501703
X0030549Y00512265
X00299Y00522
X00327Y00531
X00344Y005258
X00354Y00516
X00353Y00507
X00358146Y00501854
X00365Y00494
X00349235Y00494765
X00346Y00481
X00348Y00473
X00307Y00476
X00394Y0049
X00445Y00491
X00471537Y00501703
X0047149Y00512265
X00465Y00522
X00493Y00531
X00473Y00476
X00484Y00614
X00484716Y0063242
X00478Y00634
X00473Y00642
X00471537Y00667703
X0047149Y00678265
X00465Y00688
X00493Y00697
X00445Y00657
X00394Y00656
X00365Y0066
X00358146Y00667854
X00353Y00673
X00354Y00682
X00366Y00686
X00363081Y00700799
X00344Y006918
X00327Y00697
X00347Y00713
X00351Y00733
X00349235Y00660765
X00346Y00647
X00348Y00639
X00318717Y0063242
X00312Y00634
X00307Y00642
X00305537Y00667703
X0030549Y00678265
X00299Y00688
X00279Y00657
X00228Y00656
X00199Y0066
X00192146Y00667854
X00187Y00673
X00188Y00682
X002Y00686
X00197081Y00700799
X00178Y006918
X00161Y00697
X00181Y00713
X00185Y00733
X00183235Y00660765
X0018Y00647
X00182Y00639
X00152717Y0063242
X00146Y00634
X00141Y00642
X00139537Y00667703
X0013949Y00678265
X00133Y00688
X00113Y00657
X00152Y00614
X00185Y00567
X00181Y00547
X00197081Y00534799
X002Y0052
X00113Y00491
X00366Y0052
X00363081Y00534799
X00347Y00547
X00351Y00567
X00318Y00614
Y0078
X00318717Y0079842
X00312Y008
X00307Y00808
X00305537Y00833704
X0030549Y00844265
X00299Y00854
X00327Y00863
X00344Y008578
X00354Y00848
X00353Y00839
X00358146Y00833854
X00365Y00826
X00349235Y00826765
X00346Y00813
X00348Y00805
X00394Y00822
X00445Y00823
X00471537Y00833704
X0047149Y00844265
X00465Y00854
X00493Y00863
X00484716Y0079842
X00478Y008
X00473Y00808
X00484Y0078
X00366Y00852
X00279Y00823
X00228Y00822
X00199Y00826
X00192146Y00833854
X00187Y00839
X00188Y00848
X002Y00852
X00178Y008578
X00161Y00863
X00133Y00854
X0013949Y00844265
X00139537Y00833704
X00141Y00808
X00146Y008
X00152717Y0079842
X00152Y0078
X00182Y00805
X0018Y00813
X00183235Y00826765
X00113Y00823
X00515235Y00826765
X00524146Y00833854
X00519Y00839
X0052Y00848
X00532Y00852
X00531Y00826
X00512Y00813
X00514Y00805
X0051Y008578
X0056Y00822
X00611Y00823
X00637537Y00833704
X0063749Y00844265
X00631Y00854
X00659Y00863
X00676Y008578
X00686Y00848
X00685Y00839
X00690146Y00833854
X00697Y00826
X00681235Y00826765
X00678Y00813
X0068Y00805
X00650716Y0079842
X00644Y008
X00639Y00808
X0065Y0078
X00683Y00733
X00679Y00713
X00676Y006918
X00686Y00682
X00685Y00673
X00690146Y00667854
X00697Y0066
X00681235Y00660765
X00678Y00647
X0068Y00639
X00650716Y0063242
X00644Y00634
X00639Y00642
X00637537Y00667703
X0063749Y00678265
X00631Y00688
X00659Y00697
X00695081Y00700799
X00698Y00686
X00726Y00656
X00777Y00657
X00803537Y00667703
X0080349Y00678265
X00797Y00688
X00825Y00697
X00842Y006918
X00852Y00682
X00851Y00673
X00856146Y00667854
X00863Y0066
X00847235Y00660765
X00844Y00647
X00846Y00639
X00816717Y0063242
X0081Y00634
X00805Y00642
X00816Y00614
X00849Y00567
X00845Y00547
X00842Y005258
X00852Y00516
X00851Y00507
X00856146Y00501854
X00863Y00494
X00847235Y00494765
X00844Y00481
X00846Y00473
X00805Y00476
X00803537Y00501703
X0080349Y00512265
X00797Y00522
X00825Y00531
X00861081Y00534799
X00864Y0052
X00777Y00491
X00726Y0049
X00697Y00494
X00690146Y00501854
X00685Y00507
X00686Y00516
X00698Y0052
X00695081Y00534799
X00676Y005258
X00659Y00531
X00679Y00547
X00683Y00567
X00681235Y00494765
X00678Y00481
X0068Y00473
X00639Y00476
X00637537Y00501703
X0063749Y00512265
X00631Y00522
X00611Y00491
X0056Y0049
X00531Y00494
X00524146Y00501854
X00519Y00507
X0052Y00516
X00532Y0052
X00529081Y00534799
X0051Y005258
X00513Y00547
X00517Y00567
X00515235Y00494765
X00512Y00481
X00514Y00473
Y00639
X00512Y00647
X00515235Y00660765
X00524146Y00667854
X00519Y00673
X0052Y00682
X00532Y00686
X00529081Y00700799
X0051Y006918
X00513Y00713
X00517Y00733
X00531Y0066
X0056Y00656
X00611Y00657
X0065Y00614
X00726Y00822
X00777Y00823
X00803537Y00833704
X0080349Y00844265
X00797Y00854
X00825Y00863
X00842Y008578
X00852Y00848
X00851Y00839
X00856146Y00833854
X00863Y00826
X00847235Y00826765
X00844Y00813
X00846Y00805
X00816717Y0079842
X0081Y008
X00805Y00808
X00816Y0078
X00849Y00733
X00845Y00713
X00861081Y00700799
X00864Y00686
Y00852
X00698
X00892Y00822
Y00656
Y0049
X00861081Y00866799
X00845Y00879
X00849Y00899
X00683
X00679Y00879
X00695081Y00866799
X00529081
X00513Y00879
X00517Y00899
X00351
X00347Y00879
X00363081Y00866799
X00197081
X00181Y00879
X00185Y00899
T03
X0055Y00125
X00616
Y00225
X0055
Y00291
X00616
Y00391
X0055
Y00457
X00616
X00716
Y00391
X00782
Y00457
X00882
Y00391
Y00291
Y00225
X00782
X00716
Y00291
X00782
Y00125
X00716
X00882
X0045
X00384
Y00225
X0045
Y00291
X00384
Y00391
X0045
Y00457
X00384
X00284
Y00391
X00218
Y00457
X00118
Y00391
Y00291
Y00225
X00218
X00284
Y00291
X00218
Y00125
X00284
X00118
Y00557
Y00623
Y00723
Y00789
X00218
Y00723
X00284
Y00789
X00384
Y00723
X0045
Y00789
Y00623
Y00557
X00384
Y00623
X00284
Y00557
X00218
Y00623
X0055
Y00557
X00616
Y00623
Y00723
X0055
Y00789
X00616
X00716
Y00723
X00782
Y00789
X00882
Y00723
Y00623
Y00557
X00782
X00716
Y00623
X00782
Y00889
X00716
X00616
X0055
X00882
X0045
X00384
X00284
X00218
X00118
T04
X0003Y0003
X0097
Y0097
X0003
T05
X00907Y00166
Y00172
Y00178
Y00184
Y00332
Y00338
Y00344
Y0035
X00841Y00416
X00835
X00829
X00823
X00823Y00432
X00829
X00835
X00841
X00757Y0035
Y00344
Y00338
Y00332
X00741Y00332
Y00338
Y00344
Y0035
X00675Y00416
X00669
X00663
X00657
X00657Y00432
X00663
X00669
X00675
X00591Y0035
Y00344
Y00338
Y00332
X00575Y00332
Y00338
Y00344
Y0035
X00509Y00416
X00503
X00497
X00497Y00432
X00503
X00509
Y00266
X00503
X00497
X00497Y0025
X00503
X00509
X00575Y00184
Y00178
Y00172
Y00166
X00591Y00166
Y00172
Y00178
Y00184
X00657Y0025
X00663
X00669
X00675
X00675Y00266
X00669
X00663
X00657
Y001
X00663
X00669
X00675
X00741Y00166
Y00172
Y00178
Y00184
X00757Y00184
Y00178
Y00172
Y00166
X00823Y001
X00829
X00835
X00841
X00841Y0025
X00835
X00829
X00823
X00823Y00266
X00829
X00835
X00841
X00509Y001
X00503
X00497
X00491
X00425Y00166
Y00172
Y00178
Y00184
X00409Y00184
Y00178
Y00172
Y00166
X00343Y001
X00337
X00331
X00325
X00259Y00166
Y00172
Y00178
Y00184
X00243Y00184
Y00178
Y00172
Y00166
X00177Y001
X00171
X00165
X00159
X00159Y0025
X00165
X00171
X00177
X00177Y00266
X00171
X00165
X00159
X00243Y00332
Y00338
Y00344
Y0035
X00259Y0035
Y00344
Y00338
Y00332
X00325Y00266
X00331
X00337
X00343
X00343Y0025
X00337
X00331
X00325
X00409Y00332
Y00338
Y00344
Y0035
X00425Y0035
Y00344
Y00338
Y00332
X00491Y00266
X00491Y0025
Y00416
X00491Y00432
X00343
X00337
X00331
X00325
X00325Y00416
X00331
X00337
X00343
X00177
X00171
X00165
X00159
X00159Y00432
X00165
X00171
X00177
X00093Y0035
Y00344
Y00338
Y00332
Y00184
Y00178
Y00172
Y00166
Y00498
Y00504
Y0051
Y00516
Y00664
Y0067
Y00676
Y00682
Y0083
Y00836
Y00842
Y00848
X00159Y00764
X00165
X00171
X00177
X00177Y00748
X00171
X00165
X00159
X00243Y00682
Y00676
Y0067
Y00664
X00259Y00664
Y0067
Y00676
Y00682
X00325Y00748
X00331
X00337
X00343
X00343Y00764
X00337
X00331
X00325
X00259Y0083
Y00836
Y00842
Y00848
X00243Y00848
Y00842
Y00836
Y0083
X00409
Y00836
Y00842
Y00848
X00425Y00848
Y00842
Y00836
Y0083
X00491Y00764
X00491Y00748
X00425Y00682
Y00676
Y0067
Y00664
X00409Y00664
Y0067
Y00676
Y00682
X00343Y00598
X00337
X00331
X00325
X00325Y00582
X00331
X00337
X00343
X00409Y00516
Y0051
Y00504
Y00498
X00425Y00498
Y00504
Y0051
Y00516
X00491Y00582
X00491Y00598
X00259Y00516
Y0051
Y00504
Y00498
X00243Y00498
Y00504
Y0051
Y00516
X00177Y00582
X00171
X00165
X00159
X00159Y00598
X00165
X00171
X00177
X00497
X00503
X00509
X00509Y00582
X00503
X00497
X00575Y00516
Y0051
Y00504
Y00498
X00591Y00498
Y00504
Y0051
Y00516
X00657Y00582
X00663
X00669
X00675
X00675Y00598
X00669
X00663
X00657
X00591Y00664
Y0067
Y00676
Y00682
X00575Y00682
Y00676
Y0067
Y00664
X00509Y00748
X00503
X00497
X00497Y00764
X00503
X00509
X00575Y0083
Y00836
Y00842
Y00848
X00591Y00848
Y00842
Y00836
Y0083
X00657Y00764
X00663
X00669
X00675
X00675Y00748
X00669
X00663
X00657
X00741Y00682
Y00676
Y0067
Y00664
X00757Y00664
Y0067
Y00676
Y00682
X00823Y00748
X00829
X00835
X00841
X00841Y00764
X00835
X00829
X00823
X00757Y0083
Y00836
Y00842
Y00848
X00741Y00848
Y00842
Y00836
Y0083
X00823Y00598
X00829
X00835
X00841
X00841Y00582
X00835
X00829
X00823
X00757Y00516
Y0051
Y00504
Y00498
X00741Y00498
Y00504
Y0051
Y00516
X00907
Y0051
Y00504
Y00498
Y00664
Y0067
Y00676
Y00682
Y0083
Y00836
Y00842
Y00848
X00841Y00914
X00835
X00829
X00823
X00675
X00669
X00663
X00657
X00509
X00503
X00497
X00491
X00343
X00337
X00331
X00325
X00177
X00171
X00165
X00159
M30
