G04*
G04 #@! TF.GenerationSoftware,Altium Limited,Altium Designer,23.11.1 (41)*
G04*
G04 Layer_Color=255*
%FSLAX44Y44*%
%MOMM*%
G71*
G04*
G04 #@! TF.SameCoordinates,3482151D-E3A4-470A-A98F-003E0BE399C6*
G04*
G04*
G04 #@! TF.FilePolarity,Positive*
G04*
G01*
G75*
%ADD22C,3.3000*%
%ADD25C,1.5000*%
D22*
X218000Y225000D02*
D03*
X118000D02*
D03*
X218000Y125000D02*
D03*
X118000D02*
D03*
X384000Y225000D02*
D03*
X284000D02*
D03*
X384000Y125000D02*
D03*
X284000D02*
D03*
X550000Y225000D02*
D03*
X450000D02*
D03*
X550000Y125000D02*
D03*
X450000D02*
D03*
X716000Y225000D02*
D03*
X616000D02*
D03*
X716000Y125000D02*
D03*
X616000D02*
D03*
X882000Y225000D02*
D03*
X782000D02*
D03*
X882000Y125000D02*
D03*
X782000D02*
D03*
X218000Y391000D02*
D03*
X118000D02*
D03*
X218000Y291000D02*
D03*
X118000D02*
D03*
X384000Y391000D02*
D03*
X284000D02*
D03*
X384000Y291000D02*
D03*
X284000D02*
D03*
X550000Y391000D02*
D03*
X450000D02*
D03*
X550000Y291000D02*
D03*
X450000D02*
D03*
X716000Y391000D02*
D03*
X616000D02*
D03*
X716000Y291000D02*
D03*
X616000D02*
D03*
X882000Y391000D02*
D03*
X782000D02*
D03*
X882000Y291000D02*
D03*
X782000D02*
D03*
X218000Y557000D02*
D03*
X118000D02*
D03*
X218000Y457000D02*
D03*
X118000D02*
D03*
X384000Y557000D02*
D03*
X284000D02*
D03*
X384000Y457000D02*
D03*
X284000D02*
D03*
X550000Y557000D02*
D03*
X450000D02*
D03*
X550000Y457000D02*
D03*
X450000D02*
D03*
X716000Y557000D02*
D03*
X616000D02*
D03*
X716000Y457000D02*
D03*
X616000D02*
D03*
X882000Y557000D02*
D03*
X782000D02*
D03*
X882000Y457000D02*
D03*
X782000D02*
D03*
X218000Y723000D02*
D03*
X118000D02*
D03*
X218000Y623000D02*
D03*
X118000D02*
D03*
X384000Y723000D02*
D03*
X284000D02*
D03*
X384000Y623000D02*
D03*
X284000D02*
D03*
X550000Y723000D02*
D03*
X450000D02*
D03*
X550000Y623000D02*
D03*
X450000D02*
D03*
X716000Y723000D02*
D03*
X616000D02*
D03*
X716000Y623000D02*
D03*
X616000D02*
D03*
X882000Y723000D02*
D03*
X782000D02*
D03*
X882000Y623000D02*
D03*
X782000D02*
D03*
X218000Y889000D02*
D03*
X118000D02*
D03*
X218000Y789000D02*
D03*
X118000D02*
D03*
X384000Y889000D02*
D03*
X284000D02*
D03*
X384000Y789000D02*
D03*
X284000D02*
D03*
X550000Y889000D02*
D03*
X450000D02*
D03*
X550000Y789000D02*
D03*
X450000D02*
D03*
X716000Y889000D02*
D03*
X616000D02*
D03*
X716000Y789000D02*
D03*
X616000D02*
D03*
X882000Y889000D02*
D03*
X782000D02*
D03*
X882000Y789000D02*
D03*
X782000D02*
D03*
D25*
X133000Y160000D02*
D03*
Y190000D02*
D03*
X163000Y140000D02*
D03*
X299000Y160000D02*
D03*
Y190000D02*
D03*
X329000Y140000D02*
D03*
X465000Y160000D02*
D03*
Y190000D02*
D03*
X495000Y140000D02*
D03*
X631000Y160000D02*
D03*
Y190000D02*
D03*
X661000Y140000D02*
D03*
X797000Y160000D02*
D03*
Y190000D02*
D03*
X827000Y140000D02*
D03*
X133000Y326000D02*
D03*
Y356000D02*
D03*
X163000Y306000D02*
D03*
X299000Y326000D02*
D03*
Y356000D02*
D03*
X329000Y306000D02*
D03*
X465000Y326000D02*
D03*
Y356000D02*
D03*
X495000Y306000D02*
D03*
X631000Y326000D02*
D03*
Y356000D02*
D03*
X661000Y306000D02*
D03*
X797000Y326000D02*
D03*
Y356000D02*
D03*
X827000Y306000D02*
D03*
X133000Y492000D02*
D03*
Y522000D02*
D03*
X163000Y472000D02*
D03*
X299000Y492000D02*
D03*
Y522000D02*
D03*
X329000Y472000D02*
D03*
X465000Y492000D02*
D03*
Y522000D02*
D03*
X495000Y472000D02*
D03*
X631000Y492000D02*
D03*
Y522000D02*
D03*
X661000Y472000D02*
D03*
X797000Y492000D02*
D03*
Y522000D02*
D03*
X827000Y472000D02*
D03*
X133000Y658000D02*
D03*
Y688000D02*
D03*
X163000Y638000D02*
D03*
X299000Y658000D02*
D03*
Y688000D02*
D03*
X329000Y638000D02*
D03*
X465000Y658000D02*
D03*
Y688000D02*
D03*
X495000Y638000D02*
D03*
X631000Y658000D02*
D03*
Y688000D02*
D03*
X661000Y638000D02*
D03*
X797000Y658000D02*
D03*
Y688000D02*
D03*
X827000Y638000D02*
D03*
X133000Y824000D02*
D03*
Y854000D02*
D03*
X163000Y804000D02*
D03*
X299000Y824000D02*
D03*
Y854000D02*
D03*
X329000Y804000D02*
D03*
X465000Y824000D02*
D03*
Y854000D02*
D03*
X495000Y804000D02*
D03*
X631000Y824000D02*
D03*
Y854000D02*
D03*
X661000Y804000D02*
D03*
X797000Y824000D02*
D03*
Y854000D02*
D03*
X827000Y804000D02*
D03*
M02*
