G04*
G04 #@! TF.GenerationSoftware,Altium Limited,Altium Designer,23.11.1 (41)*
G04*
G04 Layer_Color=16711935*
%FSLAX44Y44*%
%MOMM*%
G71*
G04*
G04 #@! TF.SameCoordinates,3482151D-E3A4-470A-A98F-003E0BE399C6*
G04*
G04*
G04 #@! TF.FilePolarity,Negative*
G04*
G01*
G75*
%ADD29R,37.5000X5.4000*%
%ADD40C,0.1000*%
%ADD41C,3.4000*%
%ADD42C,1.6000*%
G36*
X889009Y913024D02*
X893631Y911109D01*
X897792Y908329D01*
X901329Y904791D01*
X904109Y900631D01*
X906024Y896009D01*
X907000Y891102D01*
Y888600D01*
Y864000D01*
X897000D01*
X857000Y904000D01*
Y914000D01*
X884102D01*
X889009Y913024D01*
D02*
G37*
G36*
X807000Y904000D02*
X767000Y864000D01*
X757000D01*
Y888600D01*
Y891102D01*
X757976Y896009D01*
X759891Y900631D01*
X762671Y904791D01*
X766208Y908329D01*
X770369Y911109D01*
X774991Y913024D01*
X779898Y914000D01*
X807000D01*
Y904000D01*
D02*
G37*
G36*
X723009Y913024D02*
X727631Y911109D01*
X731792Y908329D01*
X735329Y904791D01*
X738109Y900631D01*
X740024Y896009D01*
X741000Y891102D01*
Y888600D01*
Y864000D01*
X731000D01*
X691000Y904000D01*
Y914000D01*
X718102D01*
X723009Y913024D01*
D02*
G37*
G36*
X641000Y904000D02*
X601000Y864000D01*
X591000D01*
Y888600D01*
Y891102D01*
X591976Y896009D01*
X593891Y900631D01*
X596670Y904791D01*
X600208Y908329D01*
X604369Y911109D01*
X608991Y913024D01*
X613898Y914000D01*
X641000D01*
Y904000D01*
D02*
G37*
G36*
X557009Y913024D02*
X561631Y911109D01*
X565792Y908329D01*
X569329Y904791D01*
X572109Y900631D01*
X574024Y896009D01*
X575000Y891102D01*
Y888600D01*
Y864000D01*
X565000D01*
X525000Y904000D01*
Y914000D01*
X552102D01*
X557009Y913024D01*
D02*
G37*
G36*
X475000Y904000D02*
X435000Y864000D01*
X425000D01*
Y888600D01*
Y891102D01*
X425976Y896009D01*
X427891Y900631D01*
X430671Y904791D01*
X434208Y908329D01*
X438369Y911109D01*
X442991Y913024D01*
X447898Y914000D01*
X475000D01*
Y904000D01*
D02*
G37*
G36*
X391009Y913024D02*
X395631Y911109D01*
X399791Y908329D01*
X403329Y904791D01*
X406109Y900631D01*
X408024Y896009D01*
X409000Y891102D01*
Y888600D01*
Y864000D01*
X399000D01*
X359000Y904000D01*
Y914000D01*
X386102D01*
X391009Y913024D01*
D02*
G37*
G36*
X309000Y904000D02*
X269000Y864000D01*
X259000D01*
Y888600D01*
Y891102D01*
X259976Y896009D01*
X261891Y900631D01*
X264671Y904791D01*
X268208Y908329D01*
X272369Y911109D01*
X276991Y913024D01*
X281898Y914000D01*
X309000D01*
Y904000D01*
D02*
G37*
G36*
X225009Y913024D02*
X229631Y911109D01*
X233792Y908329D01*
X237329Y904791D01*
X240109Y900631D01*
X242024Y896009D01*
X243000Y891102D01*
Y888600D01*
Y864000D01*
X233000D01*
X193000Y904000D01*
Y914000D01*
X220102D01*
X225009Y913024D01*
D02*
G37*
G36*
X143000Y904000D02*
X103000Y864000D01*
X93000D01*
Y888600D01*
Y891102D01*
X93976Y896009D01*
X95891Y900631D01*
X98671Y904791D01*
X102208Y908329D01*
X106369Y911109D01*
X110991Y913024D01*
X115898Y914000D01*
X143000D01*
Y904000D01*
D02*
G37*
G36*
X907000Y789400D02*
Y786898D01*
X906024Y781991D01*
X904109Y777369D01*
X901329Y773208D01*
X897792Y769670D01*
X893631Y766891D01*
X889009Y764976D01*
X884102Y764000D01*
X857000D01*
Y774000D01*
X897000Y814000D01*
X907000D01*
Y789400D01*
D02*
G37*
G36*
X807000Y774000D02*
Y764000D01*
X779898D01*
X774991Y764976D01*
X770369Y766891D01*
X766208Y769670D01*
X762671Y773208D01*
X759891Y777369D01*
X757976Y781991D01*
X757000Y786898D01*
Y789400D01*
Y814000D01*
X767000D01*
X807000Y774000D01*
D02*
G37*
G36*
X741000Y789400D02*
Y786898D01*
X740024Y781991D01*
X738109Y777369D01*
X735329Y773208D01*
X731792Y769670D01*
X727631Y766891D01*
X723009Y764976D01*
X718102Y764000D01*
X691000D01*
Y774000D01*
X731000Y814000D01*
X741000D01*
Y789400D01*
D02*
G37*
G36*
X641000Y774000D02*
Y764000D01*
X613898D01*
X608991Y764976D01*
X604369Y766891D01*
X600208Y769670D01*
X596670Y773208D01*
X593891Y777369D01*
X591976Y781991D01*
X591000Y786898D01*
Y789400D01*
Y814000D01*
X601000D01*
X641000Y774000D01*
D02*
G37*
G36*
X575000Y789400D02*
Y786898D01*
X574024Y781991D01*
X572109Y777369D01*
X569329Y773208D01*
X565792Y769670D01*
X561631Y766891D01*
X557009Y764976D01*
X552102Y764000D01*
X525000D01*
Y774000D01*
X565000Y814000D01*
X575000D01*
Y789400D01*
D02*
G37*
G36*
X475000Y774000D02*
Y764000D01*
X447898D01*
X442991Y764976D01*
X438369Y766891D01*
X434208Y769670D01*
X430671Y773208D01*
X427891Y777369D01*
X425976Y781991D01*
X425000Y786898D01*
Y789400D01*
Y814000D01*
X435000D01*
X475000Y774000D01*
D02*
G37*
G36*
X409000Y789400D02*
Y786898D01*
X408024Y781991D01*
X406109Y777369D01*
X403329Y773208D01*
X399791Y769670D01*
X395631Y766891D01*
X391009Y764976D01*
X386102Y764000D01*
X359000D01*
Y774000D01*
X399000Y814000D01*
X409000D01*
Y789400D01*
D02*
G37*
G36*
X309000Y774000D02*
Y764000D01*
X281898D01*
X276991Y764976D01*
X272369Y766891D01*
X268208Y769670D01*
X264671Y773208D01*
X261891Y777369D01*
X259976Y781991D01*
X259000Y786898D01*
Y789400D01*
Y814000D01*
X269000D01*
X309000Y774000D01*
D02*
G37*
G36*
X243000Y789400D02*
Y786898D01*
X242024Y781991D01*
X240109Y777369D01*
X237329Y773208D01*
X233792Y769670D01*
X229631Y766891D01*
X225009Y764976D01*
X220102Y764000D01*
X193000D01*
Y774000D01*
X233000Y814000D01*
X243000D01*
Y789400D01*
D02*
G37*
G36*
X143000Y774000D02*
Y764000D01*
X115898D01*
X110991Y764976D01*
X106369Y766891D01*
X102208Y769670D01*
X98671Y773208D01*
X95891Y777369D01*
X93976Y781991D01*
X93000Y786898D01*
Y789400D01*
Y814000D01*
X103000D01*
X143000Y774000D01*
D02*
G37*
G36*
X889009Y747024D02*
X893631Y745109D01*
X897792Y742329D01*
X901329Y738792D01*
X904109Y734631D01*
X906024Y730009D01*
X907000Y725102D01*
Y722600D01*
Y698000D01*
X897000D01*
X857000Y738000D01*
Y748000D01*
X884102D01*
X889009Y747024D01*
D02*
G37*
G36*
X807000Y738000D02*
X767000Y698000D01*
X757000D01*
Y722600D01*
Y725102D01*
X757976Y730009D01*
X759891Y734631D01*
X762671Y738792D01*
X766208Y742329D01*
X770369Y745109D01*
X774991Y747024D01*
X779898Y748000D01*
X807000D01*
Y738000D01*
D02*
G37*
G36*
X723009Y747024D02*
X727631Y745109D01*
X731792Y742329D01*
X735329Y738792D01*
X738109Y734631D01*
X740024Y730009D01*
X741000Y725102D01*
Y722600D01*
Y698000D01*
X731000D01*
X691000Y738000D01*
Y748000D01*
X718102D01*
X723009Y747024D01*
D02*
G37*
G36*
X641000Y738000D02*
X601000Y698000D01*
X591000D01*
Y722600D01*
Y725102D01*
X591976Y730009D01*
X593891Y734631D01*
X596670Y738792D01*
X600208Y742329D01*
X604369Y745109D01*
X608991Y747024D01*
X613898Y748000D01*
X641000D01*
Y738000D01*
D02*
G37*
G36*
X557009Y747024D02*
X561631Y745109D01*
X565792Y742329D01*
X569329Y738792D01*
X572109Y734631D01*
X574024Y730009D01*
X575000Y725102D01*
Y722600D01*
Y698000D01*
X565000D01*
X525000Y738000D01*
Y748000D01*
X552102D01*
X557009Y747024D01*
D02*
G37*
G36*
X475000Y738000D02*
X435000Y698000D01*
X425000D01*
Y722600D01*
Y725102D01*
X425976Y730009D01*
X427891Y734631D01*
X430671Y738792D01*
X434208Y742329D01*
X438369Y745109D01*
X442991Y747024D01*
X447898Y748000D01*
X475000D01*
Y738000D01*
D02*
G37*
G36*
X391009Y747024D02*
X395631Y745109D01*
X399791Y742329D01*
X403329Y738792D01*
X406109Y734631D01*
X408024Y730009D01*
X409000Y725102D01*
Y722600D01*
Y698000D01*
X399000D01*
X359000Y738000D01*
Y748000D01*
X386102D01*
X391009Y747024D01*
D02*
G37*
G36*
X309000Y738000D02*
X269000Y698000D01*
X259000D01*
Y722600D01*
Y725102D01*
X259976Y730009D01*
X261891Y734631D01*
X264671Y738792D01*
X268208Y742329D01*
X272369Y745109D01*
X276991Y747024D01*
X281898Y748000D01*
X309000D01*
Y738000D01*
D02*
G37*
G36*
X225009Y747024D02*
X229631Y745109D01*
X233792Y742329D01*
X237329Y738792D01*
X240109Y734631D01*
X242024Y730009D01*
X243000Y725102D01*
Y722600D01*
Y698000D01*
X233000D01*
X193000Y738000D01*
Y748000D01*
X220102D01*
X225009Y747024D01*
D02*
G37*
G36*
X143000Y738000D02*
X103000Y698000D01*
X93000D01*
Y722600D01*
Y725102D01*
X93976Y730009D01*
X95891Y734631D01*
X98671Y738792D01*
X102208Y742329D01*
X106369Y745109D01*
X110991Y747024D01*
X115898Y748000D01*
X143000D01*
Y738000D01*
D02*
G37*
G36*
X907000Y623400D02*
Y620898D01*
X906024Y615991D01*
X904109Y611369D01*
X901329Y607208D01*
X897792Y603671D01*
X893631Y600891D01*
X889009Y598976D01*
X884102Y598000D01*
X857000D01*
Y608000D01*
X897000Y648000D01*
X907000D01*
Y623400D01*
D02*
G37*
G36*
X807000Y608000D02*
Y598000D01*
X779898D01*
X774991Y598976D01*
X770369Y600891D01*
X766208Y603671D01*
X762671Y607208D01*
X759891Y611369D01*
X757976Y615991D01*
X757000Y620898D01*
Y623400D01*
Y648000D01*
X767000D01*
X807000Y608000D01*
D02*
G37*
G36*
X741000Y623400D02*
Y620898D01*
X740024Y615991D01*
X738109Y611369D01*
X735329Y607208D01*
X731792Y603671D01*
X727631Y600891D01*
X723009Y598976D01*
X718102Y598000D01*
X691000D01*
Y608000D01*
X731000Y648000D01*
X741000D01*
Y623400D01*
D02*
G37*
G36*
X641000Y608000D02*
Y598000D01*
X613898D01*
X608991Y598976D01*
X604369Y600891D01*
X600208Y603671D01*
X596670Y607208D01*
X593891Y611369D01*
X591976Y615991D01*
X591000Y620898D01*
Y623400D01*
Y648000D01*
X601000D01*
X641000Y608000D01*
D02*
G37*
G36*
X575000Y623400D02*
Y620898D01*
X574024Y615991D01*
X572109Y611369D01*
X569329Y607208D01*
X565792Y603671D01*
X561631Y600891D01*
X557009Y598976D01*
X552102Y598000D01*
X525000D01*
Y608000D01*
X565000Y648000D01*
X575000D01*
Y623400D01*
D02*
G37*
G36*
X475000Y608000D02*
Y598000D01*
X447898D01*
X442991Y598976D01*
X438369Y600891D01*
X434208Y603671D01*
X430671Y607208D01*
X427891Y611369D01*
X425976Y615991D01*
X425000Y620898D01*
Y623400D01*
Y648000D01*
X435000D01*
X475000Y608000D01*
D02*
G37*
G36*
X409000Y623400D02*
Y620898D01*
X408024Y615991D01*
X406109Y611369D01*
X403329Y607208D01*
X399791Y603671D01*
X395631Y600891D01*
X391009Y598976D01*
X386102Y598000D01*
X359000D01*
Y608000D01*
X399000Y648000D01*
X409000D01*
Y623400D01*
D02*
G37*
G36*
X309000Y608000D02*
Y598000D01*
X281898D01*
X276991Y598976D01*
X272369Y600891D01*
X268208Y603671D01*
X264671Y607208D01*
X261891Y611369D01*
X259976Y615991D01*
X259000Y620898D01*
Y623400D01*
Y648000D01*
X269000D01*
X309000Y608000D01*
D02*
G37*
G36*
X243000Y623400D02*
Y620898D01*
X242024Y615991D01*
X240109Y611369D01*
X237329Y607208D01*
X233792Y603671D01*
X229631Y600891D01*
X225009Y598976D01*
X220102Y598000D01*
X193000D01*
Y608000D01*
X233000Y648000D01*
X243000D01*
Y623400D01*
D02*
G37*
G36*
X143000Y608000D02*
Y598000D01*
X115898D01*
X110991Y598976D01*
X106369Y600891D01*
X102208Y603671D01*
X98671Y607208D01*
X95891Y611369D01*
X93976Y615991D01*
X93000Y620898D01*
Y623400D01*
Y648000D01*
X103000D01*
X143000Y608000D01*
D02*
G37*
G36*
X889009Y581024D02*
X893631Y579109D01*
X897792Y576329D01*
X901329Y572791D01*
X904109Y568631D01*
X906024Y564009D01*
X907000Y559102D01*
Y556600D01*
Y532000D01*
X897000D01*
X857000Y572000D01*
Y582000D01*
X884102D01*
X889009Y581024D01*
D02*
G37*
G36*
X807000Y572000D02*
X767000Y532000D01*
X757000D01*
Y556600D01*
Y559102D01*
X757976Y564009D01*
X759891Y568631D01*
X762671Y572791D01*
X766208Y576329D01*
X770369Y579109D01*
X774991Y581024D01*
X779898Y582000D01*
X807000D01*
Y572000D01*
D02*
G37*
G36*
X723009Y581024D02*
X727631Y579109D01*
X731792Y576329D01*
X735329Y572791D01*
X738109Y568631D01*
X740024Y564009D01*
X741000Y559102D01*
Y556600D01*
Y532000D01*
X731000D01*
X691000Y572000D01*
Y582000D01*
X718102D01*
X723009Y581024D01*
D02*
G37*
G36*
X641000Y572000D02*
X601000Y532000D01*
X591000D01*
Y556600D01*
Y559102D01*
X591976Y564009D01*
X593891Y568631D01*
X596670Y572791D01*
X600208Y576329D01*
X604369Y579109D01*
X608991Y581024D01*
X613898Y582000D01*
X641000D01*
Y572000D01*
D02*
G37*
G36*
X557009Y581024D02*
X561631Y579109D01*
X565792Y576329D01*
X569329Y572791D01*
X572109Y568631D01*
X574024Y564009D01*
X575000Y559102D01*
Y556600D01*
Y532000D01*
X565000D01*
X525000Y572000D01*
Y582000D01*
X552102D01*
X557009Y581024D01*
D02*
G37*
G36*
X475000Y572000D02*
X435000Y532000D01*
X425000D01*
Y556600D01*
Y559102D01*
X425976Y564009D01*
X427891Y568631D01*
X430671Y572791D01*
X434208Y576329D01*
X438369Y579109D01*
X442991Y581024D01*
X447898Y582000D01*
X475000D01*
Y572000D01*
D02*
G37*
G36*
X391009Y581024D02*
X395631Y579109D01*
X399791Y576329D01*
X403329Y572791D01*
X406109Y568631D01*
X408024Y564009D01*
X409000Y559102D01*
Y556600D01*
Y532000D01*
X399000D01*
X359000Y572000D01*
Y582000D01*
X386102D01*
X391009Y581024D01*
D02*
G37*
G36*
X309000Y572000D02*
X269000Y532000D01*
X259000D01*
Y556600D01*
Y559102D01*
X259976Y564009D01*
X261891Y568631D01*
X264671Y572791D01*
X268208Y576329D01*
X272369Y579109D01*
X276991Y581024D01*
X281898Y582000D01*
X309000D01*
Y572000D01*
D02*
G37*
G36*
X225009Y581024D02*
X229631Y579109D01*
X233792Y576329D01*
X237329Y572791D01*
X240109Y568631D01*
X242024Y564009D01*
X243000Y559102D01*
Y556600D01*
Y532000D01*
X233000D01*
X193000Y572000D01*
Y582000D01*
X220102D01*
X225009Y581024D01*
D02*
G37*
G36*
X143000Y572000D02*
X103000Y532000D01*
X93000D01*
Y556600D01*
Y559102D01*
X93976Y564009D01*
X95891Y568631D01*
X98671Y572791D01*
X102208Y576329D01*
X106369Y579109D01*
X110991Y581024D01*
X115898Y582000D01*
X143000D01*
Y572000D01*
D02*
G37*
G36*
X907000Y457400D02*
Y454898D01*
X906024Y449991D01*
X904109Y445369D01*
X901329Y441208D01*
X897792Y437671D01*
X893631Y434891D01*
X889009Y432976D01*
X884102Y432000D01*
X857000D01*
Y442000D01*
X897000Y482000D01*
X907000D01*
Y457400D01*
D02*
G37*
G36*
X807000Y442000D02*
Y432000D01*
X779898D01*
X774991Y432976D01*
X770369Y434891D01*
X766208Y437671D01*
X762671Y441208D01*
X759891Y445369D01*
X757976Y449991D01*
X757000Y454898D01*
Y457400D01*
Y482000D01*
X767000D01*
X807000Y442000D01*
D02*
G37*
G36*
X741000Y457400D02*
Y454898D01*
X740024Y449991D01*
X738109Y445369D01*
X735329Y441208D01*
X731792Y437671D01*
X727631Y434891D01*
X723009Y432976D01*
X718102Y432000D01*
X691000D01*
Y442000D01*
X731000Y482000D01*
X741000D01*
Y457400D01*
D02*
G37*
G36*
X641000Y442000D02*
Y432000D01*
X613898D01*
X608991Y432976D01*
X604369Y434891D01*
X600208Y437671D01*
X596670Y441208D01*
X593891Y445369D01*
X591976Y449991D01*
X591000Y454898D01*
Y457400D01*
Y482000D01*
X601000D01*
X641000Y442000D01*
D02*
G37*
G36*
X575000Y457400D02*
Y454898D01*
X574024Y449991D01*
X572109Y445369D01*
X569329Y441208D01*
X565792Y437671D01*
X561631Y434891D01*
X557009Y432976D01*
X552102Y432000D01*
X525000D01*
Y442000D01*
X565000Y482000D01*
X575000D01*
Y457400D01*
D02*
G37*
G36*
X475000Y442000D02*
Y432000D01*
X447898D01*
X442991Y432976D01*
X438369Y434891D01*
X434208Y437671D01*
X430671Y441208D01*
X427891Y445369D01*
X425976Y449991D01*
X425000Y454898D01*
Y457400D01*
Y482000D01*
X435000D01*
X475000Y442000D01*
D02*
G37*
G36*
X409000Y457400D02*
Y454898D01*
X408024Y449991D01*
X406109Y445369D01*
X403329Y441208D01*
X399791Y437671D01*
X395631Y434891D01*
X391009Y432976D01*
X386102Y432000D01*
X359000D01*
Y442000D01*
X399000Y482000D01*
X409000D01*
Y457400D01*
D02*
G37*
G36*
X309000Y442000D02*
Y432000D01*
X281898D01*
X276991Y432976D01*
X272369Y434891D01*
X268208Y437671D01*
X264671Y441208D01*
X261891Y445369D01*
X259976Y449991D01*
X259000Y454898D01*
Y457400D01*
Y482000D01*
X269000D01*
X309000Y442000D01*
D02*
G37*
G36*
X243000Y457400D02*
Y454898D01*
X242024Y449991D01*
X240109Y445369D01*
X237329Y441208D01*
X233792Y437671D01*
X229631Y434891D01*
X225009Y432976D01*
X220102Y432000D01*
X193000D01*
Y442000D01*
X233000Y482000D01*
X243000D01*
Y457400D01*
D02*
G37*
G36*
X143000Y442000D02*
Y432000D01*
X115898D01*
X110991Y432976D01*
X106369Y434891D01*
X102208Y437671D01*
X98671Y441208D01*
X95891Y445369D01*
X93976Y449991D01*
X93000Y454898D01*
Y457400D01*
Y482000D01*
X103000D01*
X143000Y442000D01*
D02*
G37*
G36*
X889009Y415024D02*
X893631Y413109D01*
X897792Y410330D01*
X901329Y406791D01*
X904109Y402631D01*
X906024Y398009D01*
X907000Y393102D01*
Y390600D01*
Y366000D01*
X897000D01*
X857000Y406000D01*
Y416000D01*
X884102D01*
X889009Y415024D01*
D02*
G37*
G36*
X807000Y406000D02*
X767000Y366000D01*
X757000D01*
Y390600D01*
Y393102D01*
X757976Y398009D01*
X759891Y402631D01*
X762671Y406791D01*
X766208Y410330D01*
X770369Y413109D01*
X774991Y415024D01*
X779898Y416000D01*
X807000D01*
Y406000D01*
D02*
G37*
G36*
X723009Y415024D02*
X727631Y413109D01*
X731792Y410330D01*
X735329Y406791D01*
X738109Y402631D01*
X740024Y398009D01*
X741000Y393102D01*
Y390600D01*
Y366000D01*
X731000D01*
X691000Y406000D01*
Y416000D01*
X718102D01*
X723009Y415024D01*
D02*
G37*
G36*
X641000Y406000D02*
X601000Y366000D01*
X591000D01*
Y390600D01*
Y393102D01*
X591976Y398009D01*
X593891Y402631D01*
X596670Y406791D01*
X600208Y410330D01*
X604369Y413109D01*
X608991Y415024D01*
X613898Y416000D01*
X641000D01*
Y406000D01*
D02*
G37*
G36*
X557009Y415024D02*
X561631Y413109D01*
X565792Y410330D01*
X569329Y406791D01*
X572109Y402631D01*
X574024Y398009D01*
X575000Y393102D01*
Y390600D01*
Y366000D01*
X565000D01*
X525000Y406000D01*
Y416000D01*
X552102D01*
X557009Y415024D01*
D02*
G37*
G36*
X475000Y406000D02*
X435000Y366000D01*
X425000D01*
Y390600D01*
Y393102D01*
X425976Y398009D01*
X427891Y402631D01*
X430671Y406791D01*
X434208Y410330D01*
X438369Y413109D01*
X442991Y415024D01*
X447898Y416000D01*
X475000D01*
Y406000D01*
D02*
G37*
G36*
X391009Y415024D02*
X395631Y413109D01*
X399791Y410330D01*
X403329Y406791D01*
X406109Y402631D01*
X408024Y398009D01*
X409000Y393102D01*
Y390600D01*
Y366000D01*
X399000D01*
X359000Y406000D01*
Y416000D01*
X386102D01*
X391009Y415024D01*
D02*
G37*
G36*
X309000Y406000D02*
X269000Y366000D01*
X259000D01*
Y390600D01*
Y393102D01*
X259976Y398009D01*
X261891Y402631D01*
X264671Y406791D01*
X268208Y410330D01*
X272369Y413109D01*
X276991Y415024D01*
X281898Y416000D01*
X309000D01*
Y406000D01*
D02*
G37*
G36*
X225009Y415024D02*
X229631Y413109D01*
X233792Y410330D01*
X237329Y406791D01*
X240109Y402631D01*
X242024Y398009D01*
X243000Y393102D01*
Y390600D01*
Y366000D01*
X233000D01*
X193000Y406000D01*
Y416000D01*
X220102D01*
X225009Y415024D01*
D02*
G37*
G36*
X143000Y406000D02*
X103000Y366000D01*
X93000D01*
Y390600D01*
Y393102D01*
X93976Y398009D01*
X95891Y402631D01*
X98671Y406791D01*
X102208Y410330D01*
X106369Y413109D01*
X110991Y415024D01*
X115898Y416000D01*
X143000D01*
Y406000D01*
D02*
G37*
G36*
X907000Y291400D02*
Y288898D01*
X906024Y283991D01*
X904109Y279369D01*
X901329Y275208D01*
X897792Y271670D01*
X893631Y268891D01*
X889009Y266976D01*
X884102Y266000D01*
X857000D01*
Y276000D01*
X897000Y316000D01*
X907000D01*
Y291400D01*
D02*
G37*
G36*
X807000Y276000D02*
Y266000D01*
X779898D01*
X774991Y266976D01*
X770369Y268891D01*
X766208Y271670D01*
X762671Y275208D01*
X759891Y279369D01*
X757976Y283991D01*
X757000Y288898D01*
Y291400D01*
Y316000D01*
X767000D01*
X807000Y276000D01*
D02*
G37*
G36*
X741000Y291400D02*
Y288898D01*
X740024Y283991D01*
X738109Y279369D01*
X735329Y275208D01*
X731792Y271670D01*
X727631Y268891D01*
X723009Y266976D01*
X718102Y266000D01*
X691000D01*
Y276000D01*
X731000Y316000D01*
X741000D01*
Y291400D01*
D02*
G37*
G36*
X641000Y276000D02*
Y266000D01*
X613898D01*
X608991Y266976D01*
X604369Y268891D01*
X600208Y271670D01*
X596670Y275208D01*
X593891Y279369D01*
X591976Y283991D01*
X591000Y288898D01*
Y291400D01*
Y316000D01*
X601000D01*
X641000Y276000D01*
D02*
G37*
G36*
X575000Y291400D02*
Y288898D01*
X574024Y283991D01*
X572109Y279369D01*
X569329Y275208D01*
X565792Y271670D01*
X561631Y268891D01*
X557009Y266976D01*
X552102Y266000D01*
X525000D01*
Y276000D01*
X565000Y316000D01*
X575000D01*
Y291400D01*
D02*
G37*
G36*
X475000Y276000D02*
Y266000D01*
X447898D01*
X442991Y266976D01*
X438369Y268891D01*
X434208Y271670D01*
X430671Y275208D01*
X427891Y279369D01*
X425976Y283991D01*
X425000Y288898D01*
Y291400D01*
Y316000D01*
X435000D01*
X475000Y276000D01*
D02*
G37*
G36*
X409000Y291400D02*
Y288898D01*
X408024Y283991D01*
X406109Y279369D01*
X403329Y275208D01*
X399791Y271670D01*
X395631Y268891D01*
X391009Y266976D01*
X386102Y266000D01*
X359000D01*
Y276000D01*
X399000Y316000D01*
X409000D01*
Y291400D01*
D02*
G37*
G36*
X309000Y276000D02*
Y266000D01*
X281898D01*
X276991Y266976D01*
X272369Y268891D01*
X268208Y271670D01*
X264671Y275208D01*
X261891Y279369D01*
X259976Y283991D01*
X259000Y288898D01*
Y291400D01*
Y316000D01*
X269000D01*
X309000Y276000D01*
D02*
G37*
G36*
X243000Y291400D02*
Y288898D01*
X242024Y283991D01*
X240109Y279369D01*
X237329Y275208D01*
X233792Y271670D01*
X229631Y268891D01*
X225009Y266976D01*
X220102Y266000D01*
X193000D01*
Y276000D01*
X233000Y316000D01*
X243000D01*
Y291400D01*
D02*
G37*
G36*
X143000Y276000D02*
Y266000D01*
X115898D01*
X110991Y266976D01*
X106369Y268891D01*
X102208Y271670D01*
X98671Y275208D01*
X95891Y279369D01*
X93976Y283991D01*
X93000Y288898D01*
Y291400D01*
Y316000D01*
X103000D01*
X143000Y276000D01*
D02*
G37*
G36*
X889009Y249024D02*
X893631Y247109D01*
X897792Y244329D01*
X901329Y240791D01*
X904109Y236631D01*
X906024Y232009D01*
X907000Y227102D01*
Y224600D01*
Y200000D01*
X897000D01*
X857000Y240000D01*
Y250000D01*
X884102D01*
X889009Y249024D01*
D02*
G37*
G36*
X807000Y240000D02*
X767000Y200000D01*
X757000D01*
Y224600D01*
Y227102D01*
X757976Y232009D01*
X759891Y236631D01*
X762671Y240791D01*
X766208Y244329D01*
X770369Y247109D01*
X774991Y249024D01*
X779898Y250000D01*
X807000D01*
Y240000D01*
D02*
G37*
G36*
X723009Y249024D02*
X727631Y247109D01*
X731792Y244329D01*
X735329Y240791D01*
X738109Y236631D01*
X740024Y232009D01*
X741000Y227102D01*
Y224600D01*
Y200000D01*
X731000D01*
X691000Y240000D01*
Y250000D01*
X718102D01*
X723009Y249024D01*
D02*
G37*
G36*
X641000Y240000D02*
X601000Y200000D01*
X591000D01*
Y224600D01*
Y227102D01*
X591976Y232009D01*
X593891Y236631D01*
X596670Y240791D01*
X600208Y244329D01*
X604369Y247109D01*
X608991Y249024D01*
X613898Y250000D01*
X641000D01*
Y240000D01*
D02*
G37*
G36*
X557009Y249024D02*
X561631Y247109D01*
X565792Y244329D01*
X569329Y240791D01*
X572109Y236631D01*
X574024Y232009D01*
X575000Y227102D01*
Y224600D01*
Y200000D01*
X565000D01*
X525000Y240000D01*
Y250000D01*
X552102D01*
X557009Y249024D01*
D02*
G37*
G36*
X475000Y240000D02*
X435000Y200000D01*
X425000D01*
Y224600D01*
Y227102D01*
X425976Y232009D01*
X427891Y236631D01*
X430671Y240791D01*
X434208Y244329D01*
X438369Y247109D01*
X442991Y249024D01*
X447898Y250000D01*
X475000D01*
Y240000D01*
D02*
G37*
G36*
X391009Y249024D02*
X395631Y247109D01*
X399791Y244329D01*
X403329Y240791D01*
X406109Y236631D01*
X408024Y232009D01*
X409000Y227102D01*
Y224600D01*
Y200000D01*
X399000D01*
X359000Y240000D01*
Y250000D01*
X386102D01*
X391009Y249024D01*
D02*
G37*
G36*
X309000Y240000D02*
X269000Y200000D01*
X259000D01*
Y224600D01*
Y227102D01*
X259976Y232009D01*
X261891Y236631D01*
X264671Y240791D01*
X268208Y244329D01*
X272369Y247109D01*
X276991Y249024D01*
X281898Y250000D01*
X309000D01*
Y240000D01*
D02*
G37*
G36*
X225009Y249024D02*
X229631Y247109D01*
X233792Y244329D01*
X237329Y240791D01*
X240109Y236631D01*
X242024Y232009D01*
X243000Y227102D01*
Y224600D01*
Y200000D01*
X233000D01*
X193000Y240000D01*
Y250000D01*
X220102D01*
X225009Y249024D01*
D02*
G37*
G36*
X143000Y240000D02*
X103000Y200000D01*
X93000D01*
Y224600D01*
Y227102D01*
X93976Y232009D01*
X95891Y236631D01*
X98671Y240791D01*
X102208Y244329D01*
X106369Y247109D01*
X110991Y249024D01*
X115898Y250000D01*
X143000D01*
Y240000D01*
D02*
G37*
G36*
X907000Y125400D02*
Y122898D01*
X906024Y117991D01*
X904109Y113369D01*
X901329Y109208D01*
X897792Y105670D01*
X893631Y102891D01*
X889009Y100976D01*
X884102Y100000D01*
X857000D01*
Y110000D01*
X897000Y150000D01*
X907000D01*
Y125400D01*
D02*
G37*
G36*
X807000Y110000D02*
Y100000D01*
X779898D01*
X774991Y100976D01*
X770369Y102891D01*
X766208Y105670D01*
X762671Y109208D01*
X759891Y113369D01*
X757976Y117991D01*
X757000Y122898D01*
Y125400D01*
Y150000D01*
X767000D01*
X807000Y110000D01*
D02*
G37*
G36*
X741000Y125400D02*
Y122898D01*
X740024Y117991D01*
X738109Y113369D01*
X735329Y109208D01*
X731792Y105670D01*
X727631Y102891D01*
X723009Y100976D01*
X718102Y100000D01*
X691000D01*
Y110000D01*
X731000Y150000D01*
X741000D01*
Y125400D01*
D02*
G37*
G36*
X641000Y110000D02*
Y100000D01*
X613898D01*
X608991Y100976D01*
X604369Y102891D01*
X600208Y105670D01*
X596670Y109208D01*
X593891Y113369D01*
X591976Y117991D01*
X591000Y122898D01*
Y125400D01*
Y150000D01*
X601000D01*
X641000Y110000D01*
D02*
G37*
G36*
X575000Y125400D02*
Y122898D01*
X574024Y117991D01*
X572109Y113369D01*
X569329Y109208D01*
X565792Y105670D01*
X561631Y102891D01*
X557009Y100976D01*
X552102Y100000D01*
X525000D01*
Y110000D01*
X565000Y150000D01*
X575000D01*
Y125400D01*
D02*
G37*
G36*
X475000Y110000D02*
Y100000D01*
X447898D01*
X442991Y100976D01*
X438369Y102891D01*
X434208Y105670D01*
X430671Y109208D01*
X427891Y113369D01*
X425976Y117991D01*
X425000Y122898D01*
Y125400D01*
Y150000D01*
X435000D01*
X475000Y110000D01*
D02*
G37*
G36*
X409000Y125400D02*
Y122898D01*
X408024Y117991D01*
X406109Y113369D01*
X403329Y109208D01*
X399791Y105670D01*
X395631Y102891D01*
X391009Y100976D01*
X386102Y100000D01*
X359000D01*
Y110000D01*
X399000Y150000D01*
X409000D01*
Y125400D01*
D02*
G37*
G36*
X309000Y110000D02*
Y100000D01*
X281898D01*
X276991Y100976D01*
X272369Y102891D01*
X268208Y105670D01*
X264671Y109208D01*
X261891Y113369D01*
X259976Y117991D01*
X259000Y122898D01*
Y125400D01*
Y150000D01*
X269000D01*
X309000Y110000D01*
D02*
G37*
G36*
X243000Y125400D02*
Y122898D01*
X242024Y117991D01*
X240109Y113369D01*
X237329Y109208D01*
X233792Y105670D01*
X229631Y102891D01*
X225009Y100976D01*
X220102Y100000D01*
X193000D01*
Y110000D01*
X233000Y150000D01*
X243000D01*
Y125400D01*
D02*
G37*
G36*
X143000Y110000D02*
Y100000D01*
X115898D01*
X110991Y100976D01*
X106369Y102891D01*
X102208Y105670D01*
X98671Y109208D01*
X95891Y113369D01*
X93976Y117991D01*
X93000Y122898D01*
Y125400D01*
Y150000D01*
X103000D01*
X143000Y110000D01*
D02*
G37*
D29*
X242500Y28000D02*
D03*
D40*
X970000Y970000D02*
D03*
X30000D02*
D03*
Y30000D02*
D03*
X970000D02*
D03*
X171000Y250000D02*
D03*
X165000D02*
D03*
X159000D02*
D03*
X177000D02*
D03*
X243000Y172000D02*
D03*
Y178000D02*
D03*
Y184000D02*
D03*
Y166000D02*
D03*
X165000Y100000D02*
D03*
X171000D02*
D03*
X177000D02*
D03*
X159000D02*
D03*
X93000Y184000D02*
D03*
Y166000D02*
D03*
Y172000D02*
D03*
Y178000D02*
D03*
X337000Y250000D02*
D03*
X331000D02*
D03*
X325000D02*
D03*
X343000D02*
D03*
X409000Y172000D02*
D03*
Y178000D02*
D03*
Y184000D02*
D03*
Y166000D02*
D03*
X331000Y100000D02*
D03*
X337000D02*
D03*
X343000D02*
D03*
X325000D02*
D03*
X259000Y184000D02*
D03*
Y166000D02*
D03*
Y172000D02*
D03*
Y178000D02*
D03*
X503000Y250000D02*
D03*
X497000D02*
D03*
X491000D02*
D03*
X509000D02*
D03*
X575000Y172000D02*
D03*
Y178000D02*
D03*
Y184000D02*
D03*
Y166000D02*
D03*
X497000Y100000D02*
D03*
X503000D02*
D03*
X509000D02*
D03*
X491000D02*
D03*
X425000Y184000D02*
D03*
Y166000D02*
D03*
Y172000D02*
D03*
Y178000D02*
D03*
X669000Y250000D02*
D03*
X663000D02*
D03*
X657000D02*
D03*
X675000D02*
D03*
X741000Y172000D02*
D03*
Y178000D02*
D03*
Y184000D02*
D03*
Y166000D02*
D03*
X663000Y100000D02*
D03*
X669000D02*
D03*
X675000D02*
D03*
X657000D02*
D03*
X591000Y184000D02*
D03*
Y166000D02*
D03*
Y172000D02*
D03*
Y178000D02*
D03*
X835000Y250000D02*
D03*
X829000D02*
D03*
X823000D02*
D03*
X841000D02*
D03*
X907000Y172000D02*
D03*
Y178000D02*
D03*
Y184000D02*
D03*
Y166000D02*
D03*
X829000Y100000D02*
D03*
X835000D02*
D03*
X841000D02*
D03*
X823000D02*
D03*
X757000Y184000D02*
D03*
Y166000D02*
D03*
Y172000D02*
D03*
Y178000D02*
D03*
X171000Y416000D02*
D03*
X165000D02*
D03*
X159000D02*
D03*
X177000D02*
D03*
X243000Y338000D02*
D03*
Y344000D02*
D03*
Y350000D02*
D03*
Y332000D02*
D03*
X165000Y266000D02*
D03*
X171000D02*
D03*
X177000D02*
D03*
X159000D02*
D03*
X93000Y350000D02*
D03*
Y332000D02*
D03*
Y338000D02*
D03*
Y344000D02*
D03*
X337000Y416000D02*
D03*
X331000D02*
D03*
X325000D02*
D03*
X343000D02*
D03*
X409000Y338000D02*
D03*
Y344000D02*
D03*
Y350000D02*
D03*
Y332000D02*
D03*
X331000Y266000D02*
D03*
X337000D02*
D03*
X343000D02*
D03*
X325000D02*
D03*
X259000Y350000D02*
D03*
Y332000D02*
D03*
Y338000D02*
D03*
Y344000D02*
D03*
X503000Y416000D02*
D03*
X497000D02*
D03*
X491000D02*
D03*
X509000D02*
D03*
X575000Y338000D02*
D03*
Y344000D02*
D03*
Y350000D02*
D03*
Y332000D02*
D03*
X497000Y266000D02*
D03*
X503000D02*
D03*
X509000D02*
D03*
X491000D02*
D03*
X425000Y350000D02*
D03*
Y332000D02*
D03*
Y338000D02*
D03*
Y344000D02*
D03*
X669000Y416000D02*
D03*
X663000D02*
D03*
X657000D02*
D03*
X675000D02*
D03*
X741000Y338000D02*
D03*
Y344000D02*
D03*
Y350000D02*
D03*
Y332000D02*
D03*
X663000Y266000D02*
D03*
X669000D02*
D03*
X675000D02*
D03*
X657000D02*
D03*
X591000Y350000D02*
D03*
Y332000D02*
D03*
Y338000D02*
D03*
Y344000D02*
D03*
X835000Y416000D02*
D03*
X829000D02*
D03*
X823000D02*
D03*
X841000D02*
D03*
X907000Y338000D02*
D03*
Y344000D02*
D03*
Y350000D02*
D03*
Y332000D02*
D03*
X829000Y266000D02*
D03*
X835000D02*
D03*
X841000D02*
D03*
X823000D02*
D03*
X757000Y350000D02*
D03*
Y332000D02*
D03*
Y338000D02*
D03*
Y344000D02*
D03*
X171000Y582000D02*
D03*
X165000D02*
D03*
X159000D02*
D03*
X177000D02*
D03*
X243000Y504000D02*
D03*
Y510000D02*
D03*
Y516000D02*
D03*
Y498000D02*
D03*
X165000Y432000D02*
D03*
X171000D02*
D03*
X177000D02*
D03*
X159000D02*
D03*
X93000Y516000D02*
D03*
Y498000D02*
D03*
Y504000D02*
D03*
Y510000D02*
D03*
X337000Y582000D02*
D03*
X331000D02*
D03*
X325000D02*
D03*
X343000D02*
D03*
X409000Y504000D02*
D03*
Y510000D02*
D03*
Y516000D02*
D03*
Y498000D02*
D03*
X331000Y432000D02*
D03*
X337000D02*
D03*
X343000D02*
D03*
X325000D02*
D03*
X259000Y516000D02*
D03*
Y498000D02*
D03*
Y504000D02*
D03*
Y510000D02*
D03*
X503000Y582000D02*
D03*
X497000D02*
D03*
X491000D02*
D03*
X509000D02*
D03*
X575000Y504000D02*
D03*
Y510000D02*
D03*
Y516000D02*
D03*
Y498000D02*
D03*
X497000Y432000D02*
D03*
X503000D02*
D03*
X509000D02*
D03*
X491000D02*
D03*
X425000Y516000D02*
D03*
Y498000D02*
D03*
Y504000D02*
D03*
Y510000D02*
D03*
X669000Y582000D02*
D03*
X663000D02*
D03*
X657000D02*
D03*
X675000D02*
D03*
X741000Y504000D02*
D03*
Y510000D02*
D03*
Y516000D02*
D03*
Y498000D02*
D03*
X663000Y432000D02*
D03*
X669000D02*
D03*
X675000D02*
D03*
X657000D02*
D03*
X591000Y516000D02*
D03*
Y498000D02*
D03*
Y504000D02*
D03*
Y510000D02*
D03*
X835000Y582000D02*
D03*
X829000D02*
D03*
X823000D02*
D03*
X841000D02*
D03*
X907000Y504000D02*
D03*
Y510000D02*
D03*
Y516000D02*
D03*
Y498000D02*
D03*
X829000Y432000D02*
D03*
X835000D02*
D03*
X841000D02*
D03*
X823000D02*
D03*
X757000Y516000D02*
D03*
Y498000D02*
D03*
Y504000D02*
D03*
Y510000D02*
D03*
X171000Y748000D02*
D03*
X165000D02*
D03*
X159000D02*
D03*
X177000D02*
D03*
X243000Y670000D02*
D03*
Y676000D02*
D03*
Y682000D02*
D03*
Y664000D02*
D03*
X165000Y598000D02*
D03*
X171000D02*
D03*
X177000D02*
D03*
X159000D02*
D03*
X93000Y682000D02*
D03*
Y664000D02*
D03*
Y670000D02*
D03*
Y676000D02*
D03*
X337000Y748000D02*
D03*
X331000D02*
D03*
X325000D02*
D03*
X343000D02*
D03*
X409000Y670000D02*
D03*
Y676000D02*
D03*
Y682000D02*
D03*
Y664000D02*
D03*
X331000Y598000D02*
D03*
X337000D02*
D03*
X343000D02*
D03*
X325000D02*
D03*
X259000Y682000D02*
D03*
Y664000D02*
D03*
Y670000D02*
D03*
Y676000D02*
D03*
X503000Y748000D02*
D03*
X497000D02*
D03*
X491000D02*
D03*
X509000D02*
D03*
X575000Y670000D02*
D03*
Y676000D02*
D03*
Y682000D02*
D03*
Y664000D02*
D03*
X497000Y598000D02*
D03*
X503000D02*
D03*
X509000D02*
D03*
X491000D02*
D03*
X425000Y682000D02*
D03*
Y664000D02*
D03*
Y670000D02*
D03*
Y676000D02*
D03*
X669000Y748000D02*
D03*
X663000D02*
D03*
X657000D02*
D03*
X675000D02*
D03*
X741000Y670000D02*
D03*
Y676000D02*
D03*
Y682000D02*
D03*
Y664000D02*
D03*
X663000Y598000D02*
D03*
X669000D02*
D03*
X675000D02*
D03*
X657000D02*
D03*
X591000Y682000D02*
D03*
Y664000D02*
D03*
Y670000D02*
D03*
Y676000D02*
D03*
X835000Y748000D02*
D03*
X829000D02*
D03*
X823000D02*
D03*
X841000D02*
D03*
X907000Y670000D02*
D03*
Y676000D02*
D03*
Y682000D02*
D03*
Y664000D02*
D03*
X829000Y598000D02*
D03*
X835000D02*
D03*
X841000D02*
D03*
X823000D02*
D03*
X757000Y682000D02*
D03*
Y664000D02*
D03*
Y670000D02*
D03*
Y676000D02*
D03*
X171000Y914000D02*
D03*
X165000D02*
D03*
X159000D02*
D03*
X177000D02*
D03*
X243000Y836000D02*
D03*
Y842000D02*
D03*
Y848000D02*
D03*
Y830000D02*
D03*
X165000Y764000D02*
D03*
X171000D02*
D03*
X177000D02*
D03*
X159000D02*
D03*
X93000Y848000D02*
D03*
Y830000D02*
D03*
Y836000D02*
D03*
Y842000D02*
D03*
X337000Y914000D02*
D03*
X331000D02*
D03*
X325000D02*
D03*
X343000D02*
D03*
X409000Y836000D02*
D03*
Y842000D02*
D03*
Y848000D02*
D03*
Y830000D02*
D03*
X331000Y764000D02*
D03*
X337000D02*
D03*
X343000D02*
D03*
X325000D02*
D03*
X259000Y848000D02*
D03*
Y830000D02*
D03*
Y836000D02*
D03*
Y842000D02*
D03*
X503000Y914000D02*
D03*
X497000D02*
D03*
X491000D02*
D03*
X509000D02*
D03*
X575000Y836000D02*
D03*
Y842000D02*
D03*
Y848000D02*
D03*
Y830000D02*
D03*
X497000Y764000D02*
D03*
X503000D02*
D03*
X509000D02*
D03*
X491000D02*
D03*
X425000Y848000D02*
D03*
Y830000D02*
D03*
Y836000D02*
D03*
Y842000D02*
D03*
X669000Y914000D02*
D03*
X663000D02*
D03*
X657000D02*
D03*
X675000D02*
D03*
X741000Y836000D02*
D03*
Y842000D02*
D03*
Y848000D02*
D03*
Y830000D02*
D03*
X663000Y764000D02*
D03*
X669000D02*
D03*
X675000D02*
D03*
X657000D02*
D03*
X591000Y848000D02*
D03*
Y830000D02*
D03*
Y836000D02*
D03*
Y842000D02*
D03*
X835000Y914000D02*
D03*
X829000D02*
D03*
X823000D02*
D03*
X841000D02*
D03*
X907000Y836000D02*
D03*
Y842000D02*
D03*
Y848000D02*
D03*
Y830000D02*
D03*
X829000Y764000D02*
D03*
X835000D02*
D03*
X841000D02*
D03*
X823000D02*
D03*
X757000Y848000D02*
D03*
Y830000D02*
D03*
Y836000D02*
D03*
Y842000D02*
D03*
D41*
X218000Y225000D02*
D03*
X118000D02*
D03*
X218000Y125000D02*
D03*
X118000D02*
D03*
X384000Y225000D02*
D03*
X284000D02*
D03*
X384000Y125000D02*
D03*
X284000D02*
D03*
X550000Y225000D02*
D03*
X450000D02*
D03*
X550000Y125000D02*
D03*
X450000D02*
D03*
X716000Y225000D02*
D03*
X616000D02*
D03*
X716000Y125000D02*
D03*
X616000D02*
D03*
X882000Y225000D02*
D03*
X782000D02*
D03*
X882000Y125000D02*
D03*
X782000D02*
D03*
X218000Y391000D02*
D03*
X118000D02*
D03*
X218000Y291000D02*
D03*
X118000D02*
D03*
X384000Y391000D02*
D03*
X284000D02*
D03*
X384000Y291000D02*
D03*
X284000D02*
D03*
X550000Y391000D02*
D03*
X450000D02*
D03*
X550000Y291000D02*
D03*
X450000D02*
D03*
X716000Y391000D02*
D03*
X616000D02*
D03*
X716000Y291000D02*
D03*
X616000D02*
D03*
X882000Y391000D02*
D03*
X782000D02*
D03*
X882000Y291000D02*
D03*
X782000D02*
D03*
X218000Y557000D02*
D03*
X118000D02*
D03*
X218000Y457000D02*
D03*
X118000D02*
D03*
X384000Y557000D02*
D03*
X284000D02*
D03*
X384000Y457000D02*
D03*
X284000D02*
D03*
X550000Y557000D02*
D03*
X450000D02*
D03*
X550000Y457000D02*
D03*
X450000D02*
D03*
X716000Y557000D02*
D03*
X616000D02*
D03*
X716000Y457000D02*
D03*
X616000D02*
D03*
X882000Y557000D02*
D03*
X782000D02*
D03*
X882000Y457000D02*
D03*
X782000D02*
D03*
X218000Y723000D02*
D03*
X118000D02*
D03*
X218000Y623000D02*
D03*
X118000D02*
D03*
X384000Y723000D02*
D03*
X284000D02*
D03*
X384000Y623000D02*
D03*
X284000D02*
D03*
X550000Y723000D02*
D03*
X450000D02*
D03*
X550000Y623000D02*
D03*
X450000D02*
D03*
X716000Y723000D02*
D03*
X616000D02*
D03*
X716000Y623000D02*
D03*
X616000D02*
D03*
X882000Y723000D02*
D03*
X782000D02*
D03*
X882000Y623000D02*
D03*
X782000D02*
D03*
X218000Y889000D02*
D03*
X118000D02*
D03*
X218000Y789000D02*
D03*
X118000D02*
D03*
X384000Y889000D02*
D03*
X284000D02*
D03*
X384000Y789000D02*
D03*
X284000D02*
D03*
X550000Y889000D02*
D03*
X450000D02*
D03*
X550000Y789000D02*
D03*
X450000D02*
D03*
X716000Y889000D02*
D03*
X616000D02*
D03*
X716000Y789000D02*
D03*
X616000D02*
D03*
X882000Y889000D02*
D03*
X782000D02*
D03*
X882000Y789000D02*
D03*
X782000D02*
D03*
D42*
X133000Y160000D02*
D03*
Y190000D02*
D03*
X163000Y140000D02*
D03*
X299000Y160000D02*
D03*
Y190000D02*
D03*
X329000Y140000D02*
D03*
X465000Y160000D02*
D03*
Y190000D02*
D03*
X495000Y140000D02*
D03*
X631000Y160000D02*
D03*
Y190000D02*
D03*
X661000Y140000D02*
D03*
X797000Y160000D02*
D03*
Y190000D02*
D03*
X827000Y140000D02*
D03*
X133000Y326000D02*
D03*
Y356000D02*
D03*
X163000Y306000D02*
D03*
X299000Y326000D02*
D03*
Y356000D02*
D03*
X329000Y306000D02*
D03*
X465000Y326000D02*
D03*
Y356000D02*
D03*
X495000Y306000D02*
D03*
X631000Y326000D02*
D03*
Y356000D02*
D03*
X661000Y306000D02*
D03*
X797000Y326000D02*
D03*
Y356000D02*
D03*
X827000Y306000D02*
D03*
X133000Y492000D02*
D03*
Y522000D02*
D03*
X163000Y472000D02*
D03*
X299000Y492000D02*
D03*
Y522000D02*
D03*
X329000Y472000D02*
D03*
X465000Y492000D02*
D03*
Y522000D02*
D03*
X495000Y472000D02*
D03*
X631000Y492000D02*
D03*
Y522000D02*
D03*
X661000Y472000D02*
D03*
X797000Y492000D02*
D03*
Y522000D02*
D03*
X827000Y472000D02*
D03*
X133000Y658000D02*
D03*
Y688000D02*
D03*
X163000Y638000D02*
D03*
X299000Y658000D02*
D03*
Y688000D02*
D03*
X329000Y638000D02*
D03*
X465000Y658000D02*
D03*
Y688000D02*
D03*
X495000Y638000D02*
D03*
X631000Y658000D02*
D03*
Y688000D02*
D03*
X661000Y638000D02*
D03*
X797000Y658000D02*
D03*
Y688000D02*
D03*
X827000Y638000D02*
D03*
X133000Y824000D02*
D03*
Y854000D02*
D03*
X163000Y804000D02*
D03*
X299000Y824000D02*
D03*
Y854000D02*
D03*
X329000Y804000D02*
D03*
X465000Y824000D02*
D03*
Y854000D02*
D03*
X495000Y804000D02*
D03*
X631000Y824000D02*
D03*
Y854000D02*
D03*
X661000Y804000D02*
D03*
X797000Y824000D02*
D03*
Y854000D02*
D03*
X827000Y804000D02*
D03*
M02*
