G04*
G04 #@! TF.GenerationSoftware,Altium Limited,Altium Designer,23.11.1 (41)*
G04*
G04 Layer_Color=32896*
%FSLAX44Y44*%
%MOMM*%
G71*
G04*
G04 #@! TF.SameCoordinates,3482151D-E3A4-470A-A98F-003E0BE399C6*
G04*
G04*
G04 #@! TF.FilePolarity,Positive*
G04*
G01*
G75*
%ADD43C,0.2540*%
%ADD44C,1.6000*%
D43*
X132540Y1020006D02*
Y1059994D01*
X152534D01*
X159198Y1053329D01*
Y1040000D01*
X152534Y1033335D01*
X132540D01*
X145869D02*
X159198Y1020006D01*
X192521Y1059994D02*
X179192D01*
X172527Y1053329D01*
Y1026671D01*
X179192Y1020006D01*
X192521D01*
X199185Y1026671D01*
Y1053329D01*
X192521Y1059994D01*
X212514D02*
Y1026671D01*
X219179Y1020006D01*
X232508D01*
X239172Y1026671D01*
Y1059994D01*
X252501D02*
X279159D01*
X265830D01*
Y1020006D01*
X319146Y1059994D02*
X292488D01*
Y1020006D01*
X319146D01*
X292488Y1040000D02*
X305817D01*
X372462Y1020006D02*
Y1059994D01*
X385791Y1046665D01*
X399120Y1059994D01*
Y1020006D01*
X412449Y1059994D02*
X425779D01*
X419114D01*
Y1020006D01*
X412449D01*
X425779D01*
X445772Y1059994D02*
Y1020006D01*
X472430D01*
X485759Y1059994D02*
Y1020006D01*
X512417D01*
X525746Y1059994D02*
X539075D01*
X532411D01*
Y1020006D01*
X525746D01*
X539075D01*
X559069D02*
Y1059994D01*
X585727Y1020006D01*
Y1059994D01*
X625714Y1053329D02*
X619049Y1059994D01*
X605720D01*
X599056Y1053329D01*
Y1026671D01*
X605720Y1020006D01*
X619049D01*
X625714Y1026671D01*
Y1040000D01*
X612385D01*
X679030Y1059994D02*
Y1020006D01*
X705688D01*
X719017D02*
Y1046665D01*
X732346Y1059994D01*
X745675Y1046665D01*
Y1020006D01*
Y1040000D01*
X719017D01*
X759004Y1059994D02*
Y1053329D01*
X772333Y1040000D01*
X785662Y1053329D01*
Y1059994D01*
X772333Y1040000D02*
Y1020006D01*
X825649Y1059994D02*
X798991D01*
Y1020006D01*
X825649D01*
X798991Y1040000D02*
X812320D01*
X838978Y1020006D02*
Y1059994D01*
X858972D01*
X865636Y1053329D01*
Y1040000D01*
X858972Y1033335D01*
X838978D01*
X852307D02*
X865636Y1020006D01*
D44*
X218000Y92000D02*
G03*
X251000Y125000I0J33000D01*
G01*
X85000D02*
G03*
X118000Y92000I33000J0D01*
G01*
X251000Y225000D02*
G03*
X218000Y258000I-33000J0D01*
G01*
X118000Y258000D02*
G03*
X85000Y225000I0J-33000D01*
G01*
X187000Y92000D02*
X218000D01*
X251000Y125000D02*
Y156000D01*
X118000Y92000D02*
X149000D01*
X85000Y125000D02*
Y156000D01*
X187000Y258000D02*
X218000D01*
X251000Y194000D02*
Y225000D01*
X85000Y194000D02*
Y225000D01*
X118000Y258000D02*
X149000D01*
X384000Y92000D02*
G03*
X417000Y125000I0J33000D01*
G01*
X251000D02*
G03*
X284000Y92000I33000J0D01*
G01*
X417000Y225000D02*
G03*
X384000Y258000I-33000J0D01*
G01*
X284000Y258000D02*
G03*
X251000Y225000I0J-33000D01*
G01*
X353000Y92000D02*
X384000D01*
X417000Y125000D02*
Y156000D01*
X284000Y92000D02*
X315000D01*
X251000Y125000D02*
Y156000D01*
X353000Y258000D02*
X384000D01*
X417000Y194000D02*
Y225000D01*
X251000Y194000D02*
Y225000D01*
X284000Y258000D02*
X315000D01*
X550000Y92000D02*
G03*
X583000Y125000I0J33000D01*
G01*
X417000D02*
G03*
X450000Y92000I33000J0D01*
G01*
X583000Y225000D02*
G03*
X550000Y258000I-33000J0D01*
G01*
X450000Y258000D02*
G03*
X417000Y225000I0J-33000D01*
G01*
X519000Y92000D02*
X550000D01*
X583000Y125000D02*
Y156000D01*
X450000Y92000D02*
X481000D01*
X417000Y125000D02*
Y156000D01*
X519000Y258000D02*
X550000D01*
X583000Y194000D02*
Y225000D01*
X417000Y194000D02*
Y225000D01*
X450000Y258000D02*
X481000D01*
X716000Y92000D02*
G03*
X749000Y125000I0J33000D01*
G01*
X583000D02*
G03*
X616000Y92000I33000J0D01*
G01*
X749000Y225000D02*
G03*
X716000Y258000I-33000J0D01*
G01*
X616000Y258000D02*
G03*
X583000Y225000I0J-33000D01*
G01*
X685000Y92000D02*
X716000D01*
X749000Y125000D02*
Y156000D01*
X616000Y92000D02*
X647000D01*
X583000Y125000D02*
Y156000D01*
X685000Y258000D02*
X716000D01*
X749000Y194000D02*
Y225000D01*
X583000Y194000D02*
Y225000D01*
X616000Y258000D02*
X647000D01*
X882000Y92000D02*
G03*
X915000Y125000I0J33000D01*
G01*
X749000D02*
G03*
X782000Y92000I33000J0D01*
G01*
X915000Y225000D02*
G03*
X882000Y258000I-33000J0D01*
G01*
X782000Y258000D02*
G03*
X749000Y225000I0J-33000D01*
G01*
X851000Y92000D02*
X882000D01*
X915000Y125000D02*
Y156000D01*
X782000Y92000D02*
X813000D01*
X749000Y125000D02*
Y156000D01*
X851000Y258000D02*
X882000D01*
X915000Y194000D02*
Y225000D01*
X749000Y194000D02*
Y225000D01*
X782000Y258000D02*
X813000D01*
X218000D02*
G03*
X251000Y291000I0J33000D01*
G01*
X85000D02*
G03*
X118000Y258000I33000J0D01*
G01*
X251000Y391000D02*
G03*
X218000Y424000I-33000J0D01*
G01*
X118000Y424000D02*
G03*
X85000Y391000I0J-33000D01*
G01*
X187000Y258000D02*
X218000D01*
X251000Y291000D02*
Y322000D01*
X118000Y258000D02*
X149000D01*
X85000Y291000D02*
Y322000D01*
X187000Y424000D02*
X218000D01*
X251000Y360000D02*
Y391000D01*
X85000Y360000D02*
Y391000D01*
X118000Y424000D02*
X149000D01*
X384000Y258000D02*
G03*
X417000Y291000I0J33000D01*
G01*
X251000D02*
G03*
X284000Y258000I33000J0D01*
G01*
X417000Y391000D02*
G03*
X384000Y424000I-33000J0D01*
G01*
X284000Y424000D02*
G03*
X251000Y391000I0J-33000D01*
G01*
X353000Y258000D02*
X384000D01*
X417000Y291000D02*
Y322000D01*
X284000Y258000D02*
X315000D01*
X251000Y291000D02*
Y322000D01*
X353000Y424000D02*
X384000D01*
X417000Y360000D02*
Y391000D01*
X251000Y360000D02*
Y391000D01*
X284000Y424000D02*
X315000D01*
X550000Y258000D02*
G03*
X583000Y291000I0J33000D01*
G01*
X417000D02*
G03*
X450000Y258000I33000J0D01*
G01*
X583000Y391000D02*
G03*
X550000Y424000I-33000J0D01*
G01*
X450000Y424000D02*
G03*
X417000Y391000I0J-33000D01*
G01*
X519000Y258000D02*
X550000D01*
X583000Y291000D02*
Y322000D01*
X450000Y258000D02*
X481000D01*
X417000Y291000D02*
Y322000D01*
X519000Y424000D02*
X550000D01*
X583000Y360000D02*
Y391000D01*
X417000Y360000D02*
Y391000D01*
X450000Y424000D02*
X481000D01*
X716000Y258000D02*
G03*
X749000Y291000I0J33000D01*
G01*
X583000D02*
G03*
X616000Y258000I33000J0D01*
G01*
X749000Y391000D02*
G03*
X716000Y424000I-33000J0D01*
G01*
X616000Y424000D02*
G03*
X583000Y391000I0J-33000D01*
G01*
X685000Y258000D02*
X716000D01*
X749000Y291000D02*
Y322000D01*
X616000Y258000D02*
X647000D01*
X583000Y291000D02*
Y322000D01*
X685000Y424000D02*
X716000D01*
X749000Y360000D02*
Y391000D01*
X583000Y360000D02*
Y391000D01*
X616000Y424000D02*
X647000D01*
X882000Y258000D02*
G03*
X915000Y291000I0J33000D01*
G01*
X749000D02*
G03*
X782000Y258000I33000J0D01*
G01*
X915000Y391000D02*
G03*
X882000Y424000I-33000J0D01*
G01*
X782000Y424000D02*
G03*
X749000Y391000I0J-33000D01*
G01*
X851000Y258000D02*
X882000D01*
X915000Y291000D02*
Y322000D01*
X782000Y258000D02*
X813000D01*
X749000Y291000D02*
Y322000D01*
X851000Y424000D02*
X882000D01*
X915000Y360000D02*
Y391000D01*
X749000Y360000D02*
Y391000D01*
X782000Y424000D02*
X813000D01*
X218000D02*
G03*
X251000Y457000I0J33000D01*
G01*
X85000D02*
G03*
X118000Y424000I33000J0D01*
G01*
X251000Y557000D02*
G03*
X218000Y590000I-33000J0D01*
G01*
X118000Y590000D02*
G03*
X85000Y557000I0J-33000D01*
G01*
X187000Y424000D02*
X218000D01*
X251000Y457000D02*
Y488000D01*
X118000Y424000D02*
X149000D01*
X85000Y457000D02*
Y488000D01*
X187000Y590000D02*
X218000D01*
X251000Y526000D02*
Y557000D01*
X85000Y526000D02*
Y557000D01*
X118000Y590000D02*
X149000D01*
X384000Y424000D02*
G03*
X417000Y457000I0J33000D01*
G01*
X251000D02*
G03*
X284000Y424000I33000J0D01*
G01*
X417000Y557000D02*
G03*
X384000Y590000I-33000J0D01*
G01*
X284000Y590000D02*
G03*
X251000Y557000I0J-33000D01*
G01*
X353000Y424000D02*
X384000D01*
X417000Y457000D02*
Y488000D01*
X284000Y424000D02*
X315000D01*
X251000Y457000D02*
Y488000D01*
X353000Y590000D02*
X384000D01*
X417000Y526000D02*
Y557000D01*
X251000Y526000D02*
Y557000D01*
X284000Y590000D02*
X315000D01*
X550000Y424000D02*
G03*
X583000Y457000I0J33000D01*
G01*
X417000D02*
G03*
X450000Y424000I33000J0D01*
G01*
X583000Y557000D02*
G03*
X550000Y590000I-33000J0D01*
G01*
X450000Y590000D02*
G03*
X417000Y557000I0J-33000D01*
G01*
X519000Y424000D02*
X550000D01*
X583000Y457000D02*
Y488000D01*
X450000Y424000D02*
X481000D01*
X417000Y457000D02*
Y488000D01*
X519000Y590000D02*
X550000D01*
X583000Y526000D02*
Y557000D01*
X417000Y526000D02*
Y557000D01*
X450000Y590000D02*
X481000D01*
X716000Y424000D02*
G03*
X749000Y457000I0J33000D01*
G01*
X583000D02*
G03*
X616000Y424000I33000J0D01*
G01*
X749000Y557000D02*
G03*
X716000Y590000I-33000J0D01*
G01*
X616000Y590000D02*
G03*
X583000Y557000I0J-33000D01*
G01*
X685000Y424000D02*
X716000D01*
X749000Y457000D02*
Y488000D01*
X616000Y424000D02*
X647000D01*
X583000Y457000D02*
Y488000D01*
X685000Y590000D02*
X716000D01*
X749000Y526000D02*
Y557000D01*
X583000Y526000D02*
Y557000D01*
X616000Y590000D02*
X647000D01*
X882000Y424000D02*
G03*
X915000Y457000I0J33000D01*
G01*
X749000D02*
G03*
X782000Y424000I33000J0D01*
G01*
X915000Y557000D02*
G03*
X882000Y590000I-33000J0D01*
G01*
X782000Y590000D02*
G03*
X749000Y557000I0J-33000D01*
G01*
X851000Y424000D02*
X882000D01*
X915000Y457000D02*
Y488000D01*
X782000Y424000D02*
X813000D01*
X749000Y457000D02*
Y488000D01*
X851000Y590000D02*
X882000D01*
X915000Y526000D02*
Y557000D01*
X749000Y526000D02*
Y557000D01*
X782000Y590000D02*
X813000D01*
X218000D02*
G03*
X251000Y623000I0J33000D01*
G01*
X85000D02*
G03*
X118000Y590000I33000J0D01*
G01*
X251000Y723000D02*
G03*
X218000Y756000I-33000J0D01*
G01*
X118000Y756000D02*
G03*
X85000Y723000I0J-33000D01*
G01*
X187000Y590000D02*
X218000D01*
X251000Y623000D02*
Y654000D01*
X118000Y590000D02*
X149000D01*
X85000Y623000D02*
Y654000D01*
X187000Y756000D02*
X218000D01*
X251000Y692000D02*
Y723000D01*
X85000Y692000D02*
Y723000D01*
X118000Y756000D02*
X149000D01*
X384000Y590000D02*
G03*
X417000Y623000I0J33000D01*
G01*
X251000D02*
G03*
X284000Y590000I33000J0D01*
G01*
X417000Y723000D02*
G03*
X384000Y756000I-33000J0D01*
G01*
X284000Y756000D02*
G03*
X251000Y723000I0J-33000D01*
G01*
X353000Y590000D02*
X384000D01*
X417000Y623000D02*
Y654000D01*
X284000Y590000D02*
X315000D01*
X251000Y623000D02*
Y654000D01*
X353000Y756000D02*
X384000D01*
X417000Y692000D02*
Y723000D01*
X251000Y692000D02*
Y723000D01*
X284000Y756000D02*
X315000D01*
X550000Y590000D02*
G03*
X583000Y623000I0J33000D01*
G01*
X417000D02*
G03*
X450000Y590000I33000J0D01*
G01*
X583000Y723000D02*
G03*
X550000Y756000I-33000J0D01*
G01*
X450000Y756000D02*
G03*
X417000Y723000I0J-33000D01*
G01*
X519000Y590000D02*
X550000D01*
X583000Y623000D02*
Y654000D01*
X450000Y590000D02*
X481000D01*
X417000Y623000D02*
Y654000D01*
X519000Y756000D02*
X550000D01*
X583000Y692000D02*
Y723000D01*
X417000Y692000D02*
Y723000D01*
X450000Y756000D02*
X481000D01*
X716000Y590000D02*
G03*
X749000Y623000I0J33000D01*
G01*
X583000D02*
G03*
X616000Y590000I33000J0D01*
G01*
X749000Y723000D02*
G03*
X716000Y756000I-33000J0D01*
G01*
X616000Y756000D02*
G03*
X583000Y723000I0J-33000D01*
G01*
X685000Y590000D02*
X716000D01*
X749000Y623000D02*
Y654000D01*
X616000Y590000D02*
X647000D01*
X583000Y623000D02*
Y654000D01*
X685000Y756000D02*
X716000D01*
X749000Y692000D02*
Y723000D01*
X583000Y692000D02*
Y723000D01*
X616000Y756000D02*
X647000D01*
X882000Y590000D02*
G03*
X915000Y623000I0J33000D01*
G01*
X749000D02*
G03*
X782000Y590000I33000J0D01*
G01*
X915000Y723000D02*
G03*
X882000Y756000I-33000J0D01*
G01*
X782000Y756000D02*
G03*
X749000Y723000I0J-33000D01*
G01*
X851000Y590000D02*
X882000D01*
X915000Y623000D02*
Y654000D01*
X782000Y590000D02*
X813000D01*
X749000Y623000D02*
Y654000D01*
X851000Y756000D02*
X882000D01*
X915000Y692000D02*
Y723000D01*
X749000Y692000D02*
Y723000D01*
X782000Y756000D02*
X813000D01*
X218000D02*
G03*
X251000Y789000I0J33000D01*
G01*
X85000D02*
G03*
X118000Y756000I33000J0D01*
G01*
X251000Y889000D02*
G03*
X218000Y922000I-33000J0D01*
G01*
X118000Y922000D02*
G03*
X85000Y889000I0J-33000D01*
G01*
X187000Y756000D02*
X218000D01*
X251000Y789000D02*
Y820000D01*
X118000Y756000D02*
X149000D01*
X85000Y789000D02*
Y820000D01*
X187000Y922000D02*
X218000D01*
X251000Y858000D02*
Y889000D01*
X85000Y858000D02*
Y889000D01*
X118000Y922000D02*
X149000D01*
X384000Y756000D02*
G03*
X417000Y789000I0J33000D01*
G01*
X251000D02*
G03*
X284000Y756000I33000J0D01*
G01*
X417000Y889000D02*
G03*
X384000Y922000I-33000J0D01*
G01*
X284000Y922000D02*
G03*
X251000Y889000I0J-33000D01*
G01*
X353000Y756000D02*
X384000D01*
X417000Y789000D02*
Y820000D01*
X284000Y756000D02*
X315000D01*
X251000Y789000D02*
Y820000D01*
X353000Y922000D02*
X384000D01*
X417000Y858000D02*
Y889000D01*
X251000Y858000D02*
Y889000D01*
X284000Y922000D02*
X315000D01*
X550000Y756000D02*
G03*
X583000Y789000I0J33000D01*
G01*
X417000D02*
G03*
X450000Y756000I33000J0D01*
G01*
X583000Y889000D02*
G03*
X550000Y922000I-33000J0D01*
G01*
X450000Y922000D02*
G03*
X417000Y889000I0J-33000D01*
G01*
X519000Y756000D02*
X550000D01*
X583000Y789000D02*
Y820000D01*
X450000Y756000D02*
X481000D01*
X417000Y789000D02*
Y820000D01*
X519000Y922000D02*
X550000D01*
X583000Y858000D02*
Y889000D01*
X417000Y858000D02*
Y889000D01*
X450000Y922000D02*
X481000D01*
X716000Y756000D02*
G03*
X749000Y789000I0J33000D01*
G01*
X583000D02*
G03*
X616000Y756000I33000J0D01*
G01*
X749000Y889000D02*
G03*
X716000Y922000I-33000J0D01*
G01*
X616000Y922000D02*
G03*
X583000Y889000I0J-33000D01*
G01*
X685000Y756000D02*
X716000D01*
X749000Y789000D02*
Y820000D01*
X616000Y756000D02*
X647000D01*
X583000Y789000D02*
Y820000D01*
X685000Y922000D02*
X716000D01*
X749000Y858000D02*
Y889000D01*
X583000Y858000D02*
Y889000D01*
X616000Y922000D02*
X647000D01*
X882000Y756000D02*
G03*
X915000Y789000I0J33000D01*
G01*
X749000D02*
G03*
X782000Y756000I33000J0D01*
G01*
X915000Y889000D02*
G03*
X882000Y922000I-33000J0D01*
G01*
X782000Y922000D02*
G03*
X749000Y889000I0J-33000D01*
G01*
X851000Y756000D02*
X882000D01*
X915000Y789000D02*
Y820000D01*
X782000Y756000D02*
X813000D01*
X749000Y789000D02*
Y820000D01*
X851000Y922000D02*
X882000D01*
X915000Y858000D02*
Y889000D01*
X749000Y858000D02*
Y889000D01*
X782000Y922000D02*
X813000D01*
M02*
