G04*
G04 #@! TF.GenerationSoftware,Altium Limited,Altium Designer,23.11.1 (41)*
G04*
G04 Layer_Color=8388736*
%FSLAX44Y44*%
%MOMM*%
G71*
G04*
G04 #@! TF.SameCoordinates,3482151D-E3A4-470A-A98F-003E0BE399C6*
G04*
G04*
G04 #@! TF.FilePolarity,Negative*
G04*
G01*
G75*
%ADD29R,37.5000X5.4000*%
%ADD30C,2.0000*%
%ADD31R,0.4500X0.5400*%
%ADD32R,1.8000X1.8000*%
%ADD33O,0.3000X0.9000*%
%ADD34O,0.9000X0.3000*%
%ADD35R,1.1000X1.0000*%
%ADD36R,0.9000X0.6000*%
%ADD37R,0.9000X0.9000*%
%ADD38R,0.5400X0.4500*%
%ADD39R,0.6000X0.9000*%
%ADD40C,0.1000*%
%ADD41C,3.4000*%
G36*
X834917Y931616D02*
X836737Y930862D01*
X838375Y929768D01*
X839768Y928375D01*
X840862Y926737D01*
X841616Y924917D01*
X842000Y922985D01*
Y922000D01*
Y921015D01*
X841616Y919083D01*
X840862Y917263D01*
X839768Y915625D01*
X838375Y914232D01*
X836737Y913138D01*
X834917Y912384D01*
X832985Y912000D01*
X831015D01*
X829083Y912384D01*
X827263Y913138D01*
X825625Y914232D01*
X824232Y915625D01*
X823138Y917263D01*
X822384Y919083D01*
X822000Y921015D01*
Y922000D01*
Y922985D01*
X822384Y924917D01*
X823138Y926737D01*
X824232Y928375D01*
X825625Y929768D01*
X827263Y930862D01*
X829083Y931616D01*
X831015Y932000D01*
X832985D01*
X834917Y931616D01*
D02*
G37*
G36*
X668917D02*
X670737Y930862D01*
X672375Y929768D01*
X673767Y928375D01*
X674862Y926737D01*
X675616Y924917D01*
X676000Y922985D01*
Y922000D01*
Y921015D01*
X675616Y919083D01*
X674862Y917263D01*
X673767Y915625D01*
X672375Y914232D01*
X670737Y913138D01*
X668917Y912384D01*
X666985Y912000D01*
X665015D01*
X663083Y912384D01*
X661263Y913138D01*
X659625Y914232D01*
X658232Y915625D01*
X657138Y917263D01*
X656384Y919083D01*
X656000Y921015D01*
Y922000D01*
Y922985D01*
X656384Y924917D01*
X657138Y926737D01*
X658232Y928375D01*
X659625Y929768D01*
X661263Y930862D01*
X663083Y931616D01*
X665015Y932000D01*
X666985D01*
X668917Y931616D01*
D02*
G37*
G36*
X502917D02*
X504737Y930862D01*
X506375Y929768D01*
X507767Y928375D01*
X508862Y926737D01*
X509616Y924917D01*
X510000Y922985D01*
Y922000D01*
Y921015D01*
X509616Y919083D01*
X508862Y917263D01*
X507767Y915625D01*
X506375Y914232D01*
X504737Y913138D01*
X502917Y912384D01*
X500985Y912000D01*
X499015D01*
X497083Y912384D01*
X495263Y913138D01*
X493625Y914232D01*
X492233Y915625D01*
X491138Y917263D01*
X490384Y919083D01*
X490000Y921015D01*
Y922000D01*
Y922985D01*
X490384Y924917D01*
X491138Y926737D01*
X492233Y928375D01*
X493625Y929768D01*
X495263Y930862D01*
X497083Y931616D01*
X499015Y932000D01*
X500985D01*
X502917Y931616D01*
D02*
G37*
G36*
X336917D02*
X338737Y930862D01*
X340375Y929768D01*
X341768Y928375D01*
X342862Y926737D01*
X343616Y924917D01*
X344000Y922985D01*
Y922000D01*
Y921015D01*
X343616Y919083D01*
X342862Y917263D01*
X341768Y915625D01*
X340375Y914232D01*
X338737Y913138D01*
X336917Y912384D01*
X334985Y912000D01*
X333015D01*
X331083Y912384D01*
X329263Y913138D01*
X327625Y914232D01*
X326232Y915625D01*
X325138Y917263D01*
X324384Y919083D01*
X324000Y921015D01*
Y922000D01*
Y922985D01*
X324384Y924917D01*
X325138Y926737D01*
X326232Y928375D01*
X327625Y929768D01*
X329263Y930862D01*
X331083Y931616D01*
X333015Y932000D01*
X334985D01*
X336917Y931616D01*
D02*
G37*
G36*
X170917D02*
X172737Y930862D01*
X174375Y929768D01*
X175767Y928375D01*
X176862Y926737D01*
X177616Y924917D01*
X178000Y922985D01*
Y922000D01*
Y921015D01*
X177616Y919083D01*
X176862Y917263D01*
X175767Y915625D01*
X174375Y914232D01*
X172737Y913138D01*
X170917Y912384D01*
X168985Y912000D01*
X167015D01*
X165083Y912384D01*
X163263Y913138D01*
X161625Y914232D01*
X160233Y915625D01*
X159138Y917263D01*
X158384Y919083D01*
X158000Y921015D01*
Y922000D01*
Y922985D01*
X158384Y924917D01*
X159138Y926737D01*
X160233Y928375D01*
X161625Y929768D01*
X163263Y930862D01*
X165083Y931616D01*
X167015Y932000D01*
X168985D01*
X170917Y931616D01*
D02*
G37*
G36*
X952917Y909616D02*
X954737Y908862D01*
X956375Y907767D01*
X957767Y906375D01*
X958862Y904737D01*
X959616Y902917D01*
X960000Y900985D01*
Y900000D01*
Y899015D01*
X959616Y897083D01*
X958862Y895263D01*
X957767Y893625D01*
X956375Y892233D01*
X954737Y891138D01*
X952917Y890384D01*
X950985Y890000D01*
X949015D01*
X947083Y890384D01*
X945263Y891138D01*
X943625Y892233D01*
X942233Y893625D01*
X941138Y895263D01*
X940384Y897083D01*
X940000Y899015D01*
Y900000D01*
Y900985D01*
X940384Y902917D01*
X941138Y904737D01*
X942233Y906375D01*
X943625Y907767D01*
X945263Y908862D01*
X947083Y909616D01*
X949015Y910000D01*
X950985D01*
X952917Y909616D01*
D02*
G37*
G36*
X52917D02*
X54737Y908862D01*
X56375Y907767D01*
X57768Y906375D01*
X58862Y904737D01*
X59616Y902917D01*
X60000Y900985D01*
Y900000D01*
Y899015D01*
X59616Y897083D01*
X58862Y895263D01*
X57768Y893625D01*
X56375Y892233D01*
X54737Y891138D01*
X52917Y890384D01*
X50985Y890000D01*
X49015D01*
X47083Y890384D01*
X45263Y891138D01*
X43625Y892233D01*
X42232Y893625D01*
X41138Y895263D01*
X40384Y897083D01*
X40000Y899015D01*
Y900000D01*
Y900985D01*
X40384Y902917D01*
X41138Y904737D01*
X42232Y906375D01*
X43625Y907767D01*
X45263Y908862D01*
X47083Y909616D01*
X49015Y910000D01*
X50985D01*
X52917Y909616D01*
D02*
G37*
G36*
X889009Y913024D02*
X893631Y911109D01*
X897792Y908329D01*
X901329Y904791D01*
X904109Y900631D01*
X906024Y896009D01*
X907000Y891102D01*
Y888600D01*
Y864000D01*
X897000D01*
X857000Y904000D01*
Y914000D01*
X884102D01*
X889009Y913024D01*
D02*
G37*
G36*
X807000Y904000D02*
X767000Y864000D01*
X757000D01*
Y888600D01*
Y891102D01*
X757976Y896009D01*
X759891Y900631D01*
X762671Y904791D01*
X766208Y908329D01*
X770369Y911109D01*
X774991Y913024D01*
X779898Y914000D01*
X807000D01*
Y904000D01*
D02*
G37*
G36*
X723009Y913024D02*
X727631Y911109D01*
X731792Y908329D01*
X735329Y904791D01*
X738109Y900631D01*
X740024Y896009D01*
X741000Y891102D01*
Y888600D01*
Y864000D01*
X731000D01*
X691000Y904000D01*
Y914000D01*
X718102D01*
X723009Y913024D01*
D02*
G37*
G36*
X641000Y904000D02*
X601000Y864000D01*
X591000D01*
Y888600D01*
Y891102D01*
X591976Y896009D01*
X593891Y900631D01*
X596670Y904791D01*
X600208Y908329D01*
X604369Y911109D01*
X608991Y913024D01*
X613898Y914000D01*
X641000D01*
Y904000D01*
D02*
G37*
G36*
X557009Y913024D02*
X561631Y911109D01*
X565792Y908329D01*
X569329Y904791D01*
X572109Y900631D01*
X574024Y896009D01*
X575000Y891102D01*
Y888600D01*
Y864000D01*
X565000D01*
X525000Y904000D01*
Y914000D01*
X552102D01*
X557009Y913024D01*
D02*
G37*
G36*
X475000Y904000D02*
X435000Y864000D01*
X425000D01*
Y888600D01*
Y891102D01*
X425976Y896009D01*
X427891Y900631D01*
X430671Y904791D01*
X434208Y908329D01*
X438369Y911109D01*
X442991Y913024D01*
X447898Y914000D01*
X475000D01*
Y904000D01*
D02*
G37*
G36*
X391009Y913024D02*
X395631Y911109D01*
X399791Y908329D01*
X403329Y904791D01*
X406109Y900631D01*
X408024Y896009D01*
X409000Y891102D01*
Y888600D01*
Y864000D01*
X399000D01*
X359000Y904000D01*
Y914000D01*
X386102D01*
X391009Y913024D01*
D02*
G37*
G36*
X309000Y904000D02*
X269000Y864000D01*
X259000D01*
Y888600D01*
Y891102D01*
X259976Y896009D01*
X261891Y900631D01*
X264671Y904791D01*
X268208Y908329D01*
X272369Y911109D01*
X276991Y913024D01*
X281898Y914000D01*
X309000D01*
Y904000D01*
D02*
G37*
G36*
X225009Y913024D02*
X229631Y911109D01*
X233792Y908329D01*
X237329Y904791D01*
X240109Y900631D01*
X242024Y896009D01*
X243000Y891102D01*
Y888600D01*
Y864000D01*
X233000D01*
X193000Y904000D01*
Y914000D01*
X220102D01*
X225009Y913024D01*
D02*
G37*
G36*
X143000Y904000D02*
X103000Y864000D01*
X93000D01*
Y888600D01*
Y891102D01*
X93976Y896009D01*
X95891Y900631D01*
X98671Y904791D01*
X102208Y908329D01*
X106369Y911109D01*
X110991Y913024D01*
X115898Y914000D01*
X143000D01*
Y904000D01*
D02*
G37*
G36*
X917917Y848616D02*
X919737Y847862D01*
X921375Y846768D01*
X922767Y845375D01*
X923862Y843737D01*
X924616Y841917D01*
X925000Y839985D01*
Y839000D01*
Y838015D01*
X924616Y836083D01*
X923862Y834263D01*
X922767Y832625D01*
X921375Y831233D01*
X919737Y830138D01*
X917917Y829384D01*
X915985Y829000D01*
X914015D01*
X912083Y829384D01*
X910263Y830138D01*
X908625Y831233D01*
X907233Y832625D01*
X906138Y834263D01*
X905384Y836083D01*
X905000Y838015D01*
Y839000D01*
Y839985D01*
X905384Y841917D01*
X906138Y843737D01*
X907233Y845375D01*
X908625Y846768D01*
X910263Y847862D01*
X912083Y848616D01*
X914015Y849000D01*
X915985D01*
X917917Y848616D01*
D02*
G37*
G36*
X751917D02*
X753737Y847862D01*
X755375Y846768D01*
X756768Y845375D01*
X757862Y843737D01*
X758616Y841917D01*
X759000Y839985D01*
Y839000D01*
Y838015D01*
X758616Y836083D01*
X757862Y834263D01*
X756768Y832625D01*
X755375Y831233D01*
X753737Y830138D01*
X751917Y829384D01*
X749985Y829000D01*
X748015D01*
X746083Y829384D01*
X744263Y830138D01*
X742625Y831233D01*
X741233Y832625D01*
X740138Y834263D01*
X739384Y836083D01*
X739000Y838015D01*
Y839000D01*
Y839985D01*
X739384Y841917D01*
X740138Y843737D01*
X741233Y845375D01*
X742625Y846768D01*
X744263Y847862D01*
X746083Y848616D01*
X748015Y849000D01*
X749985D01*
X751917Y848616D01*
D02*
G37*
G36*
X585917D02*
X587737Y847862D01*
X589375Y846768D01*
X590768Y845375D01*
X591862Y843737D01*
X592616Y841917D01*
X593000Y839985D01*
Y839000D01*
Y838015D01*
X592616Y836083D01*
X591862Y834263D01*
X590768Y832625D01*
X589375Y831233D01*
X587737Y830138D01*
X585917Y829384D01*
X583985Y829000D01*
X582015D01*
X580083Y829384D01*
X578263Y830138D01*
X576625Y831233D01*
X575233Y832625D01*
X574138Y834263D01*
X573384Y836083D01*
X573000Y838015D01*
Y839000D01*
Y839985D01*
X573384Y841917D01*
X574138Y843737D01*
X575233Y845375D01*
X576625Y846768D01*
X578263Y847862D01*
X580083Y848616D01*
X582015Y849000D01*
X583985D01*
X585917Y848616D01*
D02*
G37*
G36*
X419917D02*
X421737Y847862D01*
X423375Y846768D01*
X424767Y845375D01*
X425862Y843737D01*
X426616Y841917D01*
X427000Y839985D01*
Y839000D01*
Y838015D01*
X426616Y836083D01*
X425862Y834263D01*
X424767Y832625D01*
X423375Y831233D01*
X421737Y830138D01*
X419917Y829384D01*
X417985Y829000D01*
X416015D01*
X414083Y829384D01*
X412263Y830138D01*
X410625Y831233D01*
X409232Y832625D01*
X408138Y834263D01*
X407384Y836083D01*
X407000Y838015D01*
Y839000D01*
Y839985D01*
X407384Y841917D01*
X408138Y843737D01*
X409232Y845375D01*
X410625Y846768D01*
X412263Y847862D01*
X414083Y848616D01*
X416015Y849000D01*
X417985D01*
X419917Y848616D01*
D02*
G37*
G36*
X253917D02*
X255737Y847862D01*
X257375Y846768D01*
X258768Y845375D01*
X259862Y843737D01*
X260616Y841917D01*
X261000Y839985D01*
Y839000D01*
Y838015D01*
X260616Y836083D01*
X259862Y834263D01*
X258768Y832625D01*
X257375Y831233D01*
X255737Y830138D01*
X253917Y829384D01*
X251985Y829000D01*
X250015D01*
X248083Y829384D01*
X246263Y830138D01*
X244625Y831233D01*
X243232Y832625D01*
X242138Y834263D01*
X241384Y836083D01*
X241000Y838015D01*
Y839000D01*
Y839985D01*
X241384Y841917D01*
X242138Y843737D01*
X243232Y845375D01*
X244625Y846768D01*
X246263Y847862D01*
X248083Y848616D01*
X250015Y849000D01*
X251985D01*
X253917Y848616D01*
D02*
G37*
G36*
X87917D02*
X89737Y847862D01*
X91375Y846768D01*
X92767Y845375D01*
X93862Y843737D01*
X94616Y841917D01*
X95000Y839985D01*
Y839000D01*
Y838015D01*
X94616Y836083D01*
X93862Y834263D01*
X92767Y832625D01*
X91375Y831233D01*
X89737Y830138D01*
X87917Y829384D01*
X85985Y829000D01*
X84015D01*
X82083Y829384D01*
X80263Y830138D01*
X78625Y831233D01*
X77232Y832625D01*
X76138Y834263D01*
X75384Y836083D01*
X75000Y838015D01*
Y839000D01*
Y839985D01*
X75384Y841917D01*
X76138Y843737D01*
X77232Y845375D01*
X78625Y846768D01*
X80263Y847862D01*
X82083Y848616D01*
X84015Y849000D01*
X85985D01*
X87917Y848616D01*
D02*
G37*
G36*
X20034Y781902D02*
X7712D01*
Y789675D01*
X9649D01*
Y784089D01*
X12536D01*
Y788063D01*
X14398D01*
Y784089D01*
X18097D01*
Y789675D01*
X20034D01*
Y781902D01*
D02*
G37*
G36*
X16973Y779965D02*
X17072D01*
X17198Y779940D01*
X17347Y779915D01*
X17510Y779878D01*
X17697Y779828D01*
X17885Y779765D01*
X18085Y779690D01*
X18285Y779590D01*
X18497Y779478D01*
X18697Y779340D01*
X18897Y779178D01*
X19097Y779003D01*
X19284Y778790D01*
X19297Y778778D01*
X19322Y778740D01*
X19372Y778665D01*
X19434Y778578D01*
X19509Y778453D01*
X19584Y778316D01*
X19672Y778141D01*
X19759Y777953D01*
X19859Y777741D01*
X19947Y777503D01*
X20022Y777241D01*
X20097Y776953D01*
X20159Y776654D01*
X20209Y776329D01*
X20234Y775991D01*
X20247Y775629D01*
Y775466D01*
X20234Y775341D01*
X20222Y775191D01*
X20197Y775016D01*
X20172Y774817D01*
X20134Y774592D01*
X20084Y774354D01*
X20034Y774117D01*
X19959Y773854D01*
X19872Y773592D01*
X19772Y773317D01*
X19647Y773054D01*
X19509Y772779D01*
X19359Y772517D01*
X17397Y773317D01*
X17410Y773329D01*
X17435Y773379D01*
X17485Y773442D01*
X17535Y773542D01*
X17610Y773654D01*
X17685Y773792D01*
X17772Y773954D01*
X17847Y774129D01*
X17935Y774317D01*
X18022Y774517D01*
X18172Y774941D01*
X18222Y775166D01*
X18272Y775404D01*
X18297Y775629D01*
X18310Y775866D01*
Y775954D01*
X18297Y776041D01*
X18285Y776166D01*
X18272Y776316D01*
X18235Y776479D01*
X18197Y776654D01*
X18147Y776841D01*
X18072Y777016D01*
X17985Y777191D01*
X17872Y777353D01*
X17747Y777503D01*
X17597Y777628D01*
X17410Y777716D01*
X17210Y777778D01*
X16973Y777803D01*
X16960D01*
X16947D01*
X16910D01*
X16860Y777791D01*
X16735Y777778D01*
X16585Y777741D01*
X16398Y777691D01*
X16198Y777603D01*
X15985Y777491D01*
X15773Y777341D01*
X15760D01*
X15748Y777316D01*
X15710Y777291D01*
X15673Y777253D01*
X15623Y777191D01*
X15548Y777128D01*
X15473Y777041D01*
X15398Y776941D01*
X15310Y776816D01*
X15210Y776691D01*
X15098Y776528D01*
X14986Y776366D01*
X14873Y776166D01*
X14748Y775954D01*
X14623Y775729D01*
X14486Y775466D01*
X14473Y775454D01*
X14448Y775404D01*
X14411Y775329D01*
X14361Y775241D01*
X14311Y775129D01*
X14236Y774991D01*
X14161Y774854D01*
X14073Y774704D01*
X13886Y774379D01*
X13686Y774067D01*
X13586Y773917D01*
X13498Y773779D01*
X13398Y773654D01*
X13311Y773554D01*
X13286Y773529D01*
X13224Y773479D01*
X13136Y773392D01*
X12999Y773279D01*
X12836Y773154D01*
X12661Y773029D01*
X12449Y772917D01*
X12224Y772804D01*
X12211D01*
X12199Y772792D01*
X12161Y772779D01*
X12111Y772767D01*
X11986Y772717D01*
X11811Y772680D01*
X11599Y772629D01*
X11362Y772579D01*
X11099Y772554D01*
X10824Y772542D01*
X10812D01*
X10762D01*
X10687Y772554D01*
X10587D01*
X10462Y772579D01*
X10324Y772592D01*
X10162Y772629D01*
X9987Y772667D01*
X9799Y772729D01*
X9612Y772792D01*
X9412Y772879D01*
X9212Y772979D01*
X9012Y773104D01*
X8825Y773242D01*
X8625Y773392D01*
X8450Y773579D01*
X8437Y773592D01*
X8412Y773629D01*
X8362Y773692D01*
X8300Y773767D01*
X8225Y773879D01*
X8150Y774004D01*
X8062Y774142D01*
X7975Y774304D01*
X7887Y774492D01*
X7800Y774691D01*
X7725Y774916D01*
X7650Y775154D01*
X7587Y775416D01*
X7537Y775679D01*
X7513Y775966D01*
X7500Y776266D01*
Y776466D01*
X7513Y776616D01*
X7525Y776791D01*
X7537Y776991D01*
X7562Y777216D01*
X7600Y777466D01*
X7700Y777978D01*
X7762Y778241D01*
X7837Y778491D01*
X7937Y778753D01*
X8050Y778990D01*
X8175Y779215D01*
X8312Y779415D01*
X10187Y778740D01*
X10174Y778728D01*
X10149Y778690D01*
X10112Y778628D01*
X10062Y778540D01*
X9999Y778440D01*
X9924Y778316D01*
X9849Y778166D01*
X9774Y778003D01*
X9699Y777828D01*
X9624Y777641D01*
X9487Y777228D01*
X9437Y777016D01*
X9399Y776791D01*
X9374Y776553D01*
X9362Y776316D01*
Y776191D01*
X9387Y776054D01*
X9412Y775879D01*
X9462Y775691D01*
X9524Y775504D01*
X9624Y775316D01*
X9762Y775141D01*
X9774Y775129D01*
X9837Y775079D01*
X9924Y775016D01*
X10037Y774941D01*
X10199Y774854D01*
X10374Y774791D01*
X10574Y774742D01*
X10812Y774729D01*
X10824D01*
X10862D01*
X10912Y774742D01*
X10999Y774766D01*
X11086Y774804D01*
X11212Y774854D01*
X11336Y774929D01*
X11486Y775016D01*
X11649Y775141D01*
X11811Y775304D01*
X11999Y775491D01*
X12186Y775716D01*
X12386Y775979D01*
X12586Y776291D01*
X12699Y776466D01*
X12799Y776654D01*
X12899Y776853D01*
X13011Y777066D01*
X13024Y777078D01*
X13036Y777116D01*
X13074Y777178D01*
X13111Y777266D01*
X13174Y777366D01*
X13236Y777491D01*
X13386Y777753D01*
X13548Y778041D01*
X13748Y778341D01*
X13936Y778615D01*
X14036Y778740D01*
X14136Y778853D01*
Y778865D01*
X14161Y778878D01*
X14223Y778940D01*
X14323Y779040D01*
X14473Y779165D01*
X14636Y779303D01*
X14836Y779440D01*
X15060Y779578D01*
X15310Y779690D01*
X15323D01*
X15336Y779703D01*
X15373Y779715D01*
X15423Y779740D01*
X15498Y779753D01*
X15573Y779778D01*
X15748Y779840D01*
X15973Y779890D01*
X16235Y779928D01*
X16523Y779965D01*
X16823Y779978D01*
X16835D01*
X16885D01*
X16973Y779965D01*
D02*
G37*
G36*
X907000Y789400D02*
Y786898D01*
X906024Y781991D01*
X904109Y777369D01*
X901329Y773208D01*
X897792Y769670D01*
X893631Y766891D01*
X889009Y764976D01*
X884102Y764000D01*
X857000D01*
Y774000D01*
X897000Y814000D01*
X907000D01*
Y789400D01*
D02*
G37*
G36*
X807000Y774000D02*
Y764000D01*
X779898D01*
X774991Y764976D01*
X770369Y766891D01*
X766208Y769670D01*
X762671Y773208D01*
X759891Y777369D01*
X757976Y781991D01*
X757000Y786898D01*
Y789400D01*
Y814000D01*
X767000D01*
X807000Y774000D01*
D02*
G37*
G36*
X741000Y789400D02*
Y786898D01*
X740024Y781991D01*
X738109Y777369D01*
X735329Y773208D01*
X731792Y769670D01*
X727631Y766891D01*
X723009Y764976D01*
X718102Y764000D01*
X691000D01*
Y774000D01*
X731000Y814000D01*
X741000D01*
Y789400D01*
D02*
G37*
G36*
X641000Y774000D02*
Y764000D01*
X613898D01*
X608991Y764976D01*
X604369Y766891D01*
X600208Y769670D01*
X596670Y773208D01*
X593891Y777369D01*
X591976Y781991D01*
X591000Y786898D01*
Y789400D01*
Y814000D01*
X601000D01*
X641000Y774000D01*
D02*
G37*
G36*
X575000Y789400D02*
Y786898D01*
X574024Y781991D01*
X572109Y777369D01*
X569329Y773208D01*
X565792Y769670D01*
X561631Y766891D01*
X557009Y764976D01*
X552102Y764000D01*
X525000D01*
Y774000D01*
X565000Y814000D01*
X575000D01*
Y789400D01*
D02*
G37*
G36*
X475000Y774000D02*
Y764000D01*
X447898D01*
X442991Y764976D01*
X438369Y766891D01*
X434208Y769670D01*
X430671Y773208D01*
X427891Y777369D01*
X425976Y781991D01*
X425000Y786898D01*
Y789400D01*
Y814000D01*
X435000D01*
X475000Y774000D01*
D02*
G37*
G36*
X409000Y789400D02*
Y786898D01*
X408024Y781991D01*
X406109Y777369D01*
X403329Y773208D01*
X399791Y769670D01*
X395631Y766891D01*
X391009Y764976D01*
X386102Y764000D01*
X359000D01*
Y774000D01*
X399000Y814000D01*
X409000D01*
Y789400D01*
D02*
G37*
G36*
X309000Y774000D02*
Y764000D01*
X281898D01*
X276991Y764976D01*
X272369Y766891D01*
X268208Y769670D01*
X264671Y773208D01*
X261891Y777369D01*
X259976Y781991D01*
X259000Y786898D01*
Y789400D01*
Y814000D01*
X269000D01*
X309000Y774000D01*
D02*
G37*
G36*
X243000Y789400D02*
Y786898D01*
X242024Y781991D01*
X240109Y777369D01*
X237329Y773208D01*
X233792Y769670D01*
X229631Y766891D01*
X225009Y764976D01*
X220102Y764000D01*
X193000D01*
Y774000D01*
X233000Y814000D01*
X243000D01*
Y789400D01*
D02*
G37*
G36*
X143000Y774000D02*
Y764000D01*
X115898D01*
X110991Y764976D01*
X106369Y766891D01*
X102208Y769670D01*
X98671Y773208D01*
X95891Y777369D01*
X93976Y781991D01*
X93000Y786898D01*
Y789400D01*
Y814000D01*
X103000D01*
X143000Y774000D01*
D02*
G37*
G36*
X20197Y769693D02*
X12399Y763707D01*
X20034D01*
Y761607D01*
X7712D01*
Y762657D01*
X15148Y768481D01*
X7712D01*
Y770580D01*
X20197D01*
Y769693D01*
D02*
G37*
G36*
X20034Y751810D02*
X7712D01*
Y759583D01*
X9649D01*
Y753997D01*
X12536D01*
Y757971D01*
X14398D01*
Y753997D01*
X18097D01*
Y759583D01*
X20034D01*
Y751810D01*
D02*
G37*
G36*
X834917Y765616D02*
X836737Y764862D01*
X838375Y763767D01*
X839768Y762375D01*
X840862Y760737D01*
X841616Y758917D01*
X842000Y756985D01*
Y756985D01*
D01*
Y756000D01*
Y755015D01*
X841616Y753083D01*
X840862Y751263D01*
X839768Y749625D01*
X838375Y748232D01*
X836737Y747138D01*
X834917Y746384D01*
X832985Y746000D01*
X831015D01*
X829083Y746384D01*
X827263Y747138D01*
X825625Y748232D01*
X824232Y749625D01*
X823138Y751263D01*
X822384Y753083D01*
X822000Y755015D01*
Y755015D01*
Y756000D01*
Y756985D01*
D01*
Y756985D01*
X822384Y758917D01*
X823138Y760737D01*
X824232Y762375D01*
X825625Y763767D01*
X827263Y764862D01*
X829083Y765616D01*
X831015Y766000D01*
X832985D01*
X834917Y765616D01*
D02*
G37*
G36*
X668917D02*
X670737Y764862D01*
X672375Y763767D01*
X673767Y762375D01*
X674862Y760737D01*
X675616Y758917D01*
X676000Y756985D01*
Y756985D01*
Y756000D01*
Y755015D01*
X675616Y753083D01*
X674862Y751263D01*
X673767Y749625D01*
X672375Y748232D01*
X670737Y747138D01*
X668917Y746384D01*
X666985Y746000D01*
X665015D01*
X663083Y746384D01*
X661263Y747138D01*
X659625Y748232D01*
X658232Y749625D01*
X657138Y751263D01*
X656384Y753083D01*
X656000Y755015D01*
Y755015D01*
Y756000D01*
Y756985D01*
Y756985D01*
X656384Y758917D01*
X657138Y760737D01*
X658232Y762375D01*
X659625Y763767D01*
X661263Y764862D01*
X663083Y765616D01*
X665015Y766000D01*
X666985D01*
X668917Y765616D01*
D02*
G37*
G36*
X502917D02*
X504737Y764862D01*
X506375Y763767D01*
X507767Y762375D01*
X508862Y760737D01*
X509616Y758917D01*
X510000Y756985D01*
Y756985D01*
Y756000D01*
Y755015D01*
X509616Y753083D01*
X508862Y751263D01*
X507767Y749625D01*
X506375Y748232D01*
X504737Y747138D01*
X502917Y746384D01*
X500985Y746000D01*
X499015D01*
X497083Y746384D01*
X495263Y747138D01*
X493625Y748232D01*
X492233Y749625D01*
X491138Y751263D01*
X490384Y753083D01*
X490000Y755015D01*
Y755015D01*
Y756000D01*
Y756985D01*
Y756985D01*
X490384Y758917D01*
X491138Y760737D01*
X492233Y762375D01*
X493625Y763767D01*
X495263Y764862D01*
X497083Y765616D01*
X499015Y766000D01*
X500985D01*
X502917Y765616D01*
D02*
G37*
G36*
X336917D02*
X338737Y764862D01*
X340375Y763767D01*
X341768Y762375D01*
X342862Y760737D01*
X343616Y758917D01*
X344000Y756985D01*
Y756985D01*
Y756000D01*
Y755015D01*
X343616Y753083D01*
X342862Y751263D01*
X341768Y749625D01*
X340375Y748232D01*
X338737Y747138D01*
X336917Y746384D01*
X334985Y746000D01*
X333015D01*
X331083Y746384D01*
X329263Y747138D01*
X327625Y748232D01*
X326232Y749625D01*
X325138Y751263D01*
X324384Y753083D01*
X324000Y755015D01*
Y755015D01*
Y756000D01*
Y756985D01*
Y756985D01*
X324384Y758917D01*
X325138Y760737D01*
X326232Y762375D01*
X327625Y763767D01*
X329263Y764862D01*
X331083Y765616D01*
X333015Y766000D01*
X334985D01*
X336917Y765616D01*
D02*
G37*
G36*
X170917D02*
X172737Y764862D01*
X174375Y763767D01*
X175767Y762375D01*
X176862Y760737D01*
X177616Y758917D01*
X178000Y756985D01*
Y756985D01*
Y756000D01*
Y755015D01*
X177616Y753083D01*
X176862Y751263D01*
X175767Y749625D01*
X174375Y748232D01*
X172737Y747138D01*
X170917Y746384D01*
X168985Y746000D01*
X167015D01*
X165083Y746384D01*
X163263Y747138D01*
X161625Y748232D01*
X160233Y749625D01*
X159138Y751263D01*
X158384Y753083D01*
X158000Y755015D01*
Y755015D01*
Y756000D01*
Y756985D01*
Y756985D01*
X158384Y758917D01*
X159138Y760737D01*
X160233Y762375D01*
X161625Y763767D01*
X163263Y764862D01*
X165083Y765616D01*
X167015Y766000D01*
X168985D01*
X170917Y765616D01*
D02*
G37*
G36*
X18835Y750035D02*
X18885Y749985D01*
X18947Y749910D01*
X19047Y749798D01*
X19147Y749660D01*
X19272Y749485D01*
X19397Y749286D01*
X19534Y749061D01*
X19672Y748798D01*
X19797Y748498D01*
X19922Y748186D01*
X20022Y747823D01*
X20109Y747449D01*
X20184Y747036D01*
X20234Y746599D01*
X20247Y746124D01*
Y746011D01*
X20234Y745874D01*
X20222Y745699D01*
X20197Y745487D01*
X20159Y745237D01*
X20109Y744949D01*
X20034Y744649D01*
X19947Y744337D01*
X19834Y744012D01*
X19697Y743674D01*
X19534Y743337D01*
X19334Y743012D01*
X19109Y742700D01*
X18847Y742387D01*
X18547Y742112D01*
X18522Y742100D01*
X18472Y742050D01*
X18372Y741987D01*
X18235Y741887D01*
X18060Y741787D01*
X17860Y741662D01*
X17610Y741537D01*
X17335Y741400D01*
X17023Y741263D01*
X16673Y741138D01*
X16285Y741013D01*
X15873Y740913D01*
X15435Y740825D01*
X14961Y740750D01*
X14461Y740700D01*
X13923Y740688D01*
X13911D01*
X13886D01*
X13848D01*
X13798D01*
X13736Y740700D01*
X13661D01*
X13461Y740713D01*
X13236Y740738D01*
X12961Y740775D01*
X12661Y740825D01*
X12324Y740888D01*
X11974Y740963D01*
X11599Y741075D01*
X11224Y741200D01*
X10837Y741350D01*
X10449Y741537D01*
X10074Y741737D01*
X9699Y741987D01*
X9349Y742262D01*
X9324Y742287D01*
X9275Y742337D01*
X9175Y742425D01*
X9062Y742550D01*
X8925Y742712D01*
X8762Y742900D01*
X8600Y743112D01*
X8425Y743362D01*
X8250Y743649D01*
X8087Y743949D01*
X7925Y744287D01*
X7787Y744649D01*
X7675Y745037D01*
X7575Y745436D01*
X7525Y745874D01*
X7500Y746324D01*
Y746524D01*
X7513Y746674D01*
X7525Y746861D01*
X7550Y747061D01*
X7575Y747299D01*
X7612Y747548D01*
X7650Y747811D01*
X7712Y748086D01*
X7775Y748373D01*
X7862Y748661D01*
X7962Y748936D01*
X8075Y749211D01*
X8212Y749473D01*
X8362Y749723D01*
X10174Y748823D01*
X10162Y748811D01*
X10137Y748786D01*
X10112Y748748D01*
X10062Y748686D01*
X9999Y748598D01*
X9937Y748511D01*
X9874Y748386D01*
X9799Y748248D01*
X9737Y748098D01*
X9674Y747923D01*
X9612Y747723D01*
X9549Y747511D01*
X9499Y747286D01*
X9474Y747024D01*
X9449Y746761D01*
X9437Y746461D01*
Y746399D01*
X9449Y746311D01*
X9462Y746211D01*
X9474Y746074D01*
X9499Y745924D01*
X9549Y745749D01*
X9599Y745574D01*
X9662Y745374D01*
X9749Y745174D01*
X9862Y744962D01*
X9987Y744749D01*
X10137Y744537D01*
X10312Y744324D01*
X10512Y744124D01*
X10737Y743937D01*
X10749Y743924D01*
X10799Y743899D01*
X10874Y743849D01*
X10974Y743787D01*
X11099Y743712D01*
X11249Y743624D01*
X11424Y743537D01*
X11624Y743449D01*
X11849Y743362D01*
X12099Y743275D01*
X12374Y743187D01*
X12661Y743112D01*
X12974Y743050D01*
X13298Y743000D01*
X13648Y742975D01*
X14011Y742962D01*
X14036D01*
X14098D01*
X14198Y742975D01*
X14336D01*
X14498Y742987D01*
X14698Y743012D01*
X14911Y743037D01*
X15148Y743075D01*
X15385Y743125D01*
X15648Y743187D01*
X15910Y743250D01*
X16173Y743337D01*
X16423Y743449D01*
X16673Y743562D01*
X16923Y743699D01*
X17148Y743862D01*
X17160Y743874D01*
X17198Y743899D01*
X17260Y743962D01*
X17322Y744024D01*
X17422Y744124D01*
X17510Y744237D01*
X17622Y744362D01*
X17722Y744512D01*
X17835Y744674D01*
X17947Y744862D01*
X18035Y745062D01*
X18122Y745274D01*
X18197Y745511D01*
X18260Y745761D01*
X18297Y746024D01*
X18310Y746299D01*
Y746374D01*
X18297Y746461D01*
X18285Y746586D01*
X18272Y746736D01*
X18247Y746899D01*
X18210Y747086D01*
X18147Y747286D01*
X18085Y747511D01*
X18010Y747723D01*
X17897Y747948D01*
X17785Y748186D01*
X17635Y748411D01*
X17472Y748623D01*
X17285Y748836D01*
X17060Y749023D01*
X18822Y750048D01*
X18835Y750035D01*
D02*
G37*
G36*
X20034Y736514D02*
X7712D01*
Y738701D01*
X20034D01*
Y736514D01*
D02*
G37*
G36*
Y726954D02*
X7712D01*
Y729141D01*
X18097D01*
Y734702D01*
X20034D01*
Y726954D01*
D02*
G37*
G36*
X9649Y716244D02*
X20034D01*
Y714057D01*
X9649D01*
Y710133D01*
X7712D01*
Y720343D01*
X9649D01*
Y716244D01*
D02*
G37*
G36*
X20034Y706471D02*
X7712D01*
Y708658D01*
X20034D01*
Y706471D01*
D02*
G37*
G36*
X889009Y747024D02*
X893631Y745109D01*
X897792Y742329D01*
X901329Y738792D01*
X904109Y734631D01*
X906024Y730009D01*
X907000Y725102D01*
Y722600D01*
Y698000D01*
X897000D01*
X857000Y738000D01*
Y748000D01*
X884102D01*
X889009Y747024D01*
D02*
G37*
G36*
X807000Y738000D02*
X767000Y698000D01*
X757000D01*
Y722600D01*
Y725102D01*
X757976Y730009D01*
X759891Y734631D01*
X762671Y738792D01*
X766208Y742329D01*
X770369Y745109D01*
X774991Y747024D01*
X779898Y748000D01*
X807000D01*
Y738000D01*
D02*
G37*
G36*
X723009Y747024D02*
X727631Y745109D01*
X731792Y742329D01*
X735329Y738792D01*
X738109Y734631D01*
X740024Y730009D01*
X741000Y725102D01*
Y722600D01*
Y698000D01*
X731000D01*
X691000Y738000D01*
Y748000D01*
X718102D01*
X723009Y747024D01*
D02*
G37*
G36*
X641000Y738000D02*
X601000Y698000D01*
X591000D01*
Y722600D01*
Y725102D01*
X591976Y730009D01*
X593891Y734631D01*
X596670Y738792D01*
X600208Y742329D01*
X604369Y745109D01*
X608991Y747024D01*
X613898Y748000D01*
X641000D01*
Y738000D01*
D02*
G37*
G36*
X557009Y747024D02*
X561631Y745109D01*
X565792Y742329D01*
X569329Y738792D01*
X572109Y734631D01*
X574024Y730009D01*
X575000Y725102D01*
Y722600D01*
Y698000D01*
X565000D01*
X525000Y738000D01*
Y748000D01*
X552102D01*
X557009Y747024D01*
D02*
G37*
G36*
X475000Y738000D02*
X435000Y698000D01*
X425000D01*
Y722600D01*
Y725102D01*
X425976Y730009D01*
X427891Y734631D01*
X430671Y738792D01*
X434208Y742329D01*
X438369Y745109D01*
X442991Y747024D01*
X447898Y748000D01*
X475000D01*
Y738000D01*
D02*
G37*
G36*
X391009Y747024D02*
X395631Y745109D01*
X399791Y742329D01*
X403329Y738792D01*
X406109Y734631D01*
X408024Y730009D01*
X409000Y725102D01*
Y722600D01*
Y698000D01*
X399000D01*
X359000Y738000D01*
Y748000D01*
X386102D01*
X391009Y747024D01*
D02*
G37*
G36*
X309000Y738000D02*
X269000Y698000D01*
X259000D01*
Y722600D01*
Y725102D01*
X259976Y730009D01*
X261891Y734631D01*
X264671Y738792D01*
X268208Y742329D01*
X272369Y745109D01*
X276991Y747024D01*
X281898Y748000D01*
X309000D01*
Y738000D01*
D02*
G37*
G36*
X225009Y747024D02*
X229631Y745109D01*
X233792Y742329D01*
X237329Y738792D01*
X240109Y734631D01*
X242024Y730009D01*
X243000Y725102D01*
Y722600D01*
Y698000D01*
X233000D01*
X193000Y738000D01*
Y748000D01*
X220102D01*
X225009Y747024D01*
D02*
G37*
G36*
X143000Y738000D02*
X103000Y698000D01*
X93000D01*
Y722600D01*
Y725102D01*
X93976Y730009D01*
X95891Y734631D01*
X98671Y738792D01*
X102208Y742329D01*
X106369Y745109D01*
X110991Y747024D01*
X115898Y748000D01*
X143000D01*
Y738000D01*
D02*
G37*
G36*
X20034Y702960D02*
X13398Y701685D01*
X20197Y699211D01*
Y698423D01*
X13398Y695949D01*
X20034Y694612D01*
Y692500D01*
X7712Y694987D01*
Y696149D01*
X16010Y698811D01*
X7712Y701423D01*
Y702572D01*
X20034Y705084D01*
Y702960D01*
D02*
G37*
G36*
X917917Y682616D02*
X919737Y681862D01*
X921375Y680768D01*
X922767Y679375D01*
X923862Y677737D01*
X924616Y675917D01*
X925000Y673985D01*
Y673000D01*
Y672015D01*
X924616Y670083D01*
X923862Y668263D01*
X922767Y666625D01*
X921375Y665232D01*
X919737Y664138D01*
X917917Y663384D01*
X915985Y663000D01*
X914015D01*
X912083Y663384D01*
X910263Y664138D01*
X908625Y665232D01*
X907233Y666625D01*
X906138Y668263D01*
X905384Y670083D01*
X905000Y672015D01*
Y673000D01*
Y673985D01*
X905384Y675917D01*
X906138Y677737D01*
X907233Y679375D01*
X908625Y680768D01*
X910263Y681862D01*
X912083Y682616D01*
X914015Y683000D01*
X915985D01*
X917917Y682616D01*
D02*
G37*
G36*
X751917D02*
X753737Y681862D01*
X755375Y680768D01*
X756768Y679375D01*
X757862Y677737D01*
X758616Y675917D01*
X759000Y673985D01*
Y673000D01*
Y672015D01*
X758616Y670083D01*
X757862Y668263D01*
X756768Y666625D01*
X755375Y665232D01*
X753737Y664138D01*
X751917Y663384D01*
X749985Y663000D01*
X748015D01*
X746083Y663384D01*
X744263Y664138D01*
X742625Y665232D01*
X741233Y666625D01*
X740138Y668263D01*
X739384Y670083D01*
X739000Y672015D01*
Y673000D01*
Y673985D01*
X739384Y675917D01*
X740138Y677737D01*
X741233Y679375D01*
X742625Y680768D01*
X744263Y681862D01*
X746083Y682616D01*
X748015Y683000D01*
X749985D01*
X751917Y682616D01*
D02*
G37*
G36*
X585917D02*
X587737Y681862D01*
X589375Y680768D01*
X590768Y679375D01*
X591862Y677737D01*
X592616Y675917D01*
X593000Y673985D01*
Y673000D01*
Y672015D01*
X592616Y670083D01*
X591862Y668263D01*
X590768Y666625D01*
X589375Y665232D01*
X587737Y664138D01*
X585917Y663384D01*
X583985Y663000D01*
X582015D01*
X580083Y663384D01*
X578263Y664138D01*
X576625Y665232D01*
X575233Y666625D01*
X574138Y668263D01*
X573384Y670083D01*
X573000Y672015D01*
Y673000D01*
Y673985D01*
X573384Y675917D01*
X574138Y677737D01*
X575233Y679375D01*
X576625Y680768D01*
X578263Y681862D01*
X580083Y682616D01*
X582015Y683000D01*
X583985D01*
X585917Y682616D01*
D02*
G37*
G36*
X419917D02*
X421737Y681862D01*
X423375Y680768D01*
X424767Y679375D01*
X425862Y677737D01*
X426616Y675917D01*
X427000Y673985D01*
Y673000D01*
Y672015D01*
X426616Y670083D01*
X425862Y668263D01*
X424767Y666625D01*
X423375Y665232D01*
X421737Y664138D01*
X419917Y663384D01*
X417985Y663000D01*
X416015D01*
X414083Y663384D01*
X412263Y664138D01*
X410625Y665232D01*
X409232Y666625D01*
X408138Y668263D01*
X407384Y670083D01*
X407000Y672015D01*
Y673000D01*
Y673985D01*
X407384Y675917D01*
X408138Y677737D01*
X409232Y679375D01*
X410625Y680768D01*
X412263Y681862D01*
X414083Y682616D01*
X416015Y683000D01*
X417985D01*
X419917Y682616D01*
D02*
G37*
G36*
X253917D02*
X255737Y681862D01*
X257375Y680768D01*
X258768Y679375D01*
X259862Y677737D01*
X260616Y675917D01*
X261000Y673985D01*
Y673000D01*
Y672015D01*
X260616Y670083D01*
X259862Y668263D01*
X258768Y666625D01*
X257375Y665232D01*
X255737Y664138D01*
X253917Y663384D01*
X251985Y663000D01*
X250015D01*
X248083Y663384D01*
X246263Y664138D01*
X244625Y665232D01*
X243232Y666625D01*
X242138Y668263D01*
X241384Y670083D01*
X241000Y672015D01*
Y673000D01*
Y673985D01*
X241384Y675917D01*
X242138Y677737D01*
X243232Y679375D01*
X244625Y680768D01*
X246263Y681862D01*
X248083Y682616D01*
X250015Y683000D01*
X251985D01*
X253917Y682616D01*
D02*
G37*
G36*
X87917D02*
X89737Y681862D01*
X91375Y680768D01*
X92767Y679375D01*
X93862Y677737D01*
X94616Y675917D01*
X95000Y673985D01*
Y673000D01*
Y672015D01*
X94616Y670083D01*
X93862Y668263D01*
X92767Y666625D01*
X91375Y665232D01*
X89737Y664138D01*
X87917Y663384D01*
X85985Y663000D01*
X84015D01*
X82083Y663384D01*
X80263Y664138D01*
X78625Y665232D01*
X77232Y666625D01*
X76138Y668263D01*
X75384Y670083D01*
X75000Y672015D01*
Y673000D01*
Y673985D01*
X75384Y675917D01*
X76138Y677737D01*
X77232Y679375D01*
X78625Y680768D01*
X80263Y681862D01*
X82083Y682616D01*
X84015Y683000D01*
X85985D01*
X87917Y682616D01*
D02*
G37*
G36*
X907000Y623400D02*
Y620898D01*
X906024Y615991D01*
X904109Y611369D01*
X901329Y607208D01*
X897792Y603671D01*
X893631Y600891D01*
X889009Y598976D01*
X884102Y598000D01*
X857000D01*
Y608000D01*
X897000Y648000D01*
X907000D01*
Y623400D01*
D02*
G37*
G36*
X807000Y608000D02*
Y598000D01*
X779898D01*
X774991Y598976D01*
X770369Y600891D01*
X766208Y603671D01*
X762671Y607208D01*
X759891Y611369D01*
X757976Y615991D01*
X757000Y620898D01*
Y623400D01*
Y648000D01*
X767000D01*
X807000Y608000D01*
D02*
G37*
G36*
X741000Y623400D02*
Y620898D01*
X740024Y615991D01*
X738109Y611369D01*
X735329Y607208D01*
X731792Y603671D01*
X727631Y600891D01*
X723009Y598976D01*
X718102Y598000D01*
X691000D01*
Y608000D01*
X731000Y648000D01*
X741000D01*
Y623400D01*
D02*
G37*
G36*
X641000Y608000D02*
Y598000D01*
X613898D01*
X608991Y598976D01*
X604369Y600891D01*
X600208Y603671D01*
X596670Y607208D01*
X593891Y611369D01*
X591976Y615991D01*
X591000Y620898D01*
Y623400D01*
Y648000D01*
X601000D01*
X641000Y608000D01*
D02*
G37*
G36*
X575000Y623400D02*
Y620898D01*
X574024Y615991D01*
X572109Y611369D01*
X569329Y607208D01*
X565792Y603671D01*
X561631Y600891D01*
X557009Y598976D01*
X552102Y598000D01*
X525000D01*
Y608000D01*
X565000Y648000D01*
X575000D01*
Y623400D01*
D02*
G37*
G36*
X475000Y608000D02*
Y598000D01*
X447898D01*
X442991Y598976D01*
X438369Y600891D01*
X434208Y603671D01*
X430671Y607208D01*
X427891Y611369D01*
X425976Y615991D01*
X425000Y620898D01*
Y623400D01*
Y648000D01*
X435000D01*
X475000Y608000D01*
D02*
G37*
G36*
X409000Y623400D02*
Y620898D01*
X408024Y615991D01*
X406109Y611369D01*
X403329Y607208D01*
X399791Y603671D01*
X395631Y600891D01*
X391009Y598976D01*
X386102Y598000D01*
X359000D01*
Y608000D01*
X399000Y648000D01*
X409000D01*
Y623400D01*
D02*
G37*
G36*
X309000Y608000D02*
Y598000D01*
X281898D01*
X276991Y598976D01*
X272369Y600891D01*
X268208Y603671D01*
X264671Y607208D01*
X261891Y611369D01*
X259976Y615991D01*
X259000Y620898D01*
Y623400D01*
Y648000D01*
X269000D01*
X309000Y608000D01*
D02*
G37*
G36*
X243000Y623400D02*
Y620898D01*
X242024Y615991D01*
X240109Y611369D01*
X237329Y607208D01*
X233792Y603671D01*
X229631Y600891D01*
X225009Y598976D01*
X220102Y598000D01*
X193000D01*
Y608000D01*
X233000Y648000D01*
X243000D01*
Y623400D01*
D02*
G37*
G36*
X143000Y608000D02*
Y598000D01*
X115898D01*
X110991Y598976D01*
X106369Y600891D01*
X102208Y603671D01*
X98671Y607208D01*
X95891Y611369D01*
X93976Y615991D01*
X93000Y620898D01*
Y623400D01*
Y648000D01*
X103000D01*
X143000Y608000D01*
D02*
G37*
G36*
X834917Y599616D02*
X836737Y598862D01*
X838375Y597767D01*
X839768Y596375D01*
X840862Y594737D01*
X841616Y592917D01*
X842000Y590985D01*
Y590985D01*
Y590000D01*
Y589015D01*
X841616Y587083D01*
X840862Y585263D01*
X839768Y583625D01*
X838375Y582233D01*
X836737Y581138D01*
X834917Y580384D01*
X832985Y580000D01*
X831015D01*
X829083Y580384D01*
X827263Y581138D01*
X825625Y582233D01*
X824232Y583625D01*
X823138Y585263D01*
X822384Y587083D01*
X822000Y589015D01*
Y589015D01*
Y590000D01*
Y590985D01*
Y590985D01*
X822384Y592917D01*
X823138Y594737D01*
X824232Y596375D01*
X825625Y597767D01*
X827263Y598862D01*
X829083Y599616D01*
X831015Y600000D01*
X832985D01*
X834917Y599616D01*
D02*
G37*
G36*
X668917D02*
X670737Y598862D01*
X672375Y597767D01*
X673767Y596375D01*
X674862Y594737D01*
X675616Y592917D01*
X676000Y590985D01*
Y590985D01*
Y590000D01*
Y589015D01*
X675616Y587083D01*
X674862Y585263D01*
X673767Y583625D01*
X672375Y582233D01*
X670737Y581138D01*
X668917Y580384D01*
X666985Y580000D01*
X665015D01*
X663083Y580384D01*
X661263Y581138D01*
X659625Y582233D01*
X658232Y583625D01*
X657138Y585263D01*
X656384Y587083D01*
X656000Y589015D01*
Y589015D01*
Y590000D01*
Y590985D01*
Y590985D01*
X656384Y592917D01*
X657138Y594737D01*
X658232Y596375D01*
X659625Y597767D01*
X661263Y598862D01*
X663083Y599616D01*
X665015Y600000D01*
X666985D01*
X668917Y599616D01*
D02*
G37*
G36*
X502917D02*
X504737Y598862D01*
X506375Y597767D01*
X507767Y596375D01*
X508862Y594737D01*
X509616Y592917D01*
X510000Y590985D01*
Y590985D01*
Y590000D01*
Y589015D01*
X509616Y587083D01*
X508862Y585263D01*
X507767Y583625D01*
X506375Y582233D01*
X504737Y581138D01*
X502917Y580384D01*
X500985Y580000D01*
X499015D01*
X497083Y580384D01*
X495263Y581138D01*
X493625Y582233D01*
X492233Y583625D01*
X491138Y585263D01*
X490384Y587083D01*
X490000Y589015D01*
Y589015D01*
Y590000D01*
Y590985D01*
Y590985D01*
X490384Y592917D01*
X491138Y594737D01*
X492233Y596375D01*
X493625Y597767D01*
X495263Y598862D01*
X497083Y599616D01*
X499015Y600000D01*
X500985D01*
X502917Y599616D01*
D02*
G37*
G36*
X336917D02*
X338737Y598862D01*
X340375Y597767D01*
X341768Y596375D01*
X342862Y594737D01*
X343616Y592917D01*
X344000Y590985D01*
Y590985D01*
Y590000D01*
Y589015D01*
X343616Y587083D01*
X342862Y585263D01*
X341768Y583625D01*
X340375Y582233D01*
X338737Y581138D01*
X336917Y580384D01*
X334985Y580000D01*
X333015D01*
X331083Y580384D01*
X329263Y581138D01*
X327625Y582233D01*
X326232Y583625D01*
X325138Y585263D01*
X324384Y587083D01*
X324000Y589015D01*
Y589015D01*
Y590000D01*
Y590985D01*
Y590985D01*
X324384Y592917D01*
X325138Y594737D01*
X326232Y596375D01*
X327625Y597767D01*
X329263Y598862D01*
X331083Y599616D01*
X333015Y600000D01*
X334985D01*
X336917Y599616D01*
D02*
G37*
G36*
X170917D02*
X172737Y598862D01*
X174375Y597767D01*
X175767Y596375D01*
X176862Y594737D01*
X177616Y592917D01*
X178000Y590985D01*
Y590985D01*
Y590000D01*
Y589015D01*
X177616Y587083D01*
X176862Y585263D01*
X175767Y583625D01*
X174375Y582233D01*
X172737Y581138D01*
X170917Y580384D01*
X168985Y580000D01*
X167015D01*
X165083Y580384D01*
X163263Y581138D01*
X161625Y582233D01*
X160233Y583625D01*
X159138Y585263D01*
X158384Y587083D01*
X158000Y589015D01*
Y589015D01*
Y590000D01*
Y590985D01*
Y590985D01*
X158384Y592917D01*
X159138Y594737D01*
X160233Y596375D01*
X161625Y597767D01*
X163263Y598862D01*
X165083Y599616D01*
X167015Y600000D01*
X168985D01*
X170917Y599616D01*
D02*
G37*
G36*
X16973Y563060D02*
X17072D01*
X17198Y563035D01*
X17348Y563010D01*
X17510Y562973D01*
X17697Y562923D01*
X17885Y562860D01*
X18085Y562785D01*
X18285Y562685D01*
X18497Y562573D01*
X18697Y562435D01*
X18897Y562273D01*
X19097Y562098D01*
X19284Y561885D01*
X19297Y561873D01*
X19322Y561836D01*
X19372Y561760D01*
X19434Y561673D01*
X19509Y561548D01*
X19584Y561411D01*
X19672Y561236D01*
X19759Y561048D01*
X19859Y560836D01*
X19947Y560598D01*
X20022Y560336D01*
X20097Y560048D01*
X20159Y559749D01*
X20209Y559424D01*
X20234Y559086D01*
X20247Y558724D01*
Y558561D01*
X20234Y558436D01*
X20222Y558286D01*
X20197Y558111D01*
X20172Y557911D01*
X20134Y557687D01*
X20084Y557449D01*
X20034Y557212D01*
X19959Y556949D01*
X19872Y556687D01*
X19772Y556412D01*
X19647Y556149D01*
X19509Y555875D01*
X19359Y555612D01*
X17398Y556412D01*
X17410Y556424D01*
X17435Y556474D01*
X17485Y556537D01*
X17535Y556637D01*
X17610Y556749D01*
X17685Y556887D01*
X17772Y557049D01*
X17847Y557224D01*
X17935Y557412D01*
X18022Y557612D01*
X18172Y558036D01*
X18222Y558261D01*
X18272Y558499D01*
X18297Y558724D01*
X18310Y558961D01*
Y559049D01*
X18297Y559136D01*
X18285Y559261D01*
X18272Y559411D01*
X18235Y559574D01*
X18197Y559749D01*
X18147Y559936D01*
X18072Y560111D01*
X17985Y560286D01*
X17872Y560448D01*
X17747Y560598D01*
X17597Y560723D01*
X17410Y560811D01*
X17210Y560873D01*
X16973Y560898D01*
X16960D01*
X16948D01*
X16910D01*
X16860Y560886D01*
X16735Y560873D01*
X16585Y560836D01*
X16398Y560786D01*
X16198Y560698D01*
X15985Y560586D01*
X15773Y560436D01*
X15760D01*
X15748Y560411D01*
X15710Y560386D01*
X15673Y560348D01*
X15623Y560286D01*
X15548Y560223D01*
X15473Y560136D01*
X15398Y560036D01*
X15310Y559911D01*
X15210Y559786D01*
X15098Y559624D01*
X14986Y559461D01*
X14873Y559261D01*
X14748Y559049D01*
X14623Y558824D01*
X14486Y558561D01*
X14473Y558549D01*
X14448Y558499D01*
X14411Y558424D01*
X14361Y558336D01*
X14311Y558224D01*
X14236Y558087D01*
X14161Y557949D01*
X14073Y557799D01*
X13886Y557474D01*
X13686Y557162D01*
X13586Y557012D01*
X13498Y556874D01*
X13398Y556749D01*
X13311Y556649D01*
X13286Y556624D01*
X13224Y556574D01*
X13136Y556487D01*
X12999Y556374D01*
X12836Y556250D01*
X12661Y556124D01*
X12449Y556012D01*
X12224Y555900D01*
X12211D01*
X12199Y555887D01*
X12161Y555875D01*
X12111Y555862D01*
X11986Y555812D01*
X11811Y555775D01*
X11599Y555725D01*
X11362Y555675D01*
X11099Y555650D01*
X10824Y555637D01*
X10812D01*
X10762D01*
X10687Y555650D01*
X10587D01*
X10462Y555675D01*
X10324Y555687D01*
X10162Y555725D01*
X9987Y555762D01*
X9799Y555825D01*
X9612Y555887D01*
X9412Y555975D01*
X9212Y556074D01*
X9012Y556199D01*
X8825Y556337D01*
X8625Y556487D01*
X8450Y556674D01*
X8437Y556687D01*
X8412Y556724D01*
X8362Y556787D01*
X8300Y556862D01*
X8225Y556974D01*
X8150Y557099D01*
X8062Y557237D01*
X7975Y557399D01*
X7887Y557587D01*
X7800Y557787D01*
X7725Y558012D01*
X7650Y558249D01*
X7588Y558511D01*
X7538Y558774D01*
X7513Y559061D01*
X7500Y559361D01*
Y559561D01*
X7513Y559711D01*
X7525Y559886D01*
X7538Y560086D01*
X7563Y560311D01*
X7600Y560561D01*
X7700Y561073D01*
X7762Y561336D01*
X7837Y561586D01*
X7937Y561848D01*
X8050Y562085D01*
X8175Y562310D01*
X8312Y562510D01*
X10187Y561836D01*
X10174Y561823D01*
X10149Y561786D01*
X10112Y561723D01*
X10062Y561636D01*
X9999Y561536D01*
X9924Y561411D01*
X9849Y561261D01*
X9774Y561098D01*
X9699Y560923D01*
X9624Y560736D01*
X9487Y560323D01*
X9437Y560111D01*
X9399Y559886D01*
X9374Y559649D01*
X9362Y559411D01*
Y559286D01*
X9387Y559149D01*
X9412Y558974D01*
X9462Y558786D01*
X9524Y558599D01*
X9624Y558411D01*
X9762Y558237D01*
X9774Y558224D01*
X9837Y558174D01*
X9924Y558111D01*
X10037Y558036D01*
X10199Y557949D01*
X10374Y557887D01*
X10574Y557837D01*
X10812Y557824D01*
X10824D01*
X10862D01*
X10912Y557837D01*
X10999Y557862D01*
X11087Y557899D01*
X11212Y557949D01*
X11336Y558024D01*
X11487Y558111D01*
X11649Y558237D01*
X11811Y558399D01*
X11999Y558586D01*
X12186Y558811D01*
X12386Y559074D01*
X12586Y559386D01*
X12699Y559561D01*
X12799Y559749D01*
X12899Y559949D01*
X13011Y560161D01*
X13024Y560173D01*
X13036Y560211D01*
X13074Y560273D01*
X13111Y560361D01*
X13174Y560461D01*
X13236Y560586D01*
X13386Y560848D01*
X13548Y561136D01*
X13748Y561436D01*
X13936Y561711D01*
X14036Y561836D01*
X14136Y561948D01*
Y561960D01*
X14161Y561973D01*
X14223Y562035D01*
X14323Y562136D01*
X14473Y562260D01*
X14636Y562398D01*
X14836Y562535D01*
X15060Y562673D01*
X15310Y562785D01*
X15323D01*
X15336Y562798D01*
X15373Y562810D01*
X15423Y562835D01*
X15498Y562848D01*
X15573Y562873D01*
X15748Y562935D01*
X15973Y562985D01*
X16235Y563023D01*
X16523Y563060D01*
X16823Y563073D01*
X16835D01*
X16885D01*
X16973Y563060D01*
D02*
G37*
G36*
X20034Y551438D02*
X7712D01*
Y553625D01*
X20034D01*
Y551438D01*
D02*
G37*
G36*
Y547827D02*
X14948Y544540D01*
Y544340D01*
X14936Y544178D01*
Y543978D01*
X14923Y543740D01*
X14911Y543465D01*
X14898Y543153D01*
X20034D01*
Y540878D01*
X7725D01*
Y541053D01*
X7712Y541116D01*
Y541303D01*
X7700Y541416D01*
Y541553D01*
X7687Y541703D01*
Y541878D01*
X7675Y542066D01*
X7662Y542290D01*
Y542341D01*
X7650Y542416D01*
Y542603D01*
X7637Y542728D01*
Y542853D01*
X7625Y543003D01*
X7613Y543328D01*
X7600Y543653D01*
X7588Y543990D01*
Y544403D01*
X7600Y544490D01*
Y544602D01*
X7613Y544727D01*
X7625Y544865D01*
X7650Y545027D01*
X7662Y545202D01*
X7700Y545377D01*
X7775Y545777D01*
X7887Y546202D01*
X8037Y546639D01*
X8237Y547077D01*
X8350Y547289D01*
X8475Y547502D01*
X8612Y547702D01*
X8775Y547902D01*
X8937Y548089D01*
X9125Y548251D01*
X9324Y548414D01*
X9537Y548551D01*
X9774Y548676D01*
X10024Y548789D01*
X10299Y548876D01*
X10587Y548939D01*
X10899Y548976D01*
X11224Y548989D01*
X11236D01*
X11274D01*
X11336D01*
X11411Y548976D01*
X11511Y548964D01*
X11624Y548951D01*
X11749Y548939D01*
X11886Y548914D01*
X12199Y548826D01*
X12536Y548714D01*
X12699Y548639D01*
X12874Y548551D01*
X13049Y548451D01*
X13224Y548339D01*
X13236Y548326D01*
X13261Y548314D01*
X13311Y548276D01*
X13374Y548227D01*
X13448Y548164D01*
X13523Y548077D01*
X13723Y547889D01*
X13923Y547652D01*
X14136Y547377D01*
X14323Y547052D01*
X14411Y546889D01*
X14486Y546702D01*
X20034Y550351D01*
Y547827D01*
D02*
G37*
G36*
Y537304D02*
X14948Y534018D01*
Y533818D01*
X14936Y533655D01*
Y533455D01*
X14923Y533218D01*
X14911Y532943D01*
X14898Y532631D01*
X20034D01*
Y530356D01*
X7725D01*
Y530531D01*
X7712Y530593D01*
Y530781D01*
X7700Y530894D01*
Y531031D01*
X7687Y531181D01*
Y531356D01*
X7675Y531543D01*
X7662Y531768D01*
Y531818D01*
X7650Y531893D01*
Y532081D01*
X7637Y532206D01*
Y532331D01*
X7625Y532481D01*
X7613Y532805D01*
X7600Y533130D01*
X7588Y533468D01*
Y533880D01*
X7600Y533968D01*
Y534080D01*
X7613Y534205D01*
X7625Y534343D01*
X7650Y534505D01*
X7662Y534680D01*
X7700Y534855D01*
X7775Y535255D01*
X7887Y535680D01*
X8037Y536117D01*
X8237Y536554D01*
X8350Y536767D01*
X8475Y536979D01*
X8612Y537179D01*
X8775Y537379D01*
X8937Y537567D01*
X9125Y537729D01*
X9324Y537892D01*
X9537Y538029D01*
X9774Y538154D01*
X10024Y538267D01*
X10299Y538354D01*
X10587Y538416D01*
X10899Y538454D01*
X11224Y538466D01*
X11236D01*
X11274D01*
X11336D01*
X11411Y538454D01*
X11511Y538442D01*
X11624Y538429D01*
X11749Y538416D01*
X11886Y538391D01*
X12199Y538304D01*
X12536Y538192D01*
X12699Y538117D01*
X12874Y538029D01*
X13049Y537929D01*
X13224Y537817D01*
X13236Y537804D01*
X13261Y537792D01*
X13311Y537754D01*
X13374Y537704D01*
X13448Y537642D01*
X13523Y537554D01*
X13723Y537367D01*
X13923Y537129D01*
X14136Y536854D01*
X14323Y536530D01*
X14411Y536367D01*
X14486Y536180D01*
X20034Y539829D01*
Y537304D01*
D02*
G37*
G36*
X889009Y581024D02*
X893631Y579109D01*
X897792Y576329D01*
X901329Y572791D01*
X904109Y568631D01*
X906024Y564009D01*
X907000Y559102D01*
Y556600D01*
Y532000D01*
X897000D01*
X857000Y572000D01*
Y582000D01*
X884102D01*
X889009Y581024D01*
D02*
G37*
G36*
X807000Y572000D02*
X767000Y532000D01*
X757000D01*
Y556600D01*
Y559102D01*
X757976Y564009D01*
X759891Y568631D01*
X762671Y572791D01*
X766208Y576329D01*
X770369Y579109D01*
X774991Y581024D01*
X779898Y582000D01*
X807000D01*
Y572000D01*
D02*
G37*
G36*
X723009Y581024D02*
X727631Y579109D01*
X731792Y576329D01*
X735329Y572791D01*
X738109Y568631D01*
X740024Y564009D01*
X741000Y559102D01*
Y556600D01*
Y532000D01*
X731000D01*
X691000Y572000D01*
Y582000D01*
X718102D01*
X723009Y581024D01*
D02*
G37*
G36*
X641000Y572000D02*
X601000Y532000D01*
X591000D01*
Y556600D01*
Y559102D01*
X591976Y564009D01*
X593891Y568631D01*
X596670Y572791D01*
X600208Y576329D01*
X604369Y579109D01*
X608991Y581024D01*
X613898Y582000D01*
X641000D01*
Y572000D01*
D02*
G37*
G36*
X557009Y581024D02*
X561631Y579109D01*
X565792Y576329D01*
X569329Y572791D01*
X572109Y568631D01*
X574024Y564009D01*
X575000Y559102D01*
Y556600D01*
Y532000D01*
X565000D01*
X525000Y572000D01*
Y582000D01*
X552102D01*
X557009Y581024D01*
D02*
G37*
G36*
X475000Y572000D02*
X435000Y532000D01*
X425000D01*
Y556600D01*
Y559102D01*
X425976Y564009D01*
X427891Y568631D01*
X430671Y572791D01*
X434208Y576329D01*
X438369Y579109D01*
X442991Y581024D01*
X447898Y582000D01*
X475000D01*
Y572000D01*
D02*
G37*
G36*
X391009Y581024D02*
X395631Y579109D01*
X399791Y576329D01*
X403329Y572791D01*
X406109Y568631D01*
X408024Y564009D01*
X409000Y559102D01*
Y556600D01*
Y532000D01*
X399000D01*
X359000Y572000D01*
Y582000D01*
X386102D01*
X391009Y581024D01*
D02*
G37*
G36*
X309000Y572000D02*
X269000Y532000D01*
X259000D01*
Y556600D01*
Y559102D01*
X259976Y564009D01*
X261891Y568631D01*
X264671Y572791D01*
X268208Y576329D01*
X272369Y579109D01*
X276991Y581024D01*
X281898Y582000D01*
X309000D01*
Y572000D01*
D02*
G37*
G36*
X225009Y581024D02*
X229631Y579109D01*
X233792Y576329D01*
X237329Y572791D01*
X240109Y568631D01*
X242024Y564009D01*
X243000Y559102D01*
Y556600D01*
Y532000D01*
X233000D01*
X193000Y572000D01*
Y582000D01*
X220102D01*
X225009Y581024D01*
D02*
G37*
G36*
X143000Y572000D02*
X103000Y532000D01*
X93000D01*
Y556600D01*
Y559102D01*
X93976Y564009D01*
X95891Y568631D01*
X98671Y572791D01*
X102208Y576329D01*
X106369Y579109D01*
X110991Y581024D01*
X115898Y582000D01*
X143000D01*
Y572000D01*
D02*
G37*
G36*
X20034Y526632D02*
X17535Y525720D01*
Y521496D01*
X20034Y520634D01*
Y518209D01*
X7550Y523133D01*
Y524095D01*
X20034Y529044D01*
Y526632D01*
D02*
G37*
G36*
Y514760D02*
X14486D01*
Y509861D01*
X20034D01*
Y507674D01*
X7712D01*
Y509861D01*
X12549D01*
Y514760D01*
X7712D01*
Y516922D01*
X20034D01*
Y514760D01*
D02*
G37*
G36*
X917917Y516616D02*
X919737Y515862D01*
X921375Y514767D01*
X922767Y513375D01*
X923862Y511737D01*
X924616Y509917D01*
X925000Y507985D01*
Y507000D01*
Y506015D01*
X924616Y504083D01*
X923862Y502263D01*
X922767Y500625D01*
X921375Y499232D01*
X919737Y498138D01*
X917917Y497384D01*
X915985Y497000D01*
X914015D01*
X912083Y497384D01*
X910263Y498138D01*
X908625Y499232D01*
X907233Y500625D01*
X906138Y502263D01*
X905384Y504083D01*
X905000Y506015D01*
Y507000D01*
Y507985D01*
X905384Y509917D01*
X906138Y511737D01*
X907233Y513375D01*
X908625Y514767D01*
X910263Y515862D01*
X912083Y516616D01*
X914015Y517000D01*
X915985D01*
X917917Y516616D01*
D02*
G37*
G36*
X751917D02*
X753737Y515862D01*
X755375Y514767D01*
X756768Y513375D01*
X757862Y511737D01*
X758616Y509917D01*
X759000Y507985D01*
Y507000D01*
Y506015D01*
X758616Y504083D01*
X757862Y502263D01*
X756768Y500625D01*
X755375Y499232D01*
X753737Y498138D01*
X751917Y497384D01*
X749985Y497000D01*
X748015D01*
X746083Y497384D01*
X744263Y498138D01*
X742625Y499232D01*
X741233Y500625D01*
X740138Y502263D01*
X739384Y504083D01*
X739000Y506015D01*
Y507000D01*
Y507985D01*
X739384Y509917D01*
X740138Y511737D01*
X741233Y513375D01*
X742625Y514767D01*
X744263Y515862D01*
X746083Y516616D01*
X748015Y517000D01*
X749985D01*
X751917Y516616D01*
D02*
G37*
G36*
X585917D02*
X587737Y515862D01*
X589375Y514767D01*
X590768Y513375D01*
X591862Y511737D01*
X592616Y509917D01*
X593000Y507985D01*
Y507000D01*
Y506015D01*
X592616Y504083D01*
X591862Y502263D01*
X590768Y500625D01*
X589375Y499232D01*
X587737Y498138D01*
X585917Y497384D01*
X583985Y497000D01*
X582015D01*
X580083Y497384D01*
X578263Y498138D01*
X576625Y499232D01*
X575233Y500625D01*
X574138Y502263D01*
X573384Y504083D01*
X573000Y506015D01*
Y507000D01*
Y507985D01*
X573384Y509917D01*
X574138Y511737D01*
X575233Y513375D01*
X576625Y514767D01*
X578263Y515862D01*
X580083Y516616D01*
X582015Y517000D01*
X583985D01*
X585917Y516616D01*
D02*
G37*
G36*
X419917D02*
X421737Y515862D01*
X423375Y514767D01*
X424767Y513375D01*
X425862Y511737D01*
X426616Y509917D01*
X427000Y507985D01*
Y507000D01*
Y506015D01*
X426616Y504083D01*
X425862Y502263D01*
X424767Y500625D01*
X423375Y499232D01*
X421737Y498138D01*
X419917Y497384D01*
X417985Y497000D01*
X416015D01*
X414083Y497384D01*
X412263Y498138D01*
X410625Y499232D01*
X409232Y500625D01*
X408138Y502263D01*
X407384Y504083D01*
X407000Y506015D01*
Y507000D01*
Y507985D01*
X407384Y509917D01*
X408138Y511737D01*
X409232Y513375D01*
X410625Y514767D01*
X412263Y515862D01*
X414083Y516616D01*
X416015Y517000D01*
X417985D01*
X419917Y516616D01*
D02*
G37*
G36*
X253917D02*
X255737Y515862D01*
X257375Y514767D01*
X258768Y513375D01*
X259862Y511737D01*
X260616Y509917D01*
X261000Y507985D01*
Y507000D01*
Y506015D01*
X260616Y504083D01*
X259862Y502263D01*
X258768Y500625D01*
X257375Y499232D01*
X255737Y498138D01*
X253917Y497384D01*
X251985Y497000D01*
X250015D01*
X248083Y497384D01*
X246263Y498138D01*
X244625Y499232D01*
X243232Y500625D01*
X242138Y502263D01*
X241384Y504083D01*
X241000Y506015D01*
Y507000D01*
Y507985D01*
X241384Y509917D01*
X242138Y511737D01*
X243232Y513375D01*
X244625Y514767D01*
X246263Y515862D01*
X248083Y516616D01*
X250015Y517000D01*
X251985D01*
X253917Y516616D01*
D02*
G37*
G36*
X87917D02*
X89737Y515862D01*
X91375Y514767D01*
X92767Y513375D01*
X93862Y511737D01*
X94616Y509917D01*
X95000Y507985D01*
Y507000D01*
Y506015D01*
X94616Y504083D01*
X93862Y502263D01*
X92767Y500625D01*
X91375Y499232D01*
X89737Y498138D01*
X87917Y497384D01*
X85985Y497000D01*
X84015D01*
X82083Y497384D01*
X80263Y498138D01*
X78625Y499232D01*
X77232Y500625D01*
X76138Y502263D01*
X75384Y504083D01*
X75000Y506015D01*
Y507000D01*
Y507985D01*
X75384Y509917D01*
X76138Y511737D01*
X77232Y513375D01*
X78625Y514767D01*
X80263Y515862D01*
X82083Y516616D01*
X84015Y517000D01*
X85985D01*
X87917Y516616D01*
D02*
G37*
G36*
X20034Y498852D02*
X14798Y495415D01*
X16673Y494053D01*
X20034D01*
Y491866D01*
X7712D01*
Y494053D01*
X13611D01*
X7712Y498239D01*
Y500726D01*
X13099Y496865D01*
X20034Y501464D01*
Y498852D01*
D02*
G37*
G36*
Y488292D02*
X14948Y485005D01*
Y484805D01*
X14936Y484643D01*
Y484443D01*
X14923Y484205D01*
X14911Y483931D01*
X14898Y483618D01*
X20034D01*
Y481344D01*
X7725D01*
Y481519D01*
X7712Y481581D01*
Y481768D01*
X7700Y481881D01*
Y482019D01*
X7687Y482168D01*
Y482343D01*
X7675Y482531D01*
X7662Y482756D01*
Y482806D01*
X7650Y482881D01*
Y483068D01*
X7637Y483193D01*
Y483318D01*
X7625Y483468D01*
X7613Y483793D01*
X7600Y484118D01*
X7588Y484455D01*
Y484868D01*
X7600Y484955D01*
Y485068D01*
X7613Y485193D01*
X7625Y485330D01*
X7650Y485493D01*
X7662Y485667D01*
X7700Y485843D01*
X7775Y486242D01*
X7887Y486667D01*
X8037Y487105D01*
X8237Y487542D01*
X8350Y487755D01*
X8475Y487967D01*
X8612Y488167D01*
X8775Y488367D01*
X8937Y488554D01*
X9125Y488717D01*
X9324Y488879D01*
X9537Y489017D01*
X9774Y489142D01*
X10024Y489254D01*
X10299Y489342D01*
X10587Y489404D01*
X10899Y489442D01*
X11224Y489454D01*
X11236D01*
X11274D01*
X11336D01*
X11411Y489442D01*
X11511Y489429D01*
X11624Y489417D01*
X11749Y489404D01*
X11886Y489379D01*
X12199Y489292D01*
X12536Y489179D01*
X12699Y489104D01*
X12874Y489017D01*
X13049Y488917D01*
X13224Y488804D01*
X13236Y488792D01*
X13261Y488779D01*
X13311Y488742D01*
X13374Y488692D01*
X13448Y488629D01*
X13523Y488542D01*
X13723Y488354D01*
X13923Y488117D01*
X14136Y487842D01*
X14323Y487517D01*
X14411Y487355D01*
X14486Y487167D01*
X20034Y490816D01*
Y488292D01*
D02*
G37*
G36*
Y477620D02*
X17535Y476707D01*
Y472483D01*
X20034Y471621D01*
Y469197D01*
X7550Y474120D01*
Y475083D01*
X20034Y480032D01*
Y477620D01*
D02*
G37*
G36*
Y466960D02*
X13398Y465685D01*
X20197Y463211D01*
Y462424D01*
X13398Y459949D01*
X20034Y458612D01*
Y456500D01*
X7712Y458987D01*
Y460149D01*
X16010Y462811D01*
X7712Y465423D01*
Y466572D01*
X20034Y469084D01*
Y466960D01*
D02*
G37*
G36*
X907000Y457400D02*
Y454898D01*
X906024Y449991D01*
X904109Y445369D01*
X901329Y441208D01*
X897792Y437671D01*
X893631Y434891D01*
X889009Y432976D01*
X884102Y432000D01*
X857000D01*
Y442000D01*
X897000Y482000D01*
X907000D01*
Y457400D01*
D02*
G37*
G36*
X807000Y442000D02*
Y432000D01*
X779898D01*
X774991Y432976D01*
X770369Y434891D01*
X766208Y437671D01*
X762671Y441208D01*
X759891Y445369D01*
X757976Y449991D01*
X757000Y454898D01*
Y457400D01*
Y482000D01*
X767000D01*
X807000Y442000D01*
D02*
G37*
G36*
X741000Y457400D02*
Y454898D01*
X740024Y449991D01*
X738109Y445369D01*
X735329Y441208D01*
X731792Y437671D01*
X727631Y434891D01*
X723009Y432976D01*
X718102Y432000D01*
X691000D01*
Y442000D01*
X731000Y482000D01*
X741000D01*
Y457400D01*
D02*
G37*
G36*
X641000Y442000D02*
Y432000D01*
X613898D01*
X608991Y432976D01*
X604369Y434891D01*
X600208Y437671D01*
X596670Y441208D01*
X593891Y445369D01*
X591976Y449991D01*
X591000Y454898D01*
Y457400D01*
Y482000D01*
X601000D01*
X641000Y442000D01*
D02*
G37*
G36*
X575000Y457400D02*
Y454898D01*
X574024Y449991D01*
X572109Y445369D01*
X569329Y441208D01*
X565792Y437671D01*
X561631Y434891D01*
X557009Y432976D01*
X552102Y432000D01*
X525000D01*
Y442000D01*
X565000Y482000D01*
X575000D01*
Y457400D01*
D02*
G37*
G36*
X475000Y442000D02*
Y432000D01*
X447898D01*
X442991Y432976D01*
X438369Y434891D01*
X434208Y437671D01*
X430671Y441208D01*
X427891Y445369D01*
X425976Y449991D01*
X425000Y454898D01*
Y457400D01*
Y482000D01*
X435000D01*
X475000Y442000D01*
D02*
G37*
G36*
X409000Y457400D02*
Y454898D01*
X408024Y449991D01*
X406109Y445369D01*
X403329Y441208D01*
X399791Y437671D01*
X395631Y434891D01*
X391009Y432976D01*
X386102Y432000D01*
X359000D01*
Y442000D01*
X399000Y482000D01*
X409000D01*
Y457400D01*
D02*
G37*
G36*
X309000Y442000D02*
Y432000D01*
X281898D01*
X276991Y432976D01*
X272369Y434891D01*
X268208Y437671D01*
X264671Y441208D01*
X261891Y445369D01*
X259976Y449991D01*
X259000Y454898D01*
Y457400D01*
Y482000D01*
X269000D01*
X309000Y442000D01*
D02*
G37*
G36*
X243000Y457400D02*
Y454898D01*
X242024Y449991D01*
X240109Y445369D01*
X237329Y441208D01*
X233792Y437671D01*
X229631Y434891D01*
X225009Y432976D01*
X220102Y432000D01*
X193000D01*
Y442000D01*
X233000Y482000D01*
X243000D01*
Y457400D01*
D02*
G37*
G36*
X143000Y442000D02*
Y432000D01*
X115898D01*
X110991Y432976D01*
X106369Y434891D01*
X102208Y437671D01*
X98671Y441208D01*
X95891Y445369D01*
X93976Y449991D01*
X93000Y454898D01*
Y457400D01*
Y482000D01*
X103000D01*
X143000Y442000D01*
D02*
G37*
G36*
X834917Y433616D02*
X836737Y432862D01*
X838375Y431768D01*
X839768Y430375D01*
X840862Y428737D01*
X841616Y426917D01*
X842000Y424985D01*
Y424985D01*
Y424000D01*
Y423015D01*
X841616Y421083D01*
X840862Y419263D01*
X839768Y417625D01*
X838375Y416232D01*
X836737Y415138D01*
X834917Y414384D01*
X832985Y414000D01*
X831015D01*
X829083Y414384D01*
X827263Y415138D01*
X825625Y416232D01*
X824232Y417625D01*
X823138Y419263D01*
X822384Y421083D01*
X822000Y423015D01*
Y423015D01*
Y424000D01*
Y424985D01*
Y424985D01*
X822384Y426917D01*
X823138Y428737D01*
X824232Y430375D01*
X825625Y431768D01*
X827263Y432862D01*
X829083Y433616D01*
X831015Y434000D01*
X832985D01*
X834917Y433616D01*
D02*
G37*
G36*
X668917D02*
X670737Y432862D01*
X672375Y431768D01*
X673767Y430375D01*
X674862Y428737D01*
X675616Y426917D01*
X676000Y424985D01*
Y424985D01*
Y424000D01*
Y423015D01*
X675616Y421083D01*
X674862Y419263D01*
X673767Y417625D01*
X672375Y416232D01*
X670737Y415138D01*
X668917Y414384D01*
X666985Y414000D01*
X665015D01*
X663083Y414384D01*
X661263Y415138D01*
X659625Y416232D01*
X658232Y417625D01*
X657138Y419263D01*
X656384Y421083D01*
X656000Y423015D01*
Y423015D01*
Y424000D01*
Y424985D01*
Y424985D01*
X656384Y426917D01*
X657138Y428737D01*
X658232Y430375D01*
X659625Y431768D01*
X661263Y432862D01*
X663083Y433616D01*
X665015Y434000D01*
X666985D01*
X668917Y433616D01*
D02*
G37*
G36*
X502917D02*
X504737Y432862D01*
X506375Y431768D01*
X507767Y430375D01*
X508862Y428737D01*
X509616Y426917D01*
X510000Y424985D01*
Y424985D01*
Y424000D01*
Y423015D01*
X509616Y421083D01*
X508862Y419263D01*
X507767Y417625D01*
X506375Y416232D01*
X504737Y415138D01*
X502917Y414384D01*
X500985Y414000D01*
X499015D01*
X497083Y414384D01*
X495263Y415138D01*
X493625Y416232D01*
X492233Y417625D01*
X491138Y419263D01*
X490384Y421083D01*
X490000Y423015D01*
Y423015D01*
Y424000D01*
Y424985D01*
Y424985D01*
X490384Y426917D01*
X491138Y428737D01*
X492233Y430375D01*
X493625Y431768D01*
X495263Y432862D01*
X497083Y433616D01*
X499015Y434000D01*
X500985D01*
X502917Y433616D01*
D02*
G37*
G36*
X336917D02*
X338737Y432862D01*
X340375Y431768D01*
X341768Y430375D01*
X342862Y428737D01*
X343616Y426917D01*
X344000Y424985D01*
Y424985D01*
Y424000D01*
Y423015D01*
X343616Y421083D01*
X342862Y419263D01*
X341768Y417625D01*
X340375Y416232D01*
X338737Y415138D01*
X336917Y414384D01*
X334985Y414000D01*
X333015D01*
X331083Y414384D01*
X329263Y415138D01*
X327625Y416232D01*
X326232Y417625D01*
X325138Y419263D01*
X324384Y421083D01*
X324000Y423015D01*
Y423015D01*
Y424000D01*
Y424985D01*
Y424985D01*
X324384Y426917D01*
X325138Y428737D01*
X326232Y430375D01*
X327625Y431768D01*
X329263Y432862D01*
X331083Y433616D01*
X333015Y434000D01*
X334985D01*
X336917Y433616D01*
D02*
G37*
G36*
X170917D02*
X172737Y432862D01*
X174375Y431768D01*
X175767Y430375D01*
X176862Y428737D01*
X177616Y426917D01*
X178000Y424985D01*
Y424985D01*
Y424000D01*
Y423015D01*
X177616Y421083D01*
X176862Y419263D01*
X175767Y417625D01*
X174375Y416232D01*
X172737Y415138D01*
X170917Y414384D01*
X168985Y414000D01*
X167015D01*
X165083Y414384D01*
X163263Y415138D01*
X161625Y416232D01*
X160233Y417625D01*
X159138Y419263D01*
X158384Y421083D01*
X158000Y423015D01*
Y423015D01*
Y424000D01*
Y424985D01*
Y424985D01*
X158384Y426917D01*
X159138Y428737D01*
X160233Y430375D01*
X161625Y431768D01*
X163263Y432862D01*
X165083Y433616D01*
X167015Y434000D01*
X168985D01*
X170917Y433616D01*
D02*
G37*
G36*
X889009Y415024D02*
X893631Y413109D01*
X897792Y410330D01*
X901329Y406791D01*
X904109Y402631D01*
X906024Y398009D01*
X907000Y393102D01*
Y390600D01*
Y366000D01*
X897000D01*
X857000Y406000D01*
Y416000D01*
X884102D01*
X889009Y415024D01*
D02*
G37*
G36*
X807000Y406000D02*
X767000Y366000D01*
X757000D01*
Y390600D01*
Y393102D01*
X757976Y398009D01*
X759891Y402631D01*
X762671Y406791D01*
X766208Y410330D01*
X770369Y413109D01*
X774991Y415024D01*
X779898Y416000D01*
X807000D01*
Y406000D01*
D02*
G37*
G36*
X723009Y415024D02*
X727631Y413109D01*
X731792Y410330D01*
X735329Y406791D01*
X738109Y402631D01*
X740024Y398009D01*
X741000Y393102D01*
Y390600D01*
Y366000D01*
X731000D01*
X691000Y406000D01*
Y416000D01*
X718102D01*
X723009Y415024D01*
D02*
G37*
G36*
X641000Y406000D02*
X601000Y366000D01*
X591000D01*
Y390600D01*
Y393102D01*
X591976Y398009D01*
X593891Y402631D01*
X596670Y406791D01*
X600208Y410330D01*
X604369Y413109D01*
X608991Y415024D01*
X613898Y416000D01*
X641000D01*
Y406000D01*
D02*
G37*
G36*
X557009Y415024D02*
X561631Y413109D01*
X565792Y410330D01*
X569329Y406791D01*
X572109Y402631D01*
X574024Y398009D01*
X575000Y393102D01*
Y390600D01*
Y366000D01*
X565000D01*
X525000Y406000D01*
Y416000D01*
X552102D01*
X557009Y415024D01*
D02*
G37*
G36*
X475000Y406000D02*
X435000Y366000D01*
X425000D01*
Y390600D01*
Y393102D01*
X425976Y398009D01*
X427891Y402631D01*
X430671Y406791D01*
X434208Y410330D01*
X438369Y413109D01*
X442991Y415024D01*
X447898Y416000D01*
X475000D01*
Y406000D01*
D02*
G37*
G36*
X391009Y415024D02*
X395631Y413109D01*
X399791Y410330D01*
X403329Y406791D01*
X406109Y402631D01*
X408024Y398009D01*
X409000Y393102D01*
Y390600D01*
Y366000D01*
X399000D01*
X359000Y406000D01*
Y416000D01*
X386102D01*
X391009Y415024D01*
D02*
G37*
G36*
X309000Y406000D02*
X269000Y366000D01*
X259000D01*
Y390600D01*
Y393102D01*
X259976Y398009D01*
X261891Y402631D01*
X264671Y406791D01*
X268208Y410330D01*
X272369Y413109D01*
X276991Y415024D01*
X281898Y416000D01*
X309000D01*
Y406000D01*
D02*
G37*
G36*
X225009Y415024D02*
X229631Y413109D01*
X233792Y410330D01*
X237329Y406791D01*
X240109Y402631D01*
X242024Y398009D01*
X243000Y393102D01*
Y390600D01*
Y366000D01*
X233000D01*
X193000Y406000D01*
Y416000D01*
X220102D01*
X225009Y415024D01*
D02*
G37*
G36*
X143000Y406000D02*
X103000Y366000D01*
X93000D01*
Y390600D01*
Y393102D01*
X93976Y398009D01*
X95891Y402631D01*
X98671Y406791D01*
X102208Y410330D01*
X106369Y413109D01*
X110991Y415024D01*
X115898Y416000D01*
X143000D01*
Y406000D01*
D02*
G37*
G36*
X20034Y342317D02*
X7712D01*
Y344504D01*
X18097D01*
Y350065D01*
X20034D01*
Y342317D01*
D02*
G37*
G36*
X29059Y343079D02*
X29209Y343066D01*
X29384Y343054D01*
X29584Y343029D01*
X29809Y342991D01*
X30047Y342954D01*
X30309Y342892D01*
X30584Y342829D01*
X30871Y342754D01*
X31171Y342667D01*
X31471Y342554D01*
X31784Y342429D01*
X32084Y342292D01*
X32396Y342129D01*
X32708Y341954D01*
X33008Y341754D01*
X33308Y341529D01*
X33596Y341279D01*
X33871Y341005D01*
X34133Y340717D01*
X34371Y340392D01*
X34595Y340030D01*
X34795Y339655D01*
X34970Y339243D01*
X35120Y338793D01*
X35245Y338318D01*
X35333Y337805D01*
X35383Y337268D01*
X35408Y336681D01*
Y333956D01*
X23111D01*
Y334069D01*
X23098Y334206D01*
Y334381D01*
X23086Y334581D01*
X23073Y334819D01*
Y335081D01*
X23061Y335344D01*
X23036Y335906D01*
Y336181D01*
X23023Y336443D01*
Y336693D01*
X23011Y336906D01*
Y337430D01*
X23023Y337505D01*
X23036Y337693D01*
X23061Y337918D01*
X23098Y338180D01*
X23148Y338468D01*
X23211Y338780D01*
X23298Y339118D01*
X23398Y339467D01*
X23523Y339817D01*
X23686Y340180D01*
X23861Y340530D01*
X24073Y340867D01*
X24323Y341192D01*
X24598Y341504D01*
X24611Y341517D01*
X24673Y341567D01*
X24760Y341654D01*
X24885Y341754D01*
X25048Y341867D01*
X25235Y342004D01*
X25460Y342154D01*
X25710Y342304D01*
X25998Y342442D01*
X26310Y342592D01*
X26648Y342729D01*
X27022Y342842D01*
X27422Y342942D01*
X27847Y343029D01*
X28297Y343079D01*
X28772Y343092D01*
X28784D01*
X28847D01*
X28934D01*
X29059Y343079D01*
D02*
G37*
G36*
X917917Y350616D02*
X919737Y349862D01*
X921375Y348768D01*
X922767Y347375D01*
X923862Y345737D01*
X924616Y343917D01*
X925000Y341985D01*
Y341000D01*
Y340015D01*
X924616Y338083D01*
X923862Y336263D01*
X922767Y334625D01*
X921375Y333232D01*
X919737Y332138D01*
X917917Y331384D01*
X915985Y331000D01*
X914015D01*
X912083Y331384D01*
X910263Y332138D01*
X908625Y333232D01*
X907233Y334625D01*
X906138Y336263D01*
X905384Y338083D01*
X905000Y340015D01*
Y341000D01*
Y341985D01*
X905384Y343917D01*
X906138Y345737D01*
X907233Y347375D01*
X908625Y348768D01*
X910263Y349862D01*
X912083Y350616D01*
X914015Y351000D01*
X915985D01*
X917917Y350616D01*
D02*
G37*
G36*
X751917D02*
X753737Y349862D01*
X755375Y348768D01*
X756768Y347375D01*
X757862Y345737D01*
X758616Y343917D01*
X759000Y341985D01*
Y341000D01*
Y340015D01*
X758616Y338083D01*
X757862Y336263D01*
X756768Y334625D01*
X755375Y333232D01*
X753737Y332138D01*
X751917Y331384D01*
X749985Y331000D01*
X748015D01*
X746083Y331384D01*
X744263Y332138D01*
X742625Y333232D01*
X741233Y334625D01*
X740138Y336263D01*
X739384Y338083D01*
X739000Y340015D01*
Y341000D01*
Y341985D01*
X739384Y343917D01*
X740138Y345737D01*
X741233Y347375D01*
X742625Y348768D01*
X744263Y349862D01*
X746083Y350616D01*
X748015Y351000D01*
X749985D01*
X751917Y350616D01*
D02*
G37*
G36*
X585917D02*
X587737Y349862D01*
X589375Y348768D01*
X590768Y347375D01*
X591862Y345737D01*
X592616Y343917D01*
X593000Y341985D01*
Y341000D01*
Y340015D01*
X592616Y338083D01*
X591862Y336263D01*
X590768Y334625D01*
X589375Y333232D01*
X587737Y332138D01*
X585917Y331384D01*
X583985Y331000D01*
X582015D01*
X580083Y331384D01*
X578263Y332138D01*
X576625Y333232D01*
X575233Y334625D01*
X574138Y336263D01*
X573384Y338083D01*
X573000Y340015D01*
Y341000D01*
Y341985D01*
X573384Y343917D01*
X574138Y345737D01*
X575233Y347375D01*
X576625Y348768D01*
X578263Y349862D01*
X580083Y350616D01*
X582015Y351000D01*
X583985D01*
X585917Y350616D01*
D02*
G37*
G36*
X419917D02*
X421737Y349862D01*
X423375Y348768D01*
X424767Y347375D01*
X425862Y345737D01*
X426616Y343917D01*
X427000Y341985D01*
Y341000D01*
Y340015D01*
X426616Y338083D01*
X425862Y336263D01*
X424767Y334625D01*
X423375Y333232D01*
X421737Y332138D01*
X419917Y331384D01*
X417985Y331000D01*
X416015D01*
X414083Y331384D01*
X412263Y332138D01*
X410625Y333232D01*
X409232Y334625D01*
X408138Y336263D01*
X407384Y338083D01*
X407000Y340015D01*
Y341000D01*
Y341985D01*
X407384Y343917D01*
X408138Y345737D01*
X409232Y347375D01*
X410625Y348768D01*
X412263Y349862D01*
X414083Y350616D01*
X416015Y351000D01*
X417985D01*
X419917Y350616D01*
D02*
G37*
G36*
X253917D02*
X255737Y349862D01*
X257375Y348768D01*
X258768Y347375D01*
X259862Y345737D01*
X260616Y343917D01*
X261000Y341985D01*
Y341000D01*
Y340015D01*
X260616Y338083D01*
X259862Y336263D01*
X258768Y334625D01*
X257375Y333232D01*
X255737Y332138D01*
X253917Y331384D01*
X251985Y331000D01*
X250015D01*
X248083Y331384D01*
X246263Y332138D01*
X244625Y333232D01*
X243232Y334625D01*
X242138Y336263D01*
X241384Y338083D01*
X241000Y340015D01*
Y341000D01*
Y341985D01*
X241384Y343917D01*
X242138Y345737D01*
X243232Y347375D01*
X244625Y348768D01*
X246263Y349862D01*
X248083Y350616D01*
X250015Y351000D01*
X251985D01*
X253917Y350616D01*
D02*
G37*
G36*
X87917D02*
X89737Y349862D01*
X91375Y348768D01*
X92767Y347375D01*
X93862Y345737D01*
X94616Y343917D01*
X95000Y341985D01*
Y341000D01*
Y340015D01*
X94616Y338083D01*
X93862Y336263D01*
X92767Y334625D01*
X91375Y333232D01*
X89737Y332138D01*
X87917Y331384D01*
X85985Y331000D01*
X84015D01*
X82083Y331384D01*
X80263Y332138D01*
X78625Y333232D01*
X77232Y334625D01*
X76138Y336263D01*
X75384Y338083D01*
X75000Y340015D01*
Y341000D01*
Y341985D01*
X75384Y343917D01*
X76138Y345737D01*
X77232Y347375D01*
X78625Y348768D01*
X80263Y349862D01*
X82083Y350616D01*
X84015Y351000D01*
X85985D01*
X87917Y350616D01*
D02*
G37*
G36*
X20034Y338593D02*
X17535Y337680D01*
Y333456D01*
X20034Y332594D01*
Y330170D01*
X7550Y335094D01*
Y336056D01*
X20034Y341005D01*
Y338593D01*
D02*
G37*
G36*
X35408Y324159D02*
X23086D01*
Y331932D01*
X25023D01*
Y326346D01*
X27910D01*
Y330320D01*
X29772D01*
Y326346D01*
X33471D01*
Y331932D01*
X35408D01*
Y324159D01*
D02*
G37*
G36*
X20197Y327995D02*
X12399Y322009D01*
X20034D01*
Y319910D01*
X7712D01*
Y320960D01*
X15148Y326783D01*
X7712D01*
Y328883D01*
X20197D01*
Y327995D01*
D02*
G37*
G36*
X20034Y315149D02*
X7712D01*
Y317336D01*
X20034D01*
Y315149D01*
D02*
G37*
G36*
X25023Y318635D02*
X35408D01*
Y316448D01*
X25023D01*
Y312524D01*
X23086D01*
Y322734D01*
X25023D01*
Y318635D01*
D02*
G37*
G36*
X35408Y308863D02*
X23086D01*
Y311050D01*
X35408D01*
Y308863D01*
D02*
G37*
G36*
X18909Y313174D02*
X18922Y313149D01*
X18959Y313112D01*
X18997Y313049D01*
X19059Y312962D01*
X19122Y312874D01*
X19184Y312762D01*
X19259Y312637D01*
X19334Y312499D01*
X19422Y312349D01*
X19509Y312174D01*
X19584Y311999D01*
X19672Y311812D01*
X19747Y311600D01*
X19897Y311162D01*
Y311150D01*
X19909Y311112D01*
X19934Y311037D01*
X19947Y310950D01*
X19972Y310837D01*
X20009Y310712D01*
X20034Y310562D01*
X20072Y310400D01*
X20109Y310212D01*
X20134Y310025D01*
X20197Y309613D01*
X20234Y309175D01*
X20247Y308713D01*
Y308600D01*
X20234Y308538D01*
Y308463D01*
X20222Y308275D01*
X20197Y308050D01*
X20159Y307788D01*
X20097Y307501D01*
X20034Y307201D01*
X19934Y306863D01*
X19822Y306526D01*
X19684Y306176D01*
X19509Y305826D01*
X19309Y305476D01*
X19085Y305139D01*
X18809Y304814D01*
X18510Y304514D01*
X18485Y304501D01*
X18435Y304451D01*
X18335Y304376D01*
X18197Y304277D01*
X18022Y304151D01*
X17810Y304027D01*
X17560Y303889D01*
X17285Y303739D01*
X16973Y303589D01*
X16623Y303452D01*
X16248Y303327D01*
X15835Y303202D01*
X15410Y303102D01*
X14935Y303027D01*
X14448Y302977D01*
X13923Y302964D01*
X13911D01*
X13886D01*
X13848D01*
X13798D01*
X13723Y302977D01*
X13648D01*
X13448Y302989D01*
X13211Y303014D01*
X12924Y303052D01*
X12611Y303102D01*
X12274Y303177D01*
X11911Y303264D01*
X11536Y303377D01*
X11149Y303514D01*
X10762Y303677D01*
X10374Y303864D01*
X9999Y304089D01*
X9637Y304351D01*
X9287Y304651D01*
X9262Y304676D01*
X9212Y304726D01*
X9125Y304826D01*
X9012Y304964D01*
X8875Y305126D01*
X8725Y305339D01*
X8562Y305576D01*
X8387Y305851D01*
X8225Y306164D01*
X8062Y306501D01*
X7912Y306876D01*
X7775Y307288D01*
X7662Y307713D01*
X7575Y308188D01*
X7525Y308675D01*
X7500Y309200D01*
Y309288D01*
X7512Y309400D01*
Y309538D01*
X7537Y309713D01*
X7562Y309925D01*
X7600Y310150D01*
X7650Y310400D01*
X7712Y310662D01*
X7800Y310937D01*
X7887Y311225D01*
X8012Y311525D01*
X8150Y311812D01*
X8312Y312099D01*
X8500Y312387D01*
X8712Y312662D01*
X10474Y311737D01*
X10462Y311724D01*
X10412Y311662D01*
X10349Y311575D01*
X10262Y311437D01*
X10149Y311275D01*
X10037Y311062D01*
X9912Y310825D01*
X9787Y310537D01*
Y310525D01*
X9774Y310500D01*
X9749Y310462D01*
X9737Y310400D01*
X9699Y310337D01*
X9674Y310250D01*
X9612Y310063D01*
X9549Y309850D01*
X9487Y309613D01*
X9449Y309375D01*
X9437Y309150D01*
Y309075D01*
X9449Y308975D01*
X9462Y308850D01*
X9474Y308700D01*
X9499Y308525D01*
X9537Y308325D01*
X9587Y308113D01*
X9662Y307888D01*
X9737Y307651D01*
X9837Y307413D01*
X9962Y307176D01*
X10099Y306938D01*
X10262Y306713D01*
X10462Y306488D01*
X10674Y306288D01*
X10687Y306276D01*
X10737Y306238D01*
X10799Y306189D01*
X10899Y306126D01*
X11024Y306051D01*
X11174Y305951D01*
X11349Y305863D01*
X11549Y305764D01*
X11774Y305664D01*
X12024Y305576D01*
X12299Y305489D01*
X12599Y305401D01*
X12911Y305339D01*
X13248Y305289D01*
X13611Y305251D01*
X13986Y305239D01*
X14011D01*
X14073D01*
X14173Y305251D01*
X14311D01*
X14473Y305276D01*
X14673Y305289D01*
X14885Y305326D01*
X15123Y305364D01*
X15360Y305426D01*
X15623Y305489D01*
X15885Y305576D01*
X16148Y305676D01*
X16410Y305789D01*
X16660Y305926D01*
X16910Y306089D01*
X17135Y306263D01*
X17148Y306276D01*
X17185Y306313D01*
X17247Y306376D01*
X17322Y306451D01*
X17410Y306551D01*
X17510Y306676D01*
X17610Y306826D01*
X17722Y307001D01*
X17835Y307188D01*
X17935Y307401D01*
X18035Y307626D01*
X18122Y307875D01*
X18197Y308151D01*
X18260Y308438D01*
X18297Y308738D01*
X18310Y309063D01*
Y309175D01*
X18297Y309263D01*
X18285Y309363D01*
X18272Y309475D01*
X18260Y309600D01*
X18235Y309750D01*
X18160Y310050D01*
X18035Y310375D01*
X17972Y310537D01*
X17885Y310700D01*
X17785Y310850D01*
X17672Y311000D01*
X15248D01*
Y309288D01*
X13386D01*
Y313187D01*
X18897D01*
X18909Y313174D01*
D02*
G37*
G36*
X20034Y298790D02*
X7712D01*
Y300977D01*
X20034D01*
Y298790D01*
D02*
G37*
G36*
X35408Y305351D02*
X28772Y304076D01*
X35570Y301602D01*
Y300815D01*
X28772Y298340D01*
X35408Y297003D01*
Y294891D01*
X23086Y297378D01*
Y298540D01*
X31384Y301202D01*
X23086Y303814D01*
Y304964D01*
X35408Y307476D01*
Y305351D01*
D02*
G37*
G36*
X20034Y295179D02*
X14948Y291892D01*
Y291692D01*
X14935Y291530D01*
Y291330D01*
X14923Y291092D01*
X14911Y290817D01*
X14898Y290505D01*
X20034D01*
Y288231D01*
X7725D01*
Y288405D01*
X7712Y288468D01*
Y288655D01*
X7700Y288768D01*
Y288905D01*
X7687Y289055D01*
Y289230D01*
X7675Y289418D01*
X7662Y289643D01*
Y289693D01*
X7650Y289768D01*
Y289955D01*
X7637Y290080D01*
Y290205D01*
X7625Y290355D01*
X7612Y290680D01*
X7600Y291005D01*
X7587Y291342D01*
Y291755D01*
X7600Y291842D01*
Y291955D01*
X7612Y292080D01*
X7625Y292217D01*
X7650Y292379D01*
X7662Y292554D01*
X7700Y292729D01*
X7775Y293129D01*
X7887Y293554D01*
X8037Y293992D01*
X8237Y294429D01*
X8350Y294641D01*
X8475Y294854D01*
X8612Y295054D01*
X8775Y295254D01*
X8937Y295441D01*
X9125Y295604D01*
X9324Y295766D01*
X9537Y295904D01*
X9774Y296029D01*
X10024Y296141D01*
X10299Y296229D01*
X10587Y296291D01*
X10899Y296329D01*
X11224Y296341D01*
X11236D01*
X11274D01*
X11336D01*
X11411Y296329D01*
X11511Y296316D01*
X11624Y296304D01*
X11749Y296291D01*
X11886Y296266D01*
X12199Y296178D01*
X12536Y296066D01*
X12699Y295991D01*
X12874Y295904D01*
X13048Y295804D01*
X13224Y295691D01*
X13236Y295679D01*
X13261Y295666D01*
X13311Y295629D01*
X13373Y295579D01*
X13448Y295516D01*
X13523Y295429D01*
X13723Y295241D01*
X13923Y295004D01*
X14136Y294729D01*
X14323Y294404D01*
X14411Y294242D01*
X14486Y294054D01*
X20034Y297703D01*
Y295179D01*
D02*
G37*
G36*
X35408Y291230D02*
X23086D01*
Y293417D01*
X35408D01*
Y291230D01*
D02*
G37*
G36*
Y281670D02*
X23086D01*
Y283857D01*
X33471D01*
Y289418D01*
X35408D01*
Y281670D01*
D02*
G37*
G36*
X14061Y286294D02*
X14161D01*
X14261Y286281D01*
X14523Y286256D01*
X14811Y286231D01*
X15136Y286181D01*
X15485Y286119D01*
X15860Y286044D01*
X16248Y285944D01*
X16635Y285831D01*
X17035Y285681D01*
X17422Y285519D01*
X17797Y285319D01*
X18172Y285094D01*
X18510Y284831D01*
X18535Y284819D01*
X18585Y284769D01*
X18672Y284681D01*
X18785Y284557D01*
X18909Y284407D01*
X19059Y284219D01*
X19222Y284007D01*
X19372Y283757D01*
X19534Y283482D01*
X19697Y283169D01*
X19847Y282819D01*
X19972Y282444D01*
X20084Y282045D01*
X20172Y281607D01*
X20222Y281145D01*
X20247Y280658D01*
Y280545D01*
X20234Y280420D01*
X20222Y280245D01*
X20197Y280045D01*
X20159Y279808D01*
X20097Y279545D01*
X20034Y279258D01*
X19934Y278958D01*
X19822Y278645D01*
X19684Y278333D01*
X19522Y278008D01*
X19322Y277696D01*
X19097Y277408D01*
X18822Y277121D01*
X18522Y276859D01*
X18497Y276846D01*
X18447Y276796D01*
X18347Y276733D01*
X18197Y276646D01*
X18022Y276546D01*
X17810Y276434D01*
X17560Y276321D01*
X17272Y276196D01*
X16960Y276071D01*
X16598Y275959D01*
X16210Y275846D01*
X15785Y275746D01*
X15335Y275659D01*
X14836Y275596D01*
X14323Y275546D01*
X13773Y275534D01*
X13761D01*
X13748D01*
X13711D01*
X13661D01*
X13598D01*
X13523Y275546D01*
X13336Y275559D01*
X13111Y275584D01*
X12849Y275609D01*
X12549Y275659D01*
X12236Y275709D01*
X11886Y275784D01*
X11536Y275884D01*
X11162Y275996D01*
X10787Y276146D01*
X10412Y276309D01*
X10037Y276496D01*
X9674Y276721D01*
X9324Y276971D01*
X9299Y276983D01*
X9250Y277033D01*
X9150Y277121D01*
X9037Y277233D01*
X8900Y277383D01*
X8750Y277558D01*
X8587Y277758D01*
X8412Y277996D01*
X8237Y278258D01*
X8075Y278545D01*
X7925Y278858D01*
X7787Y279208D01*
X7662Y279570D01*
X7575Y279970D01*
X7525Y280395D01*
X7500Y280833D01*
Y281007D01*
X7512Y281082D01*
X7525Y281270D01*
X7550Y281495D01*
X7587Y281745D01*
X7637Y282032D01*
X7700Y282345D01*
X7787Y282657D01*
X7900Y282994D01*
X8037Y283332D01*
X8200Y283669D01*
X8387Y283994D01*
X8600Y284319D01*
X8862Y284619D01*
X9150Y284894D01*
X9175Y284906D01*
X9225Y284956D01*
X9324Y285019D01*
X9449Y285119D01*
X9624Y285219D01*
X9824Y285344D01*
X10074Y285469D01*
X10349Y285606D01*
X10662Y285731D01*
X10999Y285856D01*
X11386Y285981D01*
X11799Y286081D01*
X12236Y286181D01*
X12724Y286244D01*
X13236Y286294D01*
X13773Y286306D01*
X13786D01*
X13811D01*
X13848D01*
X13911D01*
X13973D01*
X14061Y286294D01*
D02*
G37*
G36*
X16673Y268336D02*
X16798D01*
X16947Y268311D01*
X17122Y268286D01*
X17310Y268248D01*
X17510Y268198D01*
X17722Y268136D01*
X17947Y268061D01*
X18172Y267961D01*
X18397Y267848D01*
X18622Y267723D01*
X18835Y267561D01*
X19047Y267386D01*
X19234Y267174D01*
X19247Y267161D01*
X19272Y267124D01*
X19322Y267048D01*
X19384Y266961D01*
X19459Y266836D01*
X19534Y266699D01*
X19622Y266524D01*
X19709Y266336D01*
X19809Y266124D01*
X19897Y265874D01*
X19972Y265611D01*
X20047Y265324D01*
X20109Y265024D01*
X20159Y264687D01*
X20184Y264337D01*
X20197Y263962D01*
Y263874D01*
X20184Y263774D01*
X20172Y263649D01*
X20159Y263487D01*
X20134Y263299D01*
X20097Y263087D01*
X20047Y262862D01*
X19984Y262612D01*
X19909Y262362D01*
X19809Y262100D01*
X19684Y261825D01*
X19547Y261562D01*
X19397Y261287D01*
X19209Y261025D01*
X18997Y260775D01*
X17310Y261862D01*
X17322Y261875D01*
X17347Y261912D01*
X17410Y261962D01*
X17472Y262037D01*
X17547Y262125D01*
X17635Y262237D01*
X17722Y262350D01*
X17822Y262487D01*
X17922Y262650D01*
X18010Y262812D01*
X18172Y263162D01*
X18235Y263362D01*
X18285Y263562D01*
X18322Y263762D01*
X18335Y263974D01*
Y264062D01*
X18322Y264174D01*
X18310Y264299D01*
X18272Y264462D01*
X18235Y264637D01*
X18172Y264824D01*
X18085Y265024D01*
X17985Y265224D01*
X17860Y265411D01*
X17697Y265586D01*
X17510Y265749D01*
X17285Y265886D01*
X17023Y265986D01*
X16723Y266049D01*
X16385Y266074D01*
X16373D01*
X16348D01*
X16298D01*
X16235Y266061D01*
X16160D01*
X16073Y266036D01*
X15873Y265999D01*
X15635Y265924D01*
X15398Y265811D01*
X15273Y265749D01*
X15160Y265661D01*
X15048Y265574D01*
X14935Y265461D01*
X14923Y265449D01*
X14911Y265436D01*
X14885Y265399D01*
X14848Y265349D01*
X14811Y265286D01*
X14761Y265212D01*
X14711Y265137D01*
X14648Y265037D01*
X14548Y264799D01*
X14461Y264524D01*
X14398Y264187D01*
X14373Y264012D01*
Y263449D01*
X12574D01*
Y263862D01*
X12561Y263949D01*
X12549Y264074D01*
X12524Y264212D01*
X12486Y264374D01*
X12449Y264537D01*
X12374Y264724D01*
X12299Y264899D01*
X12186Y265061D01*
X12061Y265224D01*
X11911Y265361D01*
X11736Y265486D01*
X11524Y265586D01*
X11286Y265636D01*
X11012Y265661D01*
X10986D01*
X10937D01*
X10862Y265649D01*
X10749Y265636D01*
X10624Y265611D01*
X10487Y265574D01*
X10337Y265511D01*
X10187Y265436D01*
X10037Y265349D01*
X9887Y265236D01*
X9749Y265086D01*
X9624Y264924D01*
X9512Y264712D01*
X9437Y264487D01*
X9374Y264212D01*
X9362Y263899D01*
Y263812D01*
X9374Y263749D01*
X9387Y263662D01*
X9412Y263562D01*
X9437Y263462D01*
X9462Y263337D01*
X9574Y263074D01*
X9637Y262924D01*
X9724Y262775D01*
X9812Y262612D01*
X9937Y262462D01*
X10062Y262300D01*
X10212Y262137D01*
X8712Y261112D01*
X8687Y261125D01*
X8625Y261187D01*
X8537Y261275D01*
X8425Y261412D01*
X8287Y261587D01*
X8150Y261787D01*
X8000Y262050D01*
X7862Y262337D01*
Y262350D01*
X7850Y262375D01*
X7825Y262425D01*
X7800Y262487D01*
X7775Y262562D01*
X7750Y262650D01*
X7675Y262862D01*
X7612Y263125D01*
X7550Y263412D01*
X7512Y263712D01*
X7500Y264024D01*
Y264199D01*
X7512Y264324D01*
X7525Y264487D01*
X7550Y264662D01*
X7575Y264862D01*
X7600Y265074D01*
X7712Y265536D01*
X7775Y265774D01*
X7862Y266024D01*
X7950Y266249D01*
X8075Y266486D01*
X8200Y266699D01*
X8350Y266898D01*
X8362Y266911D01*
X8387Y266949D01*
X8437Y266999D01*
X8500Y267061D01*
X8587Y267136D01*
X8700Y267223D01*
X8812Y267323D01*
X8962Y267423D01*
X9112Y267511D01*
X9287Y267611D01*
X9487Y267698D01*
X9699Y267773D01*
X9924Y267836D01*
X10162Y267886D01*
X10424Y267923D01*
X10699Y267936D01*
X10724D01*
X10774D01*
X10874Y267923D01*
X10999Y267911D01*
X11149Y267886D01*
X11312Y267848D01*
X11511Y267811D01*
X11711Y267748D01*
X11936Y267661D01*
X12161Y267561D01*
X12386Y267436D01*
X12611Y267286D01*
X12836Y267111D01*
X13048Y266898D01*
X13248Y266661D01*
X13436Y266386D01*
X13448Y266411D01*
X13486Y266474D01*
X13536Y266574D01*
X13611Y266699D01*
X13723Y266836D01*
X13848Y267011D01*
X13998Y267186D01*
X14173Y267373D01*
X14373Y267548D01*
X14598Y267723D01*
X14848Y267898D01*
X15123Y268048D01*
X15435Y268173D01*
X15760Y268261D01*
X16123Y268323D01*
X16510Y268348D01*
X16535D01*
X16585D01*
X16673Y268336D01*
D02*
G37*
G36*
X907000Y291400D02*
Y288898D01*
X906024Y283991D01*
X904109Y279369D01*
X901329Y275208D01*
X897792Y271670D01*
X893631Y268891D01*
X889009Y266976D01*
X884102Y266000D01*
X857000D01*
Y276000D01*
X897000Y316000D01*
X907000D01*
Y291400D01*
D02*
G37*
G36*
X807000Y276000D02*
Y266000D01*
X779898D01*
X774991Y266976D01*
X770369Y268891D01*
X766208Y271670D01*
X762671Y275208D01*
X759891Y279369D01*
X757976Y283991D01*
X757000Y288898D01*
Y291400D01*
Y316000D01*
X767000D01*
X807000Y276000D01*
D02*
G37*
G36*
X741000Y291400D02*
Y288898D01*
X740024Y283991D01*
X738109Y279369D01*
X735329Y275208D01*
X731792Y271670D01*
X727631Y268891D01*
X723009Y266976D01*
X718102Y266000D01*
X691000D01*
Y276000D01*
X731000Y316000D01*
X741000D01*
Y291400D01*
D02*
G37*
G36*
X641000Y276000D02*
Y266000D01*
X613898D01*
X608991Y266976D01*
X604369Y268891D01*
X600208Y271670D01*
X596670Y275208D01*
X593891Y279369D01*
X591976Y283991D01*
X591000Y288898D01*
Y291400D01*
Y316000D01*
X601000D01*
X641000Y276000D01*
D02*
G37*
G36*
X575000Y291400D02*
Y288898D01*
X574024Y283991D01*
X572109Y279369D01*
X569329Y275208D01*
X565792Y271670D01*
X561631Y268891D01*
X557009Y266976D01*
X552102Y266000D01*
X525000D01*
Y276000D01*
X565000Y316000D01*
X575000D01*
Y291400D01*
D02*
G37*
G36*
X475000Y276000D02*
Y266000D01*
X447898D01*
X442991Y266976D01*
X438369Y268891D01*
X434208Y271670D01*
X430671Y275208D01*
X427891Y279369D01*
X425976Y283991D01*
X425000Y288898D01*
Y291400D01*
Y316000D01*
X435000D01*
X475000Y276000D01*
D02*
G37*
G36*
X409000Y291400D02*
Y288898D01*
X408024Y283991D01*
X406109Y279369D01*
X403329Y275208D01*
X399791Y271670D01*
X395631Y268891D01*
X391009Y266976D01*
X386102Y266000D01*
X359000D01*
Y276000D01*
X399000Y316000D01*
X409000D01*
Y291400D01*
D02*
G37*
G36*
X309000Y276000D02*
Y266000D01*
X281898D01*
X276991Y266976D01*
X272369Y268891D01*
X268208Y271670D01*
X264671Y275208D01*
X261891Y279369D01*
X259976Y283991D01*
X259000Y288898D01*
Y291400D01*
Y316000D01*
X269000D01*
X309000Y276000D01*
D02*
G37*
G36*
X243000Y291400D02*
Y288898D01*
X242024Y283991D01*
X240109Y279369D01*
X237329Y275208D01*
X233792Y271670D01*
X229631Y268891D01*
X225009Y266976D01*
X220102Y266000D01*
X193000D01*
Y276000D01*
X233000Y316000D01*
X243000D01*
Y291400D01*
D02*
G37*
G36*
X143000Y276000D02*
Y266000D01*
X115898D01*
X110991Y266976D01*
X106369Y268891D01*
X102208Y271670D01*
X98671Y275208D01*
X95891Y279369D01*
X93976Y283991D01*
X93000Y288898D01*
Y291400D01*
Y316000D01*
X103000D01*
X143000Y276000D01*
D02*
G37*
G36*
X25023Y270960D02*
X35408D01*
Y268773D01*
X25023D01*
Y264849D01*
X23086D01*
Y275059D01*
X25023D01*
Y270960D01*
D02*
G37*
G36*
X35408Y261187D02*
X23086D01*
Y263374D01*
X35408D01*
Y261187D01*
D02*
G37*
G36*
X20034Y250803D02*
X19397D01*
X13661Y254689D01*
X13636Y254702D01*
X13586Y254739D01*
X13498Y254802D01*
X13373Y254877D01*
X13224Y254964D01*
X13048Y255064D01*
X12861Y255164D01*
X12649Y255277D01*
X12424Y255389D01*
X12199Y255489D01*
X11949Y255589D01*
X11711Y255676D01*
X11461Y255751D01*
X11224Y255814D01*
X10986Y255851D01*
X10762Y255864D01*
X10749D01*
X10699D01*
X10637Y255851D01*
X10537Y255839D01*
X10437Y255814D01*
X10324Y255776D01*
X10187Y255726D01*
X10062Y255651D01*
X9937Y255564D01*
X9799Y255452D01*
X9687Y255314D01*
X9574Y255164D01*
X9487Y254964D01*
X9424Y254739D01*
X9374Y254489D01*
X9362Y254189D01*
Y254139D01*
X9374Y254064D01*
X9387Y253977D01*
X9399Y253864D01*
X9437Y253739D01*
X9474Y253602D01*
X9524Y253452D01*
X9599Y253290D01*
X9687Y253127D01*
X9799Y252965D01*
X9937Y252790D01*
X10087Y252615D01*
X10262Y252452D01*
X10474Y252290D01*
X10712Y252140D01*
X9562Y250665D01*
X9549D01*
X9524Y250690D01*
X9474Y250715D01*
X9412Y250753D01*
X9337Y250790D01*
X9250Y250853D01*
X9050Y250990D01*
X8812Y251190D01*
X8562Y251415D01*
X8325Y251702D01*
X8087Y252027D01*
X8075Y252040D01*
X8062Y252065D01*
X8037Y252127D01*
X8000Y252190D01*
X7950Y252277D01*
X7900Y252390D01*
X7850Y252502D01*
X7787Y252640D01*
X7737Y252790D01*
X7687Y252952D01*
X7587Y253302D01*
X7525Y253689D01*
X7500Y253889D01*
Y254289D01*
X7512Y254414D01*
X7525Y254577D01*
X7550Y254764D01*
X7575Y254964D01*
X7612Y255189D01*
X7650Y255414D01*
X7712Y255664D01*
X7775Y255901D01*
X7862Y256151D01*
X7962Y256401D01*
X8075Y256626D01*
X8212Y256851D01*
X8362Y257064D01*
X8375Y257076D01*
X8400Y257113D01*
X8450Y257164D01*
X8525Y257226D01*
X8612Y257313D01*
X8712Y257401D01*
X8837Y257501D01*
X8987Y257601D01*
X9150Y257701D01*
X9324Y257801D01*
X9524Y257888D01*
X9737Y257976D01*
X9974Y258038D01*
X10212Y258088D01*
X10487Y258126D01*
X10762Y258138D01*
X10774D01*
X10824D01*
X10899Y258126D01*
X11012Y258113D01*
X11149Y258101D01*
X11312Y258063D01*
X11511Y258026D01*
X11724Y257963D01*
X11961Y257888D01*
X12236Y257801D01*
X12524Y257688D01*
X12824Y257563D01*
X13161Y257401D01*
X13511Y257213D01*
X13873Y257001D01*
X14261Y256764D01*
X18097Y254252D01*
Y258876D01*
X20034D01*
Y250803D01*
D02*
G37*
G36*
X31759Y258613D02*
X31884Y258601D01*
X32046Y258588D01*
X32234Y258563D01*
X32434Y258513D01*
X32659Y258463D01*
X32883Y258401D01*
X33133Y258313D01*
X33383Y258213D01*
X33621Y258088D01*
X33871Y257938D01*
X34108Y257776D01*
X34333Y257576D01*
X34546Y257351D01*
X34558Y257339D01*
X34595Y257288D01*
X34646Y257213D01*
X34708Y257113D01*
X34795Y256989D01*
X34883Y256839D01*
X34983Y256651D01*
X35083Y256451D01*
X35183Y256214D01*
X35283Y255964D01*
X35370Y255676D01*
X35458Y255376D01*
X35520Y255052D01*
X35570Y254702D01*
X35608Y254327D01*
X35620Y253939D01*
Y253852D01*
X35608Y253739D01*
Y253589D01*
X35583Y253414D01*
X35570Y253202D01*
X35533Y252977D01*
X35483Y252727D01*
X35433Y252465D01*
X35358Y252190D01*
X35283Y251915D01*
X35183Y251652D01*
X35058Y251378D01*
X34920Y251115D01*
X34758Y250865D01*
X34571Y250640D01*
X34558Y250628D01*
X34520Y250590D01*
X34458Y250528D01*
X34371Y250465D01*
X34271Y250365D01*
X34133Y250278D01*
X33983Y250165D01*
X33796Y250065D01*
X33596Y249953D01*
X33371Y249840D01*
X33121Y249753D01*
X32858Y249665D01*
X32571Y249590D01*
X32246Y249528D01*
X31921Y249491D01*
X31559Y249478D01*
X23086D01*
Y251665D01*
X31446D01*
X31459D01*
X31496D01*
X31546D01*
X31609Y251677D01*
X31696D01*
X31796Y251702D01*
X32021Y251740D01*
X32284Y251815D01*
X32559Y251915D01*
X32821Y252065D01*
X32946Y252165D01*
X33071Y252265D01*
X33083Y252277D01*
X33096Y252290D01*
X33121Y252327D01*
X33171Y252377D01*
X33208Y252440D01*
X33258Y252515D01*
X33321Y252602D01*
X33371Y252702D01*
X33483Y252940D01*
X33583Y253214D01*
X33658Y253552D01*
X33671Y253739D01*
X33683Y253927D01*
Y254039D01*
X33671Y254127D01*
Y254227D01*
X33646Y254339D01*
X33633Y254464D01*
X33608Y254602D01*
X33533Y254902D01*
X33433Y255214D01*
X33283Y255501D01*
X33183Y255651D01*
X33083Y255776D01*
X33071Y255789D01*
X33058Y255801D01*
X33021Y255839D01*
X32971Y255876D01*
X32908Y255926D01*
X32833Y255989D01*
X32746Y256051D01*
X32646Y256114D01*
X32408Y256226D01*
X32121Y256339D01*
X31784Y256414D01*
X31596Y256426D01*
X31409Y256439D01*
X23086D01*
Y258626D01*
X31571D01*
X31596D01*
X31659D01*
X31759Y258613D01*
D02*
G37*
G36*
X834917Y267616D02*
X836737Y266862D01*
X838375Y265767D01*
X839768Y264375D01*
X840862Y262737D01*
X841616Y260917D01*
X842000Y258985D01*
Y258985D01*
Y258000D01*
Y257015D01*
X841616Y255083D01*
X840862Y253263D01*
X839768Y251625D01*
X838375Y250233D01*
X836737Y249138D01*
X834917Y248384D01*
X832985Y248000D01*
X831015D01*
X829083Y248384D01*
X827263Y249138D01*
X825625Y250233D01*
X824232Y251625D01*
X823138Y253263D01*
X822384Y255083D01*
X822000Y257015D01*
Y257015D01*
Y258000D01*
Y258985D01*
Y258985D01*
X822384Y260917D01*
X823138Y262737D01*
X824232Y264375D01*
X825625Y265767D01*
X827263Y266862D01*
X829083Y267616D01*
X831015Y268000D01*
X832985D01*
X834917Y267616D01*
D02*
G37*
G36*
X668917D02*
X670737Y266862D01*
X672375Y265767D01*
X673767Y264375D01*
X674862Y262737D01*
X675616Y260917D01*
X676000Y258985D01*
Y258985D01*
Y258000D01*
Y257015D01*
X675616Y255083D01*
X674862Y253263D01*
X673767Y251625D01*
X672375Y250233D01*
X670737Y249138D01*
X668917Y248384D01*
X666985Y248000D01*
X665015D01*
X663083Y248384D01*
X661263Y249138D01*
X659625Y250233D01*
X658232Y251625D01*
X657138Y253263D01*
X656384Y255083D01*
X656000Y257015D01*
Y257015D01*
Y258000D01*
Y258985D01*
Y258985D01*
X656384Y260917D01*
X657138Y262737D01*
X658232Y264375D01*
X659625Y265767D01*
X661263Y266862D01*
X663083Y267616D01*
X665015Y268000D01*
X666985D01*
X668917Y267616D01*
D02*
G37*
G36*
X502917D02*
X504737Y266862D01*
X506375Y265767D01*
X507767Y264375D01*
X508862Y262737D01*
X509616Y260917D01*
X510000Y258985D01*
Y258985D01*
Y258000D01*
Y257015D01*
X509616Y255083D01*
X508862Y253263D01*
X507767Y251625D01*
X506375Y250233D01*
X504737Y249138D01*
X502917Y248384D01*
X500985Y248000D01*
X499015D01*
X497083Y248384D01*
X495263Y249138D01*
X493625Y250233D01*
X492233Y251625D01*
X491138Y253263D01*
X490384Y255083D01*
X490000Y257015D01*
Y257015D01*
Y258000D01*
Y258985D01*
Y258985D01*
X490384Y260917D01*
X491138Y262737D01*
X492233Y264375D01*
X493625Y265767D01*
X495263Y266862D01*
X497083Y267616D01*
X499015Y268000D01*
X500985D01*
X502917Y267616D01*
D02*
G37*
G36*
X336917D02*
X338737Y266862D01*
X340375Y265767D01*
X341768Y264375D01*
X342862Y262737D01*
X343616Y260917D01*
X344000Y258985D01*
Y258985D01*
Y258000D01*
Y257015D01*
X343616Y255083D01*
X342862Y253263D01*
X341768Y251625D01*
X340375Y250233D01*
X338737Y249138D01*
X336917Y248384D01*
X334985Y248000D01*
X333015D01*
X331083Y248384D01*
X329263Y249138D01*
X327625Y250233D01*
X326232Y251625D01*
X325138Y253263D01*
X324384Y255083D01*
X324000Y257015D01*
Y257015D01*
Y258000D01*
Y258985D01*
Y258985D01*
X324384Y260917D01*
X325138Y262737D01*
X326232Y264375D01*
X327625Y265767D01*
X329263Y266862D01*
X331083Y267616D01*
X333015Y268000D01*
X334985D01*
X336917Y267616D01*
D02*
G37*
G36*
X170917D02*
X172737Y266862D01*
X174375Y265767D01*
X175767Y264375D01*
X176862Y262737D01*
X177616Y260917D01*
X178000Y258985D01*
Y258985D01*
Y258000D01*
Y257015D01*
X177616Y255083D01*
X176862Y253263D01*
X175767Y251625D01*
X174375Y250233D01*
X172737Y249138D01*
X170917Y248384D01*
X168985Y248000D01*
X167015D01*
X165083Y248384D01*
X163263Y249138D01*
X161625Y250233D01*
X160233Y251625D01*
X159138Y253263D01*
X158384Y255083D01*
X158000Y257015D01*
Y257015D01*
Y258000D01*
Y258985D01*
Y258985D01*
X158384Y260917D01*
X159138Y262737D01*
X160233Y264375D01*
X161625Y265767D01*
X163263Y266862D01*
X165083Y267616D01*
X167015Y268000D01*
X168985D01*
X170917Y267616D01*
D02*
G37*
G36*
X34208Y247703D02*
X34258Y247654D01*
X34321Y247579D01*
X34420Y247466D01*
X34520Y247328D01*
X34646Y247154D01*
X34770Y246954D01*
X34908Y246729D01*
X35045Y246466D01*
X35170Y246166D01*
X35295Y245854D01*
X35395Y245492D01*
X35483Y245117D01*
X35558Y244704D01*
X35608Y244267D01*
X35620Y243792D01*
Y243680D01*
X35608Y243542D01*
X35595Y243367D01*
X35570Y243155D01*
X35533Y242905D01*
X35483Y242617D01*
X35408Y242317D01*
X35320Y242005D01*
X35208Y241680D01*
X35070Y241343D01*
X34908Y241005D01*
X34708Y240680D01*
X34483Y240368D01*
X34221Y240055D01*
X33921Y239781D01*
X33896Y239768D01*
X33846Y239718D01*
X33746Y239655D01*
X33608Y239555D01*
X33433Y239456D01*
X33233Y239331D01*
X32983Y239206D01*
X32708Y239068D01*
X32396Y238931D01*
X32046Y238806D01*
X31659Y238681D01*
X31246Y238581D01*
X30809Y238493D01*
X30334Y238418D01*
X29834Y238368D01*
X29297Y238356D01*
X29284D01*
X29259D01*
X29222D01*
X29172D01*
X29109Y238368D01*
X29034D01*
X28835Y238381D01*
X28609Y238406D01*
X28335Y238443D01*
X28035Y238493D01*
X27697Y238556D01*
X27347Y238631D01*
X26972Y238743D01*
X26597Y238868D01*
X26210Y239018D01*
X25823Y239206D01*
X25448Y239406D01*
X25073Y239655D01*
X24723Y239930D01*
X24698Y239955D01*
X24648Y240005D01*
X24548Y240093D01*
X24436Y240218D01*
X24298Y240380D01*
X24136Y240568D01*
X23973Y240780D01*
X23798Y241030D01*
X23623Y241318D01*
X23461Y241618D01*
X23298Y241955D01*
X23161Y242317D01*
X23048Y242705D01*
X22949Y243105D01*
X22898Y243542D01*
X22873Y243992D01*
Y244192D01*
X22886Y244342D01*
X22898Y244529D01*
X22924Y244729D01*
X22949Y244967D01*
X22986Y245217D01*
X23023Y245479D01*
X23086Y245754D01*
X23148Y246041D01*
X23236Y246329D01*
X23336Y246604D01*
X23448Y246879D01*
X23586Y247141D01*
X23736Y247391D01*
X25548Y246491D01*
X25535Y246479D01*
X25510Y246454D01*
X25485Y246416D01*
X25435Y246354D01*
X25373Y246266D01*
X25310Y246179D01*
X25248Y246054D01*
X25173Y245916D01*
X25110Y245766D01*
X25048Y245592D01*
X24985Y245392D01*
X24923Y245179D01*
X24873Y244954D01*
X24848Y244692D01*
X24823Y244429D01*
X24811Y244129D01*
Y244067D01*
X24823Y243979D01*
X24836Y243879D01*
X24848Y243742D01*
X24873Y243592D01*
X24923Y243417D01*
X24973Y243242D01*
X25035Y243042D01*
X25123Y242842D01*
X25235Y242630D01*
X25360Y242417D01*
X25510Y242205D01*
X25685Y241992D01*
X25885Y241793D01*
X26110Y241605D01*
X26123Y241593D01*
X26173Y241567D01*
X26248Y241518D01*
X26348Y241455D01*
X26473Y241380D01*
X26623Y241293D01*
X26797Y241205D01*
X26997Y241118D01*
X27222Y241030D01*
X27472Y240943D01*
X27747Y240855D01*
X28035Y240780D01*
X28347Y240718D01*
X28672Y240668D01*
X29022Y240643D01*
X29384Y240630D01*
X29409D01*
X29472D01*
X29572Y240643D01*
X29709D01*
X29872Y240655D01*
X30072Y240680D01*
X30284Y240705D01*
X30522Y240743D01*
X30759Y240793D01*
X31021Y240855D01*
X31284Y240918D01*
X31546Y241005D01*
X31796Y241118D01*
X32046Y241230D01*
X32296Y241368D01*
X32521Y241530D01*
X32534Y241542D01*
X32571Y241567D01*
X32634Y241630D01*
X32696Y241693D01*
X32796Y241793D01*
X32883Y241905D01*
X32996Y242030D01*
X33096Y242180D01*
X33208Y242342D01*
X33321Y242530D01*
X33408Y242730D01*
X33496Y242942D01*
X33571Y243180D01*
X33633Y243430D01*
X33671Y243692D01*
X33683Y243967D01*
Y244042D01*
X33671Y244129D01*
X33658Y244254D01*
X33646Y244404D01*
X33621Y244567D01*
X33583Y244754D01*
X33521Y244954D01*
X33458Y245179D01*
X33383Y245392D01*
X33271Y245616D01*
X33158Y245854D01*
X33008Y246079D01*
X32846Y246291D01*
X32659Y246504D01*
X32434Y246691D01*
X34196Y247716D01*
X34208Y247703D01*
D02*
G37*
G36*
X14061Y248853D02*
X14148D01*
X14261D01*
X14511Y248828D01*
X14798Y248803D01*
X15110Y248766D01*
X15460Y248716D01*
X15823Y248653D01*
X16210Y248578D01*
X16598Y248491D01*
X16985Y248378D01*
X17372Y248241D01*
X17760Y248091D01*
X18122Y247903D01*
X18460Y247703D01*
X18485Y247691D01*
X18535Y247654D01*
X18622Y247579D01*
X18735Y247491D01*
X18859Y247366D01*
X19009Y247229D01*
X19172Y247054D01*
X19322Y246866D01*
X19484Y246641D01*
X19647Y246391D01*
X19797Y246129D01*
X19922Y245841D01*
X20034Y245529D01*
X20122Y245179D01*
X20172Y244829D01*
X20197Y244442D01*
Y244342D01*
X20184Y244229D01*
X20172Y244079D01*
X20147Y243892D01*
X20109Y243680D01*
X20059Y243442D01*
X19997Y243180D01*
X19909Y242917D01*
X19797Y242642D01*
X19672Y242367D01*
X19522Y242092D01*
X19334Y241830D01*
X19122Y241567D01*
X18872Y241330D01*
X18585Y241118D01*
X18560Y241105D01*
X18510Y241068D01*
X18410Y241018D01*
X18272Y240955D01*
X18110Y240868D01*
X17897Y240780D01*
X17635Y240680D01*
X17347Y240580D01*
X17010Y240480D01*
X16635Y240380D01*
X16223Y240293D01*
X15760Y240205D01*
X15260Y240143D01*
X14723Y240093D01*
X14136Y240055D01*
X13511Y240043D01*
X13498D01*
X13486D01*
X13448D01*
X13398D01*
X13261Y240055D01*
X13086Y240068D01*
X12874Y240080D01*
X12624Y240105D01*
X12336Y240143D01*
X12036Y240193D01*
X11699Y240255D01*
X11361Y240343D01*
X11012Y240443D01*
X10649Y240555D01*
X10287Y240705D01*
X9937Y240868D01*
X9587Y241055D01*
X9250Y241268D01*
X9225Y241280D01*
X9175Y241330D01*
X9087Y241393D01*
X8975Y241493D01*
X8837Y241618D01*
X8700Y241768D01*
X8537Y241942D01*
X8375Y242142D01*
X8212Y242367D01*
X8050Y242617D01*
X7900Y242892D01*
X7775Y243180D01*
X7662Y243492D01*
X7575Y243829D01*
X7525Y244192D01*
X7500Y244567D01*
Y244679D01*
X7512Y244754D01*
X7525Y244854D01*
X7537Y244967D01*
X7562Y245092D01*
X7600Y245242D01*
X7637Y245392D01*
X7687Y245567D01*
X7750Y245741D01*
X7825Y245929D01*
X7925Y246116D01*
X8025Y246316D01*
X8150Y246516D01*
X8287Y246716D01*
X8437Y246916D01*
X8612Y247116D01*
X8812Y247316D01*
X9037Y247504D01*
X9275Y247691D01*
X9537Y247866D01*
X9824Y248041D01*
X10149Y248191D01*
X10487Y248341D01*
X10862Y248466D01*
X11274Y248578D01*
X11699Y248678D01*
X12174Y248766D01*
X12674Y248816D01*
X13198Y248853D01*
X13773Y248866D01*
X13786D01*
X13811D01*
X13848D01*
X13898D01*
X13973D01*
X14061Y248853D01*
D02*
G37*
G36*
X35408Y235369D02*
X30322Y232082D01*
Y231882D01*
X30309Y231720D01*
Y231520D01*
X30297Y231283D01*
X30284Y231008D01*
X30272Y230695D01*
X35408D01*
Y228421D01*
X23098D01*
Y228596D01*
X23086Y228658D01*
Y228846D01*
X23073Y228958D01*
Y229096D01*
X23061Y229246D01*
Y229421D01*
X23048Y229608D01*
X23036Y229833D01*
Y229883D01*
X23023Y229958D01*
Y230145D01*
X23011Y230270D01*
Y230395D01*
X22998Y230545D01*
X22986Y230870D01*
X22973Y231195D01*
X22961Y231533D01*
Y231945D01*
X22973Y232033D01*
Y232145D01*
X22986Y232270D01*
X22998Y232407D01*
X23023Y232570D01*
X23036Y232745D01*
X23073Y232920D01*
X23148Y233320D01*
X23261Y233745D01*
X23411Y234182D01*
X23611Y234619D01*
X23723Y234832D01*
X23848Y235044D01*
X23986Y235244D01*
X24148Y235444D01*
X24311Y235632D01*
X24498Y235794D01*
X24698Y235956D01*
X24911Y236094D01*
X25148Y236219D01*
X25398Y236331D01*
X25673Y236419D01*
X25960Y236481D01*
X26273Y236519D01*
X26597Y236531D01*
X26610D01*
X26648D01*
X26710D01*
X26785Y236519D01*
X26885Y236506D01*
X26997Y236494D01*
X27122Y236481D01*
X27260Y236456D01*
X27572Y236369D01*
X27910Y236256D01*
X28072Y236181D01*
X28247Y236094D01*
X28422Y235994D01*
X28597Y235882D01*
X28609Y235869D01*
X28635Y235856D01*
X28684Y235819D01*
X28747Y235769D01*
X28822Y235707D01*
X28897Y235619D01*
X29097Y235432D01*
X29297Y235194D01*
X29509Y234919D01*
X29697Y234594D01*
X29784Y234432D01*
X29859Y234244D01*
X35408Y237894D01*
Y235369D01*
D02*
G37*
G36*
X20034Y230633D02*
X19397D01*
X13661Y234519D01*
X13636Y234532D01*
X13586Y234569D01*
X13498Y234632D01*
X13373Y234707D01*
X13224Y234794D01*
X13048Y234894D01*
X12861Y234994D01*
X12649Y235107D01*
X12424Y235219D01*
X12199Y235319D01*
X11949Y235419D01*
X11711Y235507D01*
X11461Y235581D01*
X11224Y235644D01*
X10986Y235681D01*
X10762Y235694D01*
X10749D01*
X10699D01*
X10637Y235681D01*
X10537Y235669D01*
X10437Y235644D01*
X10324Y235606D01*
X10187Y235557D01*
X10062Y235482D01*
X9937Y235394D01*
X9799Y235282D01*
X9687Y235144D01*
X9574Y234994D01*
X9487Y234794D01*
X9424Y234569D01*
X9374Y234319D01*
X9362Y234019D01*
Y233969D01*
X9374Y233895D01*
X9387Y233807D01*
X9399Y233694D01*
X9437Y233570D01*
X9474Y233432D01*
X9524Y233282D01*
X9599Y233120D01*
X9687Y232957D01*
X9799Y232795D01*
X9937Y232620D01*
X10087Y232445D01*
X10262Y232282D01*
X10474Y232120D01*
X10712Y231970D01*
X9562Y230495D01*
X9549D01*
X9524Y230520D01*
X9474Y230545D01*
X9412Y230583D01*
X9337Y230620D01*
X9250Y230683D01*
X9050Y230820D01*
X8812Y231020D01*
X8562Y231245D01*
X8325Y231533D01*
X8087Y231857D01*
X8075Y231870D01*
X8062Y231895D01*
X8037Y231957D01*
X8000Y232020D01*
X7950Y232107D01*
X7900Y232220D01*
X7850Y232332D01*
X7787Y232470D01*
X7737Y232620D01*
X7687Y232782D01*
X7587Y233132D01*
X7525Y233520D01*
X7500Y233720D01*
Y234119D01*
X7512Y234244D01*
X7525Y234407D01*
X7550Y234594D01*
X7575Y234794D01*
X7612Y235019D01*
X7650Y235244D01*
X7712Y235494D01*
X7775Y235732D01*
X7862Y235981D01*
X7962Y236231D01*
X8075Y236456D01*
X8212Y236681D01*
X8362Y236894D01*
X8375Y236906D01*
X8400Y236944D01*
X8450Y236994D01*
X8525Y237056D01*
X8612Y237144D01*
X8712Y237231D01*
X8837Y237331D01*
X8987Y237431D01*
X9150Y237531D01*
X9324Y237631D01*
X9524Y237719D01*
X9737Y237806D01*
X9974Y237868D01*
X10212Y237918D01*
X10487Y237956D01*
X10762Y237968D01*
X10774D01*
X10824D01*
X10899Y237956D01*
X11012Y237943D01*
X11149Y237931D01*
X11312Y237894D01*
X11511Y237856D01*
X11724Y237794D01*
X11961Y237719D01*
X12236Y237631D01*
X12524Y237519D01*
X12824Y237394D01*
X13161Y237231D01*
X13511Y237044D01*
X13873Y236831D01*
X14261Y236594D01*
X18097Y234082D01*
Y238706D01*
X20034D01*
Y230633D01*
D02*
G37*
G36*
X35408Y223660D02*
X23086D01*
Y225847D01*
X35408D01*
Y223660D01*
D02*
G37*
G36*
X34208Y221848D02*
X34258Y221798D01*
X34321Y221723D01*
X34420Y221610D01*
X34520Y221473D01*
X34646Y221298D01*
X34770Y221098D01*
X34908Y220873D01*
X35045Y220610D01*
X35170Y220310D01*
X35295Y219998D01*
X35395Y219636D01*
X35483Y219261D01*
X35558Y218848D01*
X35608Y218411D01*
X35620Y217936D01*
Y217824D01*
X35608Y217686D01*
X35595Y217511D01*
X35570Y217299D01*
X35533Y217049D01*
X35483Y216761D01*
X35408Y216461D01*
X35320Y216149D01*
X35208Y215824D01*
X35070Y215487D01*
X34908Y215149D01*
X34708Y214824D01*
X34483Y214512D01*
X34221Y214200D01*
X33921Y213925D01*
X33896Y213912D01*
X33846Y213862D01*
X33746Y213800D01*
X33608Y213700D01*
X33433Y213600D01*
X33233Y213475D01*
X32983Y213350D01*
X32708Y213212D01*
X32396Y213075D01*
X32046Y212950D01*
X31659Y212825D01*
X31246Y212725D01*
X30809Y212637D01*
X30334Y212562D01*
X29834Y212512D01*
X29297Y212500D01*
X29284D01*
X29259D01*
X29222D01*
X29172D01*
X29109Y212512D01*
X29034D01*
X28835Y212525D01*
X28609Y212550D01*
X28335Y212587D01*
X28035Y212637D01*
X27697Y212700D01*
X27347Y212775D01*
X26972Y212887D01*
X26597Y213012D01*
X26210Y213162D01*
X25823Y213350D01*
X25448Y213550D01*
X25073Y213800D01*
X24723Y214075D01*
X24698Y214100D01*
X24648Y214149D01*
X24548Y214237D01*
X24436Y214362D01*
X24298Y214524D01*
X24136Y214712D01*
X23973Y214924D01*
X23798Y215174D01*
X23623Y215462D01*
X23461Y215762D01*
X23298Y216099D01*
X23161Y216461D01*
X23048Y216849D01*
X22949Y217249D01*
X22898Y217686D01*
X22873Y218136D01*
Y218336D01*
X22886Y218486D01*
X22898Y218673D01*
X22924Y218873D01*
X22949Y219111D01*
X22986Y219361D01*
X23023Y219623D01*
X23086Y219898D01*
X23148Y220186D01*
X23236Y220473D01*
X23336Y220748D01*
X23448Y221023D01*
X23586Y221285D01*
X23736Y221535D01*
X25548Y220635D01*
X25535Y220623D01*
X25510Y220598D01*
X25485Y220560D01*
X25435Y220498D01*
X25373Y220410D01*
X25310Y220323D01*
X25248Y220198D01*
X25173Y220061D01*
X25110Y219911D01*
X25048Y219736D01*
X24985Y219536D01*
X24923Y219323D01*
X24873Y219098D01*
X24848Y218836D01*
X24823Y218573D01*
X24811Y218274D01*
Y218211D01*
X24823Y218123D01*
X24836Y218023D01*
X24848Y217886D01*
X24873Y217736D01*
X24923Y217561D01*
X24973Y217386D01*
X25035Y217186D01*
X25123Y216986D01*
X25235Y216774D01*
X25360Y216561D01*
X25510Y216349D01*
X25685Y216136D01*
X25885Y215937D01*
X26110Y215749D01*
X26123Y215737D01*
X26173Y215712D01*
X26248Y215662D01*
X26348Y215599D01*
X26473Y215524D01*
X26623Y215437D01*
X26797Y215349D01*
X26997Y215262D01*
X27222Y215174D01*
X27472Y215087D01*
X27747Y214999D01*
X28035Y214924D01*
X28347Y214862D01*
X28672Y214812D01*
X29022Y214787D01*
X29384Y214774D01*
X29409D01*
X29472D01*
X29572Y214787D01*
X29709D01*
X29872Y214799D01*
X30072Y214824D01*
X30284Y214849D01*
X30522Y214887D01*
X30759Y214937D01*
X31021Y214999D01*
X31284Y215062D01*
X31546Y215149D01*
X31796Y215262D01*
X32046Y215374D01*
X32296Y215512D01*
X32521Y215674D01*
X32534Y215687D01*
X32571Y215712D01*
X32634Y215774D01*
X32696Y215837D01*
X32796Y215937D01*
X32883Y216049D01*
X32996Y216174D01*
X33096Y216324D01*
X33208Y216486D01*
X33321Y216674D01*
X33408Y216874D01*
X33496Y217086D01*
X33571Y217324D01*
X33633Y217574D01*
X33671Y217836D01*
X33683Y218111D01*
Y218186D01*
X33671Y218274D01*
X33658Y218398D01*
X33646Y218548D01*
X33621Y218711D01*
X33583Y218898D01*
X33521Y219098D01*
X33458Y219323D01*
X33383Y219536D01*
X33271Y219761D01*
X33158Y219998D01*
X33008Y220223D01*
X32846Y220435D01*
X32659Y220648D01*
X32434Y220835D01*
X34196Y221860D01*
X34208Y221848D01*
D02*
G37*
G36*
X14723Y224334D02*
X14898Y224322D01*
X15110Y224297D01*
X15360Y224259D01*
X15635Y224197D01*
X15935Y224135D01*
X16260Y224035D01*
X16598Y223922D01*
X16935Y223785D01*
X17297Y223610D01*
X17647Y223410D01*
X18010Y223185D01*
X18347Y222910D01*
X18685Y222610D01*
X18710Y222585D01*
X18760Y222535D01*
X18847Y222435D01*
X18959Y222297D01*
X19085Y222135D01*
X19234Y221935D01*
X19384Y221698D01*
X19547Y221435D01*
X19709Y221148D01*
X19859Y220823D01*
X20009Y220485D01*
X20134Y220110D01*
X20247Y219723D01*
X20334Y219311D01*
X20384Y218873D01*
X20409Y218423D01*
Y218311D01*
X20397Y218186D01*
X20384Y218011D01*
X20359Y217799D01*
X20322Y217549D01*
X20259Y217274D01*
X20197Y216974D01*
X20097Y216649D01*
X19984Y216311D01*
X19847Y215974D01*
X19684Y215612D01*
X19484Y215262D01*
X19259Y214899D01*
X18985Y214562D01*
X18685Y214224D01*
X18660Y214200D01*
X18610Y214149D01*
X18510Y214062D01*
X18372Y213950D01*
X18210Y213825D01*
X18010Y213675D01*
X17772Y213525D01*
X17510Y213362D01*
X17210Y213200D01*
X16897Y213050D01*
X16548Y212900D01*
X16185Y212775D01*
X15785Y212662D01*
X15373Y212575D01*
X14935Y212525D01*
X14486Y212500D01*
X14473D01*
X14461D01*
X14423D01*
X14373D01*
X14248Y212512D01*
X14073Y212525D01*
X13861Y212550D01*
X13623Y212587D01*
X13348Y212650D01*
X13048Y212712D01*
X12724Y212812D01*
X12386Y212925D01*
X12036Y213062D01*
X11686Y213225D01*
X11336Y213425D01*
X10974Y213650D01*
X10637Y213925D01*
X10299Y214224D01*
X10274Y214249D01*
X10224Y214300D01*
X10137Y214400D01*
X10024Y214537D01*
X9899Y214699D01*
X9749Y214899D01*
X9587Y215137D01*
X9424Y215399D01*
X9275Y215699D01*
X9112Y216012D01*
X8962Y216362D01*
X8837Y216724D01*
X8725Y217124D01*
X8637Y217536D01*
X8587Y217974D01*
X8562Y218423D01*
Y218536D01*
X8575Y218661D01*
X8587Y218836D01*
X8612Y219048D01*
X8650Y219286D01*
X8712Y219561D01*
X8775Y219861D01*
X8875Y220186D01*
X8987Y220523D01*
X9125Y220873D01*
X9299Y221223D01*
X9499Y221573D01*
X9724Y221935D01*
X9999Y222272D01*
X10299Y222610D01*
X10324Y222635D01*
X10374Y222685D01*
X10474Y222772D01*
X10612Y222885D01*
X10774Y223010D01*
X10974Y223160D01*
X11212Y223322D01*
X11474Y223485D01*
X11761Y223635D01*
X12086Y223797D01*
X12424Y223947D01*
X12799Y224072D01*
X13186Y224184D01*
X13598Y224272D01*
X14036Y224322D01*
X14486Y224347D01*
X14498D01*
X14511D01*
X14548D01*
X14598D01*
X14723Y224334D01*
D02*
G37*
G36*
X889009Y249024D02*
X893631Y247109D01*
X897792Y244329D01*
X901329Y240791D01*
X904109Y236631D01*
X906024Y232009D01*
X907000Y227102D01*
Y224600D01*
Y200000D01*
X897000D01*
X857000Y240000D01*
Y250000D01*
X884102D01*
X889009Y249024D01*
D02*
G37*
G36*
X807000Y240000D02*
X767000Y200000D01*
X757000D01*
Y224600D01*
Y227102D01*
X757976Y232009D01*
X759891Y236631D01*
X762671Y240791D01*
X766208Y244329D01*
X770369Y247109D01*
X774991Y249024D01*
X779898Y250000D01*
X807000D01*
Y240000D01*
D02*
G37*
G36*
X723009Y249024D02*
X727631Y247109D01*
X731792Y244329D01*
X735329Y240791D01*
X738109Y236631D01*
X740024Y232009D01*
X741000Y227102D01*
Y224600D01*
Y200000D01*
X731000D01*
X691000Y240000D01*
Y250000D01*
X718102D01*
X723009Y249024D01*
D02*
G37*
G36*
X641000Y240000D02*
X601000Y200000D01*
X591000D01*
Y224600D01*
Y227102D01*
X591976Y232009D01*
X593891Y236631D01*
X596670Y240791D01*
X600208Y244329D01*
X604369Y247109D01*
X608991Y249024D01*
X613898Y250000D01*
X641000D01*
Y240000D01*
D02*
G37*
G36*
X557009Y249024D02*
X561631Y247109D01*
X565792Y244329D01*
X569329Y240791D01*
X572109Y236631D01*
X574024Y232009D01*
X575000Y227102D01*
Y224600D01*
Y200000D01*
X565000D01*
X525000Y240000D01*
Y250000D01*
X552102D01*
X557009Y249024D01*
D02*
G37*
G36*
X475000Y240000D02*
X435000Y200000D01*
X425000D01*
Y224600D01*
Y227102D01*
X425976Y232009D01*
X427891Y236631D01*
X430671Y240791D01*
X434208Y244329D01*
X438369Y247109D01*
X442991Y249024D01*
X447898Y250000D01*
X475000D01*
Y240000D01*
D02*
G37*
G36*
X391009Y249024D02*
X395631Y247109D01*
X399791Y244329D01*
X403329Y240791D01*
X406109Y236631D01*
X408024Y232009D01*
X409000Y227102D01*
Y224600D01*
Y200000D01*
X399000D01*
X359000Y240000D01*
Y250000D01*
X386102D01*
X391009Y249024D01*
D02*
G37*
G36*
X309000Y240000D02*
X269000Y200000D01*
X259000D01*
Y224600D01*
Y227102D01*
X259976Y232009D01*
X261891Y236631D01*
X264671Y240791D01*
X268208Y244329D01*
X272369Y247109D01*
X276991Y249024D01*
X281898Y250000D01*
X309000D01*
Y240000D01*
D02*
G37*
G36*
X225009Y249024D02*
X229631Y247109D01*
X233792Y244329D01*
X237329Y240791D01*
X240109Y236631D01*
X242024Y232009D01*
X243000Y227102D01*
Y224600D01*
Y200000D01*
X233000D01*
X193000Y240000D01*
Y250000D01*
X220102D01*
X225009Y249024D01*
D02*
G37*
G36*
X143000Y240000D02*
X103000Y200000D01*
X93000D01*
Y224600D01*
Y227102D01*
X93976Y232009D01*
X95891Y236631D01*
X98671Y240791D01*
X102208Y244329D01*
X106369Y247109D01*
X110991Y249024D01*
X115898Y250000D01*
X143000D01*
Y240000D01*
D02*
G37*
G36*
X917917Y184616D02*
X919737Y183862D01*
X921375Y182768D01*
X922767Y181375D01*
X923862Y179737D01*
X924616Y177917D01*
X925000Y175985D01*
Y175000D01*
Y174015D01*
X924616Y172083D01*
X923862Y170263D01*
X922767Y168625D01*
X921375Y167232D01*
X919737Y166138D01*
X917917Y165384D01*
X915985Y165000D01*
X914015D01*
X912083Y165384D01*
X910263Y166138D01*
X908625Y167232D01*
X907233Y168625D01*
X906138Y170263D01*
X905384Y172083D01*
X905000Y174015D01*
Y175000D01*
Y175985D01*
X905384Y177917D01*
X906138Y179737D01*
X907233Y181375D01*
X908625Y182768D01*
X910263Y183862D01*
X912083Y184616D01*
X914015Y185000D01*
X915985D01*
X917917Y184616D01*
D02*
G37*
G36*
X751917D02*
X753737Y183862D01*
X755375Y182768D01*
X756768Y181375D01*
X757862Y179737D01*
X758616Y177917D01*
X759000Y175985D01*
Y175000D01*
Y174015D01*
X758616Y172083D01*
X757862Y170263D01*
X756768Y168625D01*
X755375Y167232D01*
X753737Y166138D01*
X751917Y165384D01*
X749985Y165000D01*
X748015D01*
X746083Y165384D01*
X744263Y166138D01*
X742625Y167232D01*
X741233Y168625D01*
X740138Y170263D01*
X739384Y172083D01*
X739000Y174015D01*
Y175000D01*
Y175985D01*
X739384Y177917D01*
X740138Y179737D01*
X741233Y181375D01*
X742625Y182768D01*
X744263Y183862D01*
X746083Y184616D01*
X748015Y185000D01*
X749985D01*
X751917Y184616D01*
D02*
G37*
G36*
X585917D02*
X587737Y183862D01*
X589375Y182768D01*
X590768Y181375D01*
X591862Y179737D01*
X592616Y177917D01*
X593000Y175985D01*
Y175000D01*
Y174015D01*
X592616Y172083D01*
X591862Y170263D01*
X590768Y168625D01*
X589375Y167232D01*
X587737Y166138D01*
X585917Y165384D01*
X583985Y165000D01*
X582015D01*
X580083Y165384D01*
X578263Y166138D01*
X576625Y167232D01*
X575233Y168625D01*
X574138Y170263D01*
X573384Y172083D01*
X573000Y174015D01*
Y175000D01*
Y175985D01*
X573384Y177917D01*
X574138Y179737D01*
X575233Y181375D01*
X576625Y182768D01*
X578263Y183862D01*
X580083Y184616D01*
X582015Y185000D01*
X583985D01*
X585917Y184616D01*
D02*
G37*
G36*
X419917D02*
X421737Y183862D01*
X423375Y182768D01*
X424767Y181375D01*
X425862Y179737D01*
X426616Y177917D01*
X427000Y175985D01*
Y175000D01*
Y174015D01*
X426616Y172083D01*
X425862Y170263D01*
X424767Y168625D01*
X423375Y167232D01*
X421737Y166138D01*
X419917Y165384D01*
X417985Y165000D01*
X416015D01*
X414083Y165384D01*
X412263Y166138D01*
X410625Y167232D01*
X409232Y168625D01*
X408138Y170263D01*
X407384Y172083D01*
X407000Y174015D01*
Y175000D01*
Y175985D01*
X407384Y177917D01*
X408138Y179737D01*
X409232Y181375D01*
X410625Y182768D01*
X412263Y183862D01*
X414083Y184616D01*
X416015Y185000D01*
X417985D01*
X419917Y184616D01*
D02*
G37*
G36*
X253917D02*
X255737Y183862D01*
X257375Y182768D01*
X258768Y181375D01*
X259862Y179737D01*
X260616Y177917D01*
X261000Y175985D01*
Y175000D01*
Y174015D01*
X260616Y172083D01*
X259862Y170263D01*
X258768Y168625D01*
X257375Y167232D01*
X255737Y166138D01*
X253917Y165384D01*
X251985Y165000D01*
X250015D01*
X248083Y165384D01*
X246263Y166138D01*
X244625Y167232D01*
X243232Y168625D01*
X242138Y170263D01*
X241384Y172083D01*
X241000Y174015D01*
Y175000D01*
Y175985D01*
X241384Y177917D01*
X242138Y179737D01*
X243232Y181375D01*
X244625Y182768D01*
X246263Y183862D01*
X248083Y184616D01*
X250015Y185000D01*
X251985D01*
X253917Y184616D01*
D02*
G37*
G36*
X87917D02*
X89737Y183862D01*
X91375Y182768D01*
X92767Y181375D01*
X93862Y179737D01*
X94616Y177917D01*
X95000Y175985D01*
Y175000D01*
Y174015D01*
X94616Y172083D01*
X93862Y170263D01*
X92767Y168625D01*
X91375Y167232D01*
X89737Y166138D01*
X87917Y165384D01*
X85985Y165000D01*
X84015D01*
X82083Y165384D01*
X80263Y166138D01*
X78625Y167232D01*
X77232Y168625D01*
X76138Y170263D01*
X75384Y172083D01*
X75000Y174015D01*
Y175000D01*
Y175985D01*
X75384Y177917D01*
X76138Y179737D01*
X77232Y181375D01*
X78625Y182768D01*
X80263Y183862D01*
X82083Y184616D01*
X84015Y185000D01*
X85985D01*
X87917Y184616D01*
D02*
G37*
G36*
X907000Y125400D02*
Y122898D01*
X906024Y117991D01*
X904109Y113369D01*
X901329Y109208D01*
X897792Y105670D01*
X893631Y102891D01*
X889009Y100976D01*
X884102Y100000D01*
X857000D01*
Y110000D01*
X897000Y150000D01*
X907000D01*
Y125400D01*
D02*
G37*
G36*
X807000Y110000D02*
Y100000D01*
X779898D01*
X774991Y100976D01*
X770369Y102891D01*
X766208Y105670D01*
X762671Y109208D01*
X759891Y113369D01*
X757976Y117991D01*
X757000Y122898D01*
Y125400D01*
Y150000D01*
X767000D01*
X807000Y110000D01*
D02*
G37*
G36*
X741000Y125400D02*
Y122898D01*
X740024Y117991D01*
X738109Y113369D01*
X735329Y109208D01*
X731792Y105670D01*
X727631Y102891D01*
X723009Y100976D01*
X718102Y100000D01*
X691000D01*
Y110000D01*
X731000Y150000D01*
X741000D01*
Y125400D01*
D02*
G37*
G36*
X641000Y110000D02*
Y100000D01*
X613898D01*
X608991Y100976D01*
X604369Y102891D01*
X600208Y105670D01*
X596670Y109208D01*
X593891Y113369D01*
X591976Y117991D01*
X591000Y122898D01*
Y125400D01*
Y150000D01*
X601000D01*
X641000Y110000D01*
D02*
G37*
G36*
X575000Y125400D02*
Y122898D01*
X574024Y117991D01*
X572109Y113369D01*
X569329Y109208D01*
X565792Y105670D01*
X561631Y102891D01*
X557009Y100976D01*
X552102Y100000D01*
X525000D01*
Y110000D01*
X565000Y150000D01*
X575000D01*
Y125400D01*
D02*
G37*
G36*
X475000Y110000D02*
Y100000D01*
X447898D01*
X442991Y100976D01*
X438369Y102891D01*
X434208Y105670D01*
X430671Y109208D01*
X427891Y113369D01*
X425976Y117991D01*
X425000Y122898D01*
Y125400D01*
Y150000D01*
X435000D01*
X475000Y110000D01*
D02*
G37*
G36*
X409000Y125400D02*
Y122898D01*
X408024Y117991D01*
X406109Y113369D01*
X403329Y109208D01*
X399791Y105670D01*
X395631Y102891D01*
X391009Y100976D01*
X386102Y100000D01*
X359000D01*
Y110000D01*
X399000Y150000D01*
X409000D01*
Y125400D01*
D02*
G37*
G36*
X309000Y110000D02*
Y100000D01*
X281898D01*
X276991Y100976D01*
X272369Y102891D01*
X268208Y105670D01*
X264671Y109208D01*
X261891Y113369D01*
X259976Y117991D01*
X259000Y122898D01*
Y125400D01*
Y150000D01*
X269000D01*
X309000Y110000D01*
D02*
G37*
G36*
X243000Y125400D02*
Y122898D01*
X242024Y117991D01*
X240109Y113369D01*
X237329Y109208D01*
X233792Y105670D01*
X229631Y102891D01*
X225009Y100976D01*
X220102Y100000D01*
X193000D01*
Y110000D01*
X233000Y150000D01*
X243000D01*
Y125400D01*
D02*
G37*
G36*
X143000Y110000D02*
Y100000D01*
X115898D01*
X110991Y100976D01*
X106369Y102891D01*
X102208Y105670D01*
X98671Y109208D01*
X95891Y113369D01*
X93976Y117991D01*
X93000Y122898D01*
Y125400D01*
Y150000D01*
X103000D01*
X143000Y110000D01*
D02*
G37*
G36*
X952917Y109616D02*
X954737Y108862D01*
X956375Y107767D01*
X957767Y106375D01*
X958862Y104737D01*
X959616Y102917D01*
X960000Y100985D01*
Y100000D01*
Y99015D01*
X959616Y97083D01*
X958862Y95263D01*
X957767Y93625D01*
X956375Y92233D01*
X954737Y91138D01*
X952917Y90384D01*
X950985Y90000D01*
X949015D01*
X947083Y90384D01*
X945263Y91138D01*
X943625Y92233D01*
X942233Y93625D01*
X941138Y95263D01*
X940384Y97083D01*
X940000Y99015D01*
Y100000D01*
Y100985D01*
X940384Y102917D01*
X941138Y104737D01*
X942233Y106375D01*
X943625Y107767D01*
X945263Y108862D01*
X947083Y109616D01*
X949015Y110000D01*
X950985D01*
X952917Y109616D01*
D02*
G37*
G36*
X52917D02*
X54737Y108862D01*
X56375Y107767D01*
X57768Y106375D01*
X58862Y104737D01*
X59616Y102917D01*
X60000Y100985D01*
Y100000D01*
Y99015D01*
X59616Y97083D01*
X58862Y95263D01*
X57768Y93625D01*
X56375Y92233D01*
X54737Y91138D01*
X52917Y90384D01*
X50985Y90000D01*
X49015D01*
X47083Y90384D01*
X45263Y91138D01*
X43625Y92233D01*
X42232Y93625D01*
X41138Y95263D01*
X40384Y97083D01*
X40000Y99015D01*
Y100000D01*
Y100985D01*
X40384Y102917D01*
X41138Y104737D01*
X42232Y106375D01*
X43625Y107767D01*
X45263Y108862D01*
X47083Y109616D01*
X49015Y110000D01*
X50985D01*
X52917Y109616D01*
D02*
G37*
G36*
X834917Y101616D02*
X836737Y100862D01*
X838375Y99768D01*
X839768Y98375D01*
X840862Y96737D01*
X841616Y94917D01*
X842000Y92985D01*
Y92000D01*
Y91015D01*
X841616Y89083D01*
X840862Y87263D01*
X839768Y85625D01*
X838375Y84233D01*
X836737Y83138D01*
X834917Y82384D01*
X832985Y82000D01*
X831015D01*
X829083Y82384D01*
X827263Y83138D01*
X825625Y84233D01*
X824232Y85625D01*
X823138Y87263D01*
X822384Y89083D01*
X822000Y91015D01*
Y92000D01*
Y92985D01*
X822384Y94917D01*
X823138Y96737D01*
X824232Y98375D01*
X825625Y99768D01*
X827263Y100862D01*
X829083Y101616D01*
X831015Y102000D01*
X832985D01*
X834917Y101616D01*
D02*
G37*
G36*
X668917D02*
X670737Y100862D01*
X672375Y99768D01*
X673767Y98375D01*
X674862Y96737D01*
X675616Y94917D01*
X676000Y92985D01*
Y92000D01*
Y91015D01*
X675616Y89083D01*
X674862Y87263D01*
X673767Y85625D01*
X672375Y84233D01*
X670737Y83138D01*
X668917Y82384D01*
X666985Y82000D01*
X665015D01*
X663083Y82384D01*
X661263Y83138D01*
X659625Y84233D01*
X658232Y85625D01*
X657138Y87263D01*
X656384Y89083D01*
X656000Y91015D01*
Y92000D01*
Y92985D01*
X656384Y94917D01*
X657138Y96737D01*
X658232Y98375D01*
X659625Y99768D01*
X661263Y100862D01*
X663083Y101616D01*
X665015Y102000D01*
X666985D01*
X668917Y101616D01*
D02*
G37*
G36*
X502917D02*
X504737Y100862D01*
X506375Y99768D01*
X507767Y98375D01*
X508862Y96737D01*
X509616Y94917D01*
X510000Y92985D01*
Y92000D01*
Y91015D01*
X509616Y89083D01*
X508862Y87263D01*
X507767Y85625D01*
X506375Y84233D01*
X504737Y83138D01*
X502917Y82384D01*
X500985Y82000D01*
X499015D01*
X497083Y82384D01*
X495263Y83138D01*
X493625Y84233D01*
X492233Y85625D01*
X491138Y87263D01*
X490384Y89083D01*
X490000Y91015D01*
Y92000D01*
Y92985D01*
X490384Y94917D01*
X491138Y96737D01*
X492233Y98375D01*
X493625Y99768D01*
X495263Y100862D01*
X497083Y101616D01*
X499015Y102000D01*
X500985D01*
X502917Y101616D01*
D02*
G37*
G36*
X336917D02*
X338737Y100862D01*
X340375Y99768D01*
X341768Y98375D01*
X342862Y96737D01*
X343616Y94917D01*
X344000Y92985D01*
Y92000D01*
Y91015D01*
X343616Y89083D01*
X342862Y87263D01*
X341768Y85625D01*
X340375Y84233D01*
X338737Y83138D01*
X336917Y82384D01*
X334985Y82000D01*
X333015D01*
X331083Y82384D01*
X329263Y83138D01*
X327625Y84233D01*
X326232Y85625D01*
X325138Y87263D01*
X324384Y89083D01*
X324000Y91015D01*
Y92000D01*
Y92985D01*
X324384Y94917D01*
X325138Y96737D01*
X326232Y98375D01*
X327625Y99768D01*
X329263Y100862D01*
X331083Y101616D01*
X333015Y102000D01*
X334985D01*
X336917Y101616D01*
D02*
G37*
G36*
X170917D02*
X172737Y100862D01*
X174375Y99768D01*
X175767Y98375D01*
X176862Y96737D01*
X177616Y94917D01*
X178000Y92985D01*
Y92000D01*
Y91015D01*
X177616Y89083D01*
X176862Y87263D01*
X175767Y85625D01*
X174375Y84233D01*
X172737Y83138D01*
X170917Y82384D01*
X168985Y82000D01*
X167015D01*
X165083Y82384D01*
X163263Y83138D01*
X161625Y84233D01*
X160233Y85625D01*
X159138Y87263D01*
X158384Y89083D01*
X158000Y91015D01*
Y92000D01*
Y92985D01*
X158384Y94917D01*
X159138Y96737D01*
X160233Y98375D01*
X161625Y99768D01*
X163263Y100862D01*
X165083Y101616D01*
X167015Y102000D01*
X168985D01*
X170917Y101616D01*
D02*
G37*
%LPC*%
G36*
X11199Y546714D02*
X11186D01*
X11162D01*
X11112D01*
X11049Y546702D01*
X10974Y546689D01*
X10887Y546677D01*
X10699Y546627D01*
X10487Y546552D01*
X10274Y546427D01*
X10174Y546352D01*
X10087Y546252D01*
X9999Y546152D01*
X9924Y546027D01*
Y546015D01*
X9912Y545990D01*
X9887Y545952D01*
X9862Y545902D01*
X9837Y545827D01*
X9812Y545740D01*
X9774Y545627D01*
X9737Y545502D01*
X9712Y545365D01*
X9674Y545215D01*
X9649Y545040D01*
X9612Y544840D01*
X9599Y544627D01*
X9574Y544403D01*
X9562Y544153D01*
Y543753D01*
X9574Y543665D01*
Y543553D01*
X9587Y543428D01*
X9624Y543153D01*
X13036D01*
Y543178D01*
X13049Y543253D01*
Y543365D01*
X13061Y543490D01*
X13074Y543640D01*
Y543790D01*
X13086Y543940D01*
Y544202D01*
X13074Y544290D01*
Y544403D01*
X13061Y544540D01*
X13049Y544677D01*
X13036Y544827D01*
X12999Y545165D01*
X12924Y545490D01*
X12836Y545802D01*
X12774Y545952D01*
X12711Y546077D01*
Y546090D01*
X12686Y546102D01*
X12636Y546177D01*
X12524Y546277D01*
X12461Y546339D01*
X12374Y546402D01*
X12286Y546452D01*
X12174Y546515D01*
X12049Y546564D01*
X11911Y546614D01*
X11761Y546652D01*
X11586Y546689D01*
X11399Y546702D01*
X11199Y546714D01*
D02*
G37*
G36*
Y536192D02*
X11186D01*
X11162D01*
X11112D01*
X11049Y536180D01*
X10974Y536167D01*
X10887Y536155D01*
X10699Y536105D01*
X10487Y536030D01*
X10274Y535905D01*
X10174Y535830D01*
X10087Y535730D01*
X9999Y535630D01*
X9924Y535505D01*
Y535492D01*
X9912Y535467D01*
X9887Y535430D01*
X9862Y535380D01*
X9837Y535305D01*
X9812Y535217D01*
X9774Y535105D01*
X9737Y534980D01*
X9712Y534842D01*
X9674Y534692D01*
X9649Y534518D01*
X9612Y534318D01*
X9599Y534105D01*
X9574Y533880D01*
X9562Y533630D01*
Y533230D01*
X9574Y533143D01*
Y533030D01*
X9587Y532905D01*
X9624Y532631D01*
X13036D01*
Y532655D01*
X13049Y532730D01*
Y532843D01*
X13061Y532968D01*
X13074Y533118D01*
Y533268D01*
X13086Y533418D01*
Y533680D01*
X13074Y533768D01*
Y533880D01*
X13061Y534018D01*
X13049Y534155D01*
X13036Y534305D01*
X12999Y534642D01*
X12924Y534967D01*
X12836Y535280D01*
X12774Y535430D01*
X12711Y535555D01*
Y535567D01*
X12686Y535580D01*
X12636Y535655D01*
X12524Y535755D01*
X12461Y535817D01*
X12374Y535880D01*
X12286Y535930D01*
X12174Y535992D01*
X12049Y536042D01*
X11911Y536092D01*
X11761Y536130D01*
X11586Y536167D01*
X11399Y536180D01*
X11199Y536192D01*
D02*
G37*
G36*
X15860Y525082D02*
X11312Y523608D01*
X15860Y522121D01*
Y525082D01*
D02*
G37*
G36*
X11199Y487180D02*
X11186D01*
X11162D01*
X11112D01*
X11049Y487167D01*
X10974Y487155D01*
X10887Y487142D01*
X10699Y487092D01*
X10487Y487017D01*
X10274Y486892D01*
X10174Y486817D01*
X10087Y486717D01*
X9999Y486617D01*
X9924Y486492D01*
Y486480D01*
X9912Y486455D01*
X9887Y486417D01*
X9862Y486367D01*
X9837Y486292D01*
X9812Y486205D01*
X9774Y486092D01*
X9737Y485967D01*
X9712Y485830D01*
X9674Y485680D01*
X9649Y485505D01*
X9612Y485305D01*
X9599Y485093D01*
X9574Y484868D01*
X9562Y484618D01*
Y484218D01*
X9574Y484130D01*
Y484018D01*
X9587Y483893D01*
X9624Y483618D01*
X13036D01*
Y483643D01*
X13049Y483718D01*
Y483830D01*
X13061Y483955D01*
X13074Y484105D01*
Y484255D01*
X13086Y484405D01*
Y484668D01*
X13074Y484755D01*
Y484868D01*
X13061Y485005D01*
X13049Y485143D01*
X13036Y485293D01*
X12999Y485630D01*
X12924Y485955D01*
X12836Y486267D01*
X12774Y486417D01*
X12711Y486542D01*
Y486555D01*
X12686Y486567D01*
X12636Y486642D01*
X12524Y486742D01*
X12461Y486805D01*
X12374Y486867D01*
X12286Y486917D01*
X12174Y486980D01*
X12049Y487030D01*
X11911Y487080D01*
X11761Y487117D01*
X11586Y487155D01*
X11399Y487167D01*
X11199Y487180D01*
D02*
G37*
G36*
X15860Y476070D02*
X11312Y474595D01*
X15860Y473108D01*
Y476070D01*
D02*
G37*
G36*
X28909Y340817D02*
X28897D01*
X28860D01*
X28809D01*
X28735Y340805D01*
X28647D01*
X28547Y340792D01*
X28422Y340780D01*
X28285Y340755D01*
X27985Y340705D01*
X27660Y340630D01*
X27297Y340505D01*
X26923Y340355D01*
X26560Y340167D01*
X26373Y340042D01*
X26198Y339917D01*
X26035Y339780D01*
X25860Y339617D01*
X25710Y339455D01*
X25560Y339268D01*
X25435Y339067D01*
X25310Y338843D01*
X25210Y338605D01*
X25123Y338355D01*
X25048Y338080D01*
X24998Y337793D01*
X24960Y337481D01*
X24948Y337143D01*
Y336993D01*
X24960Y336881D01*
Y336743D01*
X24973Y336568D01*
X24985Y336368D01*
X25010Y336143D01*
X33421D01*
Y336168D01*
X33433Y336231D01*
Y336343D01*
X33446Y336481D01*
X33458Y336656D01*
Y336843D01*
X33471Y337056D01*
Y337355D01*
X33458Y337443D01*
X33446Y337555D01*
X33433Y337693D01*
X33408Y337855D01*
X33371Y338030D01*
X33321Y338230D01*
X33258Y338430D01*
X33183Y338643D01*
X33083Y338868D01*
X32958Y339080D01*
X32821Y339292D01*
X32671Y339505D01*
X32483Y339692D01*
X32271Y339880D01*
X32259Y339892D01*
X32221Y339917D01*
X32146Y339967D01*
X32046Y340030D01*
X31921Y340092D01*
X31771Y340180D01*
X31596Y340267D01*
X31396Y340355D01*
X31171Y340442D01*
X30921Y340517D01*
X30647Y340605D01*
X30347Y340667D01*
X30022Y340730D01*
X29672Y340780D01*
X29297Y340805D01*
X28909Y340817D01*
D02*
G37*
G36*
X15860Y337043D02*
X11312Y335568D01*
X15860Y334081D01*
Y337043D01*
D02*
G37*
G36*
X11199Y294067D02*
X11186D01*
X11162D01*
X11112D01*
X11049Y294054D01*
X10974Y294042D01*
X10887Y294029D01*
X10699Y293979D01*
X10487Y293904D01*
X10274Y293779D01*
X10174Y293704D01*
X10087Y293604D01*
X9999Y293504D01*
X9924Y293379D01*
Y293367D01*
X9912Y293342D01*
X9887Y293304D01*
X9862Y293254D01*
X9837Y293179D01*
X9812Y293092D01*
X9774Y292979D01*
X9737Y292854D01*
X9712Y292717D01*
X9674Y292567D01*
X9649Y292392D01*
X9612Y292192D01*
X9599Y291980D01*
X9574Y291755D01*
X9562Y291505D01*
Y291105D01*
X9574Y291017D01*
Y290905D01*
X9587Y290780D01*
X9624Y290505D01*
X13036D01*
Y290530D01*
X13048Y290605D01*
Y290717D01*
X13061Y290842D01*
X13074Y290992D01*
Y291142D01*
X13086Y291292D01*
Y291555D01*
X13074Y291642D01*
Y291755D01*
X13061Y291892D01*
X13048Y292030D01*
X13036Y292180D01*
X12998Y292517D01*
X12924Y292842D01*
X12836Y293154D01*
X12774Y293304D01*
X12711Y293429D01*
Y293442D01*
X12686Y293454D01*
X12636Y293529D01*
X12524Y293629D01*
X12461Y293692D01*
X12374Y293754D01*
X12286Y293804D01*
X12174Y293867D01*
X12049Y293917D01*
X11911Y293967D01*
X11761Y294004D01*
X11586Y294042D01*
X11399Y294054D01*
X11199Y294067D01*
D02*
G37*
G36*
X13773Y284032D02*
X13761D01*
X13723D01*
X13661D01*
X13586D01*
X13486Y284019D01*
X13373Y284007D01*
X13236Y283994D01*
X13098Y283982D01*
X12936Y283957D01*
X12761Y283932D01*
X12399Y283869D01*
X12011Y283769D01*
X11599Y283632D01*
X11199Y283457D01*
X10812Y283257D01*
X10624Y283132D01*
X10437Y282994D01*
X10274Y282844D01*
X10112Y282682D01*
X9974Y282507D01*
X9837Y282320D01*
X9724Y282107D01*
X9624Y281895D01*
X9549Y281645D01*
X9487Y281395D01*
X9449Y281120D01*
X9437Y280833D01*
Y280770D01*
X9449Y280695D01*
Y280595D01*
X9474Y280470D01*
X9499Y280333D01*
X9537Y280170D01*
X9587Y280008D01*
X9649Y279820D01*
X9724Y279645D01*
X9824Y279458D01*
X9937Y279270D01*
X10062Y279083D01*
X10224Y278908D01*
X10399Y278733D01*
X10612Y278583D01*
X10624Y278570D01*
X10662Y278545D01*
X10737Y278508D01*
X10824Y278458D01*
X10949Y278408D01*
X11086Y278333D01*
X11262Y278271D01*
X11449Y278196D01*
X11661Y278121D01*
X11899Y278058D01*
X12161Y277983D01*
X12436Y277933D01*
X12749Y277883D01*
X13061Y277846D01*
X13411Y277821D01*
X13773Y277808D01*
X13798D01*
X13873D01*
X13986D01*
X14136Y277821D01*
X14311Y277833D01*
X14523Y277846D01*
X14761Y277871D01*
X15010Y277896D01*
X15273Y277933D01*
X15548Y277983D01*
X15823Y278046D01*
X16110Y278121D01*
X16385Y278196D01*
X16648Y278296D01*
X16897Y278408D01*
X17135Y278533D01*
X17148Y278545D01*
X17185Y278570D01*
X17247Y278608D01*
X17322Y278671D01*
X17410Y278745D01*
X17510Y278846D01*
X17610Y278945D01*
X17722Y279070D01*
X17835Y279220D01*
X17935Y279370D01*
X18035Y279545D01*
X18122Y279745D01*
X18197Y279945D01*
X18260Y280170D01*
X18297Y280408D01*
X18310Y280658D01*
Y280732D01*
X18297Y280820D01*
Y280932D01*
X18272Y281070D01*
X18247Y281220D01*
X18210Y281395D01*
X18160Y281595D01*
X18110Y281795D01*
X18035Y281995D01*
X17935Y282207D01*
X17822Y282420D01*
X17697Y282619D01*
X17535Y282819D01*
X17360Y282994D01*
X17160Y283169D01*
X17148Y283182D01*
X17110Y283207D01*
X17035Y283244D01*
X16947Y283307D01*
X16823Y283369D01*
X16673Y283444D01*
X16498Y283519D01*
X16298Y283607D01*
X16073Y283682D01*
X15823Y283757D01*
X15548Y283832D01*
X15236Y283894D01*
X14911Y283957D01*
X14561Y283994D01*
X14173Y284019D01*
X13773Y284032D01*
D02*
G37*
G36*
X14148Y246591D02*
X13661D01*
X13648D01*
X13636D01*
X13598D01*
X13548D01*
X13423D01*
X13261Y246579D01*
X13048D01*
X12824Y246566D01*
X12574Y246554D01*
X12299Y246529D01*
X11724Y246479D01*
X11162Y246391D01*
X10899Y246329D01*
X10649Y246266D01*
X10424Y246191D01*
X10224Y246104D01*
X10212D01*
X10187Y246079D01*
X10137Y246054D01*
X10074Y246016D01*
X9999Y245954D01*
X9924Y245891D01*
X9837Y245816D01*
X9737Y245729D01*
X9649Y245616D01*
X9562Y245504D01*
X9487Y245366D01*
X9412Y245229D01*
X9349Y245067D01*
X9299Y244904D01*
X9275Y244717D01*
X9262Y244517D01*
Y244492D01*
X9275Y244417D01*
X9287Y244317D01*
X9324Y244179D01*
X9399Y244004D01*
X9499Y243817D01*
X9624Y243617D01*
X9712Y243517D01*
X9812Y243417D01*
X9924Y243317D01*
X10049Y243217D01*
X10187Y243117D01*
X10337Y243017D01*
X10499Y242917D01*
X10687Y242830D01*
X10899Y242742D01*
X11112Y242667D01*
X11361Y242592D01*
X11624Y242517D01*
X11899Y242467D01*
X12211Y242417D01*
X12536Y242367D01*
X12886Y242342D01*
X13261Y242330D01*
X13661Y242317D01*
X13673D01*
X13686D01*
X13723D01*
X13773D01*
X13898D01*
X14061Y242330D01*
X14261D01*
X14498Y242342D01*
X14761Y242355D01*
X15036Y242380D01*
X15323Y242405D01*
X15623Y242430D01*
X16223Y242517D01*
X16523Y242567D01*
X16798Y242630D01*
X17047Y242705D01*
X17285Y242792D01*
X17297D01*
X17335Y242817D01*
X17385Y242842D01*
X17460Y242880D01*
X17547Y242942D01*
X17647Y243005D01*
X17747Y243080D01*
X17860Y243167D01*
X17972Y243267D01*
X18072Y243392D01*
X18172Y243517D01*
X18260Y243667D01*
X18322Y243817D01*
X18385Y243992D01*
X18422Y244179D01*
X18435Y244379D01*
Y244429D01*
X18422Y244492D01*
Y244579D01*
X18397Y244679D01*
X18385Y244792D01*
X18310Y245042D01*
X18247Y245179D01*
X18185Y245317D01*
X18097Y245466D01*
X17997Y245604D01*
X17872Y245741D01*
X17735Y245866D01*
X17585Y245979D01*
X17397Y246079D01*
X17385D01*
X17347Y246104D01*
X17285Y246129D01*
X17185Y246154D01*
X17072Y246204D01*
X16923Y246241D01*
X16748Y246291D01*
X16535Y246341D01*
X16298Y246379D01*
X16023Y246429D01*
X15723Y246479D01*
X15373Y246516D01*
X14998Y246541D01*
X14598Y246566D01*
X14148Y246591D01*
D02*
G37*
G36*
X26572Y234257D02*
X26560D01*
X26535D01*
X26485D01*
X26423Y234244D01*
X26348Y234232D01*
X26260Y234219D01*
X26073Y234169D01*
X25860Y234094D01*
X25648Y233969D01*
X25548Y233895D01*
X25460Y233794D01*
X25373Y233694D01*
X25298Y233570D01*
Y233557D01*
X25285Y233532D01*
X25260Y233495D01*
X25235Y233445D01*
X25210Y233370D01*
X25185Y233282D01*
X25148Y233170D01*
X25110Y233045D01*
X25085Y232907D01*
X25048Y232757D01*
X25023Y232582D01*
X24985Y232382D01*
X24973Y232170D01*
X24948Y231945D01*
X24936Y231695D01*
Y231295D01*
X24948Y231208D01*
Y231095D01*
X24960Y230970D01*
X24998Y230695D01*
X28410D01*
Y230720D01*
X28422Y230795D01*
Y230908D01*
X28435Y231033D01*
X28447Y231183D01*
Y231333D01*
X28460Y231483D01*
Y231745D01*
X28447Y231833D01*
Y231945D01*
X28435Y232082D01*
X28422Y232220D01*
X28410Y232370D01*
X28372Y232707D01*
X28297Y233032D01*
X28210Y233345D01*
X28147Y233495D01*
X28085Y233619D01*
Y233632D01*
X28060Y233645D01*
X28010Y233720D01*
X27897Y233820D01*
X27835Y233882D01*
X27747Y233944D01*
X27660Y233995D01*
X27547Y234057D01*
X27422Y234107D01*
X27285Y234157D01*
X27135Y234194D01*
X26960Y234232D01*
X26772Y234244D01*
X26572Y234257D01*
D02*
G37*
G36*
X14486Y222922D02*
X14461D01*
X14398D01*
X14311Y222910D01*
X14173Y222897D01*
X14011Y222885D01*
X13823Y222847D01*
X13623Y222810D01*
X13386Y222760D01*
X13148Y222685D01*
X12886Y222597D01*
X12624Y222497D01*
X12361Y222360D01*
X12086Y222210D01*
X11824Y222035D01*
X11561Y221835D01*
X11312Y221598D01*
X11299Y221585D01*
X11249Y221535D01*
X11186Y221460D01*
X11099Y221360D01*
X10999Y221235D01*
X10887Y221085D01*
X10774Y220910D01*
X10649Y220710D01*
X10524Y220485D01*
X10412Y220248D01*
X10299Y219986D01*
X10199Y219711D01*
X10112Y219411D01*
X10049Y219098D01*
X9999Y218761D01*
X9987Y218423D01*
Y218336D01*
X9999Y218236D01*
X10012Y218111D01*
X10024Y217949D01*
X10062Y217761D01*
X10099Y217549D01*
X10149Y217324D01*
X10224Y217074D01*
X10312Y216824D01*
X10412Y216561D01*
X10549Y216287D01*
X10699Y216024D01*
X10874Y215749D01*
X11074Y215487D01*
X11312Y215237D01*
X11324Y215224D01*
X11374Y215187D01*
X11449Y215112D01*
X11549Y215037D01*
X11674Y214937D01*
X11824Y214824D01*
X11999Y214699D01*
X12199Y214587D01*
X12424Y214462D01*
X12661Y214337D01*
X12924Y214224D01*
X13198Y214125D01*
X13498Y214050D01*
X13811Y213987D01*
X14148Y213937D01*
X14486Y213925D01*
X14511D01*
X14573D01*
X14661Y213937D01*
X14798Y213950D01*
X14961Y213962D01*
X15148Y214000D01*
X15348Y214037D01*
X15585Y214087D01*
X15823Y214162D01*
X16085Y214249D01*
X16348Y214349D01*
X16610Y214475D01*
X16885Y214624D01*
X17160Y214799D01*
X17422Y215012D01*
X17672Y215237D01*
X17685Y215249D01*
X17722Y215299D01*
X17797Y215374D01*
X17872Y215474D01*
X17972Y215599D01*
X18085Y215749D01*
X18210Y215937D01*
X18322Y216136D01*
X18447Y216349D01*
X18572Y216599D01*
X18685Y216861D01*
X18785Y217136D01*
X18859Y217436D01*
X18922Y217749D01*
X18972Y218086D01*
X18985Y218423D01*
Y218511D01*
X18972Y218598D01*
X18959Y218736D01*
X18947Y218898D01*
X18909Y219086D01*
X18872Y219286D01*
X18822Y219523D01*
X18747Y219761D01*
X18660Y220023D01*
X18560Y220285D01*
X18435Y220548D01*
X18285Y220823D01*
X18110Y221085D01*
X17897Y221348D01*
X17672Y221598D01*
X17660Y221610D01*
X17610Y221660D01*
X17535Y221723D01*
X17435Y221810D01*
X17310Y221910D01*
X17160Y222022D01*
X16985Y222135D01*
X16785Y222260D01*
X16560Y222385D01*
X16323Y222497D01*
X16060Y222610D01*
X15773Y222710D01*
X15473Y222797D01*
X15160Y222860D01*
X14836Y222910D01*
X14486Y222922D01*
D02*
G37*
%LPD*%
G36*
X16997Y220635D02*
X17023Y220598D01*
X17072Y220548D01*
X17135Y220473D01*
X17210Y220385D01*
X17285Y220273D01*
X17372Y220148D01*
X17460Y219998D01*
X17547Y219848D01*
X17635Y219673D01*
X17710Y219486D01*
X17785Y219298D01*
X17847Y219086D01*
X17897Y218873D01*
X17922Y218648D01*
X17935Y218411D01*
Y218349D01*
X17922Y218286D01*
Y218186D01*
X17910Y218074D01*
X17885Y217949D01*
X17860Y217799D01*
X17810Y217649D01*
X17760Y217486D01*
X17697Y217311D01*
X17622Y217136D01*
X17535Y216961D01*
X17422Y216786D01*
X17297Y216611D01*
X17148Y216449D01*
X16985Y216299D01*
X16973Y216287D01*
X16935Y216262D01*
X16885Y216224D01*
X16810Y216187D01*
X16710Y216124D01*
X16598Y216061D01*
X16460Y215987D01*
X16310Y215924D01*
X16135Y215849D01*
X15948Y215774D01*
X15748Y215712D01*
X15523Y215662D01*
X15285Y215612D01*
X15023Y215574D01*
X14761Y215549D01*
X14473Y215537D01*
X14461D01*
X14411D01*
X14323D01*
X14223Y215549D01*
X14098Y215562D01*
X13948Y215574D01*
X13773Y215599D01*
X13598Y215637D01*
X13198Y215737D01*
X12986Y215799D01*
X12786Y215874D01*
X12574Y215974D01*
X12361Y216087D01*
X12161Y216211D01*
X11961Y216349D01*
X11949Y216362D01*
X11911Y216387D01*
X11861Y216436D01*
X11799Y216499D01*
X11724Y216586D01*
X11636Y216674D01*
X11549Y216799D01*
X11449Y216924D01*
X11361Y217074D01*
X11274Y217236D01*
X11186Y217411D01*
X11112Y217599D01*
X11036Y217799D01*
X10986Y218011D01*
X10962Y218236D01*
X10949Y218473D01*
Y218586D01*
X10962Y218661D01*
Y218748D01*
X10974Y218861D01*
X10986Y218986D01*
X11012Y219123D01*
X11062Y219423D01*
X11149Y219736D01*
X11262Y220061D01*
X11411Y220373D01*
X12611Y219898D01*
Y219886D01*
X12586Y219873D01*
X12574Y219836D01*
X12536Y219798D01*
X12474Y219673D01*
X12386Y219498D01*
X12311Y219298D01*
X12236Y219061D01*
X12186Y218786D01*
X12174Y218486D01*
Y218411D01*
X12186Y218361D01*
X12211Y218236D01*
X12249Y218074D01*
X12336Y217886D01*
X12449Y217686D01*
X12524Y217599D01*
X12611Y217499D01*
X12711Y217411D01*
X12824Y217324D01*
X12836D01*
X12849Y217311D01*
X12886Y217286D01*
X12936Y217261D01*
X13011Y217224D01*
X13086Y217186D01*
X13174Y217149D01*
X13274Y217111D01*
X13523Y217024D01*
X13811Y216961D01*
X14136Y216911D01*
X14511Y216886D01*
X14523D01*
X14548D01*
X14611D01*
X14673Y216899D01*
X14761D01*
X14861Y216911D01*
X15086Y216949D01*
X15335Y216999D01*
X15610Y217086D01*
X15873Y217199D01*
X16110Y217349D01*
X16135Y217374D01*
X16198Y217436D01*
X16298Y217536D01*
X16398Y217661D01*
X16510Y217836D01*
X16610Y218023D01*
X16673Y218249D01*
X16685Y218374D01*
X16698Y218498D01*
Y218573D01*
X16685Y218623D01*
X16673Y218698D01*
X16660Y218773D01*
X16598Y218961D01*
X16510Y219173D01*
X16448Y219286D01*
X16373Y219411D01*
X16285Y219523D01*
X16173Y219648D01*
X16060Y219761D01*
X15923Y219873D01*
X16985Y220648D01*
X16997Y220635D01*
D02*
G37*
D29*
X242500Y28000D02*
D03*
D30*
X832000Y922000D02*
D03*
X666000D02*
D03*
X500000D02*
D03*
X334000D02*
D03*
X168000D02*
D03*
X915000Y839000D02*
D03*
Y673000D02*
D03*
Y507000D02*
D03*
Y341000D02*
D03*
Y175000D02*
D03*
X950000Y100000D02*
D03*
Y900000D02*
D03*
X50000D02*
D03*
Y100000D02*
D03*
X168000Y258000D02*
D03*
X251000Y175000D02*
D03*
X168000Y92000D02*
D03*
X85000Y175000D02*
D03*
X334000Y258000D02*
D03*
X417000Y175000D02*
D03*
X334000Y92000D02*
D03*
X251000Y175000D02*
D03*
X500000Y258000D02*
D03*
X583000Y175000D02*
D03*
X500000Y92000D02*
D03*
X417000Y175000D02*
D03*
X666000Y258000D02*
D03*
X749000Y175000D02*
D03*
X666000Y92000D02*
D03*
X583000Y175000D02*
D03*
X832000Y258000D02*
D03*
X915000Y175000D02*
D03*
X832000Y92000D02*
D03*
X749000Y175000D02*
D03*
X168000Y424000D02*
D03*
X251000Y341000D02*
D03*
X168000Y258000D02*
D03*
X85000Y341000D02*
D03*
X334000Y424000D02*
D03*
X417000Y341000D02*
D03*
X334000Y258000D02*
D03*
X251000Y341000D02*
D03*
X500000Y424000D02*
D03*
X583000Y341000D02*
D03*
X500000Y258000D02*
D03*
X417000Y341000D02*
D03*
X666000Y424000D02*
D03*
X749000Y341000D02*
D03*
X666000Y258000D02*
D03*
X583000Y341000D02*
D03*
X832000Y424000D02*
D03*
X915000Y341000D02*
D03*
X832000Y258000D02*
D03*
X749000Y341000D02*
D03*
X168000Y590000D02*
D03*
X251000Y507000D02*
D03*
X168000Y424000D02*
D03*
X85000Y507000D02*
D03*
X334000Y590000D02*
D03*
X417000Y507000D02*
D03*
X334000Y424000D02*
D03*
X251000Y507000D02*
D03*
X500000Y590000D02*
D03*
X583000Y507000D02*
D03*
X500000Y424000D02*
D03*
X417000Y507000D02*
D03*
X666000Y590000D02*
D03*
X749000Y507000D02*
D03*
X666000Y424000D02*
D03*
X583000Y507000D02*
D03*
X832000Y590000D02*
D03*
X915000Y507000D02*
D03*
X832000Y424000D02*
D03*
X749000Y507000D02*
D03*
X168000Y756000D02*
D03*
X251000Y673000D02*
D03*
X168000Y590000D02*
D03*
X85000Y673000D02*
D03*
X334000Y756000D02*
D03*
X417000Y673000D02*
D03*
X334000Y590000D02*
D03*
X251000Y673000D02*
D03*
X500000Y756000D02*
D03*
X583000Y673000D02*
D03*
X500000Y590000D02*
D03*
X417000Y673000D02*
D03*
X666000Y756000D02*
D03*
X749000Y673000D02*
D03*
X666000Y590000D02*
D03*
X583000Y673000D02*
D03*
X832000Y756000D02*
D03*
X915000Y673000D02*
D03*
X832000Y590000D02*
D03*
X749000Y673000D02*
D03*
X168000Y922000D02*
D03*
X251000Y839000D02*
D03*
X168000Y756000D02*
D03*
X85000Y839000D02*
D03*
X334000Y922000D02*
D03*
X417000Y839000D02*
D03*
X334000Y756000D02*
D03*
X251000Y839000D02*
D03*
X500000Y922000D02*
D03*
X583000Y839000D02*
D03*
X500000Y756000D02*
D03*
X417000Y839000D02*
D03*
X666000Y922000D02*
D03*
X749000Y839000D02*
D03*
X666000Y756000D02*
D03*
X583000Y839000D02*
D03*
X832000Y922000D02*
D03*
X915000Y839000D02*
D03*
X832000Y756000D02*
D03*
X749000Y839000D02*
D03*
D31*
X145000Y143750D02*
D03*
Y150250D02*
D03*
X152000Y143750D02*
D03*
Y150250D02*
D03*
X189000Y136750D02*
D03*
Y143250D02*
D03*
X168000Y206750D02*
D03*
Y213250D02*
D03*
X161000Y206750D02*
D03*
Y213250D02*
D03*
X175000Y206750D02*
D03*
Y213250D02*
D03*
X168000Y143250D02*
D03*
Y136750D02*
D03*
X175000Y143250D02*
D03*
Y136750D02*
D03*
X161000Y143250D02*
D03*
Y136750D02*
D03*
X311000Y143750D02*
D03*
Y150250D02*
D03*
X318000Y143750D02*
D03*
Y150250D02*
D03*
X355000Y136750D02*
D03*
Y143250D02*
D03*
X334000Y206750D02*
D03*
Y213250D02*
D03*
X327000Y206750D02*
D03*
Y213250D02*
D03*
X341000Y206750D02*
D03*
Y213250D02*
D03*
X334000Y143250D02*
D03*
Y136750D02*
D03*
X341000Y143250D02*
D03*
Y136750D02*
D03*
X327000Y143250D02*
D03*
Y136750D02*
D03*
X477000Y143750D02*
D03*
Y150250D02*
D03*
X484000Y143750D02*
D03*
Y150250D02*
D03*
X521000Y136750D02*
D03*
Y143250D02*
D03*
X500000Y206750D02*
D03*
Y213250D02*
D03*
X493000Y206750D02*
D03*
Y213250D02*
D03*
X507000Y206750D02*
D03*
Y213250D02*
D03*
X500000Y143250D02*
D03*
Y136750D02*
D03*
X507000Y143250D02*
D03*
Y136750D02*
D03*
X493000Y143250D02*
D03*
Y136750D02*
D03*
X643000Y143750D02*
D03*
Y150250D02*
D03*
X650000Y143750D02*
D03*
Y150250D02*
D03*
X687000Y136750D02*
D03*
Y143250D02*
D03*
X666000Y206750D02*
D03*
Y213250D02*
D03*
X659000Y206750D02*
D03*
Y213250D02*
D03*
X673000Y206750D02*
D03*
Y213250D02*
D03*
X666000Y143250D02*
D03*
Y136750D02*
D03*
X673000Y143250D02*
D03*
Y136750D02*
D03*
X659000Y143250D02*
D03*
Y136750D02*
D03*
X809000Y143750D02*
D03*
Y150250D02*
D03*
X816000Y143750D02*
D03*
Y150250D02*
D03*
X853000Y136750D02*
D03*
Y143250D02*
D03*
X832000Y206750D02*
D03*
Y213250D02*
D03*
X825000Y206750D02*
D03*
Y213250D02*
D03*
X839000Y206750D02*
D03*
Y213250D02*
D03*
X832000Y143250D02*
D03*
Y136750D02*
D03*
X839000Y143250D02*
D03*
Y136750D02*
D03*
X825000Y143250D02*
D03*
Y136750D02*
D03*
X145000Y309750D02*
D03*
Y316250D02*
D03*
X152000Y309750D02*
D03*
Y316250D02*
D03*
X189000Y302750D02*
D03*
Y309250D02*
D03*
X168000Y372750D02*
D03*
Y379250D02*
D03*
X161000Y372750D02*
D03*
Y379250D02*
D03*
X175000Y372750D02*
D03*
Y379250D02*
D03*
X168000Y309250D02*
D03*
Y302750D02*
D03*
X175000Y309250D02*
D03*
Y302750D02*
D03*
X161000Y309250D02*
D03*
Y302750D02*
D03*
X311000Y309750D02*
D03*
Y316250D02*
D03*
X318000Y309750D02*
D03*
Y316250D02*
D03*
X355000Y302750D02*
D03*
Y309250D02*
D03*
X334000Y372750D02*
D03*
Y379250D02*
D03*
X327000Y372750D02*
D03*
Y379250D02*
D03*
X341000Y372750D02*
D03*
Y379250D02*
D03*
X334000Y309250D02*
D03*
Y302750D02*
D03*
X341000Y309250D02*
D03*
Y302750D02*
D03*
X327000Y309250D02*
D03*
Y302750D02*
D03*
X477000Y309750D02*
D03*
Y316250D02*
D03*
X484000Y309750D02*
D03*
Y316250D02*
D03*
X521000Y302750D02*
D03*
Y309250D02*
D03*
X500000Y372750D02*
D03*
Y379250D02*
D03*
X493000Y372750D02*
D03*
Y379250D02*
D03*
X507000Y372750D02*
D03*
Y379250D02*
D03*
X500000Y309250D02*
D03*
Y302750D02*
D03*
X507000Y309250D02*
D03*
Y302750D02*
D03*
X493000Y309250D02*
D03*
Y302750D02*
D03*
X643000Y309750D02*
D03*
Y316250D02*
D03*
X650000Y309750D02*
D03*
Y316250D02*
D03*
X687000Y302750D02*
D03*
Y309250D02*
D03*
X666000Y372750D02*
D03*
Y379250D02*
D03*
X659000Y372750D02*
D03*
Y379250D02*
D03*
X673000Y372750D02*
D03*
Y379250D02*
D03*
X666000Y309250D02*
D03*
Y302750D02*
D03*
X673000Y309250D02*
D03*
Y302750D02*
D03*
X659000Y309250D02*
D03*
Y302750D02*
D03*
X809000Y309750D02*
D03*
Y316250D02*
D03*
X816000Y309750D02*
D03*
Y316250D02*
D03*
X853000Y302750D02*
D03*
Y309250D02*
D03*
X832000Y372750D02*
D03*
Y379250D02*
D03*
X825000Y372750D02*
D03*
Y379250D02*
D03*
X839000Y372750D02*
D03*
Y379250D02*
D03*
X832000Y309250D02*
D03*
Y302750D02*
D03*
X839000Y309250D02*
D03*
Y302750D02*
D03*
X825000Y309250D02*
D03*
Y302750D02*
D03*
X145000Y475750D02*
D03*
Y482250D02*
D03*
X152000Y475750D02*
D03*
Y482250D02*
D03*
X189000Y468750D02*
D03*
Y475250D02*
D03*
X168000Y538750D02*
D03*
Y545250D02*
D03*
X161000Y538750D02*
D03*
Y545250D02*
D03*
X175000Y538750D02*
D03*
Y545250D02*
D03*
X168000Y475250D02*
D03*
Y468750D02*
D03*
X175000Y475250D02*
D03*
Y468750D02*
D03*
X161000Y475250D02*
D03*
Y468750D02*
D03*
X311000Y475750D02*
D03*
Y482250D02*
D03*
X318000Y475750D02*
D03*
Y482250D02*
D03*
X355000Y468750D02*
D03*
Y475250D02*
D03*
X334000Y538750D02*
D03*
Y545250D02*
D03*
X327000Y538750D02*
D03*
Y545250D02*
D03*
X341000Y538750D02*
D03*
Y545250D02*
D03*
X334000Y475250D02*
D03*
Y468750D02*
D03*
X341000Y475250D02*
D03*
Y468750D02*
D03*
X327000Y475250D02*
D03*
Y468750D02*
D03*
X477000Y475750D02*
D03*
Y482250D02*
D03*
X484000Y475750D02*
D03*
Y482250D02*
D03*
X521000Y468750D02*
D03*
Y475250D02*
D03*
X500000Y538750D02*
D03*
Y545250D02*
D03*
X493000Y538750D02*
D03*
Y545250D02*
D03*
X507000Y538750D02*
D03*
Y545250D02*
D03*
X500000Y475250D02*
D03*
Y468750D02*
D03*
X507000Y475250D02*
D03*
Y468750D02*
D03*
X493000Y475250D02*
D03*
Y468750D02*
D03*
X643000Y475750D02*
D03*
Y482250D02*
D03*
X650000Y475750D02*
D03*
Y482250D02*
D03*
X687000Y468750D02*
D03*
Y475250D02*
D03*
X666000Y538750D02*
D03*
Y545250D02*
D03*
X659000Y538750D02*
D03*
Y545250D02*
D03*
X673000Y538750D02*
D03*
Y545250D02*
D03*
X666000Y475250D02*
D03*
Y468750D02*
D03*
X673000Y475250D02*
D03*
Y468750D02*
D03*
X659000Y475250D02*
D03*
Y468750D02*
D03*
X809000Y475750D02*
D03*
Y482250D02*
D03*
X816000Y475750D02*
D03*
Y482250D02*
D03*
X853000Y468750D02*
D03*
Y475250D02*
D03*
X832000Y538750D02*
D03*
Y545250D02*
D03*
X825000Y538750D02*
D03*
Y545250D02*
D03*
X839000Y538750D02*
D03*
Y545250D02*
D03*
X832000Y475250D02*
D03*
Y468750D02*
D03*
X839000Y475250D02*
D03*
Y468750D02*
D03*
X825000Y475250D02*
D03*
Y468750D02*
D03*
X145000Y641750D02*
D03*
Y648250D02*
D03*
X152000Y641750D02*
D03*
Y648250D02*
D03*
X189000Y634750D02*
D03*
Y641250D02*
D03*
X168000Y704750D02*
D03*
Y711250D02*
D03*
X161000Y704750D02*
D03*
Y711250D02*
D03*
X175000Y704750D02*
D03*
Y711250D02*
D03*
X168000Y641250D02*
D03*
Y634750D02*
D03*
X175000Y641250D02*
D03*
Y634750D02*
D03*
X161000Y641250D02*
D03*
Y634750D02*
D03*
X311000Y641750D02*
D03*
Y648250D02*
D03*
X318000Y641750D02*
D03*
Y648250D02*
D03*
X355000Y634750D02*
D03*
Y641250D02*
D03*
X334000Y704750D02*
D03*
Y711250D02*
D03*
X327000Y704750D02*
D03*
Y711250D02*
D03*
X341000Y704750D02*
D03*
Y711250D02*
D03*
X334000Y641250D02*
D03*
Y634750D02*
D03*
X341000Y641250D02*
D03*
Y634750D02*
D03*
X327000Y641250D02*
D03*
Y634750D02*
D03*
X477000Y641750D02*
D03*
Y648250D02*
D03*
X484000Y641750D02*
D03*
Y648250D02*
D03*
X521000Y634750D02*
D03*
Y641250D02*
D03*
X500000Y704750D02*
D03*
Y711250D02*
D03*
X493000Y704750D02*
D03*
Y711250D02*
D03*
X507000Y704750D02*
D03*
Y711250D02*
D03*
X500000Y641250D02*
D03*
Y634750D02*
D03*
X507000Y641250D02*
D03*
Y634750D02*
D03*
X493000Y641250D02*
D03*
Y634750D02*
D03*
X643000Y641750D02*
D03*
Y648250D02*
D03*
X650000Y641750D02*
D03*
Y648250D02*
D03*
X687000Y634750D02*
D03*
Y641250D02*
D03*
X666000Y704750D02*
D03*
Y711250D02*
D03*
X659000Y704750D02*
D03*
Y711250D02*
D03*
X673000Y704750D02*
D03*
Y711250D02*
D03*
X666000Y641250D02*
D03*
Y634750D02*
D03*
X673000Y641250D02*
D03*
Y634750D02*
D03*
X659000Y641250D02*
D03*
Y634750D02*
D03*
X809000Y641750D02*
D03*
Y648250D02*
D03*
X816000Y641750D02*
D03*
Y648250D02*
D03*
X853000Y634750D02*
D03*
Y641250D02*
D03*
X832000Y704750D02*
D03*
Y711250D02*
D03*
X825000Y704750D02*
D03*
Y711250D02*
D03*
X839000Y704750D02*
D03*
Y711250D02*
D03*
X832000Y641250D02*
D03*
Y634750D02*
D03*
X839000Y641250D02*
D03*
Y634750D02*
D03*
X825000Y641250D02*
D03*
Y634750D02*
D03*
X145000Y807750D02*
D03*
Y814250D02*
D03*
X152000Y807750D02*
D03*
Y814250D02*
D03*
X189000Y800750D02*
D03*
Y807250D02*
D03*
X168000Y870750D02*
D03*
Y877250D02*
D03*
X161000Y870750D02*
D03*
Y877250D02*
D03*
X175000Y870750D02*
D03*
Y877250D02*
D03*
X168000Y807250D02*
D03*
Y800750D02*
D03*
X175000Y807250D02*
D03*
Y800750D02*
D03*
X161000Y807250D02*
D03*
Y800750D02*
D03*
X311000Y807750D02*
D03*
Y814250D02*
D03*
X318000Y807750D02*
D03*
Y814250D02*
D03*
X355000Y800750D02*
D03*
Y807250D02*
D03*
X334000Y870750D02*
D03*
Y877250D02*
D03*
X327000Y870750D02*
D03*
Y877250D02*
D03*
X341000Y870750D02*
D03*
Y877250D02*
D03*
X334000Y807250D02*
D03*
Y800750D02*
D03*
X341000Y807250D02*
D03*
Y800750D02*
D03*
X327000Y807250D02*
D03*
Y800750D02*
D03*
X477000Y807750D02*
D03*
Y814250D02*
D03*
X484000Y807750D02*
D03*
Y814250D02*
D03*
X521000Y800750D02*
D03*
Y807250D02*
D03*
X500000Y870750D02*
D03*
Y877250D02*
D03*
X493000Y870750D02*
D03*
Y877250D02*
D03*
X507000Y870750D02*
D03*
Y877250D02*
D03*
X500000Y807250D02*
D03*
Y800750D02*
D03*
X507000Y807250D02*
D03*
Y800750D02*
D03*
X493000Y807250D02*
D03*
Y800750D02*
D03*
X643000Y807750D02*
D03*
Y814250D02*
D03*
X650000Y807750D02*
D03*
Y814250D02*
D03*
X687000Y800750D02*
D03*
Y807250D02*
D03*
X666000Y870750D02*
D03*
Y877250D02*
D03*
X659000Y870750D02*
D03*
Y877250D02*
D03*
X673000Y870750D02*
D03*
Y877250D02*
D03*
X666000Y807250D02*
D03*
Y800750D02*
D03*
X673000Y807250D02*
D03*
Y800750D02*
D03*
X659000Y807250D02*
D03*
Y800750D02*
D03*
X809000Y807750D02*
D03*
Y814250D02*
D03*
X816000Y807750D02*
D03*
Y814250D02*
D03*
X853000Y800750D02*
D03*
Y807250D02*
D03*
X832000Y870750D02*
D03*
Y877250D02*
D03*
X825000Y870750D02*
D03*
Y877250D02*
D03*
X839000Y870750D02*
D03*
Y877250D02*
D03*
X832000Y807250D02*
D03*
Y800750D02*
D03*
X839000Y807250D02*
D03*
Y800750D02*
D03*
X825000Y807250D02*
D03*
Y800750D02*
D03*
D32*
X163000Y175000D02*
D03*
X329000D02*
D03*
X495000D02*
D03*
X661000D02*
D03*
X827000D02*
D03*
X163000Y341000D02*
D03*
X329000D02*
D03*
X495000D02*
D03*
X661000D02*
D03*
X827000D02*
D03*
X163000Y507000D02*
D03*
X329000D02*
D03*
X495000D02*
D03*
X661000D02*
D03*
X827000D02*
D03*
X163000Y673000D02*
D03*
X329000D02*
D03*
X495000D02*
D03*
X661000D02*
D03*
X827000D02*
D03*
X163000Y839000D02*
D03*
X329000D02*
D03*
X495000D02*
D03*
X661000D02*
D03*
X827000D02*
D03*
D33*
X171000Y160000D02*
D03*
X167000D02*
D03*
X163000D02*
D03*
X159000D02*
D03*
X155000D02*
D03*
Y190000D02*
D03*
X159000D02*
D03*
X163000D02*
D03*
X167000D02*
D03*
X171000D02*
D03*
X337000Y160000D02*
D03*
X333000D02*
D03*
X329000D02*
D03*
X325000D02*
D03*
X321000D02*
D03*
Y190000D02*
D03*
X325000D02*
D03*
X329000D02*
D03*
X333000D02*
D03*
X337000D02*
D03*
X503000Y160000D02*
D03*
X499000D02*
D03*
X495000D02*
D03*
X491000D02*
D03*
X487000D02*
D03*
Y190000D02*
D03*
X491000D02*
D03*
X495000D02*
D03*
X499000D02*
D03*
X503000D02*
D03*
X669000Y160000D02*
D03*
X665000D02*
D03*
X661000D02*
D03*
X657000D02*
D03*
X653000D02*
D03*
Y190000D02*
D03*
X657000D02*
D03*
X661000D02*
D03*
X665000D02*
D03*
X669000D02*
D03*
X835000Y160000D02*
D03*
X831000D02*
D03*
X827000D02*
D03*
X823000D02*
D03*
X819000D02*
D03*
Y190000D02*
D03*
X823000D02*
D03*
X827000D02*
D03*
X831000D02*
D03*
X835000D02*
D03*
X171000Y326000D02*
D03*
X167000D02*
D03*
X163000D02*
D03*
X159000D02*
D03*
X155000D02*
D03*
Y356000D02*
D03*
X159000D02*
D03*
X163000D02*
D03*
X167000D02*
D03*
X171000D02*
D03*
X337000Y326000D02*
D03*
X333000D02*
D03*
X329000D02*
D03*
X325000D02*
D03*
X321000D02*
D03*
Y356000D02*
D03*
X325000D02*
D03*
X329000D02*
D03*
X333000D02*
D03*
X337000D02*
D03*
X503000Y326000D02*
D03*
X499000D02*
D03*
X495000D02*
D03*
X491000D02*
D03*
X487000D02*
D03*
Y356000D02*
D03*
X491000D02*
D03*
X495000D02*
D03*
X499000D02*
D03*
X503000D02*
D03*
X669000Y326000D02*
D03*
X665000D02*
D03*
X661000D02*
D03*
X657000D02*
D03*
X653000D02*
D03*
Y356000D02*
D03*
X657000D02*
D03*
X661000D02*
D03*
X665000D02*
D03*
X669000D02*
D03*
X835000Y326000D02*
D03*
X831000D02*
D03*
X827000D02*
D03*
X823000D02*
D03*
X819000D02*
D03*
Y356000D02*
D03*
X823000D02*
D03*
X827000D02*
D03*
X831000D02*
D03*
X835000D02*
D03*
X171000Y492000D02*
D03*
X167000D02*
D03*
X163000D02*
D03*
X159000D02*
D03*
X155000D02*
D03*
Y522000D02*
D03*
X159000D02*
D03*
X163000D02*
D03*
X167000D02*
D03*
X171000D02*
D03*
X337000Y492000D02*
D03*
X333000D02*
D03*
X329000D02*
D03*
X325000D02*
D03*
X321000D02*
D03*
Y522000D02*
D03*
X325000D02*
D03*
X329000D02*
D03*
X333000D02*
D03*
X337000D02*
D03*
X503000Y492000D02*
D03*
X499000D02*
D03*
X495000D02*
D03*
X491000D02*
D03*
X487000D02*
D03*
Y522000D02*
D03*
X491000D02*
D03*
X495000D02*
D03*
X499000D02*
D03*
X503000D02*
D03*
X669000Y492000D02*
D03*
X665000D02*
D03*
X661000D02*
D03*
X657000D02*
D03*
X653000D02*
D03*
Y522000D02*
D03*
X657000D02*
D03*
X661000D02*
D03*
X665000D02*
D03*
X669000D02*
D03*
X835000Y492000D02*
D03*
X831000D02*
D03*
X827000D02*
D03*
X823000D02*
D03*
X819000D02*
D03*
Y522000D02*
D03*
X823000D02*
D03*
X827000D02*
D03*
X831000D02*
D03*
X835000D02*
D03*
X171000Y658000D02*
D03*
X167000D02*
D03*
X163000D02*
D03*
X159000D02*
D03*
X155000D02*
D03*
Y688000D02*
D03*
X159000D02*
D03*
X163000D02*
D03*
X167000D02*
D03*
X171000D02*
D03*
X337000Y658000D02*
D03*
X333000D02*
D03*
X329000D02*
D03*
X325000D02*
D03*
X321000D02*
D03*
Y688000D02*
D03*
X325000D02*
D03*
X329000D02*
D03*
X333000D02*
D03*
X337000D02*
D03*
X503000Y658000D02*
D03*
X499000D02*
D03*
X495000D02*
D03*
X491000D02*
D03*
X487000D02*
D03*
Y688000D02*
D03*
X491000D02*
D03*
X495000D02*
D03*
X499000D02*
D03*
X503000D02*
D03*
X669000Y658000D02*
D03*
X665000D02*
D03*
X661000D02*
D03*
X657000D02*
D03*
X653000D02*
D03*
Y688000D02*
D03*
X657000D02*
D03*
X661000D02*
D03*
X665000D02*
D03*
X669000D02*
D03*
X835000Y658000D02*
D03*
X831000D02*
D03*
X827000D02*
D03*
X823000D02*
D03*
X819000D02*
D03*
Y688000D02*
D03*
X823000D02*
D03*
X827000D02*
D03*
X831000D02*
D03*
X835000D02*
D03*
X171000Y824000D02*
D03*
X167000D02*
D03*
X163000D02*
D03*
X159000D02*
D03*
X155000D02*
D03*
Y854000D02*
D03*
X159000D02*
D03*
X163000D02*
D03*
X167000D02*
D03*
X171000D02*
D03*
X337000Y824000D02*
D03*
X333000D02*
D03*
X329000D02*
D03*
X325000D02*
D03*
X321000D02*
D03*
Y854000D02*
D03*
X325000D02*
D03*
X329000D02*
D03*
X333000D02*
D03*
X337000D02*
D03*
X503000Y824000D02*
D03*
X499000D02*
D03*
X495000D02*
D03*
X491000D02*
D03*
X487000D02*
D03*
Y854000D02*
D03*
X491000D02*
D03*
X495000D02*
D03*
X499000D02*
D03*
X503000D02*
D03*
X669000Y824000D02*
D03*
X665000D02*
D03*
X661000D02*
D03*
X657000D02*
D03*
X653000D02*
D03*
Y854000D02*
D03*
X657000D02*
D03*
X661000D02*
D03*
X665000D02*
D03*
X669000D02*
D03*
X835000Y824000D02*
D03*
X831000D02*
D03*
X827000D02*
D03*
X823000D02*
D03*
X819000D02*
D03*
Y854000D02*
D03*
X823000D02*
D03*
X827000D02*
D03*
X831000D02*
D03*
X835000D02*
D03*
D34*
X148000Y167000D02*
D03*
Y171000D02*
D03*
Y175000D02*
D03*
Y179000D02*
D03*
Y183000D02*
D03*
X178000D02*
D03*
Y179000D02*
D03*
Y175000D02*
D03*
Y171000D02*
D03*
Y167000D02*
D03*
X314000D02*
D03*
Y171000D02*
D03*
Y175000D02*
D03*
Y179000D02*
D03*
Y183000D02*
D03*
X344000D02*
D03*
Y179000D02*
D03*
Y175000D02*
D03*
Y171000D02*
D03*
Y167000D02*
D03*
X480000D02*
D03*
Y171000D02*
D03*
Y175000D02*
D03*
Y179000D02*
D03*
Y183000D02*
D03*
X510000D02*
D03*
Y179000D02*
D03*
Y175000D02*
D03*
Y171000D02*
D03*
Y167000D02*
D03*
X646000D02*
D03*
Y171000D02*
D03*
Y175000D02*
D03*
Y179000D02*
D03*
Y183000D02*
D03*
X676000D02*
D03*
Y179000D02*
D03*
Y175000D02*
D03*
Y171000D02*
D03*
Y167000D02*
D03*
X812000D02*
D03*
Y171000D02*
D03*
Y175000D02*
D03*
Y179000D02*
D03*
Y183000D02*
D03*
X842000D02*
D03*
Y179000D02*
D03*
Y175000D02*
D03*
Y171000D02*
D03*
Y167000D02*
D03*
X148000Y333000D02*
D03*
Y337000D02*
D03*
Y341000D02*
D03*
Y345000D02*
D03*
Y349000D02*
D03*
X178000D02*
D03*
Y345000D02*
D03*
Y341000D02*
D03*
Y337000D02*
D03*
Y333000D02*
D03*
X314000D02*
D03*
Y337000D02*
D03*
Y341000D02*
D03*
Y345000D02*
D03*
Y349000D02*
D03*
X344000D02*
D03*
Y345000D02*
D03*
Y341000D02*
D03*
Y337000D02*
D03*
Y333000D02*
D03*
X480000D02*
D03*
Y337000D02*
D03*
Y341000D02*
D03*
Y345000D02*
D03*
Y349000D02*
D03*
X510000D02*
D03*
Y345000D02*
D03*
Y341000D02*
D03*
Y337000D02*
D03*
Y333000D02*
D03*
X646000D02*
D03*
Y337000D02*
D03*
Y341000D02*
D03*
Y345000D02*
D03*
Y349000D02*
D03*
X676000D02*
D03*
Y345000D02*
D03*
Y341000D02*
D03*
Y337000D02*
D03*
Y333000D02*
D03*
X812000D02*
D03*
Y337000D02*
D03*
Y341000D02*
D03*
Y345000D02*
D03*
Y349000D02*
D03*
X842000D02*
D03*
Y345000D02*
D03*
Y341000D02*
D03*
Y337000D02*
D03*
Y333000D02*
D03*
X148000Y499000D02*
D03*
Y503000D02*
D03*
Y507000D02*
D03*
Y511000D02*
D03*
Y515000D02*
D03*
X178000D02*
D03*
Y511000D02*
D03*
Y507000D02*
D03*
Y503000D02*
D03*
Y499000D02*
D03*
X314000D02*
D03*
Y503000D02*
D03*
Y507000D02*
D03*
Y511000D02*
D03*
Y515000D02*
D03*
X344000D02*
D03*
Y511000D02*
D03*
Y507000D02*
D03*
Y503000D02*
D03*
Y499000D02*
D03*
X480000D02*
D03*
Y503000D02*
D03*
Y507000D02*
D03*
Y511000D02*
D03*
Y515000D02*
D03*
X510000D02*
D03*
Y511000D02*
D03*
Y507000D02*
D03*
Y503000D02*
D03*
Y499000D02*
D03*
X646000D02*
D03*
Y503000D02*
D03*
Y507000D02*
D03*
Y511000D02*
D03*
Y515000D02*
D03*
X676000D02*
D03*
Y511000D02*
D03*
Y507000D02*
D03*
Y503000D02*
D03*
Y499000D02*
D03*
X812000D02*
D03*
Y503000D02*
D03*
Y507000D02*
D03*
Y511000D02*
D03*
Y515000D02*
D03*
X842000D02*
D03*
Y511000D02*
D03*
Y507000D02*
D03*
Y503000D02*
D03*
Y499000D02*
D03*
X148000Y665000D02*
D03*
Y669000D02*
D03*
Y673000D02*
D03*
Y677000D02*
D03*
Y681000D02*
D03*
X178000D02*
D03*
Y677000D02*
D03*
Y673000D02*
D03*
Y669000D02*
D03*
Y665000D02*
D03*
X314000D02*
D03*
Y669000D02*
D03*
Y673000D02*
D03*
Y677000D02*
D03*
Y681000D02*
D03*
X344000D02*
D03*
Y677000D02*
D03*
Y673000D02*
D03*
Y669000D02*
D03*
Y665000D02*
D03*
X480000D02*
D03*
Y669000D02*
D03*
Y673000D02*
D03*
Y677000D02*
D03*
Y681000D02*
D03*
X510000D02*
D03*
Y677000D02*
D03*
Y673000D02*
D03*
Y669000D02*
D03*
Y665000D02*
D03*
X646000D02*
D03*
Y669000D02*
D03*
Y673000D02*
D03*
Y677000D02*
D03*
Y681000D02*
D03*
X676000D02*
D03*
Y677000D02*
D03*
Y673000D02*
D03*
Y669000D02*
D03*
Y665000D02*
D03*
X812000D02*
D03*
Y669000D02*
D03*
Y673000D02*
D03*
Y677000D02*
D03*
Y681000D02*
D03*
X842000D02*
D03*
Y677000D02*
D03*
Y673000D02*
D03*
Y669000D02*
D03*
Y665000D02*
D03*
X148000Y831000D02*
D03*
Y835000D02*
D03*
Y839000D02*
D03*
Y843000D02*
D03*
Y847000D02*
D03*
X178000D02*
D03*
Y843000D02*
D03*
Y839000D02*
D03*
Y835000D02*
D03*
Y831000D02*
D03*
X314000D02*
D03*
Y835000D02*
D03*
Y839000D02*
D03*
Y843000D02*
D03*
Y847000D02*
D03*
X344000D02*
D03*
Y843000D02*
D03*
Y839000D02*
D03*
Y835000D02*
D03*
Y831000D02*
D03*
X480000D02*
D03*
Y835000D02*
D03*
Y839000D02*
D03*
Y843000D02*
D03*
Y847000D02*
D03*
X510000D02*
D03*
Y843000D02*
D03*
Y839000D02*
D03*
Y835000D02*
D03*
Y831000D02*
D03*
X646000D02*
D03*
Y835000D02*
D03*
Y839000D02*
D03*
Y843000D02*
D03*
Y847000D02*
D03*
X676000D02*
D03*
Y843000D02*
D03*
Y839000D02*
D03*
Y835000D02*
D03*
Y831000D02*
D03*
X812000D02*
D03*
Y835000D02*
D03*
Y839000D02*
D03*
Y843000D02*
D03*
Y847000D02*
D03*
X842000D02*
D03*
Y843000D02*
D03*
Y839000D02*
D03*
Y835000D02*
D03*
Y831000D02*
D03*
D35*
X188000Y206750D02*
D03*
Y193250D02*
D03*
X354000Y206750D02*
D03*
Y193250D02*
D03*
X520000Y206750D02*
D03*
Y193250D02*
D03*
X686000Y206750D02*
D03*
Y193250D02*
D03*
X852000Y206750D02*
D03*
Y193250D02*
D03*
X188000Y372750D02*
D03*
Y359250D02*
D03*
X354000Y372750D02*
D03*
Y359250D02*
D03*
X520000Y372750D02*
D03*
Y359250D02*
D03*
X686000Y372750D02*
D03*
Y359250D02*
D03*
X852000Y372750D02*
D03*
Y359250D02*
D03*
X188000Y538750D02*
D03*
Y525250D02*
D03*
X354000Y538750D02*
D03*
Y525250D02*
D03*
X520000Y538750D02*
D03*
Y525250D02*
D03*
X686000Y538750D02*
D03*
Y525250D02*
D03*
X852000Y538750D02*
D03*
Y525250D02*
D03*
X188000Y704750D02*
D03*
Y691250D02*
D03*
X354000Y704750D02*
D03*
Y691250D02*
D03*
X520000Y704750D02*
D03*
Y691250D02*
D03*
X686000Y704750D02*
D03*
Y691250D02*
D03*
X852000Y704750D02*
D03*
Y691250D02*
D03*
X188000Y870750D02*
D03*
Y857250D02*
D03*
X354000Y870750D02*
D03*
Y857250D02*
D03*
X520000Y870750D02*
D03*
Y857250D02*
D03*
X686000Y870750D02*
D03*
Y857250D02*
D03*
X852000Y870750D02*
D03*
Y857250D02*
D03*
D36*
X160000Y225500D02*
D03*
Y234500D02*
D03*
X176000D02*
D03*
Y225500D02*
D03*
Y124500D02*
D03*
Y115500D02*
D03*
X160000D02*
D03*
Y124500D02*
D03*
X326000Y225500D02*
D03*
Y234500D02*
D03*
X342000D02*
D03*
Y225500D02*
D03*
Y124500D02*
D03*
Y115500D02*
D03*
X326000D02*
D03*
Y124500D02*
D03*
X492000Y225500D02*
D03*
Y234500D02*
D03*
X508000D02*
D03*
Y225500D02*
D03*
Y124500D02*
D03*
Y115500D02*
D03*
X492000D02*
D03*
Y124500D02*
D03*
X658000Y225500D02*
D03*
Y234500D02*
D03*
X674000D02*
D03*
Y225500D02*
D03*
Y124500D02*
D03*
Y115500D02*
D03*
X658000D02*
D03*
Y124500D02*
D03*
X824000Y225500D02*
D03*
Y234500D02*
D03*
X840000D02*
D03*
Y225500D02*
D03*
Y124500D02*
D03*
Y115500D02*
D03*
X824000D02*
D03*
Y124500D02*
D03*
X160000Y391500D02*
D03*
Y400500D02*
D03*
X176000D02*
D03*
Y391500D02*
D03*
Y290500D02*
D03*
Y281500D02*
D03*
X160000D02*
D03*
Y290500D02*
D03*
X326000Y391500D02*
D03*
Y400500D02*
D03*
X342000D02*
D03*
Y391500D02*
D03*
Y290500D02*
D03*
Y281500D02*
D03*
X326000D02*
D03*
Y290500D02*
D03*
X492000Y391500D02*
D03*
Y400500D02*
D03*
X508000D02*
D03*
Y391500D02*
D03*
Y290500D02*
D03*
Y281500D02*
D03*
X492000D02*
D03*
Y290500D02*
D03*
X658000Y391500D02*
D03*
Y400500D02*
D03*
X674000D02*
D03*
Y391500D02*
D03*
Y290500D02*
D03*
Y281500D02*
D03*
X658000D02*
D03*
Y290500D02*
D03*
X824000Y391500D02*
D03*
Y400500D02*
D03*
X840000D02*
D03*
Y391500D02*
D03*
Y290500D02*
D03*
Y281500D02*
D03*
X824000D02*
D03*
Y290500D02*
D03*
X160000Y557500D02*
D03*
Y566500D02*
D03*
X176000D02*
D03*
Y557500D02*
D03*
Y456500D02*
D03*
Y447500D02*
D03*
X160000D02*
D03*
Y456500D02*
D03*
X326000Y557500D02*
D03*
Y566500D02*
D03*
X342000D02*
D03*
Y557500D02*
D03*
Y456500D02*
D03*
Y447500D02*
D03*
X326000D02*
D03*
Y456500D02*
D03*
X492000Y557500D02*
D03*
Y566500D02*
D03*
X508000D02*
D03*
Y557500D02*
D03*
Y456500D02*
D03*
Y447500D02*
D03*
X492000D02*
D03*
Y456500D02*
D03*
X658000Y557500D02*
D03*
Y566500D02*
D03*
X674000D02*
D03*
Y557500D02*
D03*
Y456500D02*
D03*
Y447500D02*
D03*
X658000D02*
D03*
Y456500D02*
D03*
X824000Y557500D02*
D03*
Y566500D02*
D03*
X840000D02*
D03*
Y557500D02*
D03*
Y456500D02*
D03*
Y447500D02*
D03*
X824000D02*
D03*
Y456500D02*
D03*
X160000Y723500D02*
D03*
Y732500D02*
D03*
X176000D02*
D03*
Y723500D02*
D03*
Y622500D02*
D03*
Y613500D02*
D03*
X160000D02*
D03*
Y622500D02*
D03*
X326000Y723500D02*
D03*
Y732500D02*
D03*
X342000D02*
D03*
Y723500D02*
D03*
Y622500D02*
D03*
Y613500D02*
D03*
X326000D02*
D03*
Y622500D02*
D03*
X492000Y723500D02*
D03*
Y732500D02*
D03*
X508000D02*
D03*
Y723500D02*
D03*
Y622500D02*
D03*
Y613500D02*
D03*
X492000D02*
D03*
Y622500D02*
D03*
X658000Y723500D02*
D03*
Y732500D02*
D03*
X674000D02*
D03*
Y723500D02*
D03*
Y622500D02*
D03*
Y613500D02*
D03*
X658000D02*
D03*
Y622500D02*
D03*
X824000Y723500D02*
D03*
Y732500D02*
D03*
X840000D02*
D03*
Y723500D02*
D03*
Y622500D02*
D03*
Y613500D02*
D03*
X824000D02*
D03*
Y622500D02*
D03*
X160000Y889500D02*
D03*
Y898500D02*
D03*
X176000D02*
D03*
Y889500D02*
D03*
Y788500D02*
D03*
Y779500D02*
D03*
X160000D02*
D03*
Y788500D02*
D03*
X326000Y889500D02*
D03*
Y898500D02*
D03*
X342000D02*
D03*
Y889500D02*
D03*
Y788500D02*
D03*
Y779500D02*
D03*
X326000D02*
D03*
Y788500D02*
D03*
X492000Y889500D02*
D03*
Y898500D02*
D03*
X508000D02*
D03*
Y889500D02*
D03*
Y788500D02*
D03*
Y779500D02*
D03*
X492000D02*
D03*
Y788500D02*
D03*
X658000Y889500D02*
D03*
Y898500D02*
D03*
X674000D02*
D03*
Y889500D02*
D03*
Y788500D02*
D03*
Y779500D02*
D03*
X658000D02*
D03*
Y788500D02*
D03*
X824000Y889500D02*
D03*
Y898500D02*
D03*
X840000D02*
D03*
Y889500D02*
D03*
Y788500D02*
D03*
Y779500D02*
D03*
X824000D02*
D03*
Y788500D02*
D03*
D37*
X113000Y182500D02*
D03*
Y167500D02*
D03*
X279000Y182500D02*
D03*
Y167500D02*
D03*
X445000Y182500D02*
D03*
Y167500D02*
D03*
X611000Y182500D02*
D03*
Y167500D02*
D03*
X777000Y182500D02*
D03*
Y167500D02*
D03*
X113000Y348500D02*
D03*
Y333500D02*
D03*
X279000Y348500D02*
D03*
Y333500D02*
D03*
X445000Y348500D02*
D03*
Y333500D02*
D03*
X611000Y348500D02*
D03*
Y333500D02*
D03*
X777000Y348500D02*
D03*
Y333500D02*
D03*
X113000Y514500D02*
D03*
Y499500D02*
D03*
X279000Y514500D02*
D03*
Y499500D02*
D03*
X445000Y514500D02*
D03*
Y499500D02*
D03*
X611000Y514500D02*
D03*
Y499500D02*
D03*
X777000Y514500D02*
D03*
Y499500D02*
D03*
X113000Y680500D02*
D03*
Y665500D02*
D03*
X279000Y680500D02*
D03*
Y665500D02*
D03*
X445000Y680500D02*
D03*
Y665500D02*
D03*
X611000Y680500D02*
D03*
Y665500D02*
D03*
X777000Y680500D02*
D03*
Y665500D02*
D03*
X113000Y846500D02*
D03*
Y831500D02*
D03*
X279000Y846500D02*
D03*
Y831500D02*
D03*
X445000Y846500D02*
D03*
Y831500D02*
D03*
X611000Y846500D02*
D03*
Y831500D02*
D03*
X777000Y846500D02*
D03*
Y831500D02*
D03*
D38*
X131250Y175000D02*
D03*
X124750D02*
D03*
X199750D02*
D03*
X206250D02*
D03*
X199750Y182000D02*
D03*
X206250D02*
D03*
X199750Y168000D02*
D03*
X206250D02*
D03*
X297250Y175000D02*
D03*
X290750D02*
D03*
X365750D02*
D03*
X372250D02*
D03*
X365750Y182000D02*
D03*
X372250D02*
D03*
X365750Y168000D02*
D03*
X372250D02*
D03*
X463250Y175000D02*
D03*
X456750D02*
D03*
X531750D02*
D03*
X538250D02*
D03*
X531750Y182000D02*
D03*
X538250D02*
D03*
X531750Y168000D02*
D03*
X538250D02*
D03*
X629250Y175000D02*
D03*
X622750D02*
D03*
X697750D02*
D03*
X704250D02*
D03*
X697750Y182000D02*
D03*
X704250D02*
D03*
X697750Y168000D02*
D03*
X704250D02*
D03*
X795250Y175000D02*
D03*
X788750D02*
D03*
X863750D02*
D03*
X870250D02*
D03*
X863750Y182000D02*
D03*
X870250D02*
D03*
X863750Y168000D02*
D03*
X870250D02*
D03*
X131250Y341000D02*
D03*
X124750D02*
D03*
X199750D02*
D03*
X206250D02*
D03*
X199750Y348000D02*
D03*
X206250D02*
D03*
X199750Y334000D02*
D03*
X206250D02*
D03*
X297250Y341000D02*
D03*
X290750D02*
D03*
X365750D02*
D03*
X372250D02*
D03*
X365750Y348000D02*
D03*
X372250D02*
D03*
X365750Y334000D02*
D03*
X372250D02*
D03*
X463250Y341000D02*
D03*
X456750D02*
D03*
X531750D02*
D03*
X538250D02*
D03*
X531750Y348000D02*
D03*
X538250D02*
D03*
X531750Y334000D02*
D03*
X538250D02*
D03*
X629250Y341000D02*
D03*
X622750D02*
D03*
X697750D02*
D03*
X704250D02*
D03*
X697750Y348000D02*
D03*
X704250D02*
D03*
X697750Y334000D02*
D03*
X704250D02*
D03*
X795250Y341000D02*
D03*
X788750D02*
D03*
X863750D02*
D03*
X870250D02*
D03*
X863750Y348000D02*
D03*
X870250D02*
D03*
X863750Y334000D02*
D03*
X870250D02*
D03*
X131250Y507000D02*
D03*
X124750D02*
D03*
X199750D02*
D03*
X206250D02*
D03*
X199750Y514000D02*
D03*
X206250D02*
D03*
X199750Y500000D02*
D03*
X206250D02*
D03*
X297250Y507000D02*
D03*
X290750D02*
D03*
X365750D02*
D03*
X372250D02*
D03*
X365750Y514000D02*
D03*
X372250D02*
D03*
X365750Y500000D02*
D03*
X372250D02*
D03*
X463250Y507000D02*
D03*
X456750D02*
D03*
X531750D02*
D03*
X538250D02*
D03*
X531750Y514000D02*
D03*
X538250D02*
D03*
X531750Y500000D02*
D03*
X538250D02*
D03*
X629250Y507000D02*
D03*
X622750D02*
D03*
X697750D02*
D03*
X704250D02*
D03*
X697750Y514000D02*
D03*
X704250D02*
D03*
X697750Y500000D02*
D03*
X704250D02*
D03*
X795250Y507000D02*
D03*
X788750D02*
D03*
X863750D02*
D03*
X870250D02*
D03*
X863750Y514000D02*
D03*
X870250D02*
D03*
X863750Y500000D02*
D03*
X870250D02*
D03*
X131250Y673000D02*
D03*
X124750D02*
D03*
X199750D02*
D03*
X206250D02*
D03*
X199750Y680000D02*
D03*
X206250D02*
D03*
X199750Y666000D02*
D03*
X206250D02*
D03*
X297250Y673000D02*
D03*
X290750D02*
D03*
X365750D02*
D03*
X372250D02*
D03*
X365750Y680000D02*
D03*
X372250D02*
D03*
X365750Y666000D02*
D03*
X372250D02*
D03*
X463250Y673000D02*
D03*
X456750D02*
D03*
X531750D02*
D03*
X538250D02*
D03*
X531750Y680000D02*
D03*
X538250D02*
D03*
X531750Y666000D02*
D03*
X538250D02*
D03*
X629250Y673000D02*
D03*
X622750D02*
D03*
X697750D02*
D03*
X704250D02*
D03*
X697750Y680000D02*
D03*
X704250D02*
D03*
X697750Y666000D02*
D03*
X704250D02*
D03*
X795250Y673000D02*
D03*
X788750D02*
D03*
X863750D02*
D03*
X870250D02*
D03*
X863750Y680000D02*
D03*
X870250D02*
D03*
X863750Y666000D02*
D03*
X870250D02*
D03*
X131250Y839000D02*
D03*
X124750D02*
D03*
X199750D02*
D03*
X206250D02*
D03*
X199750Y846000D02*
D03*
X206250D02*
D03*
X199750Y832000D02*
D03*
X206250D02*
D03*
X297250Y839000D02*
D03*
X290750D02*
D03*
X365750D02*
D03*
X372250D02*
D03*
X365750Y846000D02*
D03*
X372250D02*
D03*
X365750Y832000D02*
D03*
X372250D02*
D03*
X463250Y839000D02*
D03*
X456750D02*
D03*
X531750D02*
D03*
X538250D02*
D03*
X531750Y846000D02*
D03*
X538250D02*
D03*
X531750Y832000D02*
D03*
X538250D02*
D03*
X629250Y839000D02*
D03*
X622750D02*
D03*
X697750D02*
D03*
X704250D02*
D03*
X697750Y846000D02*
D03*
X704250D02*
D03*
X697750Y832000D02*
D03*
X704250D02*
D03*
X795250Y839000D02*
D03*
X788750D02*
D03*
X863750D02*
D03*
X870250D02*
D03*
X863750Y846000D02*
D03*
X870250D02*
D03*
X863750Y832000D02*
D03*
X870250D02*
D03*
D39*
X218500Y183000D02*
D03*
X227500D02*
D03*
Y167000D02*
D03*
X218500D02*
D03*
X384500Y183000D02*
D03*
X393500D02*
D03*
Y167000D02*
D03*
X384500D02*
D03*
X550500Y183000D02*
D03*
X559500D02*
D03*
Y167000D02*
D03*
X550500D02*
D03*
X716500Y183000D02*
D03*
X725500D02*
D03*
Y167000D02*
D03*
X716500D02*
D03*
X882500Y183000D02*
D03*
X891500D02*
D03*
Y167000D02*
D03*
X882500D02*
D03*
X218500Y349000D02*
D03*
X227500D02*
D03*
Y333000D02*
D03*
X218500D02*
D03*
X384500Y349000D02*
D03*
X393500D02*
D03*
Y333000D02*
D03*
X384500D02*
D03*
X550500Y349000D02*
D03*
X559500D02*
D03*
Y333000D02*
D03*
X550500D02*
D03*
X716500Y349000D02*
D03*
X725500D02*
D03*
Y333000D02*
D03*
X716500D02*
D03*
X882500Y349000D02*
D03*
X891500D02*
D03*
Y333000D02*
D03*
X882500D02*
D03*
X218500Y515000D02*
D03*
X227500D02*
D03*
Y499000D02*
D03*
X218500D02*
D03*
X384500Y515000D02*
D03*
X393500D02*
D03*
Y499000D02*
D03*
X384500D02*
D03*
X550500Y515000D02*
D03*
X559500D02*
D03*
Y499000D02*
D03*
X550500D02*
D03*
X716500Y515000D02*
D03*
X725500D02*
D03*
Y499000D02*
D03*
X716500D02*
D03*
X882500Y515000D02*
D03*
X891500D02*
D03*
Y499000D02*
D03*
X882500D02*
D03*
X218500Y681000D02*
D03*
X227500D02*
D03*
Y665000D02*
D03*
X218500D02*
D03*
X384500Y681000D02*
D03*
X393500D02*
D03*
Y665000D02*
D03*
X384500D02*
D03*
X550500Y681000D02*
D03*
X559500D02*
D03*
Y665000D02*
D03*
X550500D02*
D03*
X716500Y681000D02*
D03*
X725500D02*
D03*
Y665000D02*
D03*
X716500D02*
D03*
X882500Y681000D02*
D03*
X891500D02*
D03*
Y665000D02*
D03*
X882500D02*
D03*
X218500Y847000D02*
D03*
X227500D02*
D03*
Y831000D02*
D03*
X218500D02*
D03*
X384500Y847000D02*
D03*
X393500D02*
D03*
Y831000D02*
D03*
X384500D02*
D03*
X550500Y847000D02*
D03*
X559500D02*
D03*
Y831000D02*
D03*
X550500D02*
D03*
X716500Y847000D02*
D03*
X725500D02*
D03*
Y831000D02*
D03*
X716500D02*
D03*
X882500Y847000D02*
D03*
X891500D02*
D03*
Y831000D02*
D03*
X882500D02*
D03*
D40*
X970000Y970000D02*
D03*
X30000D02*
D03*
Y30000D02*
D03*
X970000D02*
D03*
X171000Y250000D02*
D03*
X165000D02*
D03*
X159000D02*
D03*
X177000D02*
D03*
X243000Y172000D02*
D03*
Y178000D02*
D03*
Y184000D02*
D03*
Y166000D02*
D03*
X165000Y100000D02*
D03*
X171000D02*
D03*
X177000D02*
D03*
X159000D02*
D03*
X93000Y184000D02*
D03*
Y166000D02*
D03*
Y172000D02*
D03*
Y178000D02*
D03*
X337000Y250000D02*
D03*
X331000D02*
D03*
X325000D02*
D03*
X343000D02*
D03*
X409000Y172000D02*
D03*
Y178000D02*
D03*
Y184000D02*
D03*
Y166000D02*
D03*
X331000Y100000D02*
D03*
X337000D02*
D03*
X343000D02*
D03*
X325000D02*
D03*
X259000Y184000D02*
D03*
Y166000D02*
D03*
Y172000D02*
D03*
Y178000D02*
D03*
X503000Y250000D02*
D03*
X497000D02*
D03*
X491000D02*
D03*
X509000D02*
D03*
X575000Y172000D02*
D03*
Y178000D02*
D03*
Y184000D02*
D03*
Y166000D02*
D03*
X497000Y100000D02*
D03*
X503000D02*
D03*
X509000D02*
D03*
X491000D02*
D03*
X425000Y184000D02*
D03*
Y166000D02*
D03*
Y172000D02*
D03*
Y178000D02*
D03*
X669000Y250000D02*
D03*
X663000D02*
D03*
X657000D02*
D03*
X675000D02*
D03*
X741000Y172000D02*
D03*
Y178000D02*
D03*
Y184000D02*
D03*
Y166000D02*
D03*
X663000Y100000D02*
D03*
X669000D02*
D03*
X675000D02*
D03*
X657000D02*
D03*
X591000Y184000D02*
D03*
Y166000D02*
D03*
Y172000D02*
D03*
Y178000D02*
D03*
X835000Y250000D02*
D03*
X829000D02*
D03*
X823000D02*
D03*
X841000D02*
D03*
X907000Y172000D02*
D03*
Y178000D02*
D03*
Y184000D02*
D03*
Y166000D02*
D03*
X829000Y100000D02*
D03*
X835000D02*
D03*
X841000D02*
D03*
X823000D02*
D03*
X757000Y184000D02*
D03*
Y166000D02*
D03*
Y172000D02*
D03*
Y178000D02*
D03*
X171000Y416000D02*
D03*
X165000D02*
D03*
X159000D02*
D03*
X177000D02*
D03*
X243000Y338000D02*
D03*
Y344000D02*
D03*
Y350000D02*
D03*
Y332000D02*
D03*
X165000Y266000D02*
D03*
X171000D02*
D03*
X177000D02*
D03*
X159000D02*
D03*
X93000Y350000D02*
D03*
Y332000D02*
D03*
Y338000D02*
D03*
Y344000D02*
D03*
X337000Y416000D02*
D03*
X331000D02*
D03*
X325000D02*
D03*
X343000D02*
D03*
X409000Y338000D02*
D03*
Y344000D02*
D03*
Y350000D02*
D03*
Y332000D02*
D03*
X331000Y266000D02*
D03*
X337000D02*
D03*
X343000D02*
D03*
X325000D02*
D03*
X259000Y350000D02*
D03*
Y332000D02*
D03*
Y338000D02*
D03*
Y344000D02*
D03*
X503000Y416000D02*
D03*
X497000D02*
D03*
X491000D02*
D03*
X509000D02*
D03*
X575000Y338000D02*
D03*
Y344000D02*
D03*
Y350000D02*
D03*
Y332000D02*
D03*
X497000Y266000D02*
D03*
X503000D02*
D03*
X509000D02*
D03*
X491000D02*
D03*
X425000Y350000D02*
D03*
Y332000D02*
D03*
Y338000D02*
D03*
Y344000D02*
D03*
X669000Y416000D02*
D03*
X663000D02*
D03*
X657000D02*
D03*
X675000D02*
D03*
X741000Y338000D02*
D03*
Y344000D02*
D03*
Y350000D02*
D03*
Y332000D02*
D03*
X663000Y266000D02*
D03*
X669000D02*
D03*
X675000D02*
D03*
X657000D02*
D03*
X591000Y350000D02*
D03*
Y332000D02*
D03*
Y338000D02*
D03*
Y344000D02*
D03*
X835000Y416000D02*
D03*
X829000D02*
D03*
X823000D02*
D03*
X841000D02*
D03*
X907000Y338000D02*
D03*
Y344000D02*
D03*
Y350000D02*
D03*
Y332000D02*
D03*
X829000Y266000D02*
D03*
X835000D02*
D03*
X841000D02*
D03*
X823000D02*
D03*
X757000Y350000D02*
D03*
Y332000D02*
D03*
Y338000D02*
D03*
Y344000D02*
D03*
X171000Y582000D02*
D03*
X165000D02*
D03*
X159000D02*
D03*
X177000D02*
D03*
X243000Y504000D02*
D03*
Y510000D02*
D03*
Y516000D02*
D03*
Y498000D02*
D03*
X165000Y432000D02*
D03*
X171000D02*
D03*
X177000D02*
D03*
X159000D02*
D03*
X93000Y516000D02*
D03*
Y498000D02*
D03*
Y504000D02*
D03*
Y510000D02*
D03*
X337000Y582000D02*
D03*
X331000D02*
D03*
X325000D02*
D03*
X343000D02*
D03*
X409000Y504000D02*
D03*
Y510000D02*
D03*
Y516000D02*
D03*
Y498000D02*
D03*
X331000Y432000D02*
D03*
X337000D02*
D03*
X343000D02*
D03*
X325000D02*
D03*
X259000Y516000D02*
D03*
Y498000D02*
D03*
Y504000D02*
D03*
Y510000D02*
D03*
X503000Y582000D02*
D03*
X497000D02*
D03*
X491000D02*
D03*
X509000D02*
D03*
X575000Y504000D02*
D03*
Y510000D02*
D03*
Y516000D02*
D03*
Y498000D02*
D03*
X497000Y432000D02*
D03*
X503000D02*
D03*
X509000D02*
D03*
X491000D02*
D03*
X425000Y516000D02*
D03*
Y498000D02*
D03*
Y504000D02*
D03*
Y510000D02*
D03*
X669000Y582000D02*
D03*
X663000D02*
D03*
X657000D02*
D03*
X675000D02*
D03*
X741000Y504000D02*
D03*
Y510000D02*
D03*
Y516000D02*
D03*
Y498000D02*
D03*
X663000Y432000D02*
D03*
X669000D02*
D03*
X675000D02*
D03*
X657000D02*
D03*
X591000Y516000D02*
D03*
Y498000D02*
D03*
Y504000D02*
D03*
Y510000D02*
D03*
X835000Y582000D02*
D03*
X829000D02*
D03*
X823000D02*
D03*
X841000D02*
D03*
X907000Y504000D02*
D03*
Y510000D02*
D03*
Y516000D02*
D03*
Y498000D02*
D03*
X829000Y432000D02*
D03*
X835000D02*
D03*
X841000D02*
D03*
X823000D02*
D03*
X757000Y516000D02*
D03*
Y498000D02*
D03*
Y504000D02*
D03*
Y510000D02*
D03*
X171000Y748000D02*
D03*
X165000D02*
D03*
X159000D02*
D03*
X177000D02*
D03*
X243000Y670000D02*
D03*
Y676000D02*
D03*
Y682000D02*
D03*
Y664000D02*
D03*
X165000Y598000D02*
D03*
X171000D02*
D03*
X177000D02*
D03*
X159000D02*
D03*
X93000Y682000D02*
D03*
Y664000D02*
D03*
Y670000D02*
D03*
Y676000D02*
D03*
X337000Y748000D02*
D03*
X331000D02*
D03*
X325000D02*
D03*
X343000D02*
D03*
X409000Y670000D02*
D03*
Y676000D02*
D03*
Y682000D02*
D03*
Y664000D02*
D03*
X331000Y598000D02*
D03*
X337000D02*
D03*
X343000D02*
D03*
X325000D02*
D03*
X259000Y682000D02*
D03*
Y664000D02*
D03*
Y670000D02*
D03*
Y676000D02*
D03*
X503000Y748000D02*
D03*
X497000D02*
D03*
X491000D02*
D03*
X509000D02*
D03*
X575000Y670000D02*
D03*
Y676000D02*
D03*
Y682000D02*
D03*
Y664000D02*
D03*
X497000Y598000D02*
D03*
X503000D02*
D03*
X509000D02*
D03*
X491000D02*
D03*
X425000Y682000D02*
D03*
Y664000D02*
D03*
Y670000D02*
D03*
Y676000D02*
D03*
X669000Y748000D02*
D03*
X663000D02*
D03*
X657000D02*
D03*
X675000D02*
D03*
X741000Y670000D02*
D03*
Y676000D02*
D03*
Y682000D02*
D03*
Y664000D02*
D03*
X663000Y598000D02*
D03*
X669000D02*
D03*
X675000D02*
D03*
X657000D02*
D03*
X591000Y682000D02*
D03*
Y664000D02*
D03*
Y670000D02*
D03*
Y676000D02*
D03*
X835000Y748000D02*
D03*
X829000D02*
D03*
X823000D02*
D03*
X841000D02*
D03*
X907000Y670000D02*
D03*
Y676000D02*
D03*
Y682000D02*
D03*
Y664000D02*
D03*
X829000Y598000D02*
D03*
X835000D02*
D03*
X841000D02*
D03*
X823000D02*
D03*
X757000Y682000D02*
D03*
Y664000D02*
D03*
Y670000D02*
D03*
Y676000D02*
D03*
X171000Y914000D02*
D03*
X165000D02*
D03*
X159000D02*
D03*
X177000D02*
D03*
X243000Y836000D02*
D03*
Y842000D02*
D03*
Y848000D02*
D03*
Y830000D02*
D03*
X165000Y764000D02*
D03*
X171000D02*
D03*
X177000D02*
D03*
X159000D02*
D03*
X93000Y848000D02*
D03*
Y830000D02*
D03*
Y836000D02*
D03*
Y842000D02*
D03*
X337000Y914000D02*
D03*
X331000D02*
D03*
X325000D02*
D03*
X343000D02*
D03*
X409000Y836000D02*
D03*
Y842000D02*
D03*
Y848000D02*
D03*
Y830000D02*
D03*
X331000Y764000D02*
D03*
X337000D02*
D03*
X343000D02*
D03*
X325000D02*
D03*
X259000Y848000D02*
D03*
Y830000D02*
D03*
Y836000D02*
D03*
Y842000D02*
D03*
X503000Y914000D02*
D03*
X497000D02*
D03*
X491000D02*
D03*
X509000D02*
D03*
X575000Y836000D02*
D03*
Y842000D02*
D03*
Y848000D02*
D03*
Y830000D02*
D03*
X497000Y764000D02*
D03*
X503000D02*
D03*
X509000D02*
D03*
X491000D02*
D03*
X425000Y848000D02*
D03*
Y830000D02*
D03*
Y836000D02*
D03*
Y842000D02*
D03*
X669000Y914000D02*
D03*
X663000D02*
D03*
X657000D02*
D03*
X675000D02*
D03*
X741000Y836000D02*
D03*
Y842000D02*
D03*
Y848000D02*
D03*
Y830000D02*
D03*
X663000Y764000D02*
D03*
X669000D02*
D03*
X675000D02*
D03*
X657000D02*
D03*
X591000Y848000D02*
D03*
Y830000D02*
D03*
Y836000D02*
D03*
Y842000D02*
D03*
X835000Y914000D02*
D03*
X829000D02*
D03*
X823000D02*
D03*
X841000D02*
D03*
X907000Y836000D02*
D03*
Y842000D02*
D03*
Y848000D02*
D03*
Y830000D02*
D03*
X829000Y764000D02*
D03*
X835000D02*
D03*
X841000D02*
D03*
X823000D02*
D03*
X757000Y848000D02*
D03*
Y830000D02*
D03*
Y836000D02*
D03*
Y842000D02*
D03*
D41*
X218000Y225000D02*
D03*
X118000D02*
D03*
X218000Y125000D02*
D03*
X118000D02*
D03*
X384000Y225000D02*
D03*
X284000D02*
D03*
X384000Y125000D02*
D03*
X284000D02*
D03*
X550000Y225000D02*
D03*
X450000D02*
D03*
X550000Y125000D02*
D03*
X450000D02*
D03*
X716000Y225000D02*
D03*
X616000D02*
D03*
X716000Y125000D02*
D03*
X616000D02*
D03*
X882000Y225000D02*
D03*
X782000D02*
D03*
X882000Y125000D02*
D03*
X782000D02*
D03*
X218000Y391000D02*
D03*
X118000D02*
D03*
X218000Y291000D02*
D03*
X118000D02*
D03*
X384000Y391000D02*
D03*
X284000D02*
D03*
X384000Y291000D02*
D03*
X284000D02*
D03*
X550000Y391000D02*
D03*
X450000D02*
D03*
X550000Y291000D02*
D03*
X450000D02*
D03*
X716000Y391000D02*
D03*
X616000D02*
D03*
X716000Y291000D02*
D03*
X616000D02*
D03*
X882000Y391000D02*
D03*
X782000D02*
D03*
X882000Y291000D02*
D03*
X782000D02*
D03*
X218000Y557000D02*
D03*
X118000D02*
D03*
X218000Y457000D02*
D03*
X118000D02*
D03*
X384000Y557000D02*
D03*
X284000D02*
D03*
X384000Y457000D02*
D03*
X284000D02*
D03*
X550000Y557000D02*
D03*
X450000D02*
D03*
X550000Y457000D02*
D03*
X450000D02*
D03*
X716000Y557000D02*
D03*
X616000D02*
D03*
X716000Y457000D02*
D03*
X616000D02*
D03*
X882000Y557000D02*
D03*
X782000D02*
D03*
X882000Y457000D02*
D03*
X782000D02*
D03*
X218000Y723000D02*
D03*
X118000D02*
D03*
X218000Y623000D02*
D03*
X118000D02*
D03*
X384000Y723000D02*
D03*
X284000D02*
D03*
X384000Y623000D02*
D03*
X284000D02*
D03*
X550000Y723000D02*
D03*
X450000D02*
D03*
X550000Y623000D02*
D03*
X450000D02*
D03*
X716000Y723000D02*
D03*
X616000D02*
D03*
X716000Y623000D02*
D03*
X616000D02*
D03*
X882000Y723000D02*
D03*
X782000D02*
D03*
X882000Y623000D02*
D03*
X782000D02*
D03*
X218000Y889000D02*
D03*
X118000D02*
D03*
X218000Y789000D02*
D03*
X118000D02*
D03*
X384000Y889000D02*
D03*
X284000D02*
D03*
X384000Y789000D02*
D03*
X284000D02*
D03*
X550000Y889000D02*
D03*
X450000D02*
D03*
X550000Y789000D02*
D03*
X450000D02*
D03*
X716000Y889000D02*
D03*
X616000D02*
D03*
X716000Y789000D02*
D03*
X616000D02*
D03*
X882000Y889000D02*
D03*
X782000D02*
D03*
X882000Y789000D02*
D03*
X782000D02*
D03*
M02*
