G04*
G04 #@! TF.GenerationSoftware,Altium Limited,Altium Designer,23.11.1 (41)*
G04*
G04 Layer_Color=255*
%FSLAX44Y44*%
%MOMM*%
G71*
G04*
G04 #@! TF.SameCoordinates,3482151D-E3A4-470A-A98F-003E0BE399C6*
G04*
G04*
G04 #@! TF.FilePolarity,Positive*
G04*
G01*
G75*
%ADD10C,1.0000*%
%ADD11R,0.3500X0.4400*%
%ADD12R,1.7000X1.7000*%
%ADD13O,0.2000X0.8000*%
%ADD14O,0.8000X0.2000*%
%ADD15R,1.0000X0.9000*%
%ADD16R,0.8000X0.5000*%
%ADD17R,0.8000X0.8000*%
%ADD18R,0.4400X0.3500*%
%ADD19R,0.5000X0.8000*%
%ADD22C,3.3000*%
D10*
X832000Y922000D02*
D03*
X666000D02*
D03*
X500000D02*
D03*
X334000D02*
D03*
X168000D02*
D03*
X915000Y839000D02*
D03*
Y673000D02*
D03*
Y507000D02*
D03*
Y341000D02*
D03*
Y175000D02*
D03*
X950000Y100000D02*
D03*
Y900000D02*
D03*
X50000D02*
D03*
Y100000D02*
D03*
X168000Y258000D02*
D03*
X251000Y175000D02*
D03*
X168000Y92000D02*
D03*
X85000Y175000D02*
D03*
X334000Y258000D02*
D03*
X417000Y175000D02*
D03*
X334000Y92000D02*
D03*
X251000Y175000D02*
D03*
X500000Y258000D02*
D03*
X583000Y175000D02*
D03*
X500000Y92000D02*
D03*
X417000Y175000D02*
D03*
X666000Y258000D02*
D03*
X749000Y175000D02*
D03*
X666000Y92000D02*
D03*
X583000Y175000D02*
D03*
X832000Y258000D02*
D03*
X915000Y175000D02*
D03*
X832000Y92000D02*
D03*
X749000Y175000D02*
D03*
X168000Y424000D02*
D03*
X251000Y341000D02*
D03*
X168000Y258000D02*
D03*
X85000Y341000D02*
D03*
X334000Y424000D02*
D03*
X417000Y341000D02*
D03*
X334000Y258000D02*
D03*
X251000Y341000D02*
D03*
X500000Y424000D02*
D03*
X583000Y341000D02*
D03*
X500000Y258000D02*
D03*
X417000Y341000D02*
D03*
X666000Y424000D02*
D03*
X749000Y341000D02*
D03*
X666000Y258000D02*
D03*
X583000Y341000D02*
D03*
X832000Y424000D02*
D03*
X915000Y341000D02*
D03*
X832000Y258000D02*
D03*
X749000Y341000D02*
D03*
X168000Y590000D02*
D03*
X251000Y507000D02*
D03*
X168000Y424000D02*
D03*
X85000Y507000D02*
D03*
X334000Y590000D02*
D03*
X417000Y507000D02*
D03*
X334000Y424000D02*
D03*
X251000Y507000D02*
D03*
X500000Y590000D02*
D03*
X583000Y507000D02*
D03*
X500000Y424000D02*
D03*
X417000Y507000D02*
D03*
X666000Y590000D02*
D03*
X749000Y507000D02*
D03*
X666000Y424000D02*
D03*
X583000Y507000D02*
D03*
X832000Y590000D02*
D03*
X915000Y507000D02*
D03*
X832000Y424000D02*
D03*
X749000Y507000D02*
D03*
X168000Y756000D02*
D03*
X251000Y673000D02*
D03*
X168000Y590000D02*
D03*
X85000Y673000D02*
D03*
X334000Y756000D02*
D03*
X417000Y673000D02*
D03*
X334000Y590000D02*
D03*
X251000Y673000D02*
D03*
X500000Y756000D02*
D03*
X583000Y673000D02*
D03*
X500000Y590000D02*
D03*
X417000Y673000D02*
D03*
X666000Y756000D02*
D03*
X749000Y673000D02*
D03*
X666000Y590000D02*
D03*
X583000Y673000D02*
D03*
X832000Y756000D02*
D03*
X915000Y673000D02*
D03*
X832000Y590000D02*
D03*
X749000Y673000D02*
D03*
X168000Y922000D02*
D03*
X251000Y839000D02*
D03*
X168000Y756000D02*
D03*
X85000Y839000D02*
D03*
X334000Y922000D02*
D03*
X417000Y839000D02*
D03*
X334000Y756000D02*
D03*
X251000Y839000D02*
D03*
X500000Y922000D02*
D03*
X583000Y839000D02*
D03*
X500000Y756000D02*
D03*
X417000Y839000D02*
D03*
X666000Y922000D02*
D03*
X749000Y839000D02*
D03*
X666000Y756000D02*
D03*
X583000Y839000D02*
D03*
X832000Y922000D02*
D03*
X915000Y839000D02*
D03*
X832000Y756000D02*
D03*
X749000Y839000D02*
D03*
D11*
X145000Y143750D02*
D03*
Y150250D02*
D03*
X152000Y143750D02*
D03*
Y150250D02*
D03*
X189000Y136750D02*
D03*
Y143250D02*
D03*
X168000Y206750D02*
D03*
Y213250D02*
D03*
X161000Y206750D02*
D03*
Y213250D02*
D03*
X175000Y206750D02*
D03*
Y213250D02*
D03*
X168000Y143250D02*
D03*
Y136750D02*
D03*
X175000Y143250D02*
D03*
Y136750D02*
D03*
X161000Y143250D02*
D03*
Y136750D02*
D03*
X311000Y143750D02*
D03*
Y150250D02*
D03*
X318000Y143750D02*
D03*
Y150250D02*
D03*
X355000Y136750D02*
D03*
Y143250D02*
D03*
X334000Y206750D02*
D03*
Y213250D02*
D03*
X327000Y206750D02*
D03*
Y213250D02*
D03*
X341000Y206750D02*
D03*
Y213250D02*
D03*
X334000Y143250D02*
D03*
Y136750D02*
D03*
X341000Y143250D02*
D03*
Y136750D02*
D03*
X327000Y143250D02*
D03*
Y136750D02*
D03*
X477000Y143750D02*
D03*
Y150250D02*
D03*
X484000Y143750D02*
D03*
Y150250D02*
D03*
X521000Y136750D02*
D03*
Y143250D02*
D03*
X500000Y206750D02*
D03*
Y213250D02*
D03*
X493000Y206750D02*
D03*
Y213250D02*
D03*
X507000Y206750D02*
D03*
Y213250D02*
D03*
X500000Y143250D02*
D03*
Y136750D02*
D03*
X507000Y143250D02*
D03*
Y136750D02*
D03*
X493000Y143250D02*
D03*
Y136750D02*
D03*
X643000Y143750D02*
D03*
Y150250D02*
D03*
X650000Y143750D02*
D03*
Y150250D02*
D03*
X687000Y136750D02*
D03*
Y143250D02*
D03*
X666000Y206750D02*
D03*
Y213250D02*
D03*
X659000Y206750D02*
D03*
Y213250D02*
D03*
X673000Y206750D02*
D03*
Y213250D02*
D03*
X666000Y143250D02*
D03*
Y136750D02*
D03*
X673000Y143250D02*
D03*
Y136750D02*
D03*
X659000Y143250D02*
D03*
Y136750D02*
D03*
X809000Y143750D02*
D03*
Y150250D02*
D03*
X816000Y143750D02*
D03*
Y150250D02*
D03*
X853000Y136750D02*
D03*
Y143250D02*
D03*
X832000Y206750D02*
D03*
Y213250D02*
D03*
X825000Y206750D02*
D03*
Y213250D02*
D03*
X839000Y206750D02*
D03*
Y213250D02*
D03*
X832000Y143250D02*
D03*
Y136750D02*
D03*
X839000Y143250D02*
D03*
Y136750D02*
D03*
X825000Y143250D02*
D03*
Y136750D02*
D03*
X145000Y309750D02*
D03*
Y316250D02*
D03*
X152000Y309750D02*
D03*
Y316250D02*
D03*
X189000Y302750D02*
D03*
Y309250D02*
D03*
X168000Y372750D02*
D03*
Y379250D02*
D03*
X161000Y372750D02*
D03*
Y379250D02*
D03*
X175000Y372750D02*
D03*
Y379250D02*
D03*
X168000Y309250D02*
D03*
Y302750D02*
D03*
X175000Y309250D02*
D03*
Y302750D02*
D03*
X161000Y309250D02*
D03*
Y302750D02*
D03*
X311000Y309750D02*
D03*
Y316250D02*
D03*
X318000Y309750D02*
D03*
Y316250D02*
D03*
X355000Y302750D02*
D03*
Y309250D02*
D03*
X334000Y372750D02*
D03*
Y379250D02*
D03*
X327000Y372750D02*
D03*
Y379250D02*
D03*
X341000Y372750D02*
D03*
Y379250D02*
D03*
X334000Y309250D02*
D03*
Y302750D02*
D03*
X341000Y309250D02*
D03*
Y302750D02*
D03*
X327000Y309250D02*
D03*
Y302750D02*
D03*
X477000Y309750D02*
D03*
Y316250D02*
D03*
X484000Y309750D02*
D03*
Y316250D02*
D03*
X521000Y302750D02*
D03*
Y309250D02*
D03*
X500000Y372750D02*
D03*
Y379250D02*
D03*
X493000Y372750D02*
D03*
Y379250D02*
D03*
X507000Y372750D02*
D03*
Y379250D02*
D03*
X500000Y309250D02*
D03*
Y302750D02*
D03*
X507000Y309250D02*
D03*
Y302750D02*
D03*
X493000Y309250D02*
D03*
Y302750D02*
D03*
X643000Y309750D02*
D03*
Y316250D02*
D03*
X650000Y309750D02*
D03*
Y316250D02*
D03*
X687000Y302750D02*
D03*
Y309250D02*
D03*
X666000Y372750D02*
D03*
Y379250D02*
D03*
X659000Y372750D02*
D03*
Y379250D02*
D03*
X673000Y372750D02*
D03*
Y379250D02*
D03*
X666000Y309250D02*
D03*
Y302750D02*
D03*
X673000Y309250D02*
D03*
Y302750D02*
D03*
X659000Y309250D02*
D03*
Y302750D02*
D03*
X809000Y309750D02*
D03*
Y316250D02*
D03*
X816000Y309750D02*
D03*
Y316250D02*
D03*
X853000Y302750D02*
D03*
Y309250D02*
D03*
X832000Y372750D02*
D03*
Y379250D02*
D03*
X825000Y372750D02*
D03*
Y379250D02*
D03*
X839000Y372750D02*
D03*
Y379250D02*
D03*
X832000Y309250D02*
D03*
Y302750D02*
D03*
X839000Y309250D02*
D03*
Y302750D02*
D03*
X825000Y309250D02*
D03*
Y302750D02*
D03*
X145000Y475750D02*
D03*
Y482250D02*
D03*
X152000Y475750D02*
D03*
Y482250D02*
D03*
X189000Y468750D02*
D03*
Y475250D02*
D03*
X168000Y538750D02*
D03*
Y545250D02*
D03*
X161000Y538750D02*
D03*
Y545250D02*
D03*
X175000Y538750D02*
D03*
Y545250D02*
D03*
X168000Y475250D02*
D03*
Y468750D02*
D03*
X175000Y475250D02*
D03*
Y468750D02*
D03*
X161000Y475250D02*
D03*
Y468750D02*
D03*
X311000Y475750D02*
D03*
Y482250D02*
D03*
X318000Y475750D02*
D03*
Y482250D02*
D03*
X355000Y468750D02*
D03*
Y475250D02*
D03*
X334000Y538750D02*
D03*
Y545250D02*
D03*
X327000Y538750D02*
D03*
Y545250D02*
D03*
X341000Y538750D02*
D03*
Y545250D02*
D03*
X334000Y475250D02*
D03*
Y468750D02*
D03*
X341000Y475250D02*
D03*
Y468750D02*
D03*
X327000Y475250D02*
D03*
Y468750D02*
D03*
X477000Y475750D02*
D03*
Y482250D02*
D03*
X484000Y475750D02*
D03*
Y482250D02*
D03*
X521000Y468750D02*
D03*
Y475250D02*
D03*
X500000Y538750D02*
D03*
Y545250D02*
D03*
X493000Y538750D02*
D03*
Y545250D02*
D03*
X507000Y538750D02*
D03*
Y545250D02*
D03*
X500000Y475250D02*
D03*
Y468750D02*
D03*
X507000Y475250D02*
D03*
Y468750D02*
D03*
X493000Y475250D02*
D03*
Y468750D02*
D03*
X643000Y475750D02*
D03*
Y482250D02*
D03*
X650000Y475750D02*
D03*
Y482250D02*
D03*
X687000Y468750D02*
D03*
Y475250D02*
D03*
X666000Y538750D02*
D03*
Y545250D02*
D03*
X659000Y538750D02*
D03*
Y545250D02*
D03*
X673000Y538750D02*
D03*
Y545250D02*
D03*
X666000Y475250D02*
D03*
Y468750D02*
D03*
X673000Y475250D02*
D03*
Y468750D02*
D03*
X659000Y475250D02*
D03*
Y468750D02*
D03*
X809000Y475750D02*
D03*
Y482250D02*
D03*
X816000Y475750D02*
D03*
Y482250D02*
D03*
X853000Y468750D02*
D03*
Y475250D02*
D03*
X832000Y538750D02*
D03*
Y545250D02*
D03*
X825000Y538750D02*
D03*
Y545250D02*
D03*
X839000Y538750D02*
D03*
Y545250D02*
D03*
X832000Y475250D02*
D03*
Y468750D02*
D03*
X839000Y475250D02*
D03*
Y468750D02*
D03*
X825000Y475250D02*
D03*
Y468750D02*
D03*
X145000Y641750D02*
D03*
Y648250D02*
D03*
X152000Y641750D02*
D03*
Y648250D02*
D03*
X189000Y634750D02*
D03*
Y641250D02*
D03*
X168000Y704750D02*
D03*
Y711250D02*
D03*
X161000Y704750D02*
D03*
Y711250D02*
D03*
X175000Y704750D02*
D03*
Y711250D02*
D03*
X168000Y641250D02*
D03*
Y634750D02*
D03*
X175000Y641250D02*
D03*
Y634750D02*
D03*
X161000Y641250D02*
D03*
Y634750D02*
D03*
X311000Y641750D02*
D03*
Y648250D02*
D03*
X318000Y641750D02*
D03*
Y648250D02*
D03*
X355000Y634750D02*
D03*
Y641250D02*
D03*
X334000Y704750D02*
D03*
Y711250D02*
D03*
X327000Y704750D02*
D03*
Y711250D02*
D03*
X341000Y704750D02*
D03*
Y711250D02*
D03*
X334000Y641250D02*
D03*
Y634750D02*
D03*
X341000Y641250D02*
D03*
Y634750D02*
D03*
X327000Y641250D02*
D03*
Y634750D02*
D03*
X477000Y641750D02*
D03*
Y648250D02*
D03*
X484000Y641750D02*
D03*
Y648250D02*
D03*
X521000Y634750D02*
D03*
Y641250D02*
D03*
X500000Y704750D02*
D03*
Y711250D02*
D03*
X493000Y704750D02*
D03*
Y711250D02*
D03*
X507000Y704750D02*
D03*
Y711250D02*
D03*
X500000Y641250D02*
D03*
Y634750D02*
D03*
X507000Y641250D02*
D03*
Y634750D02*
D03*
X493000Y641250D02*
D03*
Y634750D02*
D03*
X643000Y641750D02*
D03*
Y648250D02*
D03*
X650000Y641750D02*
D03*
Y648250D02*
D03*
X687000Y634750D02*
D03*
Y641250D02*
D03*
X666000Y704750D02*
D03*
Y711250D02*
D03*
X659000Y704750D02*
D03*
Y711250D02*
D03*
X673000Y704750D02*
D03*
Y711250D02*
D03*
X666000Y641250D02*
D03*
Y634750D02*
D03*
X673000Y641250D02*
D03*
Y634750D02*
D03*
X659000Y641250D02*
D03*
Y634750D02*
D03*
X809000Y641750D02*
D03*
Y648250D02*
D03*
X816000Y641750D02*
D03*
Y648250D02*
D03*
X853000Y634750D02*
D03*
Y641250D02*
D03*
X832000Y704750D02*
D03*
Y711250D02*
D03*
X825000Y704750D02*
D03*
Y711250D02*
D03*
X839000Y704750D02*
D03*
Y711250D02*
D03*
X832000Y641250D02*
D03*
Y634750D02*
D03*
X839000Y641250D02*
D03*
Y634750D02*
D03*
X825000Y641250D02*
D03*
Y634750D02*
D03*
X145000Y807750D02*
D03*
Y814250D02*
D03*
X152000Y807750D02*
D03*
Y814250D02*
D03*
X189000Y800750D02*
D03*
Y807250D02*
D03*
X168000Y870750D02*
D03*
Y877250D02*
D03*
X161000Y870750D02*
D03*
Y877250D02*
D03*
X175000Y870750D02*
D03*
Y877250D02*
D03*
X168000Y807250D02*
D03*
Y800750D02*
D03*
X175000Y807250D02*
D03*
Y800750D02*
D03*
X161000Y807250D02*
D03*
Y800750D02*
D03*
X311000Y807750D02*
D03*
Y814250D02*
D03*
X318000Y807750D02*
D03*
Y814250D02*
D03*
X355000Y800750D02*
D03*
Y807250D02*
D03*
X334000Y870750D02*
D03*
Y877250D02*
D03*
X327000Y870750D02*
D03*
Y877250D02*
D03*
X341000Y870750D02*
D03*
Y877250D02*
D03*
X334000Y807250D02*
D03*
Y800750D02*
D03*
X341000Y807250D02*
D03*
Y800750D02*
D03*
X327000Y807250D02*
D03*
Y800750D02*
D03*
X477000Y807750D02*
D03*
Y814250D02*
D03*
X484000Y807750D02*
D03*
Y814250D02*
D03*
X521000Y800750D02*
D03*
Y807250D02*
D03*
X500000Y870750D02*
D03*
Y877250D02*
D03*
X493000Y870750D02*
D03*
Y877250D02*
D03*
X507000Y870750D02*
D03*
Y877250D02*
D03*
X500000Y807250D02*
D03*
Y800750D02*
D03*
X507000Y807250D02*
D03*
Y800750D02*
D03*
X493000Y807250D02*
D03*
Y800750D02*
D03*
X643000Y807750D02*
D03*
Y814250D02*
D03*
X650000Y807750D02*
D03*
Y814250D02*
D03*
X687000Y800750D02*
D03*
Y807250D02*
D03*
X666000Y870750D02*
D03*
Y877250D02*
D03*
X659000Y870750D02*
D03*
Y877250D02*
D03*
X673000Y870750D02*
D03*
Y877250D02*
D03*
X666000Y807250D02*
D03*
Y800750D02*
D03*
X673000Y807250D02*
D03*
Y800750D02*
D03*
X659000Y807250D02*
D03*
Y800750D02*
D03*
X809000Y807750D02*
D03*
Y814250D02*
D03*
X816000Y807750D02*
D03*
Y814250D02*
D03*
X853000Y800750D02*
D03*
Y807250D02*
D03*
X832000Y870750D02*
D03*
Y877250D02*
D03*
X825000Y870750D02*
D03*
Y877250D02*
D03*
X839000Y870750D02*
D03*
Y877250D02*
D03*
X832000Y807250D02*
D03*
Y800750D02*
D03*
X839000Y807250D02*
D03*
Y800750D02*
D03*
X825000Y807250D02*
D03*
Y800750D02*
D03*
D12*
X163000Y175000D02*
D03*
X329000D02*
D03*
X495000D02*
D03*
X661000D02*
D03*
X827000D02*
D03*
X163000Y341000D02*
D03*
X329000D02*
D03*
X495000D02*
D03*
X661000D02*
D03*
X827000D02*
D03*
X163000Y507000D02*
D03*
X329000D02*
D03*
X495000D02*
D03*
X661000D02*
D03*
X827000D02*
D03*
X163000Y673000D02*
D03*
X329000D02*
D03*
X495000D02*
D03*
X661000D02*
D03*
X827000D02*
D03*
X163000Y839000D02*
D03*
X329000D02*
D03*
X495000D02*
D03*
X661000D02*
D03*
X827000D02*
D03*
D13*
X171000Y160000D02*
D03*
X167000D02*
D03*
X163000D02*
D03*
X159000D02*
D03*
X155000D02*
D03*
Y190000D02*
D03*
X159000D02*
D03*
X163000D02*
D03*
X167000D02*
D03*
X171000D02*
D03*
X337000Y160000D02*
D03*
X333000D02*
D03*
X329000D02*
D03*
X325000D02*
D03*
X321000D02*
D03*
Y190000D02*
D03*
X325000D02*
D03*
X329000D02*
D03*
X333000D02*
D03*
X337000D02*
D03*
X503000Y160000D02*
D03*
X499000D02*
D03*
X495000D02*
D03*
X491000D02*
D03*
X487000D02*
D03*
Y190000D02*
D03*
X491000D02*
D03*
X495000D02*
D03*
X499000D02*
D03*
X503000D02*
D03*
X669000Y160000D02*
D03*
X665000D02*
D03*
X661000D02*
D03*
X657000D02*
D03*
X653000D02*
D03*
Y190000D02*
D03*
X657000D02*
D03*
X661000D02*
D03*
X665000D02*
D03*
X669000D02*
D03*
X835000Y160000D02*
D03*
X831000D02*
D03*
X827000D02*
D03*
X823000D02*
D03*
X819000D02*
D03*
Y190000D02*
D03*
X823000D02*
D03*
X827000D02*
D03*
X831000D02*
D03*
X835000D02*
D03*
X171000Y326000D02*
D03*
X167000D02*
D03*
X163000D02*
D03*
X159000D02*
D03*
X155000D02*
D03*
Y356000D02*
D03*
X159000D02*
D03*
X163000D02*
D03*
X167000D02*
D03*
X171000D02*
D03*
X337000Y326000D02*
D03*
X333000D02*
D03*
X329000D02*
D03*
X325000D02*
D03*
X321000D02*
D03*
Y356000D02*
D03*
X325000D02*
D03*
X329000D02*
D03*
X333000D02*
D03*
X337000D02*
D03*
X503000Y326000D02*
D03*
X499000D02*
D03*
X495000D02*
D03*
X491000D02*
D03*
X487000D02*
D03*
Y356000D02*
D03*
X491000D02*
D03*
X495000D02*
D03*
X499000D02*
D03*
X503000D02*
D03*
X669000Y326000D02*
D03*
X665000D02*
D03*
X661000D02*
D03*
X657000D02*
D03*
X653000D02*
D03*
Y356000D02*
D03*
X657000D02*
D03*
X661000D02*
D03*
X665000D02*
D03*
X669000D02*
D03*
X835000Y326000D02*
D03*
X831000D02*
D03*
X827000D02*
D03*
X823000D02*
D03*
X819000D02*
D03*
Y356000D02*
D03*
X823000D02*
D03*
X827000D02*
D03*
X831000D02*
D03*
X835000D02*
D03*
X171000Y492000D02*
D03*
X167000D02*
D03*
X163000D02*
D03*
X159000D02*
D03*
X155000D02*
D03*
Y522000D02*
D03*
X159000D02*
D03*
X163000D02*
D03*
X167000D02*
D03*
X171000D02*
D03*
X337000Y492000D02*
D03*
X333000D02*
D03*
X329000D02*
D03*
X325000D02*
D03*
X321000D02*
D03*
Y522000D02*
D03*
X325000D02*
D03*
X329000D02*
D03*
X333000D02*
D03*
X337000D02*
D03*
X503000Y492000D02*
D03*
X499000D02*
D03*
X495000D02*
D03*
X491000D02*
D03*
X487000D02*
D03*
Y522000D02*
D03*
X491000D02*
D03*
X495000D02*
D03*
X499000D02*
D03*
X503000D02*
D03*
X669000Y492000D02*
D03*
X665000D02*
D03*
X661000D02*
D03*
X657000D02*
D03*
X653000D02*
D03*
Y522000D02*
D03*
X657000D02*
D03*
X661000D02*
D03*
X665000D02*
D03*
X669000D02*
D03*
X835000Y492000D02*
D03*
X831000D02*
D03*
X827000D02*
D03*
X823000D02*
D03*
X819000D02*
D03*
Y522000D02*
D03*
X823000D02*
D03*
X827000D02*
D03*
X831000D02*
D03*
X835000D02*
D03*
X171000Y658000D02*
D03*
X167000D02*
D03*
X163000D02*
D03*
X159000D02*
D03*
X155000D02*
D03*
Y688000D02*
D03*
X159000D02*
D03*
X163000D02*
D03*
X167000D02*
D03*
X171000D02*
D03*
X337000Y658000D02*
D03*
X333000D02*
D03*
X329000D02*
D03*
X325000D02*
D03*
X321000D02*
D03*
Y688000D02*
D03*
X325000D02*
D03*
X329000D02*
D03*
X333000D02*
D03*
X337000D02*
D03*
X503000Y658000D02*
D03*
X499000D02*
D03*
X495000D02*
D03*
X491000D02*
D03*
X487000D02*
D03*
Y688000D02*
D03*
X491000D02*
D03*
X495000D02*
D03*
X499000D02*
D03*
X503000D02*
D03*
X669000Y658000D02*
D03*
X665000D02*
D03*
X661000D02*
D03*
X657000D02*
D03*
X653000D02*
D03*
Y688000D02*
D03*
X657000D02*
D03*
X661000D02*
D03*
X665000D02*
D03*
X669000D02*
D03*
X835000Y658000D02*
D03*
X831000D02*
D03*
X827000D02*
D03*
X823000D02*
D03*
X819000D02*
D03*
Y688000D02*
D03*
X823000D02*
D03*
X827000D02*
D03*
X831000D02*
D03*
X835000D02*
D03*
X171000Y824000D02*
D03*
X167000D02*
D03*
X163000D02*
D03*
X159000D02*
D03*
X155000D02*
D03*
Y854000D02*
D03*
X159000D02*
D03*
X163000D02*
D03*
X167000D02*
D03*
X171000D02*
D03*
X337000Y824000D02*
D03*
X333000D02*
D03*
X329000D02*
D03*
X325000D02*
D03*
X321000D02*
D03*
Y854000D02*
D03*
X325000D02*
D03*
X329000D02*
D03*
X333000D02*
D03*
X337000D02*
D03*
X503000Y824000D02*
D03*
X499000D02*
D03*
X495000D02*
D03*
X491000D02*
D03*
X487000D02*
D03*
Y854000D02*
D03*
X491000D02*
D03*
X495000D02*
D03*
X499000D02*
D03*
X503000D02*
D03*
X669000Y824000D02*
D03*
X665000D02*
D03*
X661000D02*
D03*
X657000D02*
D03*
X653000D02*
D03*
Y854000D02*
D03*
X657000D02*
D03*
X661000D02*
D03*
X665000D02*
D03*
X669000D02*
D03*
X835000Y824000D02*
D03*
X831000D02*
D03*
X827000D02*
D03*
X823000D02*
D03*
X819000D02*
D03*
Y854000D02*
D03*
X823000D02*
D03*
X827000D02*
D03*
X831000D02*
D03*
X835000D02*
D03*
D14*
X148000Y167000D02*
D03*
Y171000D02*
D03*
Y175000D02*
D03*
Y179000D02*
D03*
Y183000D02*
D03*
X178000D02*
D03*
Y179000D02*
D03*
Y175000D02*
D03*
Y171000D02*
D03*
Y167000D02*
D03*
X314000D02*
D03*
Y171000D02*
D03*
Y175000D02*
D03*
Y179000D02*
D03*
Y183000D02*
D03*
X344000D02*
D03*
Y179000D02*
D03*
Y175000D02*
D03*
Y171000D02*
D03*
Y167000D02*
D03*
X480000D02*
D03*
Y171000D02*
D03*
Y175000D02*
D03*
Y179000D02*
D03*
Y183000D02*
D03*
X510000D02*
D03*
Y179000D02*
D03*
Y175000D02*
D03*
Y171000D02*
D03*
Y167000D02*
D03*
X646000D02*
D03*
Y171000D02*
D03*
Y175000D02*
D03*
Y179000D02*
D03*
Y183000D02*
D03*
X676000D02*
D03*
Y179000D02*
D03*
Y175000D02*
D03*
Y171000D02*
D03*
Y167000D02*
D03*
X812000D02*
D03*
Y171000D02*
D03*
Y175000D02*
D03*
Y179000D02*
D03*
Y183000D02*
D03*
X842000D02*
D03*
Y179000D02*
D03*
Y175000D02*
D03*
Y171000D02*
D03*
Y167000D02*
D03*
X148000Y333000D02*
D03*
Y337000D02*
D03*
Y341000D02*
D03*
Y345000D02*
D03*
Y349000D02*
D03*
X178000D02*
D03*
Y345000D02*
D03*
Y341000D02*
D03*
Y337000D02*
D03*
Y333000D02*
D03*
X314000D02*
D03*
Y337000D02*
D03*
Y341000D02*
D03*
Y345000D02*
D03*
Y349000D02*
D03*
X344000D02*
D03*
Y345000D02*
D03*
Y341000D02*
D03*
Y337000D02*
D03*
Y333000D02*
D03*
X480000D02*
D03*
Y337000D02*
D03*
Y341000D02*
D03*
Y345000D02*
D03*
Y349000D02*
D03*
X510000D02*
D03*
Y345000D02*
D03*
Y341000D02*
D03*
Y337000D02*
D03*
Y333000D02*
D03*
X646000D02*
D03*
Y337000D02*
D03*
Y341000D02*
D03*
Y345000D02*
D03*
Y349000D02*
D03*
X676000D02*
D03*
Y345000D02*
D03*
Y341000D02*
D03*
Y337000D02*
D03*
Y333000D02*
D03*
X812000D02*
D03*
Y337000D02*
D03*
Y341000D02*
D03*
Y345000D02*
D03*
Y349000D02*
D03*
X842000D02*
D03*
Y345000D02*
D03*
Y341000D02*
D03*
Y337000D02*
D03*
Y333000D02*
D03*
X148000Y499000D02*
D03*
Y503000D02*
D03*
Y507000D02*
D03*
Y511000D02*
D03*
Y515000D02*
D03*
X178000D02*
D03*
Y511000D02*
D03*
Y507000D02*
D03*
Y503000D02*
D03*
Y499000D02*
D03*
X314000D02*
D03*
Y503000D02*
D03*
Y507000D02*
D03*
Y511000D02*
D03*
Y515000D02*
D03*
X344000D02*
D03*
Y511000D02*
D03*
Y507000D02*
D03*
Y503000D02*
D03*
Y499000D02*
D03*
X480000D02*
D03*
Y503000D02*
D03*
Y507000D02*
D03*
Y511000D02*
D03*
Y515000D02*
D03*
X510000D02*
D03*
Y511000D02*
D03*
Y507000D02*
D03*
Y503000D02*
D03*
Y499000D02*
D03*
X646000D02*
D03*
Y503000D02*
D03*
Y507000D02*
D03*
Y511000D02*
D03*
Y515000D02*
D03*
X676000D02*
D03*
Y511000D02*
D03*
Y507000D02*
D03*
Y503000D02*
D03*
Y499000D02*
D03*
X812000D02*
D03*
Y503000D02*
D03*
Y507000D02*
D03*
Y511000D02*
D03*
Y515000D02*
D03*
X842000D02*
D03*
Y511000D02*
D03*
Y507000D02*
D03*
Y503000D02*
D03*
Y499000D02*
D03*
X148000Y665000D02*
D03*
Y669000D02*
D03*
Y673000D02*
D03*
Y677000D02*
D03*
Y681000D02*
D03*
X178000D02*
D03*
Y677000D02*
D03*
Y673000D02*
D03*
Y669000D02*
D03*
Y665000D02*
D03*
X314000D02*
D03*
Y669000D02*
D03*
Y673000D02*
D03*
Y677000D02*
D03*
Y681000D02*
D03*
X344000D02*
D03*
Y677000D02*
D03*
Y673000D02*
D03*
Y669000D02*
D03*
Y665000D02*
D03*
X480000D02*
D03*
Y669000D02*
D03*
Y673000D02*
D03*
Y677000D02*
D03*
Y681000D02*
D03*
X510000D02*
D03*
Y677000D02*
D03*
Y673000D02*
D03*
Y669000D02*
D03*
Y665000D02*
D03*
X646000D02*
D03*
Y669000D02*
D03*
Y673000D02*
D03*
Y677000D02*
D03*
Y681000D02*
D03*
X676000D02*
D03*
Y677000D02*
D03*
Y673000D02*
D03*
Y669000D02*
D03*
Y665000D02*
D03*
X812000D02*
D03*
Y669000D02*
D03*
Y673000D02*
D03*
Y677000D02*
D03*
Y681000D02*
D03*
X842000D02*
D03*
Y677000D02*
D03*
Y673000D02*
D03*
Y669000D02*
D03*
Y665000D02*
D03*
X148000Y831000D02*
D03*
Y835000D02*
D03*
Y839000D02*
D03*
Y843000D02*
D03*
Y847000D02*
D03*
X178000D02*
D03*
Y843000D02*
D03*
Y839000D02*
D03*
Y835000D02*
D03*
Y831000D02*
D03*
X314000D02*
D03*
Y835000D02*
D03*
Y839000D02*
D03*
Y843000D02*
D03*
Y847000D02*
D03*
X344000D02*
D03*
Y843000D02*
D03*
Y839000D02*
D03*
Y835000D02*
D03*
Y831000D02*
D03*
X480000D02*
D03*
Y835000D02*
D03*
Y839000D02*
D03*
Y843000D02*
D03*
Y847000D02*
D03*
X510000D02*
D03*
Y843000D02*
D03*
Y839000D02*
D03*
Y835000D02*
D03*
Y831000D02*
D03*
X646000D02*
D03*
Y835000D02*
D03*
Y839000D02*
D03*
Y843000D02*
D03*
Y847000D02*
D03*
X676000D02*
D03*
Y843000D02*
D03*
Y839000D02*
D03*
Y835000D02*
D03*
Y831000D02*
D03*
X812000D02*
D03*
Y835000D02*
D03*
Y839000D02*
D03*
Y843000D02*
D03*
Y847000D02*
D03*
X842000D02*
D03*
Y843000D02*
D03*
Y839000D02*
D03*
Y835000D02*
D03*
Y831000D02*
D03*
D15*
X188000Y206750D02*
D03*
Y193250D02*
D03*
X354000Y206750D02*
D03*
Y193250D02*
D03*
X520000Y206750D02*
D03*
Y193250D02*
D03*
X686000Y206750D02*
D03*
Y193250D02*
D03*
X852000Y206750D02*
D03*
Y193250D02*
D03*
X188000Y372750D02*
D03*
Y359250D02*
D03*
X354000Y372750D02*
D03*
Y359250D02*
D03*
X520000Y372750D02*
D03*
Y359250D02*
D03*
X686000Y372750D02*
D03*
Y359250D02*
D03*
X852000Y372750D02*
D03*
Y359250D02*
D03*
X188000Y538750D02*
D03*
Y525250D02*
D03*
X354000Y538750D02*
D03*
Y525250D02*
D03*
X520000Y538750D02*
D03*
Y525250D02*
D03*
X686000Y538750D02*
D03*
Y525250D02*
D03*
X852000Y538750D02*
D03*
Y525250D02*
D03*
X188000Y704750D02*
D03*
Y691250D02*
D03*
X354000Y704750D02*
D03*
Y691250D02*
D03*
X520000Y704750D02*
D03*
Y691250D02*
D03*
X686000Y704750D02*
D03*
Y691250D02*
D03*
X852000Y704750D02*
D03*
Y691250D02*
D03*
X188000Y870750D02*
D03*
Y857250D02*
D03*
X354000Y870750D02*
D03*
Y857250D02*
D03*
X520000Y870750D02*
D03*
Y857250D02*
D03*
X686000Y870750D02*
D03*
Y857250D02*
D03*
X852000Y870750D02*
D03*
Y857250D02*
D03*
D16*
X160000Y225500D02*
D03*
Y234500D02*
D03*
X176000D02*
D03*
Y225500D02*
D03*
Y124500D02*
D03*
Y115500D02*
D03*
X160000D02*
D03*
Y124500D02*
D03*
X326000Y225500D02*
D03*
Y234500D02*
D03*
X342000D02*
D03*
Y225500D02*
D03*
Y124500D02*
D03*
Y115500D02*
D03*
X326000D02*
D03*
Y124500D02*
D03*
X492000Y225500D02*
D03*
Y234500D02*
D03*
X508000D02*
D03*
Y225500D02*
D03*
Y124500D02*
D03*
Y115500D02*
D03*
X492000D02*
D03*
Y124500D02*
D03*
X658000Y225500D02*
D03*
Y234500D02*
D03*
X674000D02*
D03*
Y225500D02*
D03*
Y124500D02*
D03*
Y115500D02*
D03*
X658000D02*
D03*
Y124500D02*
D03*
X824000Y225500D02*
D03*
Y234500D02*
D03*
X840000D02*
D03*
Y225500D02*
D03*
Y124500D02*
D03*
Y115500D02*
D03*
X824000D02*
D03*
Y124500D02*
D03*
X160000Y391500D02*
D03*
Y400500D02*
D03*
X176000D02*
D03*
Y391500D02*
D03*
Y290500D02*
D03*
Y281500D02*
D03*
X160000D02*
D03*
Y290500D02*
D03*
X326000Y391500D02*
D03*
Y400500D02*
D03*
X342000D02*
D03*
Y391500D02*
D03*
Y290500D02*
D03*
Y281500D02*
D03*
X326000D02*
D03*
Y290500D02*
D03*
X492000Y391500D02*
D03*
Y400500D02*
D03*
X508000D02*
D03*
Y391500D02*
D03*
Y290500D02*
D03*
Y281500D02*
D03*
X492000D02*
D03*
Y290500D02*
D03*
X658000Y391500D02*
D03*
Y400500D02*
D03*
X674000D02*
D03*
Y391500D02*
D03*
Y290500D02*
D03*
Y281500D02*
D03*
X658000D02*
D03*
Y290500D02*
D03*
X824000Y391500D02*
D03*
Y400500D02*
D03*
X840000D02*
D03*
Y391500D02*
D03*
Y290500D02*
D03*
Y281500D02*
D03*
X824000D02*
D03*
Y290500D02*
D03*
X160000Y557500D02*
D03*
Y566500D02*
D03*
X176000D02*
D03*
Y557500D02*
D03*
Y456500D02*
D03*
Y447500D02*
D03*
X160000D02*
D03*
Y456500D02*
D03*
X326000Y557500D02*
D03*
Y566500D02*
D03*
X342000D02*
D03*
Y557500D02*
D03*
Y456500D02*
D03*
Y447500D02*
D03*
X326000D02*
D03*
Y456500D02*
D03*
X492000Y557500D02*
D03*
Y566500D02*
D03*
X508000D02*
D03*
Y557500D02*
D03*
Y456500D02*
D03*
Y447500D02*
D03*
X492000D02*
D03*
Y456500D02*
D03*
X658000Y557500D02*
D03*
Y566500D02*
D03*
X674000D02*
D03*
Y557500D02*
D03*
Y456500D02*
D03*
Y447500D02*
D03*
X658000D02*
D03*
Y456500D02*
D03*
X824000Y557500D02*
D03*
Y566500D02*
D03*
X840000D02*
D03*
Y557500D02*
D03*
Y456500D02*
D03*
Y447500D02*
D03*
X824000D02*
D03*
Y456500D02*
D03*
X160000Y723500D02*
D03*
Y732500D02*
D03*
X176000D02*
D03*
Y723500D02*
D03*
Y622500D02*
D03*
Y613500D02*
D03*
X160000D02*
D03*
Y622500D02*
D03*
X326000Y723500D02*
D03*
Y732500D02*
D03*
X342000D02*
D03*
Y723500D02*
D03*
Y622500D02*
D03*
Y613500D02*
D03*
X326000D02*
D03*
Y622500D02*
D03*
X492000Y723500D02*
D03*
Y732500D02*
D03*
X508000D02*
D03*
Y723500D02*
D03*
Y622500D02*
D03*
Y613500D02*
D03*
X492000D02*
D03*
Y622500D02*
D03*
X658000Y723500D02*
D03*
Y732500D02*
D03*
X674000D02*
D03*
Y723500D02*
D03*
Y622500D02*
D03*
Y613500D02*
D03*
X658000D02*
D03*
Y622500D02*
D03*
X824000Y723500D02*
D03*
Y732500D02*
D03*
X840000D02*
D03*
Y723500D02*
D03*
Y622500D02*
D03*
Y613500D02*
D03*
X824000D02*
D03*
Y622500D02*
D03*
X160000Y889500D02*
D03*
Y898500D02*
D03*
X176000D02*
D03*
Y889500D02*
D03*
Y788500D02*
D03*
Y779500D02*
D03*
X160000D02*
D03*
Y788500D02*
D03*
X326000Y889500D02*
D03*
Y898500D02*
D03*
X342000D02*
D03*
Y889500D02*
D03*
Y788500D02*
D03*
Y779500D02*
D03*
X326000D02*
D03*
Y788500D02*
D03*
X492000Y889500D02*
D03*
Y898500D02*
D03*
X508000D02*
D03*
Y889500D02*
D03*
Y788500D02*
D03*
Y779500D02*
D03*
X492000D02*
D03*
Y788500D02*
D03*
X658000Y889500D02*
D03*
Y898500D02*
D03*
X674000D02*
D03*
Y889500D02*
D03*
Y788500D02*
D03*
Y779500D02*
D03*
X658000D02*
D03*
Y788500D02*
D03*
X824000Y889500D02*
D03*
Y898500D02*
D03*
X840000D02*
D03*
Y889500D02*
D03*
Y788500D02*
D03*
Y779500D02*
D03*
X824000D02*
D03*
Y788500D02*
D03*
D17*
X113000Y182500D02*
D03*
Y167500D02*
D03*
X279000Y182500D02*
D03*
Y167500D02*
D03*
X445000Y182500D02*
D03*
Y167500D02*
D03*
X611000Y182500D02*
D03*
Y167500D02*
D03*
X777000Y182500D02*
D03*
Y167500D02*
D03*
X113000Y348500D02*
D03*
Y333500D02*
D03*
X279000Y348500D02*
D03*
Y333500D02*
D03*
X445000Y348500D02*
D03*
Y333500D02*
D03*
X611000Y348500D02*
D03*
Y333500D02*
D03*
X777000Y348500D02*
D03*
Y333500D02*
D03*
X113000Y514500D02*
D03*
Y499500D02*
D03*
X279000Y514500D02*
D03*
Y499500D02*
D03*
X445000Y514500D02*
D03*
Y499500D02*
D03*
X611000Y514500D02*
D03*
Y499500D02*
D03*
X777000Y514500D02*
D03*
Y499500D02*
D03*
X113000Y680500D02*
D03*
Y665500D02*
D03*
X279000Y680500D02*
D03*
Y665500D02*
D03*
X445000Y680500D02*
D03*
Y665500D02*
D03*
X611000Y680500D02*
D03*
Y665500D02*
D03*
X777000Y680500D02*
D03*
Y665500D02*
D03*
X113000Y846500D02*
D03*
Y831500D02*
D03*
X279000Y846500D02*
D03*
Y831500D02*
D03*
X445000Y846500D02*
D03*
Y831500D02*
D03*
X611000Y846500D02*
D03*
Y831500D02*
D03*
X777000Y846500D02*
D03*
Y831500D02*
D03*
D18*
X131250Y175000D02*
D03*
X124750D02*
D03*
X199750D02*
D03*
X206250D02*
D03*
X199750Y182000D02*
D03*
X206250D02*
D03*
X199750Y168000D02*
D03*
X206250D02*
D03*
X297250Y175000D02*
D03*
X290750D02*
D03*
X365750D02*
D03*
X372250D02*
D03*
X365750Y182000D02*
D03*
X372250D02*
D03*
X365750Y168000D02*
D03*
X372250D02*
D03*
X463250Y175000D02*
D03*
X456750D02*
D03*
X531750D02*
D03*
X538250D02*
D03*
X531750Y182000D02*
D03*
X538250D02*
D03*
X531750Y168000D02*
D03*
X538250D02*
D03*
X629250Y175000D02*
D03*
X622750D02*
D03*
X697750D02*
D03*
X704250D02*
D03*
X697750Y182000D02*
D03*
X704250D02*
D03*
X697750Y168000D02*
D03*
X704250D02*
D03*
X795250Y175000D02*
D03*
X788750D02*
D03*
X863750D02*
D03*
X870250D02*
D03*
X863750Y182000D02*
D03*
X870250D02*
D03*
X863750Y168000D02*
D03*
X870250D02*
D03*
X131250Y341000D02*
D03*
X124750D02*
D03*
X199750D02*
D03*
X206250D02*
D03*
X199750Y348000D02*
D03*
X206250D02*
D03*
X199750Y334000D02*
D03*
X206250D02*
D03*
X297250Y341000D02*
D03*
X290750D02*
D03*
X365750D02*
D03*
X372250D02*
D03*
X365750Y348000D02*
D03*
X372250D02*
D03*
X365750Y334000D02*
D03*
X372250D02*
D03*
X463250Y341000D02*
D03*
X456750D02*
D03*
X531750D02*
D03*
X538250D02*
D03*
X531750Y348000D02*
D03*
X538250D02*
D03*
X531750Y334000D02*
D03*
X538250D02*
D03*
X629250Y341000D02*
D03*
X622750D02*
D03*
X697750D02*
D03*
X704250D02*
D03*
X697750Y348000D02*
D03*
X704250D02*
D03*
X697750Y334000D02*
D03*
X704250D02*
D03*
X795250Y341000D02*
D03*
X788750D02*
D03*
X863750D02*
D03*
X870250D02*
D03*
X863750Y348000D02*
D03*
X870250D02*
D03*
X863750Y334000D02*
D03*
X870250D02*
D03*
X131250Y507000D02*
D03*
X124750D02*
D03*
X199750D02*
D03*
X206250D02*
D03*
X199750Y514000D02*
D03*
X206250D02*
D03*
X199750Y500000D02*
D03*
X206250D02*
D03*
X297250Y507000D02*
D03*
X290750D02*
D03*
X365750D02*
D03*
X372250D02*
D03*
X365750Y514000D02*
D03*
X372250D02*
D03*
X365750Y500000D02*
D03*
X372250D02*
D03*
X463250Y507000D02*
D03*
X456750D02*
D03*
X531750D02*
D03*
X538250D02*
D03*
X531750Y514000D02*
D03*
X538250D02*
D03*
X531750Y500000D02*
D03*
X538250D02*
D03*
X629250Y507000D02*
D03*
X622750D02*
D03*
X697750D02*
D03*
X704250D02*
D03*
X697750Y514000D02*
D03*
X704250D02*
D03*
X697750Y500000D02*
D03*
X704250D02*
D03*
X795250Y507000D02*
D03*
X788750D02*
D03*
X863750D02*
D03*
X870250D02*
D03*
X863750Y514000D02*
D03*
X870250D02*
D03*
X863750Y500000D02*
D03*
X870250D02*
D03*
X131250Y673000D02*
D03*
X124750D02*
D03*
X199750D02*
D03*
X206250D02*
D03*
X199750Y680000D02*
D03*
X206250D02*
D03*
X199750Y666000D02*
D03*
X206250D02*
D03*
X297250Y673000D02*
D03*
X290750D02*
D03*
X365750D02*
D03*
X372250D02*
D03*
X365750Y680000D02*
D03*
X372250D02*
D03*
X365750Y666000D02*
D03*
X372250D02*
D03*
X463250Y673000D02*
D03*
X456750D02*
D03*
X531750D02*
D03*
X538250D02*
D03*
X531750Y680000D02*
D03*
X538250D02*
D03*
X531750Y666000D02*
D03*
X538250D02*
D03*
X629250Y673000D02*
D03*
X622750D02*
D03*
X697750D02*
D03*
X704250D02*
D03*
X697750Y680000D02*
D03*
X704250D02*
D03*
X697750Y666000D02*
D03*
X704250D02*
D03*
X795250Y673000D02*
D03*
X788750D02*
D03*
X863750D02*
D03*
X870250D02*
D03*
X863750Y680000D02*
D03*
X870250D02*
D03*
X863750Y666000D02*
D03*
X870250D02*
D03*
X131250Y839000D02*
D03*
X124750D02*
D03*
X199750D02*
D03*
X206250D02*
D03*
X199750Y846000D02*
D03*
X206250D02*
D03*
X199750Y832000D02*
D03*
X206250D02*
D03*
X297250Y839000D02*
D03*
X290750D02*
D03*
X365750D02*
D03*
X372250D02*
D03*
X365750Y846000D02*
D03*
X372250D02*
D03*
X365750Y832000D02*
D03*
X372250D02*
D03*
X463250Y839000D02*
D03*
X456750D02*
D03*
X531750D02*
D03*
X538250D02*
D03*
X531750Y846000D02*
D03*
X538250D02*
D03*
X531750Y832000D02*
D03*
X538250D02*
D03*
X629250Y839000D02*
D03*
X622750D02*
D03*
X697750D02*
D03*
X704250D02*
D03*
X697750Y846000D02*
D03*
X704250D02*
D03*
X697750Y832000D02*
D03*
X704250D02*
D03*
X795250Y839000D02*
D03*
X788750D02*
D03*
X863750D02*
D03*
X870250D02*
D03*
X863750Y846000D02*
D03*
X870250D02*
D03*
X863750Y832000D02*
D03*
X870250D02*
D03*
D19*
X218500Y183000D02*
D03*
X227500D02*
D03*
Y167000D02*
D03*
X218500D02*
D03*
X384500Y183000D02*
D03*
X393500D02*
D03*
Y167000D02*
D03*
X384500D02*
D03*
X550500Y183000D02*
D03*
X559500D02*
D03*
Y167000D02*
D03*
X550500D02*
D03*
X716500Y183000D02*
D03*
X725500D02*
D03*
Y167000D02*
D03*
X716500D02*
D03*
X882500Y183000D02*
D03*
X891500D02*
D03*
Y167000D02*
D03*
X882500D02*
D03*
X218500Y349000D02*
D03*
X227500D02*
D03*
Y333000D02*
D03*
X218500D02*
D03*
X384500Y349000D02*
D03*
X393500D02*
D03*
Y333000D02*
D03*
X384500D02*
D03*
X550500Y349000D02*
D03*
X559500D02*
D03*
Y333000D02*
D03*
X550500D02*
D03*
X716500Y349000D02*
D03*
X725500D02*
D03*
Y333000D02*
D03*
X716500D02*
D03*
X882500Y349000D02*
D03*
X891500D02*
D03*
Y333000D02*
D03*
X882500D02*
D03*
X218500Y515000D02*
D03*
X227500D02*
D03*
Y499000D02*
D03*
X218500D02*
D03*
X384500Y515000D02*
D03*
X393500D02*
D03*
Y499000D02*
D03*
X384500D02*
D03*
X550500Y515000D02*
D03*
X559500D02*
D03*
Y499000D02*
D03*
X550500D02*
D03*
X716500Y515000D02*
D03*
X725500D02*
D03*
Y499000D02*
D03*
X716500D02*
D03*
X882500Y515000D02*
D03*
X891500D02*
D03*
Y499000D02*
D03*
X882500D02*
D03*
X218500Y681000D02*
D03*
X227500D02*
D03*
Y665000D02*
D03*
X218500D02*
D03*
X384500Y681000D02*
D03*
X393500D02*
D03*
Y665000D02*
D03*
X384500D02*
D03*
X550500Y681000D02*
D03*
X559500D02*
D03*
Y665000D02*
D03*
X550500D02*
D03*
X716500Y681000D02*
D03*
X725500D02*
D03*
Y665000D02*
D03*
X716500D02*
D03*
X882500Y681000D02*
D03*
X891500D02*
D03*
Y665000D02*
D03*
X882500D02*
D03*
X218500Y847000D02*
D03*
X227500D02*
D03*
Y831000D02*
D03*
X218500D02*
D03*
X384500Y847000D02*
D03*
X393500D02*
D03*
Y831000D02*
D03*
X384500D02*
D03*
X550500Y847000D02*
D03*
X559500D02*
D03*
Y831000D02*
D03*
X550500D02*
D03*
X716500Y847000D02*
D03*
X725500D02*
D03*
Y831000D02*
D03*
X716500D02*
D03*
X882500Y847000D02*
D03*
X891500D02*
D03*
Y831000D02*
D03*
X882500D02*
D03*
D22*
X218000Y225000D02*
D03*
X118000D02*
D03*
X218000Y125000D02*
D03*
X118000D02*
D03*
X384000Y225000D02*
D03*
X284000D02*
D03*
X384000Y125000D02*
D03*
X284000D02*
D03*
X550000Y225000D02*
D03*
X450000D02*
D03*
X550000Y125000D02*
D03*
X450000D02*
D03*
X716000Y225000D02*
D03*
X616000D02*
D03*
X716000Y125000D02*
D03*
X616000D02*
D03*
X882000Y225000D02*
D03*
X782000D02*
D03*
X882000Y125000D02*
D03*
X782000D02*
D03*
X218000Y391000D02*
D03*
X118000D02*
D03*
X218000Y291000D02*
D03*
X118000D02*
D03*
X384000Y391000D02*
D03*
X284000D02*
D03*
X384000Y291000D02*
D03*
X284000D02*
D03*
X550000Y391000D02*
D03*
X450000D02*
D03*
X550000Y291000D02*
D03*
X450000D02*
D03*
X716000Y391000D02*
D03*
X616000D02*
D03*
X716000Y291000D02*
D03*
X616000D02*
D03*
X882000Y391000D02*
D03*
X782000D02*
D03*
X882000Y291000D02*
D03*
X782000D02*
D03*
X218000Y557000D02*
D03*
X118000D02*
D03*
X218000Y457000D02*
D03*
X118000D02*
D03*
X384000Y557000D02*
D03*
X284000D02*
D03*
X384000Y457000D02*
D03*
X284000D02*
D03*
X550000Y557000D02*
D03*
X450000D02*
D03*
X550000Y457000D02*
D03*
X450000D02*
D03*
X716000Y557000D02*
D03*
X616000D02*
D03*
X716000Y457000D02*
D03*
X616000D02*
D03*
X882000Y557000D02*
D03*
X782000D02*
D03*
X882000Y457000D02*
D03*
X782000D02*
D03*
X218000Y723000D02*
D03*
X118000D02*
D03*
X218000Y623000D02*
D03*
X118000D02*
D03*
X384000Y723000D02*
D03*
X284000D02*
D03*
X384000Y623000D02*
D03*
X284000D02*
D03*
X550000Y723000D02*
D03*
X450000D02*
D03*
X550000Y623000D02*
D03*
X450000D02*
D03*
X716000Y723000D02*
D03*
X616000D02*
D03*
X716000Y623000D02*
D03*
X616000D02*
D03*
X882000Y723000D02*
D03*
X782000D02*
D03*
X882000Y623000D02*
D03*
X782000D02*
D03*
X218000Y889000D02*
D03*
X118000D02*
D03*
X218000Y789000D02*
D03*
X118000D02*
D03*
X384000Y889000D02*
D03*
X284000D02*
D03*
X384000Y789000D02*
D03*
X284000D02*
D03*
X550000Y889000D02*
D03*
X450000D02*
D03*
X550000Y789000D02*
D03*
X450000D02*
D03*
X716000Y889000D02*
D03*
X616000D02*
D03*
X716000Y789000D02*
D03*
X616000D02*
D03*
X882000Y889000D02*
D03*
X782000D02*
D03*
X882000Y789000D02*
D03*
X782000D02*
D03*
M02*
